<?xml version="1.0" encoding="utf-8"?>
<!-- Generator: Adobe Illustrator 24.0.1, SVG Export Plug-In . SVG Version: 6.00 Build 0)  -->
<svg version="1.1" id="Layer_1" xmlns="http://www.w3.org/2000/svg" xmlns:xlink="http://www.w3.org/1999/xlink" x="0px" y="0px"
	 viewBox="0 0 100 100" style="enable-background:new 0 0 100 100;" xml:space="preserve">
<style type="text/css">
	.st0{fill:#BC8A19;}
	.st1{fill:#9E7519;}
	.st2{fill:#FFFFFF;}
	.st3{opacity:0.15;fill:#FFFFFF;}
</style>
<g>
	<path class="st0" d="M50,70.4c19.9,0,36.7-13.2,41.9-31.2C87.1,20.5,70.1,6.7,50,6.7S12.9,20.5,8.1,39.2
		C13.3,57.2,30.1,70.4,50,70.4z"/>
	<path class="st1" d="M50,93.3c23.9,0,43.3-19.4,43.3-43.3c0-3.7-0.5-7.4-1.4-10.8c-5.2,18-22,31.2-41.9,31.2S13.3,57.2,8.1,39.2
		C7.2,42.6,6.7,46.3,6.7,50C6.7,73.9,26.1,93.3,50,93.3z"/>
	<path class="st2" d="M50,1.6C23.3,1.6,1.6,23.3,1.6,50S23.3,98.4,50,98.4S98.4,76.7,98.4,50S76.7,1.6,50,1.6z M50,6.7
		c20.1,0,37.1,13.8,41.9,32.5c0.9,3.5,1.4,7.1,1.4,10.8c0,23.9-19.4,43.3-43.3,43.3S6.7,73.9,6.7,50c0-3.7,0.5-7.4,1.4-10.8
		C12.9,20.5,29.9,6.7,50,6.7z"/>
	<ellipse class="st3" cx="50" cy="16.3" rx="18.5" ry="9.3"/>
</g>
<g>
	<g>
		<path class="st2" d="M47.3,76.2c-0.9-0.4-2-0.6-2.8-1.2c-1.5-1-2.3-2.4-2.5-4.2c-0.1-0.9,0-1.7,0-2.6c5.3,0,10.6,0,16,0
			c0.1,2.1,0.1,4.2-1.4,5.9c-0.9,1.1-2.1,1.8-3.5,2c-0.1,0-0.3,0.1-0.4,0.1C50.9,76.2,49.1,76.2,47.3,76.2z"/>
	</g>
	<g>
		<path class="st2" d="M50,64.1c-2.6,0-5.1,0-7.7,0c-1.6,0-2.3-0.7-2.3-2.3c0-2.9-1-5.4-3-7.5c-9.2-9.6-5.2-25.6,7.5-29.6
			c8.7-2.8,17.8,1.1,21.9,9.3c3.2,6.6,2.1,14.6-2.9,20c-1.5,1.6-2.7,3.4-3.1,5.6c-0.1,0.8-0.2,1.6-0.2,2.4c-0.1,1.3-0.8,2.1-2.2,2.1
			C55.3,64.1,52.6,64.1,50,64.1z M49.7,31.9c-4.3,0.1-7.9,2.8-9.3,7.1c-0.4,1.2,0.1,2.3,1.2,2.7c1.1,0.4,2.2-0.2,2.6-1.4
			c0.9-2.8,2.9-4.1,5.7-4.3c1.3-0.1,2.2-1,2.1-2.1C51.9,32.6,51,31.8,49.7,31.9z"/>
	</g>
</g>
</svg>
