<?xml version="1.0" encoding="utf-8"?>
<!-- Generator: Adobe Illustrator 24.0.1, SVG Export Plug-In . SVG Version: 6.00 Build 0)  -->
<svg version="1.1" id="Layer_1" xmlns="http://www.w3.org/2000/svg" xmlns:xlink="http://www.w3.org/1999/xlink" x="0px" y="0px"
	 viewBox="0 0 100 100" style="enable-background:new 0 0 100 100;" xml:space="preserve">
<style type="text/css">
	.st0{fill:#112F99;}
	.st1{fill:#0A236B;}
	.st2{fill:#FFFFFF;}
	.st3{opacity:0.2;fill:#FFFFFF;}
</style>
<g>
	<path class="st0" d="M50,70.4c19.9,0,36.7-13.2,41.9-31.2C87.1,20.5,70.1,6.7,50,6.7S12.9,20.5,8.1,39.2
		C13.3,57.2,30.1,70.4,50,70.4z"/>
	<path class="st1" d="M50,93.3c23.9,0,43.3-19.4,43.3-43.3c0-3.7-0.5-7.4-1.4-10.8c-5.2,18-22,31.2-41.9,31.2S13.3,57.2,8.1,39.2
		C7.2,42.6,6.7,46.3,6.7,50C6.7,73.9,26.1,93.3,50,93.3z"/>
	<path class="st2" d="M50,1.6C23.3,1.6,1.6,23.3,1.6,50S23.3,98.4,50,98.4S98.4,76.7,98.4,50S76.7,1.6,50,1.6z M50,6.7
		c20.1,0,37.1,13.8,41.9,32.5c0.9,3.5,1.4,7.1,1.4,10.8c0,23.9-19.4,43.3-43.3,43.3S6.7,73.9,6.7,50c0-3.7,0.5-7.4,1.4-10.8
		C12.9,20.5,29.9,6.7,50,6.7z"/>
	<ellipse class="st3" cx="50" cy="16.3" rx="18.5" ry="9.3"/>
</g>
<g>
	<path class="st2" d="M23.3,39.8c0.3-0.5,0.6-1.2,1.1-1.6c0.5-0.6,1.3-0.6,2-0.6c2.8,0,5.6,0,8.4,0c0.4,0,0.7-0.1,1-0.4
		c3.2-2.4,6.4-4.8,9.5-7.2c1.4-1,3-0.8,4,0.5c0.3,0.4,0.4,0.8,0.5,1.3c0.1,0.2,0,0.5,0,0.7c0,11.6,0,23.3,0,34.9
		c0,1-0.2,1.9-1.1,2.5c-1.1,0.8-2.3,0.8-3.5,0c-1.8-1.3-3.5-2.6-5.3-4c-1.4-1.1-2.9-2.1-4.3-3.2c-0.3-0.3-0.7-0.4-1.1-0.4
		c-2.6,0-5.2-0.1-7.8,0c-1.8,0.1-3-0.5-3.6-2.2C23.3,53.4,23.3,46.6,23.3,39.8z"/>
	<path class="st2" d="M76.7,50.9c-0.1,7.9-3.2,15.4-9.3,21.7c-1.3,1.4-3.2,1.4-4.6,0.2c-1.3-1.2-1.4-3.2-0.2-4.5
		c1.4-1.5,2.7-3.1,3.8-4.8c2.9-4.8,4.2-10,3.7-15.6c-0.5-6.2-3-11.4-7.2-15.9c-1.3-1.3-1.5-3-0.6-4.4c1.2-1.7,3.5-1.8,4.9-0.3
		c2.3,2.2,4.1,4.8,5.6,7.6C75.4,39.6,76.7,44.7,76.7,50.9z"/>
	<path class="st2" d="M65.5,49.6c-0.1,6.3-2.2,11.4-6.4,15.7c-1,1-2.2,1.3-3.5,0.8c-1.3-0.5-2-1.5-2.1-2.8c-0.1-1,0.3-1.8,1-2.6
		c0.9-1.1,1.8-2.1,2.4-3.3c2.5-4.4,2.7-9,0.7-13.7C57,42,55.8,40.5,54.5,39c-1-1.1-1.2-2.3-0.6-3.7c1-2.1,3.7-2.5,5.3-0.8
		c3.4,3.5,5.5,7.7,6.1,12.6C65.4,48.1,65.5,49,65.5,49.6z"/>
</g>
</svg>
