<?xml version="1.0" encoding="utf-8"?>
<!-- Generator: Adobe Illustrator 24.0.1, SVG Export Plug-In . SVG Version: 6.00 Build 0)  -->
<svg version="1.1" id="Layer_1" xmlns="http://www.w3.org/2000/svg" xmlns:xlink="http://www.w3.org/1999/xlink" x="0px" y="0px"
	 viewBox="0 0 100 100" style="enable-background:new 0 0 100 100;" xml:space="preserve">
<style type="text/css">
	.st0{fill:#FFB600;}
	.st1{fill:#D09611;}
	.st2{fill:#FFFFFF;}
	.st3{opacity:0.15;fill:#FFFFFF;}
</style>
<g>
	<path class="st0" d="M50,70.4c19.9,0,36.7-13.2,41.9-31.2C87.1,20.5,70.1,6.7,50,6.7S12.9,20.5,8.1,39.2
		C13.3,57.2,30.1,70.4,50,70.4z"/>
	<path class="st1" d="M50,93.3c23.9,0,43.3-19.4,43.3-43.3c0-3.7-0.5-7.4-1.4-10.8c-5.2,18-22,31.2-41.9,31.2S13.3,57.2,8.1,39.2
		C7.2,42.6,6.7,46.3,6.7,50C6.7,73.9,26.1,93.3,50,93.3z"/>
	<path class="st2" d="M50,1.6C23.3,1.6,1.6,23.3,1.6,50S23.3,98.4,50,98.4S98.4,76.7,98.4,50S76.7,1.6,50,1.6z M50,6.7
		c20.1,0,37.1,13.8,41.9,32.5c0.9,3.5,1.4,7.1,1.4,10.8c0,23.9-19.4,43.3-43.3,43.3S6.7,73.9,6.7,50c0-3.7,0.5-7.4,1.4-10.8
		C12.9,20.5,29.9,6.7,50,6.7z"/>
	<ellipse class="st3" cx="50" cy="16.3" rx="18.5" ry="9.3"/>
</g>
<g>
	<g>
		<path class="st2" d="M69,29.8c-2.8,4.9-5.6,9.8-8.4,14.6c-4.6,7.9-9.2,15.9-13.8,23.8c-0.1,0.2-0.2,0.4-0.4,0.6
			c-1.9-1.1-3.8-2.2-5.8-3.4c7.7-13.4,15.4-26.7,23.2-40.2c1.5,0.9,3,1.7,4.5,2.6c0.3,0.2,0.5,0.6,0.7,0.9C69,29.2,69,29.5,69,29.8z
			"/>
	</g>
	<g>
		<path class="st2" d="M61.8,24.2C54,37.6,46.3,51,38.6,64.4c-1.9-1.1-3.9-2.2-5.8-3.4c0.1-0.2,0.2-0.4,0.3-0.6
			c7.2-12.5,14.5-25.1,21.7-37.6c0.8-1.4,1.7-1.6,3.1-0.8C59.2,22.7,60.4,23.4,61.8,24.2z"/>
	</g>
	<g>
		<path class="st2" d="M31.4,63c-0.2,0.8-0.4,1.4-0.4,2.1c0,2,0,4,0,6.1c0,0,0,0,0,0.1l0.1,3.2c0,0,0,0,0,0c0,1.3,0,2.5,0,3.8
			c0,0.6,0.7,1,1.2,0.8c1.1-0.6,2.2-1.2,3.4-1.9c-0.1,0-0.2-0.1-0.3-0.1l0.3,0.1l2.7-1.5c0,0,0.1,0,0.1,0c1.8-1,3.6-2,5.4-3.1
			c0.6-0.3,1-0.9,1.5-1.4C40.7,68.3,36.2,65.7,31.4,63z"/>
	</g>
</g>
</svg>
