<?xml version="1.0" encoding="utf-8"?>
<!-- Generator: Adobe Illustrator 24.0.1, SVG Export Plug-In . SVG Version: 6.00 Build 0)  -->
<svg version="1.1" id="Layer_1" xmlns="http://www.w3.org/2000/svg" xmlns:xlink="http://www.w3.org/1999/xlink" x="0px" y="0px"
	 viewBox="0 0 100 100" style="enable-background:new 0 0 100 100;" xml:space="preserve">
<style type="text/css">
	.st0{fill:#036666;}
	.st1{fill:#034240;}
	.st2{fill:#FFFFFF;}
	.st3{opacity:0.15;fill:#FFFFFF;}
</style>
<g>
	<path class="st0" d="M50,70.4c19.9,0,36.7-13.2,41.9-31.2C87.1,20.5,70.1,6.7,50,6.7S12.9,20.5,8.1,39.2
		C13.3,57.2,30.1,70.4,50,70.4z"/>
	<path class="st1" d="M50,93.3c23.9,0,43.3-19.4,43.3-43.3c0-3.7-0.5-7.4-1.4-10.8c-5.2,18-22,31.2-41.9,31.2S13.3,57.2,8.1,39.2
		C7.2,42.6,6.7,46.3,6.7,50C6.7,73.9,26.1,93.3,50,93.3z"/>
	<path class="st2" d="M50,1.6C23.3,1.6,1.6,23.3,1.6,50S23.3,98.4,50,98.4S98.4,76.7,98.4,50S76.7,1.6,50,1.6z M50,6.7
		c20.1,0,37.1,13.8,41.9,32.5c0.9,3.5,1.4,7.1,1.4,10.8c0,23.9-19.4,43.3-43.3,43.3S6.7,73.9,6.7,50c0-3.7,0.5-7.4,1.4-10.8
		C12.9,20.5,29.9,6.7,50,6.7z"/>
	<ellipse class="st3" cx="50" cy="16.3" rx="18.5" ry="9.3"/>
</g>
<g>
	<g>
		<path class="st2" d="M24.9,64.8c0.4-0.8,1.1-1,2-1c2.6,0,5.2,0,7.8,0c0.2,0,0.4,0,0.6,0c0,3.3,0,6.5,0,9.8c-3.1,0-6.2,0-9.3,0
			c-0.5-0.2-0.8-0.6-1.1-1C24.9,70,24.9,67.4,24.9,64.8z"/>
	</g>
	<g>
		<path class="st2" d="M38.3,73.6c0-3.2,0-6.5,0-9.7c3.4,0,6.8,0,10.3,0c0,3.2,0,6.5,0,9.7C45.1,73.6,41.7,73.6,38.3,73.6z"/>
	</g>
	<g>
		<path class="st2" d="M24.9,40c0.4-0.8,1.1-1,2-1c2.6,0,5.2,0,7.8,0c0.2,0,0.4,0,0.6,0c0,3.2,0,6.4,0,9.7c-0.2,0-0.3,0-0.5,0
			c-2.6,0-5.3,0-7.9,0c-0.9,0-1.6-0.2-2-1C24.9,45.1,24.9,42.5,24.9,40z"/>
	</g>
	<g>
		<path class="st2" d="M51.5,73.6c0-3.2,0-6.5,0-9.7c0.2,0,0.3,0,0.5,0c2.7,0,5.4,0,8.1,0c1.1,0,1.7,0.5,1.7,1.6c0,2.1,0,4.2,0,6.3
			c0,0.9-0.2,1.5-1.1,1.9C57.6,73.6,54.5,73.6,51.5,73.6z"/>
	</g>
	<g>
		<path class="st2" d="M24.9,72.5c0.2,0.5,0.6,0.8,1.1,1c-0.4,0-0.7,0-1.1,0C24.9,73.2,24.9,72.9,24.9,72.5z"/>
	</g>
	<g>
		<path class="st2" d="M64.7,36.2c0-3.3,0-6.5,0-9.8c0.2,0,0.3,0,0.5,0c2.7,0,5.4,0,8.1,0c1.2,0,1.7,0.5,1.7,1.6c0,2.2,0,4.4,0,6.6
			c0,1-0.6,1.6-1.7,1.6C70.5,36.2,67.6,36.2,64.7,36.2z"/>
	</g>
	<g>
		<path class="st2" d="M61.7,26.5c0,3.2,0,6.5,0,9.7c-3.4,0-6.8,0-10.2,0c0-3.2,0-6.4,0-9.7C54.9,26.5,58.3,26.5,61.7,26.5z"/>
	</g>
	<g>
		<path class="st2" d="M48.5,26.4c0,3.3,0,6.5,0,9.7c-0.2,0-0.3,0-0.5,0c-2.7,0-5.4,0-8.1,0c-1.1,0-1.7-0.5-1.7-1.6
			c0-2.2,0-4.4,0-6.6c0-1,0.6-1.6,1.6-1.6C42.8,26.4,45.6,26.4,48.5,26.4z"/>
	</g>
	<g>
		<path class="st2" d="M64.7,61c0-3.2,0-6.4,0-9.6c0.2,0,0.3,0,0.5,0c2.7,0,5.4,0,8.2,0c1.1,0,1.7,0.5,1.7,1.6c0,2.2,0,4.3,0,6.5
			c0,1-0.6,1.6-1.6,1.6C70.5,61,67.6,61,64.7,61z"/>
	</g>
	<g>
		<path class="st2" d="M61.7,51.4c0,3.2,0,6.4,0,9.6c-3.4,0-6.8,0-10.2,0c0-3.2,0-6.4,0-9.6C54.9,51.4,58.3,51.4,61.7,51.4z"/>
	</g>
	<g>
		<path class="st2" d="M38.3,48.6c0-3.2,0-6.4,0-9.7c0.2,0,0.3,0,0.5,0c2.7,0,5.3,0,8,0c1.1,0,1.7,0.5,1.7,1.6c0,2.2,0,4.3,0,6.5
			c0,1-0.6,1.6-1.6,1.6C44,48.6,41.2,48.6,38.3,48.6z"/>
	</g>
	<g>
		<path class="st2" d="M48.5,51.4c0,3.2,0,6.4,0,9.6c-0.2,0-0.3,0-0.5,0c-2.7,0-5.4,0-8.1,0c-1.1,0-1.7-0.5-1.7-1.6
			c0-2.2,0-4.3,0-6.5c0-1,0.6-1.6,1.7-1.6C42.8,51.4,45.6,51.4,48.5,51.4z"/>
	</g>
</g>
</svg>
