<?xml version="1.0" encoding="utf-8"?>
<!-- Generator: Adobe Illustrator 24.0.1, SVG Export Plug-In . SVG Version: 6.00 Build 0)  -->
<svg version="1.1" id="Layer_1" xmlns="http://www.w3.org/2000/svg" xmlns:xlink="http://www.w3.org/1999/xlink" x="0px" y="0px"
	 viewBox="0 0 100 100" style="enable-background:new 0 0 100 100;" xml:space="preserve">
<style type="text/css">
	.st0{fill:#874316;}
	.st1{fill:#6A330F;}
	.st2{fill:#FFFFFF;}
	.st3{opacity:0.15;fill:#FFFFFF;}
</style>
<g>
	<path class="st0" d="M50,70.4c19.9,0,36.7-13.2,41.9-31.2C87.1,20.5,70.1,6.7,50,6.7S12.9,20.5,8.1,39.2
		C13.3,57.2,30.1,70.4,50,70.4z"/>
	<path class="st1" d="M50,93.3c23.9,0,43.3-19.4,43.3-43.3c0-3.7-0.5-7.4-1.4-10.8c-5.2,18-22,31.2-41.9,31.2S13.3,57.2,8.1,39.2
		C7.2,42.6,6.7,46.3,6.7,50C6.7,73.9,26.1,93.3,50,93.3z"/>
	<path class="st2" d="M50,1.6C23.3,1.6,1.6,23.3,1.6,50S23.3,98.4,50,98.4S98.4,76.7,98.4,50S76.7,1.6,50,1.6z M50,6.7
		c20.1,0,37.1,13.8,41.9,32.5c0.9,3.5,1.4,7.1,1.4,10.8c0,23.9-19.4,43.3-43.3,43.3S6.7,73.9,6.7,50c0-3.7,0.5-7.4,1.4-10.8
		C12.9,20.5,29.9,6.7,50,6.7z"/>
	<ellipse class="st3" cx="50" cy="16.3" rx="18.5" ry="9.3"/>
</g>
<path class="st2" d="M43.7,22.3c0,1.4,0,2.7,0,4c-4.3,0-8.6,0-12.9,0c0,15.8,0,31.6,0,47.4c4.3,0,8.5,0,12.9,0c0,1.4,0,2.8,0,4.1
	c0.1,0,0.2,0,0.3,0c1.1-0.2,2.2-0.5,3.3-0.7c6.5-1.2,13-2.3,19.5-3.5c0.1,0,0.2-0.1,0.4-0.1c0-15.7,0-31.4,0-47.1
	C59.4,25.1,51.6,23.7,43.7,22.3z M43.7,69.9c-3,0-6,0-9,0c0-13.2,0-26.4,0-39.7c3,0,6,0,9,0C43.7,43.4,43.7,56.7,43.7,69.9z
	 M48,52.7c-1.1,0-2-1.1-2-2.5s0.9-2.5,2-2.5c1.1,0,2,1.1,2,2.5S49.1,52.7,48,52.7z"/>
</svg>
