<?xml version="1.0" encoding="utf-8"?>
<!-- Generator: Adobe Illustrator 24.0.1, SVG Export Plug-In . SVG Version: 6.00 Build 0)  -->
<svg version="1.1" id="Layer_1" xmlns="http://www.w3.org/2000/svg" xmlns:xlink="http://www.w3.org/1999/xlink" x="0px" y="0px"
	 viewBox="0 0 100 100" style="enable-background:new 0 0 100 100;" xml:space="preserve">
<style type="text/css">
	.st0{fill:#4390ED;}
	.st1{fill:#1D76CE;}
	.st2{fill:#FFFFFF;}
	.st3{opacity:0.15;fill:#FFFFFF;}
	.st4{fill:none;}
</style>
<g>
	<path class="st0" d="M50,70.4c19.9,0,36.7-13.2,41.9-31.2C87.1,20.5,70.1,6.7,50,6.7S12.9,20.5,8.1,39.2
		C13.3,57.2,30.1,70.4,50,70.4z"/>
	<path class="st1" d="M50,93.3c23.9,0,43.3-19.4,43.3-43.3c0-3.7-0.5-7.4-1.4-10.8c-5.2,18-22,31.2-41.9,31.2S13.3,57.2,8.1,39.2
		C7.2,42.6,6.7,46.3,6.7,50C6.7,73.9,26.1,93.3,50,93.3z"/>
	<path class="st2" d="M50,1.6C23.3,1.6,1.6,23.3,1.6,50S23.3,98.4,50,98.4S98.4,76.7,98.4,50S76.7,1.6,50,1.6z M50,6.7
		c20.1,0,37.1,13.8,41.9,32.5c0.9,3.5,1.4,7.1,1.4,10.8c0,23.9-19.4,43.3-43.3,43.3S6.7,73.9,6.7,50c0-3.7,0.5-7.4,1.4-10.8
		C12.9,20.5,29.9,6.7,50,6.7z"/>
	<ellipse class="st3" cx="50" cy="16.3" rx="18.5" ry="9.3"/>
</g>
<g>
	<path class="st2" d="M68.9,42.5c-0.6,0-1.2,0.1-1.8,0.1c-5.2,0.9-9.2,5.4-9.2,10.9c0,5.5,4,10,9.2,10.9c0.6,0.1,1.2,0.1,1.8,0.1
		c6.1,0,11.1-5,11.1-11.1C80,47.4,75,42.5,68.9,42.5z M67,60.7l-6.5-5.4l2.6-3.1l3.1,2.6l6.7-9.4l3.3,2.3L67,60.7z"/>
	<path class="st4" d="M43.7,35.6V34c0-0.1,0-0.1,0-0.2v2C43.7,35.7,43.7,35.7,43.7,35.6z"/>
	<path class="st4" d="M31.1,33.9c0,0,0,0.1,0,0.1v1.6c0,0,0,0.1,0,0.1V33.9z"/>
	<path class="st4" d="M39.3,65c0,0,0-0.1,0-0.1v-1.6c0,0,0-0.1,0-0.1V65z"/>
	<path class="st4" d="M43.6,55.4c0-0.1,0-0.1,0-0.2v-1.6c0-0.1,0-0.1,0-0.2V55.4z"/>
	<path class="st4" d="M31,43.8v1.6c0,0,0,0.1,0,0.1v-1.8C31.1,43.7,31,43.7,31,43.8z"/>
	<path class="st4" d="M31,63.3v1.6c0,0,0,0.1,0,0.1v-1.8C31.1,63.2,31,63.3,31,63.3z"/>
	<path class="st4" d="M31,53.6v1.6c0,0,0,0.1,0,0.1v-1.8C31.1,53.5,31,53.6,31,53.6z"/>
	<path class="st4" d="M48.6,45.5c0-0.1,0-0.1,0-0.2v-1.6c0-0.1,0-0.1,0-0.2V45.5z"/>
	<path class="st2" d="M67.1,39.9v-9.8c0-1.8-1.4-3.2-3.2-3.2H29c-1.8,0-3.2,1.4-3.2,3.2v39.2c0,1.8,1.4,3.2,3.2,3.2h34.9
		c1.8,0,3.2-1.4,3.2-3.2v-2.2c-7-0.6-12.5-6.5-12.5-13.6C54.6,46.4,60.1,40.5,67.1,39.9z M31,34c0,0,0-0.1,0-0.1v-0.3
		c0-0.5,0.4-1,1-1h10.7c0.5,0,1,0.4,1,1v0.2c0,0.1,0,0.1,0,0.2v1.6c0,0.1,0,0.1,0,0.2v0.1c0,0.5-0.4,1-1,1H32c-0.5,0-1-0.4-1-1v-0.2
		c0,0,0-0.1,0-0.1V34z M39.3,64.9c0,0,0,0.1,0,0.1v0.1c0,0.5-0.4,1-1,1H32c-0.5,0-1-0.4-1-1V65c0,0,0-0.1,0-0.1v-1.6
		c0,0,0-0.1,0-0.1v-0.3c0-0.5,0.4-1,1-1h6.3c0.5,0,1,0.4,1,1v0.2c0,0,0,0.1,0,0.1V64.9z M43.7,55.2c0,0.1,0,0.1,0,0.2v0.1
		c0,0.5-0.4,1-1,1H32c-0.5,0-1-0.4-1-1v-0.1c0,0,0-0.1,0-0.1v-1.6c0,0,0-0.1,0-0.1v-0.3c0-0.5,0.4-1,1-1h10.7c0.5,0,1,0.4,1,1v0.3
		c0,0.1,0,0.1,0,0.2V55.2z M48.6,45.4c0,0.1,0,0.1,0,0.2v0.2c0,0.5-0.4,1-1,1H32c-0.5,0-1-0.4-1-1v-0.2c0,0,0-0.1,0-0.1v-1.6
		c0,0,0-0.1,0-0.1v-0.3c0-0.5,0.4-1,1-1h15.6c0.5,0,1,0.4,1,1v0.2c0,0.1,0,0.1,0,0.2V45.4z"/>
</g>
</svg>
