<?xml version="1.0" encoding="utf-8"?>
<!-- Generator: Adobe Illustrator 24.0.1, SVG Export Plug-In . SVG Version: 6.00 Build 0)  -->
<svg version="1.1" id="Layer_1" xmlns="http://www.w3.org/2000/svg" xmlns:xlink="http://www.w3.org/1999/xlink" x="0px" y="0px"
	 viewBox="0 0 100 100" style="enable-background:new 0 0 100 100;" xml:space="preserve">
<style type="text/css">
	.st0{fill:#EC008C;}
	.st1{fill:#C10075;}
	.st2{fill:#FFFFFF;}
	.st3{opacity:0.38;fill:#FFFFFF;}
</style>
<g>
	<path class="st0" d="M50,70.4c19.9,0,36.7-13.2,41.9-31.2C87.1,20.5,70.1,6.7,50,6.7S12.9,20.5,8.1,39.2
		C13.3,57.2,30.1,70.4,50,70.4z"/>
	<path class="st1" d="M50,93.3c23.9,0,43.3-19.4,43.3-43.3c0-3.7-0.5-7.4-1.4-10.8c-5.2,18-22,31.2-41.9,31.2S13.3,57.2,8.1,39.2
		C7.2,42.6,6.7,46.3,6.7,50C6.7,73.9,26.1,93.3,50,93.3z"/>
	<path class="st2" d="M50,1.6C23.3,1.6,1.6,23.3,1.6,50S23.3,98.4,50,98.4S98.4,76.7,98.4,50S76.7,1.6,50,1.6z M50,6.7
		c20.1,0,37.1,13.8,41.9,32.5c0.9,3.5,1.4,7.1,1.4,10.8c0,23.9-19.4,43.3-43.3,43.3S6.7,73.9,6.7,50c0-3.7,0.5-7.4,1.4-10.8
		C12.9,20.5,29.9,6.7,50,6.7z"/>
	<ellipse class="st3" cx="50" cy="16.3" rx="18.5" ry="9.3"/>
</g>
<g>
	<g>
		<path class="st2" d="M50.5,23.7c6.9,2.9,13.7,5.8,20.6,8.6c0.7,0.3,1.4,0.7,1.4,1.6c0,0.9-0.6,1.3-1.4,1.6c-6.7,3-13.5,6-20.2,9
			c-0.6,0.3-1.2,0.3-1.9,0c-6.8-3-13.6-6.1-20.4-9.1c-1-0.4-1.4-1.1-1.1-1.9c0.2-0.6,0.6-0.8,1.1-1.1c2.9-1.2,5.8-2.5,8.7-3.7
			c3.6-1.5,7.2-3.1,10.9-4.6c0.4-0.2,0.8-0.3,1.2-0.5C49.8,23.7,50.2,23.7,50.5,23.7z M38.6,36.1c1.1,0,2.2-0.2,3.1-1
			c1-0.8,1-2,0-2.8c-1.5-1.3-4.7-1.3-6.2,0c-1,0.8-1,2,0,2.8C36.5,35.9,37.5,36.1,38.6,36.1z M61.2,31.4c-1,0-2.1,0.3-2.9,0.9
			c-1.1,0.8-1.1,2.1,0,2.9c1.6,1.2,4.5,1.2,6.1-0.1c1-0.8,1-2,0-2.8C63.5,31.7,62.4,31.5,61.2,31.4z M50,31.5
			c-1.1,0-2.2,0.2-3.1,0.9c-1,0.8-1,2,0,2.8c1.6,1.2,4.6,1.3,6.2,0c1.1-0.8,1-2,0-2.8C52.1,31.7,51.1,31.5,50,31.5z"/>
	</g>
	<g>
		<path class="st2" d="M49,61.3c0,4.4,0,8.8,0,13.3c0,0.5-0.1,1-0.5,1.4c-0.6,0.5-1.2,0.5-1.9,0.2c-3.2-1.5-6.5-2.9-9.7-4.3
			c-3.2-1.4-6.4-2.9-9.6-4.3c-1.4-0.6-2.1-1.7-2.1-3.2c0-8.5,0-17,0-25.5c0-1,0.4-1.7,1.2-1.8c0.4-0.1,0.9,0,1.2,0.2
			c4.6,2,9.2,4.1,13.8,6.1c2.1,0.9,4.2,1.9,6.3,2.8c0.9,0.4,1.2,1,1.2,1.9C49,52.5,49,56.9,49,61.3z M39,55.8c0-1.2-0.3-2.4-1.2-3.4
			c-0.8-0.9-2-0.9-2.7,0.2c-1.2,1.6-1,4.7,0.3,6.2c0.9,1,2.1,0.9,2.8-0.2C38.9,57.8,39,56.9,39,55.8z"/>
	</g>
	<g>
		<path class="st2" d="M51,61.3c0-4.4,0-8.7,0-13.1c0-1,0.4-1.6,1.3-2c6.7-3,13.4-6,20.1-8.9c0.4-0.2,0.9-0.2,1.3-0.2
			c0.6,0.1,0.9,0.5,1,1.1c0,0.3,0.1,0.5,0.1,0.8c0,8.4,0,16.8,0,25.1c0,1.7-0.7,2.8-2.3,3.5c-6.4,2.8-12.7,5.6-19,8.5
			c-0.4,0.2-0.8,0.3-1.2,0.3c-0.8-0.1-1.3-0.7-1.3-1.6c0-1.3,0-2.5,0-3.8C51,67.7,51,64.5,51,61.3z M56.3,64c0,1,0.2,1.9,0.7,2.8
			c0.8,1.1,2,1.2,2.8,0.2c1.3-1.5,1.5-4.4,0.4-6c-0.8-1.2-2-1.3-2.9-0.2C56.6,61.6,56.4,62.8,56.3,64z M69.8,48.9
			c0-1.6-0.2-2.5-0.7-3.2c-0.8-1.2-2-1.3-2.9-0.2c-1.3,1.5-1.5,4.4-0.4,6c0.8,1.2,2,1.2,2.9,0.2C69.5,50.8,69.7,49.7,69.8,48.9z"/>
	</g>
</g>
</svg>
