<?xml version="1.0" encoding="utf-8"?>
<!-- Generator: Adobe Illustrator 24.0.1, SVG Export Plug-In . SVG Version: 6.00 Build 0)  -->
<svg version="1.1" id="Layer_1" xmlns="http://www.w3.org/2000/svg" xmlns:xlink="http://www.w3.org/1999/xlink" x="0px" y="0px"
	 viewBox="0 0 100 100" style="enable-background:new 0 0 100 100;" xml:space="preserve">
<style type="text/css">
	.st0{fill:#8FBA19;}
	.st1{fill:#759C33;}
	.st2{fill:#FFFFFF;}
	.st3{opacity:0.15;fill:#FFFFFF;}
</style>
<g>
	<path class="st0" d="M50,70.4c19.9,0,36.7-13.2,41.9-31.2C87.1,20.5,70.1,6.7,50,6.7S12.9,20.5,8.1,39.2
		C13.3,57.2,30.1,70.4,50,70.4z"/>
	<path class="st1" d="M50,93.3c23.9,0,43.3-19.4,43.3-43.3c0-3.7-0.5-7.4-1.4-10.8c-5.2,18-22,31.2-41.9,31.2S13.3,57.2,8.1,39.2
		C7.2,42.6,6.7,46.3,6.7,50C6.7,73.9,26.1,93.3,50,93.3z"/>
	<path class="st2" d="M50,1.6C23.3,1.6,1.6,23.3,1.6,50S23.3,98.4,50,98.4S98.4,76.7,98.4,50S76.7,1.6,50,1.6z M50,6.7
		c20.1,0,37.1,13.8,41.9,32.5c0.9,3.5,1.4,7.1,1.4,10.8c0,23.9-19.4,43.3-43.3,43.3S6.7,73.9,6.7,50c0-3.7,0.5-7.4,1.4-10.8
		C12.9,20.5,29.9,6.7,50,6.7z"/>
	<ellipse class="st3" cx="50" cy="16.3" rx="18.5" ry="9.3"/>
</g>
<g>
	<path class="st2" d="M75.6,26.6c-17.1,0-34.2,0-51.2,0c-1.6,0-2.2,0.6-2.2,2.2c0,1,0,1.9,0,2.9c0,1.2,0.7,1.9,1.9,1.9
		c0.5,0,1,0,1.5,0c0,0.2,0,0.4,0,0.6c0,8.9,0,17.9,0,26.8c0,2.5,1.4,3.9,3.9,3.9c6,0,12,0,18,0c0.2,0,0.4,0,0.7,0c0,1.4,0,2.8,0,4.1
		c0,0.1-0.2,0.3-0.4,0.4c-1.3,0.9-2.7,1.8-4.1,2.7c-0.6,0.4-0.9,1-0.7,1.8c0.1,0.7,0.6,1.3,1.4,1.3c0.5,0,1-0.1,1.4-0.4
		c1.3-0.8,2.5-1.6,3.7-2.4c0.3-0.2,0.6-0.2,0.9,0c1.3,0.9,2.5,1.7,3.8,2.5c0.7,0.5,1.5,0.4,2.1-0.1c0.6-0.5,0.8-1.3,0.4-2
		c-0.2-0.3-0.5-0.6-0.8-0.8c-1.3-0.9-2.6-1.8-3.9-2.6c-0.2-0.1-0.3-0.3-0.3-0.5c0-1.3,0-2.6,0-4c0.2,0,0.4,0,0.7,0c6,0,12-0.1,18,0
		c2.3,0,4-1.6,4-4c-0.1-8.9,0-17.7,0-26.6c0-0.2,0-0.4,0-0.7c0.4,0,0.8,0,1.2,0c1.1,0.1,1.8-0.3,2.2-1.3c0-1.4,0-2.9,0-4.3
		C77.4,27,76.6,26.6,75.6,26.6z M57.8,45.2l-3.1,3c-0.2,0.2-0.3,0.4-0.2,0.7l0.7,4.3c0.1,0.6-0.5,1.1-1.1,0.8l-3.8-2
		c-0.2-0.1-0.5-0.1-0.7,0l-3.8,2c-0.5,0.3-1.2-0.2-1.1-0.8l0.7-4.3c0-0.2,0-0.5-0.2-0.7l-3.1-3c-0.4-0.4-0.2-1.2,0.4-1.3l4.3-0.6
		c0.2,0,0.4-0.2,0.6-0.4l1.9-3.9c0.3-0.6,1.1-0.6,1.3,0l1.9,3.9c0.1,0.2,0.3,0.4,0.6,0.4l4.3,0.6C58,44.1,58.3,44.8,57.8,45.2z"/>
</g>
</svg>
