<?xml version="1.0" encoding="utf-8"?>
<!-- Generator: Adobe Illustrator 24.0.1, SVG Export Plug-In . SVG Version: 6.00 Build 0)  -->
<svg version="1.1" id="Layer_1" xmlns="http://www.w3.org/2000/svg" xmlns:xlink="http://www.w3.org/1999/xlink" x="0px" y="0px"
	 viewBox="0 0 100 100" style="enable-background:new 0 0 100 100;" xml:space="preserve">
<style type="text/css">
	.st0{fill:#0A62E2;}
	.st1{fill:#0451AD;}
	.st2{fill:#FFFFFF;}
	.st3{opacity:0.15;fill:#FFFFFF;}
</style>
<g>
	<path class="st0" d="M50,70.4c19.9,0,36.7-13.2,41.9-31.2C87.1,20.5,70.1,6.7,50,6.7S12.9,20.5,8.1,39.2
		C13.3,57.2,30.1,70.4,50,70.4z"/>
	<path class="st1" d="M50,93.3c23.9,0,43.3-19.4,43.3-43.3c0-3.7-0.5-7.4-1.4-10.8c-5.2,18-22,31.2-41.9,31.2S13.3,57.2,8.1,39.2
		C7.2,42.6,6.7,46.3,6.7,50C6.7,73.9,26.1,93.3,50,93.3z"/>
	<path class="st2" d="M50,1.6C23.3,1.6,1.6,23.3,1.6,50S23.3,98.4,50,98.4S98.4,76.7,98.4,50S76.7,1.6,50,1.6z M50,6.7
		c20.1,0,37.1,13.8,41.9,32.5c0.9,3.5,1.4,7.1,1.4,10.8c0,23.9-19.4,43.3-43.3,43.3S6.7,73.9,6.7,50c0-3.7,0.5-7.4,1.4-10.8
		C12.9,20.5,29.9,6.7,50,6.7z"/>
	<ellipse class="st3" cx="50" cy="16.3" rx="18.5" ry="9.3"/>
</g>
<g>
	<g>
		<path class="st2" d="M75.4,29c-0.1,1-0.2,2-0.4,2.9c-0.7,4.5-2.2,8.6-4.4,12.6c-2,3.7-4.6,7-7.7,9.8c-0.3,0.3-0.3,0.5-0.3,0.9
			c-0.3,6.6-2.8,12.3-7.4,17.1c-0.2,0.2-0.6,0.4-0.9,0.5c-0.6,0.1-1-0.4-1.1-1c-0.4-2.6-0.7-5.1-1.1-7.8c-0.3,0.3-0.6,0.5-0.9,0.8
			c-0.7,0.7-1.2,0.7-1.9-0.1c-4.3-4.3-8.5-8.5-12.8-12.8c-0.7-0.7-0.7-1.2-0.1-1.9c0.2-0.3,0.5-0.5,0.8-0.9
			c-1.3-0.2-2.5-0.4-3.7-0.5c-1.4-0.2-2.8-0.4-4.2-0.6c-0.4-0.1-0.8-0.3-0.9-0.7c-0.2-0.5,0-0.8,0.3-1.2c3-3,6.5-5.1,10.6-6.4
			c2.2-0.7,4.5-1.1,6.9-1.2c0.2,0,0.5-0.1,0.7-0.3c5.5-5.9,12.2-9.7,20-11.6c2.3-0.6,4.7-0.8,7.1-0.8c0.7,0,1.1,0.2,1.4,0.8
			C75.4,27.4,75.4,28.2,75.4,29z M66.4,40c0-2.8-2.3-5.2-5.2-5.2c-2.8,0-5.1,2.3-5.2,5.2c0,2.8,2.3,5.2,5.2,5.2
			C64,45.2,66.4,42.9,66.4,40z"/>
	</g>
	<g>
		<path class="st2" d="M25.4,74.2c-0.8-0.4-0.9-0.8-0.7-1.6c1.2-3.7,2.4-7.5,4.1-11c0.8-1.6,1.9-2.9,3.7-3.6c2.8-1,5.9,0,7.6,2.5
			c1.6,2.5,1.4,5.8-0.7,7.9c-0.9,0.9-2.1,1.4-3.2,2c-3.2,1.5-6.4,2.5-9.8,3.6c-0.2,0.1-0.3,0.1-0.5,0.2
			C25.7,74.2,25.5,74.2,25.4,74.2z"/>
	</g>
</g>
</svg>
