<?xml version="1.0" encoding="utf-8"?>
<!-- Generator: Adobe Illustrator 24.0.1, SVG Export Plug-In . SVG Version: 6.00 Build 0)  -->
<svg version="1.1" id="Layer_1" xmlns="http://www.w3.org/2000/svg" xmlns:xlink="http://www.w3.org/1999/xlink" x="0px" y="0px"
	 viewBox="0 0 100 100" style="enable-background:new 0 0 100 100;" xml:space="preserve">
<style type="text/css">
	.st0{fill:#21D7DB;}
	.st1{fill:#40A4AD;}
	.st2{fill:#FFFFFF;}
	.st3{opacity:0.3;fill:#FFFFFF;}
</style>
<g>
	<path class="st0" d="M50,70.4c19.9,0,36.7-13.2,41.9-31.2C87.1,20.5,70.1,6.7,50,6.7S12.9,20.5,8.1,39.2
		C13.3,57.2,30.1,70.4,50,70.4z"/>
	<path class="st1" d="M50,93.3c23.9,0,43.3-19.4,43.3-43.3c0-3.7-0.5-7.4-1.4-10.8c-5.2,18-22,31.2-41.9,31.2S13.3,57.2,8.1,39.2
		C7.2,42.6,6.7,46.3,6.7,50C6.7,73.9,26.1,93.3,50,93.3z"/>
	<path class="st2" d="M50,1.6C23.3,1.6,1.6,23.3,1.6,50S23.3,98.4,50,98.4S98.4,76.7,98.4,50S76.7,1.6,50,1.6z M50,6.7
		c20.1,0,37.1,13.8,41.9,32.5c0.9,3.5,1.4,7.1,1.4,10.8c0,23.9-19.4,43.3-43.3,43.3S6.7,73.9,6.7,50c0-3.7,0.5-7.4,1.4-10.8
		C12.9,20.5,29.9,6.7,50,6.7z"/>
	<ellipse class="st3" cx="50" cy="16.3" rx="18.5" ry="9.3"/>
</g>
<g>
	<g>
		<path class="st2" d="M68.9,54.4l2.3,4.6c0.1,0.3,0.4,0.4,0.7,0.5l5.1,0.7c0.7,0.1,1,1,0.5,1.5l-3.7,3.6c-0.2,0.2-0.3,0.5-0.3,0.8
			l0.9,5.1c0.1,0.7-0.6,1.3-1.3,0.9l-4.6-2.4c-0.3-0.1-0.6-0.1-0.8,0l-4.6,2.4c-0.6,0.3-1.4-0.2-1.3-0.9l0.9-5.1
			c0-0.3,0-0.6-0.3-0.8l-3.7-3.6c-0.5-0.5-0.2-1.4,0.5-1.5l5.1-0.7c0.3,0,0.5-0.2,0.7-0.5l2.3-4.6C67.7,53.8,68.6,53.8,68.9,54.4z"
			/>
	</g>
	<g>
		<path class="st2" d="M29,46.7l1.5,3c0.1,0.2,0.2,0.3,0.4,0.3l3.3,0.5c0.5,0.1,0.7,0.7,0.3,1l-2.4,2.3C32.1,54,32,54.2,32,54.4
			l0.6,3.3c0.1,0.5-0.4,0.8-0.8,0.6l-3-1.6c-0.2-0.1-0.4-0.1-0.5,0l-3,1.6c-0.4,0.2-0.9-0.1-0.8-0.6l0.6-3.3c0-0.2,0-0.4-0.2-0.5
			l-2.4-2.3c-0.3-0.3-0.2-0.9,0.3-1l3.3-0.5c0.2,0,0.4-0.1,0.4-0.3l1.5-3C28.2,46.3,28.8,46.3,29,46.7z"/>
	</g>
	<g>
		<path class="st2" d="M40.3,60.4v-3c0-1.6,0.3-2.9,0.8-4.1c0.5-1.1,1.2-2.1,1.9-2.9c0.8-0.8,1.6-1.6,2.5-2.2
			c0.9-0.6,1.7-1.2,2.5-1.8c0.8-0.6,1.4-1.2,1.9-1.8c0.5-0.6,0.8-1.3,0.8-2.2c0-0.6-0.2-1.2-0.7-1.6c-0.5-0.4-1.4-0.6-2.7-0.6
			c-1.1,0-2.2,0.1-3.3,0.3C43,40.7,42,41,41,41.3c-1,0.3-2,0.7-2.9,1.1c-0.9,0.4-1.8,0.8-2.6,1.2l-3-11.5c1-0.5,2.2-1,3.4-1.5
			c1.3-0.5,2.6-1,4.1-1.4c1.5-0.4,3.1-0.8,4.8-1c1.7-0.3,3.6-0.4,5.5-0.4c2.5,0,4.8,0.3,6.8,0.9c2,0.6,3.8,1.5,5.2,2.6
			c1.4,1.1,2.5,2.4,3.2,3.9c0.8,1.5,1.1,3.1,1.1,4.8c0,2.2-0.3,4-1,5.4c-0.6,1.4-1.4,2.6-2.4,3.5c-0.9,1-2,1.8-3.1,2.5
			c-1.1,0.7-2.2,1.4-3.1,2.2c-0.9,0.8-1.7,1.7-2.4,2.8c-0.6,1.1-1,2.5-1,4.1H40.3z M40.3,63.1h13.4v9.3H40.3V63.1z"/>
	</g>
</g>
</svg>
