<?xml version="1.0" encoding="utf-8"?>
<!-- Generator: Adobe Illustrator 24.0.1, SVG Export Plug-In . SVG Version: 6.00 Build 0)  -->
<svg version="1.1" id="Layer_1" xmlns="http://www.w3.org/2000/svg" xmlns:xlink="http://www.w3.org/1999/xlink" x="0px" y="0px"
	 viewBox="0 0 100 100" style="enable-background:new 0 0 100 100;" xml:space="preserve">
<style type="text/css">
	.st0{fill:#EA5ECF;}
	.st1{fill:#C133AD;}
	.st2{fill:#FFFFFF;}
	.st3{opacity:0.2;fill:#FFFFFF;}
</style>
<g>
	<path class="st0" d="M50,70.4c19.9,0,36.7-13.2,41.9-31.2C87.1,20.5,70.1,6.7,50,6.7S12.9,20.5,8.1,39.2
		C13.3,57.2,30.1,70.4,50,70.4z"/>
	<path class="st1" d="M50,93.3c23.9,0,43.3-19.4,43.3-43.3c0-3.7-0.5-7.4-1.4-10.8c-5.2,18-22,31.2-41.9,31.2S13.3,57.2,8.1,39.2
		C7.2,42.6,6.7,46.3,6.7,50C6.7,73.9,26.1,93.3,50,93.3z"/>
	<path class="st2" d="M50,1.6C23.3,1.6,1.6,23.3,1.6,50S23.3,98.4,50,98.4S98.4,76.7,98.4,50S76.7,1.6,50,1.6z M50,6.7
		c20.1,0,37.1,13.8,41.9,32.5c0.9,3.5,1.4,7.1,1.4,10.8c0,23.9-19.4,43.3-43.3,43.3S6.7,73.9,6.7,50c0-3.7,0.5-7.4,1.4-10.8
		C12.9,20.5,29.9,6.7,50,6.7z"/>
	<ellipse class="st3" cx="50" cy="16.3" rx="18.5" ry="9.3"/>
</g>
<g>
	<g>
		<path class="st2" d="M67.8,33.7c-0.1,0.5-0.2,1-0.4,1.4c-2.2,5.1-4.4,10.2-6.6,15.3c-0.1,0.2-0.1,0.3-0.1,0.4
			c-7.7-3.3-15.4-6.7-23.2-10c0-0.1,0.1-0.2,0.2-0.4c2.2-5.1,4.4-10.2,6.6-15.3c0.2-0.4,0.5-0.8,0.7-1.2c0.2-0.1,0.5-0.2,0.7-0.3
			c0.3,0.1,0.7,0.1,1,0.2c0.6,0.2,1.2,0.5,1.8,0.8c0.9,0.4,1.2,0.9,1.1,1.8c0,0.2,0,0.4,0,0.7c0.2-0.2,0.2-0.2,0.3-0.3
			c0.9-1,1.4-1.1,2.6-0.5c2,0.9,4,1.7,6,2.6c1,0.4,1.3,1.1,1.1,2.2c-0.4,1.7-0.7,3.3-1.1,5c0,0.1,0,0.3-0.1,0.5
			c0.2-0.2,0.3-0.4,0.3-0.5c0.9-1.4,1.9-2.8,2.8-4.2c0.7-1,1.3-1.2,2.4-0.7c0.8,0.3,1.5,0.6,2.3,1c0.4,0.2,0.8,0.5,1.2,0.7
			C67.6,33.2,67.7,33.5,67.8,33.7z"/>
	</g>
	<g>
		<path class="st2" d="M59.2,53.9c-0.7,1.6-1.3,3.2-2,4.8c-0.4,0.8-1.2,1-2.1,0.7c-1.4-0.6-2.8-1.2-4.2-1.8
			c-1.1-0.5-2.2-0.5-3.2,0.3c-0.8,0.5-1.1,1.3-1.3,2.2c-0.7,3.5-1.4,7-2.2,10.4c-0.2,1-0.5,2-0.9,3c-1.4,3-5,4.1-7.9,2.5
			c-2.9-1.6-3.9-5.3-2.1-8c2.1-3.2,4.4-6.4,6.6-9.6c0.3-0.5,0.7-0.9,0.9-1.4c0.8-1.4,0.3-3.3-1.1-4.1c-1.1-0.6-2.3-1-3.4-1.5
			c-0.5-0.2-1-0.4-1.5-0.7c-0.7-0.3-1.1-1.1-0.8-1.8c0.7-1.6,1.5-3.3,2.2-4.9C43.8,47.3,51.5,50.6,59.2,53.9z M39.1,72.9
			c1.1-0.5,1.7-1.7,1.3-2.9c-0.4-1.1-1.8-1.7-2.9-1.3c-1.1,0.5-1.7,1.8-1.3,2.9C36.6,72.8,37.9,73.4,39.1,72.9z"/>
	</g>
</g>
</svg>
