<?xml version="1.0" encoding="utf-8"?>
<!-- Generator: Adobe Illustrator 24.0.1, SVG Export Plug-In . SVG Version: 6.00 Build 0)  -->
<svg version="1.1" id="Layer_1" xmlns="http://www.w3.org/2000/svg" xmlns:xlink="http://www.w3.org/1999/xlink" x="0px" y="0px"
	 viewBox="0 0 100 100" style="enable-background:new 0 0 100 100;" xml:space="preserve">
<style type="text/css">
	.st0{fill:#5E1DDD;}
	.st1{fill:#4217AD;}
	.st2{fill:#FFFFFF;}
	.st3{opacity:0.15;fill:#FFFFFF;}
</style>
<g>
	<path class="st0" d="M50,70.4c19.9,0,36.7-13.2,41.9-31.2C87.1,20.5,70.1,6.7,50,6.7S12.9,20.5,8.1,39.2
		C13.3,57.2,30.1,70.4,50,70.4z"/>
	<path class="st1" d="M50,93.3c23.9,0,43.3-19.4,43.3-43.3c0-3.7-0.5-7.4-1.4-10.8c-5.2,18-22,31.2-41.9,31.2S13.3,57.2,8.1,39.2
		C7.2,42.6,6.7,46.3,6.7,50C6.7,73.9,26.1,93.3,50,93.3z"/>
	<path class="st2" d="M50,1.6C23.3,1.6,1.6,23.3,1.6,50S23.3,98.4,50,98.4S98.4,76.7,98.4,50S76.7,1.6,50,1.6z M50,6.7
		c20.1,0,37.1,13.8,41.9,32.5c0.9,3.5,1.4,7.1,1.4,10.8c0,23.9-19.4,43.3-43.3,43.3S6.7,73.9,6.7,50c0-3.7,0.5-7.4,1.4-10.8
		C12.9,20.5,29.9,6.7,50,6.7z"/>
	<ellipse class="st3" cx="50" cy="16.3" rx="18.5" ry="9.3"/>
</g>
<g>
	<path class="st2" d="M79.2,59.1c-0.1,1.1-0.2,2.1-0.4,3.2c-0.2,1.3-0.5,2.7-0.9,3.9c-0.8,2.3-2.7,3.4-5.1,3.1
		c-0.7-0.1-1.4-0.4-2-0.8c-2.1-1.3-3.9-3-5.6-4.8c-1-1.1-2-2.2-3-3.3c-0.8-0.9-1.9-1.4-3.2-1.4c-6,0-12.1,0-18.1,0
		c-1.3,0-2.4,0.5-3.2,1.5c-2.2,2.5-4.4,5-7,7c-0.5,0.4-1.1,0.8-1.7,1.2c-2.1,1.4-5.4,0.8-6.7-2c-0.6-1.3-0.9-2.7-1.1-4.1
		c-0.8-6-0.3-12,1.5-17.8c1-3.1,2.4-6,4.3-8.6c3.8-5.2,9.1-6.7,15-4.2c1.1,0.5,2.2,1.1,3.2,1.7c1.1,0.7,2.3,1.1,3.6,1.1
		c0.7,0,1.4,0,2.1,0c1.4,0,2.7-0.4,3.9-1.2c2.2-1.5,4.6-2.5,7.3-2.8c4.1-0.4,7.4,1.2,10,4.2c2.5,3,4.1,6.6,5.3,10.3
		c0.9,2.9,1.4,5.9,1.6,8.9c0,0.2,0.1,0.4,0.1,0.6C79.2,56.3,79.2,57.7,79.2,59.1z M35,47.8c0,1.1,0,2.2,0,3.3c0,0.4,0.2,0.7,0.5,0.8
		c0.8,0.4,1.7,0.4,2.6,0.2c0.9-0.3,0.9-0.3,0.9-1.3c0-1,0-2,0-3c1.2,0,2.4,0,3.6,0c0.2,0,0.5-0.1,0.5-0.2c0.2-0.6,0.5-1.3,0.5-2
		c0-0.6-0.3-1.2-0.6-1.7c-0.2-0.2-0.8-0.1-1.2-0.2c-0.8,0-1.7,0-2.6,0c0-1.2,0-2.4,0-3.5c0-0.2-0.2-0.5-0.3-0.5
		c-1-0.4-2.1-0.5-3.2-0.2c-0.4,0.1-0.6,0.3-0.6,0.8c0,1.1,0,2.3,0,3.4c-1.2,0-2.4,0-3.6,0c-0.2,0-0.5,0.2-0.6,0.4
		c-0.5,1-0.5,2.1-0.1,3.1c0.1,0.4,0.4,0.6,0.8,0.5C32.8,47.8,33.8,47.8,35,47.8z M72.3,45c0-1.7-1.4-3.1-3.1-3.2
		c-1.7,0-3.1,1.4-3.2,3.1c0,1.8,1.4,3.2,3.2,3.2C71,48.2,72.3,46.8,72.3,45z M64.5,40.4c0-1.8-1.4-3.2-3.2-3.2
		c-1.7,0-3.1,1.4-3.1,3.1c0,1.8,1.4,3.2,3.1,3.2C63,43.5,64.5,42.1,64.5,40.4z M64.5,49c0-1.7-1.4-3.1-3.2-3.1
		c-1.8,0-3.1,1.4-3.1,3.1c0,1.8,1.4,3.2,3.2,3.2C63.1,52.2,64.5,50.8,64.5,49z"/>
</g>
</svg>
