<?xml version="1.0" encoding="utf-8"?>
<!-- Generator: Adobe Illustrator 24.0.1, SVG Export Plug-In . SVG Version: 6.00 Build 0)  -->
<svg version="1.1" id="Layer_1" xmlns="http://www.w3.org/2000/svg" xmlns:xlink="http://www.w3.org/1999/xlink" x="0px" y="0px"
	 viewBox="0 0 100 100" style="enable-background:new 0 0 100 100;" xml:space="preserve">
<style type="text/css">
	.st0{fill:#F4164B;}
	.st1{fill:#C4143E;}
	.st2{fill:#FFFFFF;}
	.st3{opacity:0.15;fill:#FFFFFF;}
</style>
<g>
	<path class="st0" d="M50,70.4c19.9,0,36.7-13.2,41.9-31.2C87.1,20.5,70.1,6.7,50,6.7S12.9,20.5,8.1,39.2
		C13.3,57.2,30.1,70.4,50,70.4z"/>
	<path class="st1" d="M50,93.3c23.9,0,43.3-19.4,43.3-43.3c0-3.7-0.5-7.4-1.4-10.8c-5.2,18-22,31.2-41.9,31.2S13.3,57.2,8.1,39.2
		C7.2,42.6,6.7,46.3,6.7,50C6.7,73.9,26.1,93.3,50,93.3z"/>
	<path class="st2" d="M50,1.6C23.3,1.6,1.6,23.3,1.6,50S23.3,98.4,50,98.4S98.4,76.7,98.4,50S76.7,1.6,50,1.6z M50,6.7
		c20.1,0,37.1,13.8,41.9,32.5c0.9,3.5,1.4,7.1,1.4,10.8c0,23.9-19.4,43.3-43.3,43.3S6.7,73.9,6.7,50c0-3.7,0.5-7.4,1.4-10.8
		C12.9,20.5,29.9,6.7,50,6.7z"/>
	<ellipse class="st3" cx="50" cy="16.3" rx="18.5" ry="9.3"/>
</g>
<g>
	<polygon class="st2" points="34.6,50.9 34.6,28 54.4,39.4 74.3,50.9 54.4,62.3 34.6,73.7 	"/>
</g>
</svg>
