<?xml version="1.0" encoding="utf-8"?>
<!-- Generator: Adobe Illustrator 24.0.1, SVG Export Plug-In . SVG Version: 6.00 Build 0)  -->
<svg version="1.1" id="Layer_1" xmlns="http://www.w3.org/2000/svg" xmlns:xlink="http://www.w3.org/1999/xlink" x="0px" y="0px"
	 viewBox="0 0 100 100" style="enable-background:new 0 0 100 100;" xml:space="preserve">
<style type="text/css">
	.st0{fill:#8B2793;}
	.st1{fill:#741978;}
	.st2{fill:#FFFFFF;}
	.st3{opacity:0.15;fill:#FFFFFF;}
</style>
<g>
	<path class="st0" d="M50,70.4c19.9,0,36.7-13.2,41.9-31.2C87.1,20.5,70.1,6.7,50,6.7S12.9,20.5,8.1,39.2
		C13.3,57.2,30.1,70.4,50,70.4z"/>
	<path class="st1" d="M50,93.3c23.9,0,43.3-19.4,43.3-43.3c0-3.7-0.5-7.4-1.4-10.8c-5.2,18-22,31.2-41.9,31.2S13.3,57.2,8.1,39.2
		C7.2,42.6,6.7,46.3,6.7,50C6.7,73.9,26.1,93.3,50,93.3z"/>
	<path class="st2" d="M50,1.6C23.3,1.6,1.6,23.3,1.6,50S23.3,98.4,50,98.4S98.4,76.7,98.4,50S76.7,1.6,50,1.6z M50,6.7
		c20.1,0,37.1,13.8,41.9,32.5c0.9,3.5,1.4,7.1,1.4,10.8c0,23.9-19.4,43.3-43.3,43.3S6.7,73.9,6.7,50c0-3.7,0.5-7.4,1.4-10.8
		C12.9,20.5,29.9,6.7,50,6.7z"/>
	<ellipse class="st3" cx="50" cy="16.3" rx="18.5" ry="9.3"/>
</g>
<g>
	<path class="st2" d="M50,26.9c0.9,0.3,1.4,1,1.8,1.9c2,3.8,4.1,7.5,6.2,11.2c0.2,0.4,0.6,0.8,1,1c3.8,2.1,7.7,4.2,11.6,6.3
		c0.7,0.4,1.3,0.9,1.5,1.8c0.2,1-0.3,1.9-1.3,2.5c-1.6,0.9-3.2,1.8-4.9,2.7c-2.3,1.3-4.6,2.5-7,3.8c-0.3,0.2-0.7,0.5-0.9,0.9
		c-2.1,3.9-4.3,7.7-6.4,11.6c-0.4,0.7-0.9,1.3-1.8,1.5c-1,0.2-1.9-0.3-2.5-1.3c-0.9-1.6-1.8-3.2-2.7-4.9c-1.3-2.3-2.5-4.6-3.8-6.9
		c-0.2-0.4-0.6-0.8-1-1c-3.7-2.1-7.5-4.1-11.2-6.2c-0.8-0.4-1.5-1-1.9-1.8c0-0.3,0-0.7,0-1c0.4-0.9,1-1.4,1.9-1.8
		c3.8-2,7.5-4.1,11.2-6.2c0.4-0.2,0.8-0.6,1-1c2.1-3.7,4.1-7.5,6.1-11.2c0.4-0.8,1-1.5,1.8-1.9C49.3,26.9,49.6,26.9,50,26.9z"/>
	<path class="st2" d="M77.1,68.6c0,0.7-0.3,1.1-0.9,1.4c-1.1,0.6-2.2,1.2-3.2,1.8c-0.2,0.1-0.4,0.3-0.6,0.6c-0.6,1-1.1,2.1-1.7,3.1
		c-0.3,0.6-0.8,1.1-1.5,1.1c-0.7,0-1.2-0.4-1.5-1c-0.6-1-1.1-2.1-1.7-3.1c-0.1-0.2-0.3-0.4-0.6-0.6c-1-0.6-2.1-1.1-3.1-1.7
		c-0.6-0.3-1-0.8-1.1-1.5c0-0.7,0.4-1.2,1-1.5c1-0.6,2.1-1.1,3.1-1.7c0.2-0.1,0.4-0.3,0.6-0.6c0.6-1,1.2-2.1,1.7-3.1
		c0.3-0.6,0.8-1,1.5-1c0.7,0,1.2,0.4,1.5,1c0.6,1.1,1.1,2.1,1.7,3.1c0.1,0.2,0.3,0.4,0.6,0.6c1.1,0.6,2.1,1.2,3.2,1.8
		C76.7,67.5,77.1,67.9,77.1,68.6z"/>
	<path class="st2" d="M37.2,31c0,0.5-0.3,0.9-0.8,1.2c-0.9,0.5-1.8,1-2.7,1.5c-0.2,0.1-0.4,0.3-0.5,0.5c-0.5,0.9-1,1.7-1.4,2.6
		c-0.3,0.5-0.7,0.9-1.3,0.9c-0.6,0-1-0.4-1.3-0.9c-0.5-0.9-0.9-1.7-1.4-2.6c-0.1-0.2-0.3-0.4-0.5-0.5c-0.9-0.5-1.7-1-2.6-1.4
		c-0.5-0.3-0.9-0.7-0.9-1.3c0-0.6,0.4-1,0.9-1.3c0.9-0.5,1.7-0.9,2.6-1.4c0.2-0.1,0.4-0.3,0.5-0.5c0.5-0.9,1-1.8,1.4-2.6
		c0.3-0.5,0.7-0.8,1.3-0.8c0.6,0,1,0.3,1.3,0.8c0.5,0.9,1,1.8,1.5,2.6c0.1,0.2,0.3,0.4,0.5,0.5c0.9,0.5,1.8,1,2.7,1.5
		C36.9,30,37.2,30.4,37.2,31z"/>
</g>
</svg>
