<?xml version="1.0" encoding="utf-8"?>
<!-- Generator: Adobe Illustrator 24.0.1, SVG Export Plug-In . SVG Version: 6.00 Build 0)  -->
<svg version="1.1" id="Layer_1" xmlns="http://www.w3.org/2000/svg" xmlns:xlink="http://www.w3.org/1999/xlink" x="0px" y="0px"
	 viewBox="0 0 100 100" style="enable-background:new 0 0 100 100;" xml:space="preserve">
<style type="text/css">
	.st0{fill:#D0EFF7;}
	.st1{fill:#B1D4DD;}
	.st2{fill:#FFFFFF;}
	.st3{opacity:0.5;fill:#FFFFFF;}
	.st4{clip-path:url(#SVGID_2_);}
	.st5{fill:url(#SVGID_3_);}
	.st6{fill:#D25032;}
	.st7{clip-path:url(#SVGID_5_);}
</style>
<g>
	<path class="st0" d="M50,70.4c19.9,0,36.7-13.2,41.9-31.2C87.1,20.5,70.1,6.7,50,6.7S12.9,20.5,8.1,39.2
		C13.3,57.2,30.1,70.4,50,70.4z"/>
	<path class="st1" d="M50,93.3c23.9,0,43.3-19.4,43.3-43.3c0-3.7-0.5-7.4-1.4-10.8c-5.2,18-22,31.2-41.9,31.2S13.3,57.2,8.1,39.2
		C7.2,42.6,6.7,46.3,6.7,50C6.7,73.9,26.1,93.3,50,93.3z"/>
	<path class="st2" d="M50,1.6C23.3,1.6,1.6,23.3,1.6,50S23.3,98.4,50,98.4S98.4,76.7,98.4,50S76.7,1.6,50,1.6z M50,6.7
		c20.1,0,37.1,13.8,41.9,32.5c0.9,3.5,1.4,7.1,1.4,10.8c0,23.9-19.4,43.3-43.3,43.3S6.7,73.9,6.7,50c0-3.7,0.5-7.4,1.4-10.8
		C12.9,20.5,29.9,6.7,50,6.7z"/>
	<ellipse class="st3" cx="50" cy="16.3" rx="18.5" ry="9.3"/>
</g>
<g id="surface1">
	<g>
		<defs>
			<rect id="SVGID_1_" x="23.4" y="24.4" width="30.9" height="51.2"/>
		</defs>
		<clipPath id="SVGID_2_">
			<use xlink:href="#SVGID_1_"  style="overflow:visible;"/>
		</clipPath>
		<g class="st4">
			<linearGradient id="SVGID_3_" gradientUnits="userSpaceOnUse" x1="23.3774" y1="49.9996" x2="54.1182" y2="49.9996">
				<stop  offset="0" style="stop-color:#CC3A32"/>
				<stop  offset="1" style="stop-color:#D25032"/>
			</linearGradient>
			<path class="st5" d="M23.4,29.9l30.7-5.5v51.2l-30.7-4.7V29.9"/>
		</g>
	</g>
	<path class="st6" d="M58.5,46.5v-6.7c3.7,0,6.7,3,6.7,6.7H58.5z M55.2,37.8v3.4c0.7-0.3,1.4-0.4,2.2-0.5v6.7h7c0,3.7-3,6.7-6.7,6.7
		c-0.9,0-1.7-0.2-2.5-0.5V56h11.7v2H55.2v3h11.9v2H55.2v2.7h17.4V37.8H55.2"/>
	<g>
		<defs>
			<rect id="SVGID_4_" x="55.2" y="34" width="21.4" height="26.3"/>
		</defs>
		<clipPath id="SVGID_5_">
			<use xlink:href="#SVGID_4_"  style="overflow:visible;"/>
		</clipPath>
		<g class="st7">
			<path class="st6" d="M75.3,34H55.2v2.6h19.1V60h1.2v0c0,0,0,0,0,0c0.6,0,1.1-0.5,1.1-1.1V35.4C76.6,34.6,76,34,75.3,34"/>
		</g>
	</g>
	<path class="st2" d="M39.3,50c-0.3,0.1-1.1,0-1.1,0h-0.9v-5.4c0,0,2.9-0.6,3.3,1.1C41.4,48.8,40.4,49.7,39.3,50z M44.2,45.9
		c-0.7-5.9-9.8-4.2-9.8-4.2V59h2.8v-6.1l2.3-0.2C39.5,52.7,45,52.6,44.2,45.9"/>
</g>
</svg>
