<?xml version="1.0" encoding="utf-8"?>
<!-- Generator: Adobe Illustrator 24.0.1, SVG Export Plug-In . SVG Version: 6.00 Build 0)  -->
<svg version="1.1" id="Layer_1" xmlns="http://www.w3.org/2000/svg" xmlns:xlink="http://www.w3.org/1999/xlink" x="0px" y="0px"
	 viewBox="0 0 100 100" style="enable-background:new 0 0 100 100;" xml:space="preserve">
<style type="text/css">
	.st0{fill:#D0EFF7;}
	.st1{fill:#B1D4DD;}
	.st2{fill:#FFFFFF;}
	.st3{opacity:0.5;fill:#FFFFFF;}
	.st4{fill:url(#SVGID_1_);}
	.st5{fill:url(#SVGID_2_);}
</style>
<g>
	<path class="st0" d="M50,70.4c19.9,0,36.7-13.2,41.9-31.2C87.1,20.5,70.1,6.7,50,6.7S12.9,20.5,8.1,39.2
		C13.3,57.2,30.1,70.4,50,70.4z"/>
	<path class="st1" d="M50,93.3c23.9,0,43.3-19.4,43.3-43.3c0-3.7-0.5-7.4-1.4-10.8c-5.2,18-22,31.2-41.9,31.2S13.3,57.2,8.1,39.2
		C7.2,42.6,6.7,46.3,6.7,50C6.7,73.9,26.1,93.3,50,93.3z"/>
	<path class="st2" d="M50,1.6C23.3,1.6,1.6,23.3,1.6,50S23.3,98.4,50,98.4S98.4,76.7,98.4,50S76.7,1.6,50,1.6z M50,6.7
		c20.1,0,37.1,13.8,41.9,32.5c0.9,3.5,1.4,7.1,1.4,10.8c0,23.9-19.4,43.3-43.3,43.3S6.7,73.9,6.7,50c0-3.7,0.5-7.4,1.4-10.8
		C12.9,20.5,29.9,6.7,50,6.7z"/>
	<ellipse class="st3" cx="50" cy="16.3" rx="18.5" ry="9.3"/>
</g>
<g>
	<linearGradient id="SVGID_1_" gradientUnits="userSpaceOnUse" x1="41.8289" y1="42.6348" x2="41.8289" y2="75.4796">
		<stop  offset="0.2823" style="stop-color:#FF0069"/>
		<stop  offset="1" style="stop-color:#F90038"/>
	</linearGradient>
	<path class="st4" d="M35.5,75.5c-1.1-0.3-2.1-0.4-3.2-0.8c-5.2-1.8-8.5-7.5-7.6-12.9c0.4-2.6,1.5-4.8,3.4-6.7
		c3.5-3.5,7.1-7.1,10.6-10.6c0,0,0.1-0.1,0.2-0.1c0,0.1,0,0.2,0,0.2c-0.3,2.4,0,4.7,0.7,6.9c0.1,0.3,0,0.5-0.2,0.8
		c-2.3,2.3-4.6,4.6-6.9,6.9c-2.6,2.6-2.5,6.5,0.2,8.8c2.2,2,5.6,2,7.8,0c0.7-0.7,1.4-1.4,2.1-2.1c2.9-2.9,5.9-5.9,8.8-8.8
		c2.4-2.4,2.5-6,0.3-8.4c0,0-0.1-0.1-0.1-0.1c-0.5-0.4-0.8-0.8-0.8-1.5c0-0.9,0-1.8,0.6-2.5c0.7-0.7,1.4-1.3,2.2-2
		c1.2,0.6,2.3,1.6,3.2,2.7c3.2,4.1,3.4,9.5,0.7,13.9c-0.5,0.8-1.2,1.5-1.8,2.2c-3.4,3.5-6.9,6.9-10.3,10.3c-2,2-4.4,3.3-7.3,3.6
		c-0.1,0-0.2,0.1-0.3,0.1C36.8,75.5,36.1,75.5,35.5,75.5z"/>
	<linearGradient id="SVGID_2_" gradientUnits="userSpaceOnUse" x1="50.103" y1="33.02" x2="66.991" y2="49.9081">
		<stop  offset="0.2823" style="stop-color:#27AAE1"/>
		<stop  offset="1" style="stop-color:#1B75BC"/>
	</linearGradient>
	<path class="st5" d="M75.5,37.5c-0.2,0.9-0.3,1.7-0.6,2.6c-0.6,1.9-1.6,3.5-2.9,4.9c-3.3,3.3-6.5,6.5-9.8,9.8
		c-0.1,0.1-0.1,0.1-0.2,0.2c0-0.2,0-0.3,0-0.4c0.3-2.3,0-4.5-0.7-6.6c-0.1-0.4,0-0.7,0.3-1c2-2,4.1-4,6.1-6.1
		c2.9-2.9,2.3-7.5-1.2-9.5c-2.2-1.2-5-1-6.8,0.7c-1.6,1.5-3.2,3.2-4.8,4.8c-1.8,1.8-3.6,3.6-5.4,5.4c-2.3,2.4-2.4,6-0.3,8.3
		c0,0,0.1,0.1,0.1,0.1c0.6,0.4,0.9,0.9,0.9,1.6c0,0.9,0,1.8-0.7,2.5c-0.6,0.7-1.3,1.3-2,1.9c-1.6-0.9-2.9-2.1-3.9-3.7
		c-2.5-4.2-2.6-8.5-0.1-12.8c0.5-0.8,1.2-1.6,1.9-2.3c3.2-3.2,6.4-6.5,9.6-9.6c3.7-3.6,8.1-4.7,12.9-2.8c4.3,1.6,6.8,5,7.5,9.6
		c0,0.2,0.1,0.3,0.1,0.5C75.5,36.2,75.5,36.8,75.5,37.5z"/>
</g>
</svg>
