<?xml version="1.0" encoding="utf-8"?>
<!-- Generator: Adobe Illustrator 24.0.1, SVG Export Plug-In . SVG Version: 6.00 Build 0)  -->
<svg version="1.1" id="Layer_1" xmlns="http://www.w3.org/2000/svg" xmlns:xlink="http://www.w3.org/1999/xlink" x="0px" y="0px"
	 viewBox="0 0 100 100" style="enable-background:new 0 0 100 100;" xml:space="preserve">
<style type="text/css">
	.st0{fill:#D0EFF7;}
	.st1{fill:#B1D4DD;}
	.st2{fill:#FFFFFF;}
	.st3{opacity:0.5;fill:#FFFFFF;}
	.st4{fill:#1565C0;}
	.st5{fill:url(#SVGID_1_);}
	.st6{fill:#FAFAFA;}
</style>
<g>
	<path class="st0" d="M50,70.4c19.9,0,36.7-13.2,41.9-31.2C87.1,20.5,70.1,6.7,50,6.7S12.9,20.5,8.1,39.2
		C13.3,57.2,30.1,70.4,50,70.4z"/>
	<path class="st1" d="M50,93.3c23.9,0,43.3-19.4,43.3-43.3c0-3.7-0.5-7.4-1.4-10.8c-5.2,18-22,31.2-41.9,31.2S13.3,57.2,8.1,39.2
		C7.2,42.6,6.7,46.3,6.7,50C6.7,73.9,26.1,93.3,50,93.3z"/>
	<path class="st2" d="M50,1.6C23.3,1.6,1.6,23.3,1.6,50S23.3,98.4,50,98.4S98.4,76.7,98.4,50S76.7,1.6,50,1.6z M50,6.7
		c20.1,0,37.1,13.8,41.9,32.5c0.9,3.5,1.4,7.1,1.4,10.8c0,23.9-19.4,43.3-43.3,43.3S6.7,73.9,6.7,50c0-3.7,0.5-7.4,1.4-10.8
		C12.9,20.5,29.9,6.7,50,6.7z"/>
	<ellipse class="st3" cx="50" cy="16.3" rx="18.5" ry="9.3"/>
</g>
<g>
	<g>
		<path class="st4" d="M71.6,37.5H53.4c-0.6,0-1.1-0.5-1.1-1.1s0.5-1.1,1.1-1.1h18.2c0.6,0,1.1,0.5,1.1,1.1
			C72.7,37,72.2,37.5,71.6,37.5z"/>
		<path class="st4" d="M71.6,44.3H53.4c-0.6,0-1.1-0.5-1.1-1.1c0-0.6,0.5-1.1,1.1-1.1h18.2c0.6,0,1.1,0.5,1.1,1.1
			C72.7,43.8,72.2,44.3,71.6,44.3z"/>
		<path class="st4" d="M71.6,51.1H53.4c-0.6,0-1.1-0.5-1.1-1.1c0-0.6,0.5-1.1,1.1-1.1h18.2c0.6,0,1.1,0.5,1.1,1.1
			C72.7,50.6,72.2,51.1,71.6,51.1z"/>
		<path class="st4" d="M71.6,58H53.4c-0.6,0-1.1-0.5-1.1-1.1s0.5-1.1,1.1-1.1h18.2c0.6,0,1.1,0.5,1.1,1.1C72.7,57.5,72.2,58,71.6,58
			z"/>
		<path class="st4" d="M71.6,64.8H53.4c-0.6,0-1.1-0.5-1.1-1.1c0-0.6,0.5-1.1,1.1-1.1h18.2c0.6,0,1.1,0.5,1.1,1.1
			C72.7,64.3,72.2,64.8,71.6,64.8z"/>
	</g>
	<path class="st4" d="M76.2,71.6H53.4c-0.6,0-1.1-0.5-1.1-1.1s0.5-1.1,1.1-1.1H75V30.7H53.4c-0.6,0-1.1-0.5-1.1-1.1s0.5-1.1,1.1-1.1
		h22.7c0.6,0,1.1,0.5,1.1,1.1v40.9C77.3,71.1,76.8,71.6,76.2,71.6z"/>
	<linearGradient id="SVGID_1_" gradientUnits="userSpaceOnUse" x1="22.7086" y1="50" x2="54.5485" y2="50">
		<stop  offset="0" style="stop-color:#1553C0"/>
		<stop  offset="1" style="stop-color:#1574C0"/>
	</linearGradient>
	<path class="st5" d="M54.1,24.1c-0.3-0.2-0.6-0.3-1-0.2l-29.6,6.8c-0.5,0.1-0.9,0.6-0.9,1.1v38.7c0,0.6,0.4,1,1,1.1l29.6,4.5
		c0.6,0.1,1.2-0.3,1.3-1c0-0.1,0-0.1,0-0.2V25C54.5,24.6,54.4,24.3,54.1,24.1z"/>
	<path class="st6" d="M42,60.2c-0.5,0-1-0.3-1.1-0.8l-3.5-12.1L34,59.4c-0.2,0.6-0.9,0.9-1.5,0.6c-0.3-0.1-0.5-0.4-0.6-0.6
		l-4.5-15.9c-0.2-0.6,0.1-1.2,0.7-1.4c0.6-0.2,1.2,0.1,1.4,0.7c0,0,0,0,0,0.1L32.9,55l3.5-12.1c0.2-0.6,0.9-0.9,1.5-0.6
		c0.3,0.1,0.5,0.4,0.6,0.6L42,55l3.5-12.1c0.2-0.6,0.8-1,1.4-0.8c0,0,0,0,0,0c0.6,0.2,1,0.8,0.8,1.4l-4.5,15.9
		C43,59.9,42.5,60.2,42,60.2z"/>
</g>
</svg>
