<?xml version="1.0" encoding="utf-8"?>
<!-- Generator: Adobe Illustrator 24.0.1, SVG Export Plug-In . SVG Version: 6.00 Build 0)  -->
<svg version="1.1" id="Layer_1" xmlns="http://www.w3.org/2000/svg" xmlns:xlink="http://www.w3.org/1999/xlink" x="0px" y="0px"
	 viewBox="0 0 150 150" style="enable-background:new 0 0 150 150;" xml:space="preserve">
<style type="text/css">
	.st0{fill:#53C479;}
</style>
<g>
	<path class="st0" d="M142.5,52.1c-3.9-2.3-6.3-7.8-5.4-12.2c0.9-4.4-2-8.7-6.4-9.5c-4.4-0.8-8.6-5.2-9.2-9.6
		c-0.7-4.5-4.8-7.5-9.3-6.8c-4.4,0.7-9.8-1.9-12-5.9c-2.1-4-7.1-5.4-11-3.2C85.3,7.1,79.4,6.5,76,3.5c-3.4-3-8.5-2.6-11.5,0.8
		c-2.9,3.4-8.8,4.8-12.9,3.2c-4.2-1.7-8.9,0.4-10.5,4.6c-1.6,4.2-6.6,7.5-11.1,7.4c-4.5-0.1-8.2,3.5-8.3,8
		c-0.1,4.5-3.6,9.3-7.9,10.8c-4.3,1.4-6.5,6.1-5.1,10.3c1.5,4.2-0.2,10-3.7,12.8C1.6,64.1,1,69.3,3.8,72.8c2.8,3.5,3.3,9.5,0.9,13.3
		c-2.4,3.8-1.1,8.8,2.7,11.1c3.9,2.3,6.3,7.8,5.4,12.2c-0.9,4.4,2,8.7,6.4,9.5c4.4,0.8,8.6,5.2,9.2,9.6c0.7,4.5,4.8,7.5,9.3,6.8
		c4.4-0.7,9.8,1.9,12,5.9c2.1,4,7.1,5.4,11,3.2c3.9-2.2,9.9-1.6,13.3,1.4c3.4,3,8.5,2.6,11.5-0.8c2.9-3.4,8.8-4.8,12.9-3.2
		c4.2,1.7,8.9-0.4,10.5-4.6c1.6-4.2,6.6-7.5,11.1-7.4c4.5,0.1,8.2-3.5,8.3-8c0.1-4.5,3.6-9.3,7.9-10.8c4.3-1.4,6.6-6.1,5.1-10.3
		c-1.5-4.2,0.2-10,3.7-12.8c3.5-2.8,4.1-7.9,1.2-11.4c-2.8-3.5-3.3-9.5-0.9-13.3C147.6,59.5,146.4,54.4,142.5,52.1z M91.2,137.5
		c-34.7,8.9-70.1-12-79-46.7c-8.9-34.7,12-70.1,46.7-79c34.7-8.9,70.1,12,79,46.7C146.8,93.2,125.9,128.6,91.2,137.5z"/>
	<path class="st0" d="M59.7,15.1C26.8,23.6,7,57.1,15.4,90c8.5,32.9,42,52.7,74.9,44.3c32.9-8.5,52.7-42,44.3-74.9
		C126.1,26.4,92.6,6.6,59.7,15.1z M89.7,132c-31.6,8.1-63.9-10.9-72-42.5c-8.1-31.6,10.9-63.9,42.5-72c31.6-8.1,63.9,10.9,72,42.5
		C140.4,91.6,121.4,123.8,89.7,132z"/>
	<g>
		<path class="st0" d="M42.4,114.3c-0.2,0.2-0.2,0.4,0,0.6l1.6,1.4c0.2,0.2,0.2,0.4,0,0.6l-1.1,1.3c-0.2,0.2-0.4,0.2-0.6,0l-5.8-5.2
			c-0.2-0.2-0.2-0.4,0-0.6l1.1-1.3c0.2-0.2,0.4-0.2,0.6,0l1.6,1.4c0.2,0.2,0.4,0.2,0.6,0l4.8-5.3c0.2-0.2,0.4-0.2,0.6,0l1.3,1.1
			c0.2,0.2,0.2,0.4,0,0.6L42.4,114.3z"/>
		<path class="st0" d="M38.3,99c0.3-0.2,0.5-0.2,0.7,0.1l1,1.4c0.2,0.2,0.2,0.5-0.1,0.6l-1.1,0.8c-0.2,0.2-0.3,0.4-0.1,0.6l0.8,1
			c0.2,0.2,0.4,0.3,0.6,0.1l1.1-0.8c0.2-0.2,0.5-0.2,0.6,0.1l1,1.4c0.2,0.2,0.1,0.5-0.1,0.7l-5.2,3.9c-1.5,1.2-3.4,2.1-5.4-0.6
			c-2.1-2.7-0.6-4.2,0.9-5.4L38.3,99z M34.7,105c-0.6,0.4-0.8,0.7-0.2,1.5c0.6,0.8,1,0.7,1.5,0.2l1.3-1c0.2-0.2,0.3-0.4,0.1-0.6
			l-0.8-1c-0.2-0.2-0.4-0.3-0.7-0.1L34.7,105z"/>
		<path class="st0" d="M33.9,91c0.3-0.4,0.8-0.3,1,0.1l0.8,1.6c0.1,0.1,0.1,0.3,0,0.4l-2.1,2.8c0,0,0,0.1,0,0.1l0.3,0.5
			c0.1,0.2,0.4,0.3,0.6,0.2l2.2-1c0.2-0.1,0.5,0,0.6,0.2l0.7,1.5c0.1,0.2,0,0.5-0.2,0.6l-8.8,4.2c-0.2,0.1-0.5,0-0.6-0.2l-1.5-3
			c-1.2-2.4-0.6-3.9,1.6-5c1.3-0.6,2.3-0.7,3.2-0.3c0.1,0,0.1,0,0.2,0L33.9,91z M29.6,98.6c0.1,0.2,0.4,0.3,0.6,0.2l1-0.5
			c0.2-0.1,0.3-0.4,0.2-0.6L31.1,97c-0.3-0.7-0.6-1-1.4-0.5c-0.9,0.4-0.8,0.8-0.5,1.4L29.6,98.6z"/>
		<path class="st0" d="M22.5,86.3c-0.1-0.3,0-0.5,0.3-0.6l1.7-0.4c0.3-0.1,0.5,0,0.6,0.3l0.9,3.6c0.1,0.3,0.3,0.4,0.6,0.3l0.5-0.1
			c0.3-0.1,0.4-0.3,0.3-0.6l-0.6-2.3c-0.1-0.3,0-0.5,0.3-0.6l1.7-0.4c0.3-0.1,0.5,0,0.6,0.3l0.6,2.3c0.1,0.3,0.3,0.4,0.6,0.3
			l0.5-0.1c0.3-0.1,0.4-0.3,0.3-0.6l-0.9-3.6c-0.1-0.3,0-0.5,0.3-0.6l1.7-0.4c0.3-0.1,0.5,0,0.6,0.3l1.6,6.2c0.1,0.3,0,0.5-0.3,0.6
			l-9.4,2.5c-0.3,0.1-0.5,0-0.6-0.3L22.5,86.3z"/>
		<path class="st0" d="M31.5,75c0.3,0,0.5,0.1,0.5,0.4l0.1,1.7c0,0.3-0.1,0.5-0.4,0.5l-1.3,0.1c-0.3,0-0.4,0.2-0.4,0.5l0.1,1.3
			c0,0.3,0.2,0.4,0.5,0.4l1.3-0.1c0.3,0,0.5,0.1,0.5,0.4l0.1,1.7c0,0.3-0.2,0.5-0.5,0.5l-6.4,0.5c-1.9,0.1-4,0-4.2-3.4
			c-0.2-3.4,1.8-3.9,3.7-4L31.5,75z M25.3,78.1c-0.7,0.1-1.1,0.2-1,1.2c0.1,1,0.4,1.1,1.2,1l1.7-0.1c0.3,0,0.4-0.2,0.4-0.5l-0.1-1.3
			c0-0.3-0.2-0.4-0.5-0.4L25.3,78.1z"/>
		<path class="st0" d="M33.6,62.4c0.3,0.1,0.5,0.3,0.4,0.6l-0.4,1.7c-0.1,0.3-0.2,0.4-0.5,0.3l-1.3-0.3c-0.3-0.1-0.5,0-0.5,0.3
			l-0.3,1.3c-0.1,0.3,0,0.5,0.3,0.5l1.3,0.3c0.3,0.1,0.4,0.2,0.3,0.5l-0.4,1.7c-0.1,0.3-0.3,0.4-0.6,0.3l-6.3-1.4
			c-1.9-0.4-3.8-1.2-3.1-4.5c0.8-3.3,2.8-3.2,4.7-2.8L33.6,62.4z M26.7,63.5c-0.7-0.2-1.1-0.1-1.3,0.8c-0.2,1,0.1,1.2,0.8,1.3
			l1.6,0.4c0.3,0.1,0.5-0.1,0.5-0.3l0.3-1.3c0.1-0.3-0.1-0.5-0.4-0.5L26.7,63.5z"/>
		<path class="st0" d="M30.6,51.7c-0.3-0.1-0.5-0.1-0.6,0.2l-1.1,1.9c-0.1,0.3-0.4,0.3-0.6,0.2L26.8,53c-0.3-0.2-0.3-0.4-0.2-0.6
			l3.8-6.8c0.2-0.3,0.4-0.3,0.6-0.2l1.5,0.8c0.3,0.1,0.3,0.4,0.2,0.6l-1.1,1.9c-0.1,0.3-0.1,0.5,0.2,0.6l6.2,3.5
			c0.3,0.1,0.3,0.4,0.2,0.6L37.4,55c-0.1,0.3-0.4,0.3-0.6,0.2L30.6,51.7z"/>
		<path class="st0" d="M33.3,41.9c0.2-0.2,0.4-0.3,0.6-0.1l7.7,6c0.2,0.2,0.3,0.4,0.1,0.6l-1,1.3c-0.2,0.2-0.4,0.3-0.6,0.1l-7.7-6
			c-0.2-0.2-0.3-0.4-0.1-0.6L33.3,41.9z"/>
		<path class="st0" d="M40.1,34.7c0.2-0.2,0.4-0.2,0.6,0l1.2,1.2c0.2,0.2,0.2,0.4,0,0.6l-2.6,2.6c-0.2,0.2-0.2,0.4,0,0.6l0.3,0.3
			c0.2,0.2,0.4,0.2,0.6,0l1.7-1.7c0.2-0.2,0.4-0.2,0.6,0l1.2,1.2c0.2,0.2,0.2,0.4,0,0.6L42.1,42c-0.2,0.2-0.2,0.4,0,0.6l0.3,0.3
			c0.2,0.2,0.4,0.2,0.6,0l2.6-2.6c0.2-0.2,0.4-0.2,0.6,0l1.2,1.2c0.2,0.2,0.2,0.4,0,0.6L43,46.8c-0.2,0.2-0.4,0.2-0.6,0l-6.8-7
			c-0.2-0.2-0.2-0.4,0-0.6L40.1,34.7z"/>
		<path class="st0" d="M45.8,30.5c0.2-0.1,0.4-0.1,0.6,0.1l3.2,3.2c0.1,0.1,0.2,0,0.2-0.1l-1.4-4.3c-0.1-0.3,0-0.5,0.2-0.6l2.7-1.7
			c0.3-0.2,0.5-0.1,0.6,0.2l5.1,8.3c0.2,0.2,0.1,0.5-0.2,0.6l-1.5,0.9c-0.2,0.2-0.5,0.1-0.6-0.1l-3.2-5.1c-0.1-0.1-0.2,0-0.2,0.1
			l1.9,6c0.1,0.3,0,0.5-0.2,0.6L52.4,39c-0.2,0.1-0.4,0.1-0.6-0.1l-4.5-4.4c-0.1-0.1-0.2,0-0.1,0.1l3.2,5.1c0.2,0.2,0.1,0.5-0.2,0.6
			l-1.5,0.9c-0.3,0.2-0.5,0.1-0.6-0.1L43,32.8c-0.2-0.3-0.1-0.5,0.1-0.6L45.8,30.5z"/>
		<path class="st0" d="M58.5,24.4c2.6-0.9,4-0.1,4.8,2.2c0.8,2.4,0.1,3.8-2.4,4.7l-0.7,0.2c-0.3,0.1-0.4,0.3-0.3,0.6l0.8,2.3
			c0.1,0.3,0,0.5-0.3,0.6l-1.6,0.5c-0.3,0.1-0.5,0-0.6-0.3L55,26c-0.1-0.3,0-0.5,0.3-0.6L58.5,24.4z M60.1,28.8
			c0.7-0.2,1-0.4,0.7-1.3c-0.3-0.9-0.7-0.9-1.4-0.6l-0.8,0.3c-0.3,0.1-0.4,0.3-0.3,0.6l0.4,1.1c0.1,0.3,0.3,0.4,0.6,0.3L60.1,28.8z"
			/>
		<path class="st0" d="M72.9,28.8c0.1,1,0.3,3.7-3.3,4.2c-3.6,0.5-4.2-2.1-4.3-3.1L64.8,26c-0.1-1-0.3-3.7,3.3-4.2
			c3.6-0.5,4.2,2.1,4.3,3.1L72.9,28.8z M69.9,26.2c-0.2-1.2-0.3-1.9-1.5-1.7c-1.1,0.2-1.1,0.9-0.9,2l0.3,2.2
			c0.2,1.2,0.3,1.9,1.5,1.7c1.1-0.2,1.1-0.9,0.9-2L69.9,26.2z"/>
		<path class="st0" d="M76.4,29.7c0.3,0,0.5,0.2,0.5,0.5l0,1.7c0,1.1-0.5,2-1.7,2.1c-0.2,0-0.3-0.2-0.1-0.3c0.4-0.5,0.5-0.9,0.5-1.2
			c0-0.1-0.1-0.2-0.2-0.2l-0.7,0c-0.3,0-0.5-0.2-0.5-0.5l0-1.7c0-0.3,0.2-0.5,0.5-0.5L76.4,29.7z"/>
		<path class="st0" d="M88.3,23.1c0.3,0.1,0.4,0.3,0.4,0.5l-0.1,4.6c0,0.2,0.1,0.2,0.2,0l2.2-4c0.1-0.2,0.3-0.3,0.6-0.3l3,0.8
			c0.3,0.1,0.4,0.3,0.3,0.6l-2.6,9.4c-0.1,0.3-0.3,0.4-0.6,0.3l-1.6-0.5c-0.3-0.1-0.4-0.3-0.3-0.6l1.6-5.8c0-0.1-0.1-0.2-0.2-0.1
			l-3,5.5C88,34,87.8,34,87.5,34l-1-0.3c-0.3-0.1-0.4-0.2-0.4-0.5l0.2-6.3c0-0.1-0.1-0.1-0.2,0l-1.6,5.8c-0.1,0.3-0.3,0.4-0.6,0.3
			l-1.6-0.5c-0.3-0.1-0.4-0.3-0.3-0.6l2.6-9.4c0.1-0.3,0.3-0.4,0.6-0.3L88.3,23.1z"/>
		<path class="st0" d="M99.9,27.4c0.3,0.1,0.3,0.4,0.2,0.6l-2.9,5.2c-0.6,1-0.8,1.7,0.2,2.2c1,0.5,1.4-0.1,2-1.1l2.9-5.2
			c0.1-0.3,0.4-0.3,0.6-0.2l1.5,0.8c0.3,0.1,0.3,0.4,0.2,0.6l-3.3,6c-0.5,0.9-2,3.2-5.1,1.4s-2.1-4.2-1.6-5.1l3.3-6
			c0.1-0.3,0.4-0.3,0.6-0.2L99.9,27.4z"/>
		<path class="st0" d="M104.9,34.3c0.6-0.8,2.5-2.7,5.3-0.4c2.5,2.1,1.5,4.1,0.8,5c-0.1,0.2-0.3,0.2-0.5,0.1l-1.5-0.8
			c-0.3-0.2-0.3-0.5-0.2-0.8c0.4-0.6,0.4-1-0.2-1.6c-0.9-0.7-1.4-0.2-2.1,0.7l-1.4,1.7c-0.7,0.9-1.1,1.5-0.3,2.2
			c0.6,0.5,1.1,0.4,1.6-0.1c0.2-0.2,0.6-0.2,0.7,0l1.1,1.4c0.1,0.2,0.1,0.4,0,0.6c-0.8,0.9-2.6,2.2-5.1,0.2
			c-2.8-2.3-1.2-4.5-0.6-5.3L104.9,34.3z"/>
		<path class="st0" d="M116.2,40c0.2,0.2,0.2,0.5-0.1,0.6l-2.9,2.4c-0.2,0.2-0.2,0.4-0.1,0.6l0.9,1.1c0.2,0.2,0.4,0.2,0.6,0.1
			l2.9-2.4c0.2-0.2,0.5-0.2,0.6,0.1l1.1,1.3c0.2,0.2,0.2,0.5-0.1,0.6l-7.5,6.2c-0.2,0.2-0.5,0.2-0.6-0.1l-1.1-1.3
			c-0.2-0.2-0.2-0.5,0.1-0.6l1.9-1.5c0.2-0.2,0.3-0.4,0.1-0.6l-0.9-1.1c-0.2-0.2-0.4-0.3-0.6-0.1l-1.9,1.5c-0.2,0.2-0.5,0.2-0.6-0.1
			l-1.1-1.3c-0.2-0.2-0.2-0.5,0.1-0.6l7.5-6.2c0.2-0.2,0.4-0.2,0.6,0.1L116.2,40z"/>
		<path class="st0" d="M116,58.1c-0.3,0.2-0.5,0.1-0.7-0.2l-0.8-1.5c-0.1-0.3-0.1-0.5,0.2-0.6l1.2-0.6c0.3-0.1,0.3-0.4,0.2-0.6
			l-0.6-1.2c-0.1-0.3-0.4-0.3-0.6-0.2l-1.2,0.6c-0.3,0.1-0.5,0.1-0.6-0.2l-0.8-1.5c-0.1-0.3-0.1-0.5,0.2-0.6l5.7-3.1
			c1.7-0.9,3.6-1.6,5.3,1.4c1.6,3,0,4.3-1.7,5.2L116,58.1z M120.4,52.8c0.6-0.3,0.9-0.6,0.4-1.5c-0.5-0.9-0.8-0.8-1.5-0.5l-1.5,0.8
			c-0.3,0.1-0.3,0.4-0.2,0.6l0.6,1.2c0.2,0.3,0.4,0.3,0.6,0.2L120.4,52.8z"/>
		<path class="st0" d="M124,62.3c-0.1-0.3-0.1-0.5,0.2-0.6c0.6-0.3,0.8-0.9,0.6-1.6c-0.2-0.6-0.6-0.8-0.9-0.7
			c-1.1,0.6,0.4,5.2-3,6.2c-0.4,0.1-3.2,0.4-4.2-3c-1-3.1,0.9-4.3,2-4.8c0.3-0.1,0.5,0,0.6,0.2l0.9,1.5c0.1,0.3,0.1,0.5-0.2,0.6
			c-0.7,0.3-0.9,0.9-0.7,1.6c0.2,0.7,0.8,1.1,1.2,0.9c1.2-0.7-0.5-5,2.9-6c0.4-0.2,3.1-0.7,4.1,2.6c0.9,3-0.8,4.3-1.8,4.7
			c-0.3,0.1-0.5,0-0.6-0.2L124,62.3z"/>
		<path class="st0" d="M126.1,71.2c1,0,3.7,0.2,3.8,3.8c0,3.2-2.1,3.8-3.2,3.9c-0.3,0-0.4-0.1-0.5-0.4l-0.4-1.7
			c-0.1-0.3,0.1-0.5,0.4-0.5c0.7-0.1,1.2-0.3,1.1-1.2c0-1.1-0.7-1.2-1.9-1.2l-2.2,0c-1.2,0-1.9,0.1-1.9,1.2c0,1.1,0.7,1.2,1.5,1.2
			l0-0.9c0-0.3,0.2-0.5,0.5-0.5l1.2,0c0.3,0,0.5,0.2,0.5,0.5l0,3c0,0.3-0.1,0.5-0.5,0.5l-2.1,0c-1,0-3.7-0.2-3.8-3.8
			c0-3.6,2.7-3.9,3.7-3.9L126.1,71.2z"/>
		<path class="st0" d="M118.2,87.9c-0.4,0.1-0.8-0.2-0.7-0.6l0.3-1.7c0-0.2,0.1-0.3,0.3-0.3l3.3-1c0.1,0,0.1-0.1,0.1-0.1l0.1-0.6
			c0.1-0.3-0.1-0.5-0.4-0.6l-2.4-0.4c-0.3,0-0.4-0.3-0.4-0.6l0.3-1.7c0-0.3,0.3-0.4,0.6-0.4l9.6,1.8c0.3,0,0.4,0.3,0.4,0.6l-0.6,3.3
			c-0.5,2.7-1.8,3.5-4.3,3.1c-1.4-0.3-2.3-0.8-2.7-1.7c0-0.1-0.1-0.1-0.2-0.1L118.2,87.9z M126.2,84.4c0.1-0.3-0.1-0.5-0.4-0.6
			l-1.1-0.2c-0.3,0-0.5,0.1-0.6,0.4l-0.1,0.8c-0.1,0.7-0.1,1.1,0.8,1.3s1.1-0.2,1.2-0.9L126.2,84.4z"/>
		<path class="st0" d="M114.9,95.3c-0.3-0.1-0.4-0.3-0.3-0.6l0.6-1.6c0.1-0.3,0.3-0.4,0.6-0.3l1.2,0.5c0.3,0.1,0.5,0,0.6-0.3
			l0.5-1.2c0.1-0.3,0-0.5-0.3-0.6l-1.2-0.5c-0.3-0.1-0.4-0.3-0.3-0.6l0.6-1.6c0.1-0.3,0.3-0.4,0.7-0.2l6,2.4
			c1.8,0.7,3.6,1.8,2.3,4.9c-1.3,3.2-3.3,2.7-5.1,2L114.9,95.3z M121.9,95.2c0.7,0.3,1.1,0.3,1.4-0.6c0.4-0.9,0.1-1.2-0.6-1.4
			l-1.5-0.6c-0.3-0.1-0.5,0-0.6,0.3l-0.5,1.2c-0.1,0.3,0,0.5,0.3,0.6L121.9,95.2z"/>
		<path class="st0" d="M120.2,99.7c0.8,0.5,3,2.2,1.1,5.2c-1.7,2.7-3.9,2-4.9,1.4c-0.2-0.1-0.3-0.3-0.2-0.5l0.6-1.6
			c0.1-0.3,0.4-0.4,0.7-0.3c0.6,0.3,1.1,0.3,1.5-0.4c0.6-1,0-1.4-0.9-2l-1.9-1.2c-1-0.6-1.6-1-2.2,0c-0.5,0.7-0.2,1.1,0.3,1.6
			c0.2,0.2,0.3,0.5,0.1,0.7l-1.2,1.2c-0.2,0.2-0.4,0.2-0.6,0c-0.9-0.7-2.5-2.3-0.8-5c1.9-3,4.3-1.8,5.2-1.2L120.2,99.7z"/>
		<path class="st0" d="M116.1,111.3c-0.2,0.2-0.4,0.2-0.6,0.1l-7.4-6.3c-0.2-0.2-0.2-0.4-0.1-0.6l1.1-1.3c0.2-0.2,0.4-0.2,0.6-0.1
			l7.4,6.3c0.2,0.2,0.2,0.4,0.1,0.6L116.1,111.3z"/>
		<path class="st0" d="M101.8,110.9c-0.2-0.3-0.2-0.5,0-0.7l1.3-1.1c0.2-0.2,0.4-0.2,0.6,0l0.9,1c0.2,0.2,0.4,0.2,0.6,0l1-0.9
			c0.2-0.2,0.2-0.4,0-0.6l-0.9-1c-0.2-0.2-0.2-0.4,0-0.6l1.3-1.1c0.2-0.2,0.5-0.2,0.7,0.1l4.3,4.8c1.3,1.4,2.4,3.2-0.2,5.4
			c-2.6,2.3-4.1,1-5.4-0.5L101.8,110.9z M108.1,114c0.5,0.5,0.8,0.8,1.6,0.1c0.8-0.7,0.6-1,0.1-1.6l-1.1-1.2c-0.2-0.2-0.4-0.2-0.6,0
			l-1,0.9c-0.2,0.2-0.2,0.4,0,0.7L108.1,114z"/>
		<path class="st0" d="M99.6,119.7c0.2-0.2,0.4-0.2,0.6,0.1c0.4,0.5,1,0.6,1.7,0.2c0.5-0.3,0.6-0.8,0.4-1.1
			c-0.8-0.9-4.9,1.6-6.7-1.5c-0.2-0.4-1.2-3,2-4.8c2.8-1.6,4.4-0.2,5.1,0.8c0.2,0.2,0.1,0.4-0.1,0.6l-1.3,1.2
			c-0.2,0.2-0.4,0.2-0.6-0.1c-0.4-0.6-1.1-0.7-1.7-0.3c-0.6,0.4-0.9,1-0.6,1.3c0.9,1,4.7-1.6,6.5,1.4c0.2,0.4,1.4,2.8-1.6,4.6
			c-2.7,1.6-4.4,0.2-5-0.7c-0.2-0.2-0.1-0.4,0.1-0.6L99.6,119.7z"/>
	</g>
</g>
<g>
	<path class="st0" d="M76.5,52.7c0-0.8,0-1.6,0-2.4c-0.2,0-0.4,0-0.6,0c-1.4,0-2.8,0-4.1,0c-0.9,0-1.4-0.5-1.4-1.4
		c0-1.1,0-2.2,0-3.4c0-0.9,0.5-1.4,1.4-1.4c4,0,8.1,0,12.1,0c0.9,0,1.4,0.5,1.4,1.4c0,1.1,0,2.3,0,3.4c0,1-0.5,1.4-1.5,1.4
		c-1.6,0-3.1,0-4.7,0c0,0.8,0,1.6,0,2.5c0.7,0,1.4,0,2.2,0c1.1,0,1.5,0.5,1.5,1.5c0,0.8,0,1.5,0,2.3c0,0.4,0.1,0.5,0.5,0.6
		c8.6,2.5,14.2,8,16.3,16.7c2.9,11.7-4.8,23.8-16.5,26.6c-11.9,2.8-23.7-4.3-26.9-16.1c-3.1-11.5,3.8-23.6,15.1-27
		c0.5-0.1,1.2-0.2,1.4-0.5c0.3-0.3,0.1-1,0.1-1.5c0-0.4,0-0.9,0-1.3c0-0.9,0.5-1.4,1.4-1.4C75,52.7,75.8,52.7,76.5,52.7z M77.8,58.9
		c-11,0-19.9,8.9-19.8,19.9c0,10.9,8.9,19.8,19.8,19.8c10.9,0,19.9-8.9,19.9-19.8C97.7,67.8,88.8,58.9,77.8,58.9z M72.9,47.7
		c3.3,0,6.6,0,9.9,0c0-0.4,0-0.8,0-1.2c-3.3,0-6.6,0-9.9,0C72.9,46.9,72.9,47.3,72.9,47.7z M80.2,56.4c0-0.4,0-0.8,0-1.2
		c-1.6,0-3.3,0-4.9,0c0,0.4,0,0.8,0,1.2C77,56.4,78.6,56.4,80.2,56.4z"/>
	<path class="st0" d="M48,77.5c1.2,0,2.4,0,3.5,0c0.9,0,1.4,0.5,1.4,1.2c0,0.7-0.6,1.2-1.4,1.3c-2.4,0-4.7,0-7.1,0
		c-0.8,0-1.4-0.5-1.4-1.2c0-0.8,0.5-1.2,1.4-1.2C45.6,77.5,46.8,77.5,48,77.5z"/>
	<path class="st0" d="M52.4,63.8c0.9,0,1.9,0,2.8,0c0.9,0,1.5,0.5,1.5,1.2c0,0.8-0.6,1.3-1.5,1.3c-1.9,0-3.8,0-5.8,0
		c-0.9,0-1.5-0.5-1.4-1.3c0-0.7,0.6-1.2,1.5-1.2C50.4,63.8,51.4,63.8,52.4,63.8z"/>
	<path class="st0" d="M52.4,93.6c-1,0-2,0-3,0c-0.8,0-1.4-0.5-1.4-1.2c0-0.7,0.6-1.2,1.4-1.2c2,0,3.9,0,5.9,0c0.8,0,1.4,0.5,1.4,1.2
		c0,0.7-0.5,1.2-1.4,1.2C54.3,93.6,53.3,93.6,52.4,93.6z"/>
	<path class="st0" d="M79,72.6c3.9,0.7,6.6,4.2,6.1,8.3c-0.4,3.5-3.4,6.3-6.9,6.5c-3.6,0.2-6.9-2.2-7.7-5.7c-0.2-1-0.2-2.1-0.1-3
		c0.2-1,0.6-2,1.1-2.8c0.6-0.8,1.3-1.6,2.2-2.1c0.8-0.6,1.8-0.9,2.8-1.3c0-1.3,0-2.6,0-4c0-1.4,0-2.8,0-4.2c0-1.1,0.4-1.6,1.3-1.6
		c0.8,0,1.2,0.6,1.2,1.6c0,2.6,0,5.2,0,7.7C79,72.2,79,72.4,79,72.6z M72.9,80c0,2.7,2.2,5,5,5c2.7,0,5-2.2,5-5c0-2.8-2.3-5-5-5
		C75,75,72.8,77.3,72.9,80z"/>
</g>
</svg>
