<?xml version="1.0" encoding="utf-8"?>
<!-- Generator: Adobe Illustrator 24.0.1, SVG Export Plug-In . SVG Version: 6.00 Build 0)  -->
<svg version="1.1" id="Layer_1" xmlns="http://www.w3.org/2000/svg" xmlns:xlink="http://www.w3.org/1999/xlink" x="0px" y="0px"
	 viewBox="0 0 150 150" style="enable-background:new 0 0 150 150;" xml:space="preserve">
<style type="text/css">
	.st0{fill:#BEBEBE;}
</style>
<g>
	<g>
		<path class="st0" d="M142.5,52.4c-3.9-2.3-6.3-7.8-5.4-12.2c0.9-4.4-2-8.7-6.4-9.5c-4.4-0.8-8.6-5.2-9.2-9.6
			c-0.7-4.5-4.8-7.5-9.3-6.8c-4.4,0.7-9.8-1.9-12-5.9c-2.1-4-7.1-5.4-11-3.2C85.3,7.4,79.4,6.7,76,3.7c-3.4-3-8.5-2.6-11.5,0.8
			c-2.9,3.4-8.8,4.8-12.9,3.2c-4.2-1.7-8.9,0.4-10.5,4.6c-1.6,4.2-6.6,7.5-11.1,7.4c-4.5-0.1-8.2,3.5-8.3,8
			c-0.1,4.5-3.6,9.3-7.9,10.8c-4.3,1.4-6.5,6.1-5.1,10.3c1.5,4.2-0.2,10-3.7,12.8C1.6,64.4,1,69.5,3.8,73c2.8,3.5,3.3,9.5,0.9,13.3
			c-2.4,3.8-1.1,8.8,2.7,11.1c3.9,2.3,6.3,7.8,5.4,12.2c-0.9,4.4,2,8.7,6.4,9.5c4.4,0.8,8.6,5.2,9.2,9.6c0.7,4.5,4.8,7.5,9.3,6.8
			c4.4-0.7,9.8,1.9,12,5.9c2.1,4,7.1,5.4,11,3.2c3.9-2.2,9.9-1.6,13.3,1.4c3.4,3,8.5,2.6,11.5-0.8c2.9-3.4,8.8-4.8,12.9-3.2
			c4.2,1.7,8.9-0.4,10.5-4.6c1.6-4.2,6.6-7.5,11.1-7.4c4.5,0.1,8.2-3.5,8.3-8c0.1-4.5,3.6-9.3,7.9-10.8c4.3-1.4,6.6-6.1,5.1-10.3
			c-1.5-4.2,0.2-10,3.7-12.8c3.5-2.8,4.1-7.9,1.2-11.4c-2.8-3.5-3.3-9.5-0.9-13.3C147.6,59.7,146.4,54.7,142.5,52.4z M91.2,137.8
			c-34.7,8.9-70.1-12-79-46.7c-8.9-34.7,12-70.1,46.7-79c34.7-8.9,70.1,12,79,46.7C146.8,93.5,125.9,128.8,91.2,137.8z"/>
	</g>
	<g>
		<path class="st0" d="M59.7,15.3C26.8,23.8,7,57.3,15.4,90.2c8.5,32.9,42,52.7,74.9,44.3c32.9-8.5,52.7-42,44.3-74.9
			C126.1,26.7,92.6,6.9,59.7,15.3z M89.7,132.2c-31.6,8.1-63.9-10.9-72-42.5C9.6,58,28.6,25.8,60.3,17.6c31.6-8.1,63.9,10.9,72,42.5
			C140.4,91.8,121.4,124.1,89.7,132.2z"/>
	</g>
	<g>
		<path class="st0" d="M39.5,111.5c-0.8,0.7-3,2.2-5.3-0.5c-2.1-2.4-0.8-4.2,0-5c0.2-0.2,0.4-0.2,0.6,0l1.4,1.1
			c0.2,0.2,0.2,0.4,0,0.6c-0.5,0.5-0.7,1-0.1,1.7c0.7,0.9,1.3,0.5,2.2-0.3l1.7-1.4c0.9-0.8,1.4-1.3,0.7-2.1c-0.7-0.9-1.3-0.5-1.9,0
			l0.6,0.7c0.2,0.2,0.2,0.5-0.1,0.6l-0.9,0.8c-0.2,0.2-0.5,0.2-0.6-0.1l-2-2.3c-0.2-0.2-0.2-0.4,0.1-0.6l1.6-1.3
			c0.8-0.7,3-2.2,5.3,0.5c2.3,2.8,0.4,4.7-0.3,5.3L39.5,111.5z"/>
		<path class="st0" d="M34.9,93.6c0.2-0.4,0.7-0.4,1,0l0.8,1.5c0.1,0.1,0.1,0.3,0,0.4l-1.9,2.9c0,0,0,0.1,0,0.1l0.3,0.5
			c0.1,0.2,0.4,0.3,0.6,0.2l2.1-1.2c0.2-0.1,0.5-0.1,0.6,0.2l0.8,1.5c0.1,0.2,0.1,0.5-0.2,0.6l-8.5,4.7c-0.2,0.1-0.5,0.1-0.6-0.2
			l-1.6-2.9c-1.3-2.4-0.8-3.9,1.3-5.1c1.2-0.7,2.3-0.9,3.2-0.4c0.1,0,0.1,0,0.2-0.1L34.9,93.6z M31,101.4c0.1,0.2,0.4,0.3,0.6,0.2
			l1-0.5c0.2-0.1,0.3-0.4,0.2-0.6l-0.4-0.7c-0.4-0.6-0.6-0.9-1.4-0.5c-0.8,0.5-0.7,0.8-0.4,1.5L31,101.4z"/>
		<path class="st0" d="M32.7,85.8c0.3-0.1,0.5,0,0.6,0.3l0.5,1.6c0.1,0.3,0,0.5-0.3,0.6l-1.3,0.4C32,88.8,31.9,89,32,89.3l0.4,1.2
			c0.1,0.3,0.3,0.4,0.6,0.3l1.3-0.4c0.3-0.1,0.5,0,0.6,0.3l0.5,1.6c0.1,0.3,0,0.5-0.4,0.6l-6.2,2c-1.8,0.6-3.9,0.9-4.9-2.3
			c-1.1-3.3,0.8-4.2,2.6-4.8L32.7,85.8z M27.3,90.3c-0.7,0.2-1,0.4-0.7,1.4c0.3,1,0.7,0.9,1.4,0.7l1.6-0.5c0.3-0.1,0.4-0.3,0.3-0.6
			l-0.4-1.2c-0.1-0.3-0.3-0.4-0.6-0.3L27.3,90.3z"/>
		<path class="st0" d="M25.8,85.8c-1,0.1-3.7,0.2-4.2-3.3c-0.4-3.2,1.7-4,2.9-4.2c0.2,0,0.4,0.1,0.5,0.3l0.6,1.6
			c0.1,0.3-0.1,0.6-0.4,0.7c-0.7,0.2-1,0.5-0.9,1.3c0.1,1.1,0.9,1.1,2,1l2.2-0.3c1.2-0.1,1.9-0.3,1.7-1.4c-0.1-0.8-0.5-1-1.2-1
			c-0.3,0-0.6-0.2-0.5-0.5l0.2-1.8c0-0.2,0.2-0.4,0.4-0.4c1.2-0.1,3.4,0.1,3.8,3.4c0.4,3.6-2.2,4.1-3.2,4.3L25.8,85.8z"/>
		<path class="st0" d="M21.6,74.3c0-0.3,0.2-0.5,0.5-0.5l9.8,0.1c0.3,0,0.5,0.2,0.5,0.5l0,1.7c0,0.3-0.2,0.5-0.5,0.5L22,76.5
			c-0.3,0-0.5-0.2-0.5-0.5L21.6,74.3z"/>
		<path class="st0" d="M32.8,65.4c0.3,0.1,0.5,0.2,0.4,0.5L33,67.7c0,0.3-0.2,0.4-0.5,0.4l-1.3-0.2c-0.3,0-0.5,0.1-0.5,0.4l-0.2,1.3
			c0,0.3,0.1,0.5,0.4,0.5l1.3,0.2c0.3,0,0.4,0.2,0.4,0.5l-0.3,1.7c0,0.3-0.3,0.4-0.6,0.4l-6.4-1c-1.9-0.3-3.9-0.9-3.3-4.3
			c0.5-3.4,2.6-3.4,4.5-3.1L32.8,65.4z M26,67c-0.7-0.1-1.1-0.1-1.3,0.9c-0.2,1,0.2,1.2,0.9,1.3l1.6,0.3c0.3,0,0.5-0.1,0.5-0.4
			l0.2-1.3c0-0.3-0.1-0.5-0.4-0.5L26,67z"/>
		<path class="st0" d="M28.9,57.2c0,0.3-0.2,0.4-0.5,0.3c-0.6-0.1-1.2,0.2-1.4,0.9c-0.2,0.6,0,1,0.4,1.1c1.2,0.2,2.8-4.3,6.1-3.2
			c0.4,0.2,2.8,1.6,1.6,5c-1.1,3-3.3,2.9-4.4,2.6c-0.3-0.1-0.4-0.3-0.3-0.5l0.2-1.8c0-0.3,0.2-0.4,0.5-0.3c0.7,0.2,1.3-0.2,1.5-0.9
			c0.3-0.7,0-1.4-0.4-1.4c-1.3-0.2-2.6,4.3-5.9,3.1c-0.4-0.1-2.9-1.3-1.7-4.5c1.1-3,3.2-3,4.3-2.7c0.3,0.1,0.4,0.3,0.3,0.5
			L28.9,57.2z"/>
		<path class="st0" d="M32.2,43.7c1.6-2.2,3.2-2.4,5.2-0.9s2.3,3.1,0.7,5.2l-0.4,0.6c-0.2,0.2-0.1,0.5,0.1,0.6l2,1.4
			c0.2,0.2,0.3,0.4,0.1,0.6l-1,1.4c-0.2,0.2-0.4,0.3-0.6,0.1L30.3,47c-0.2-0.2-0.3-0.4-0.1-0.6L32.2,43.7z M36,46.4
			c0.4-0.6,0.6-0.9-0.2-1.5c-0.8-0.6-1.1-0.3-1.5,0.3l-0.5,0.7c-0.2,0.2-0.1,0.5,0.1,0.6l0.9,0.7c0.2,0.2,0.5,0.1,0.6-0.1L36,46.4z"
			/>
		<path class="st0" d="M46.6,39c0.7,0.7,2.4,2.9-0.3,5.3c-2.6,2.5-4.6,0.6-5.3-0.1l-2.6-2.8c-0.7-0.7-2.4-2.9,0.3-5.3
			c2.6-2.5,4.6-0.6,5.3,0.1L46.6,39z M42.6,38.5c-0.8-0.9-1.3-1.3-2.2-0.6c-0.8,0.8-0.4,1.3,0.4,2.2l1.5,1.6
			c0.8,0.9,1.3,1.3,2.2,0.6c0.8-0.8,0.4-1.3-0.4-2.2L42.6,38.5z"/>
		<path class="st0" d="M56,36c0.4,0.2,0.4,0.7,0,1l-1.5,0.9c-0.1,0.1-0.3,0.1-0.4,0l-3-1.8c-0.1,0-0.1,0-0.1,0l-0.5,0.3
			c-0.2,0.1-0.3,0.4-0.2,0.7l1.3,2.1c0.1,0.2,0.1,0.5-0.2,0.7L50,40.7c-0.2,0.1-0.5,0.1-0.7-0.2l-5.1-8.3c-0.1-0.2-0.1-0.5,0.2-0.7
			l2.8-1.8c2.3-1.4,3.9-1,5.2,1.1c0.7,1.2,1,2.2,0.6,3.2c0,0.1,0,0.1,0.1,0.2L56,36z M48,32.5c-0.2,0.1-0.3,0.4-0.2,0.7l0.6,1
			c0.1,0.2,0.4,0.3,0.6,0.2l0.7-0.4c0.6-0.4,0.9-0.7,0.4-1.5c-0.5-0.8-0.9-0.7-1.5-0.3L48,32.5z"/>
		<path class="st0" d="M64.8,22.8c0.3-0.1,0.5,0,0.6,0.3l0.4,1.6c0.1,0.3,0,0.5-0.3,0.6l-3.6,1c-0.3,0.1-0.4,0.3-0.3,0.6l0.1,0.5
			c0.1,0.3,0.3,0.4,0.6,0.3l2.3-0.6c0.3-0.1,0.5,0,0.6,0.3l0.4,1.7c0.1,0.3,0,0.5-0.3,0.6L63,30.2c-0.3,0.1-0.4,0.3-0.3,0.6l0.1,0.5
			c0.1,0.3,0.3,0.4,0.6,0.3l3.6-1c0.3-0.1,0.5,0,0.6,0.3l0.4,1.6c0.1,0.3,0,0.5-0.3,0.6l-6.2,1.7c-0.3,0.1-0.5,0-0.6-0.3L58.3,25
			c-0.1-0.3,0-0.5,0.3-0.6L64.8,22.8z"/>
		<path class="st0" d="M70,22.1c0.3,0,0.5,0.1,0.5,0.4l0.6,7.1c0,0.3,0.2,0.4,0.5,0.4l3.4-0.3c0.3,0,0.5,0.1,0.5,0.4l0.1,1.7
			c0,0.3-0.1,0.5-0.4,0.5l-6,0.5c-0.3,0-0.5-0.1-0.5-0.4l-0.8-9.7c0-0.3,0.1-0.5,0.4-0.5L70,22.1z"/>
		<path class="st0" d="M87.8,33.6c-0.1,0.3-0.3,0.5-0.5,0.4l-1.7-0.3c-0.3-0.1-0.4-0.2-0.4-0.5l0.3-1.3c0.1-0.3-0.1-0.5-0.4-0.5
			L83.8,31c-0.3-0.1-0.5,0.1-0.5,0.4L83,32.7C83,33,82.8,33.1,82.5,33l-1.7-0.3c-0.3-0.1-0.4-0.3-0.3-0.6l1.3-6.3
			c0.4-1.9,1.1-3.8,4.4-3.2c3.4,0.7,3.3,2.7,2.9,4.6L87.8,33.6z M86.5,26.7c0.1-0.7,0.1-1.1-0.9-1.3c-1-0.2-1.2,0.1-1.3,0.9L84,27.9
			c-0.1,0.3,0.1,0.5,0.4,0.5l1.3,0.3c0.3,0,0.5-0.1,0.5-0.4L86.5,26.7z"/>
		<path class="st0" d="M96.2,25.9c2.5,1,3.1,2.5,2.2,4.8c-0.9,2.3-2.4,3-4.9,2l-0.7-0.3c-0.3-0.1-0.5,0-0.6,0.3l-0.9,2.3
			c-0.1,0.3-0.3,0.4-0.6,0.3l-1.6-0.6c-0.3-0.1-0.4-0.3-0.3-0.6l3.7-9c0.1-0.3,0.3-0.4,0.6-0.3L96.2,25.9z M94.5,30.3
			c0.7,0.3,1.1,0.3,1.4-0.5c0.4-0.9,0.1-1.1-0.6-1.4l-0.8-0.3c-0.3-0.1-0.5,0-0.6,0.3l-0.4,1.1c-0.1,0.3,0,0.5,0.2,0.6L94.5,30.3z"
			/>
		<path class="st0" d="M104.3,38.7c-0.5,0.8-2.2,3-5.2,1c-3-2-1.7-4.4-1.2-5.2l2.1-3.2c0.5-0.8,2.2-3,5.2-1c3,2,1.7,4.4,1.2,5.2
			L104.3,38.7z M103.7,34.8c0.6-1,1-1.6,0-2.2c-0.9-0.6-1.4-0.1-2,0.9l-1.2,1.8c-0.6,1-1,1.6,0,2.2c0.9,0.6,1.4,0.1,2-0.9
			L103.7,34.8z"/>
		<path class="st0" d="M112,36c0.2,0.2,0.2,0.4,0.1,0.6l-1.2,2.8c-0.1,0.1,0,0.2,0.2,0.1l2.8-1.2c0.2-0.1,0.4-0.1,0.6,0.1l1.6,1.5
			c0.2,0.2,0.2,0.5-0.1,0.6l-6.2,2.5c-0.1,0-0.1,0.1-0.2,0.1l-2.4,2.4c-0.2,0.2-0.4,0.2-0.6,0l-1.5-1.5c-0.2-0.2-0.2-0.4,0-0.6
			l2.4-2.4c0,0,0.1-0.1,0.1-0.2l2.3-6.3c0.1-0.3,0.4-0.4,0.6-0.1L112,36z"/>
		<path class="st0" d="M116,52.1c-0.8,0.6-3.2,2-5.2-1c-2.1-3,0-4.7,0.8-5.3l3.1-2.2c0.8-0.6,3.2-2,5.2,1c2.1,3,0,4.7-0.8,5.3
			L116,52.1z M117,48.2c1-0.7,1.5-1.1,0.9-2.1c-0.6-0.9-1.3-0.6-2.2,0.1l-1.8,1.3c-1,0.7-1.5,1.1-0.9,2.1c0.6,0.9,1.3,0.6,2.2-0.1
			L117,48.2z"/>
		<path class="st0" d="M127.8,61.9c0.1,0.3,0,0.5-0.3,0.6l-1.6,0.5c-0.3,0.1-0.5,0-0.6-0.3l-1.2-3.5c-0.1-0.3-0.3-0.4-0.6-0.3
			l-0.5,0.2c-0.3,0.1-0.4,0.3-0.3,0.6l0.7,2.2c0.1,0.3,0,0.5-0.3,0.6l-1.6,0.5c-0.3,0.1-0.5,0-0.6-0.3l-0.7-2.2
			c-0.1-0.3-0.3-0.4-0.6-0.3l-0.5,0.2c-0.3,0.1-0.4,0.3-0.3,0.6l1.2,3.5c0.1,0.3,0,0.5-0.3,0.6l-1.6,0.5c-0.3,0.1-0.5,0-0.6-0.3
			l-2-6.1c-0.1-0.3,0-0.5,0.3-0.6l9.3-3.1c0.3-0.1,0.5,0,0.6,0.3L127.8,61.9z"/>
		<path class="st0" d="M129,67.7c0,0.3-0.1,0.4-0.3,0.6l-4.8,2.7c-0.1,0.1-0.1,0.2,0.1,0.2l4.9-0.6c0.3,0,0.5,0.1,0.5,0.4l0.2,1.7
			c0,0.3-0.1,0.5-0.4,0.5l-9.7,1.2c-0.3,0-0.5-0.1-0.5-0.4l-0.3-2.2c0-0.3,0.1-0.4,0.3-0.6l4.8-2.7c0.1-0.1,0.1-0.2-0.1-0.2
			l-4.9,0.6c-0.3,0-0.5-0.1-0.5-0.4l-0.2-1.7c0-0.3,0.1-0.5,0.4-0.5l9.7-1.2c0.3,0,0.5,0.1,0.5,0.4L129,67.7z"/>
		<path class="st0" d="M126,80.9c1,0.2,3.6,0.8,3,4.4c-0.6,3.2-2.8,3.3-4,3.2c-0.2,0-0.4-0.2-0.4-0.4l-0.1-1.7
			c0-0.3,0.2-0.5,0.6-0.5c0.7,0,1.1-0.2,1.3-1c0.2-1.1-0.5-1.3-1.7-1.5l-2.2-0.4c-1.2-0.2-1.9-0.2-2.1,0.9c-0.1,0.8,0.2,1.1,0.9,1.3
			c0.3,0.1,0.5,0.4,0.3,0.7l-0.7,1.6c-0.1,0.2-0.3,0.3-0.5,0.3c-1.1-0.3-3.2-1.1-2.6-4.3c0.6-3.6,3.3-3.3,4.3-3.1L126,80.9z"/>
		<path class="st0" d="M115.3,94.8c-0.3-0.1-0.4-0.3-0.3-0.6l0.6-1.6c0.1-0.3,0.3-0.4,0.6-0.3l1.2,0.5c0.3,0.1,0.5,0,0.6-0.3
			l0.5-1.2c0.1-0.3,0-0.5-0.3-0.6l-1.2-0.5c-0.3-0.1-0.4-0.3-0.3-0.6l0.6-1.6c0.1-0.3,0.3-0.4,0.6-0.2l6,2.3
			c1.8,0.7,3.6,1.7,2.4,4.9c-1.2,3.2-3.2,2.8-5,2.1L115.3,94.8z M122.2,94.6c0.7,0.3,1.1,0.3,1.4-0.7c0.4-0.9,0-1.2-0.6-1.4
			l-1.6-0.6c-0.3-0.1-0.5,0-0.6,0.3l-0.5,1.2c-0.1,0.3,0,0.5,0.3,0.6L122.2,94.6z"/>
		<path class="st0" d="M117.4,103.7c0.1-0.3,0.3-0.3,0.6-0.2c0.6,0.2,1.2,0,1.6-0.6c0.3-0.5,0.2-1-0.1-1.1c-1.1-0.4-3.6,3.7-6.6,1.8
			c-0.4-0.2-2.4-2.1-0.5-5.2c1.7-2.7,3.8-2.2,4.9-1.6c0.2,0.1,0.3,0.3,0.2,0.6l-0.6,1.7c-0.1,0.3-0.3,0.4-0.6,0.2
			c-0.7-0.3-1.3-0.1-1.7,0.5c-0.4,0.6-0.3,1.3,0.1,1.5c1.3,0.4,3.4-3.6,6.4-1.8c0.4,0.2,2.5,1.9,0.8,4.8c-1.7,2.7-3.8,2.2-4.8,1.7
			c-0.2-0.1-0.3-0.3-0.2-0.6L117.4,103.7z"/>
		<path class="st0" d="M105.3,108.3c-0.2-0.2-0.3-0.5-0.1-0.7l1.2-1.2c0.2-0.2,0.4-0.2,0.6,0l1,0.9c0.2,0.2,0.4,0.2,0.6,0l0.9-1
			c0.2-0.2,0.2-0.4,0-0.6l-1-0.9c-0.2-0.2-0.2-0.4,0-0.6l1.2-1.2c0.2-0.2,0.4-0.2,0.7,0l4.7,4.4c1.4,1.3,2.7,2.9,0.3,5.4
			c-2.4,2.5-4.1,1.3-5.4,0L105.3,108.3z M111.8,110.8c0.5,0.5,0.9,0.7,1.6-0.1c0.7-0.7,0.5-1.1,0-1.6l-1.2-1.1
			c-0.2-0.2-0.4-0.2-0.6,0l-0.9,1c-0.2,0.2-0.2,0.4,0,0.7L111.8,110.8z"/>
	</g>
	<g>
		<path class="st0" d="M44.4,70.6c0.3-0.3,0.5-0.7,0.8-0.9c3.6-2.9,7.1-5.8,10.7-8.7c0.3-0.2,0.4-0.5,0.4-0.8c0-3.2,0-6.4,0-9.6
			c0-1.3,0.4-1.7,1.7-1.7c2,0,3.9,0,5.9,0c1.3,0,1.7,0.4,1.7,1.7c0,0.8,0,1.6,0,2.5c0.2-0.1,0.3-0.2,0.4-0.3
			c2.1-1.7,4.3-3.5,6.4-5.2c1.3-1.1,2.4-1.1,3.7,0c9,7.4,18.1,14.8,27.1,22.2c0.1,0.1,0.3,0.2,0.4,0.3c0.5,0.5,0.5,1.2,0.1,1.7
			c-0.4,0.5-1.1,0.5-1.6,0.1c-1-0.8-1.9-1.5-2.9-2.3c-0.9-0.7-1.8-1.5-2.7-2.2c-0.1-0.1-0.2-0.2-0.5-0.3c0,0.3,0,0.5,0,0.8
			c0,9.4,0,18.8,0,28.3c0,0.3,0,0.5,0,0.8c-0.1,0.6-0.4,0.9-1,1c-0.2,0-0.4,0-0.6,0c-13.5,0-27,0-40.5,0c-0.2,0-0.4,0-0.6,0
			c-0.6-0.1-0.9-0.4-1-1c0-0.2,0-0.5,0-0.8c0-9.4,0-18.8,0-28.3c0-0.2,0-0.5,0-0.8c-0.2,0.1-0.3,0.2-0.4,0.3
			c-1.7,1.4-3.4,2.8-5.1,4.2c-1,0.9-1.5,0.8-2.4-0.2C44.4,71.1,44.4,70.8,44.4,70.6z M93.8,95.4c0-0.2,0-0.4,0-0.5
			c0-9.8,0-19.6,0-29.4c0-0.4-0.2-0.6-0.4-0.9c-6-4.9-11.9-9.7-17.9-14.6c-0.9-0.8-1.6-0.8-2.6,0c-6,4.9-11.9,9.8-17.9,14.6
			c-0.3,0.2-0.4,0.5-0.4,0.9c0,9.7,0,19.5,0,29.2c0,0.2,0,0.4,0,0.6C67.8,95.4,80.8,95.4,93.8,95.4z M63.2,51.2c-1.5,0-3,0-4.4,0
			c0,2.4,0,4.9,0,7.4c1.5-1.2,2.9-2.3,4.3-3.5c0.1-0.1,0.2-0.2,0.2-0.3C63.2,53.6,63.2,52.5,63.2,51.2z"/>
	</g>
	<g>
		<g>
			<g>
				<path class="st0" d="M64.2,83.8c0.6-0.4,1.2-0.8,1.7-1.1c2,2.8,4.7,4.4,8.2,4.4c3.5,0,6.2-1.6,8.2-4.4c0.6,0.4,1.1,0.7,1.7,1.1
					c-2.3,3.3-5.5,5.2-9.5,5.4C70.2,89.3,66.8,87.3,64.2,83.8z"/>
			</g>
		</g>
		<g>
			<circle class="st0" cx="63.2" cy="73.1" r="2.5"/>
		</g>
		<g>
			<circle class="st0" cx="85.3" cy="73.1" r="2.5"/>
		</g>
	</g>
</g>
</svg>
