<?xml version="1.0" encoding="utf-8"?>
<!-- Generator: Adobe Illustrator 24.0.1, SVG Export Plug-In . SVG Version: 6.00 Build 0)  -->
<svg version="1.1" id="Layer_1" xmlns="http://www.w3.org/2000/svg" xmlns:xlink="http://www.w3.org/1999/xlink" x="0px" y="0px"
	 viewBox="0 0 150 150" style="enable-background:new 0 0 150 150;" xml:space="preserve">
<style type="text/css">
	.st0{fill:#EA2662;}
</style>
<g>
	<g>
		<path class="st0" d="M142.5,52.6c-3.9-2.3-6.3-7.8-5.4-12.2c0.9-4.4-2-8.7-6.4-9.5c-4.4-0.8-8.6-5.2-9.2-9.6
			c-0.7-4.4-4.8-7.5-9.2-6.8c-4.4,0.7-9.8-1.9-11.9-5.9c-2.1-3.9-7.1-5.4-11-3.2c-3.9,2.2-9.9,1.6-13.2-1.4c-3.4-3-8.5-2.6-11.4,0.8
			C61.8,8.3,56,9.7,51.8,8c-4.2-1.7-8.9,0.4-10.5,4.6c-1.6,4.2-6.6,7.5-11.1,7.4c-4.5-0.1-8.2,3.4-8.3,7.9
			c-0.1,4.5-3.6,9.3-7.8,10.7c-4.3,1.4-6.5,6-5.1,10.3c1.5,4.2-0.2,10-3.7,12.8c-3.5,2.8-4.1,7.9-1.2,11.4c2.8,3.5,3.2,9.4,0.9,13.3
			C2.7,90.3,4,95.3,7.8,97.6c3.9,2.3,6.3,7.8,5.4,12.2c-0.9,4.4,2,8.7,6.4,9.5c4.4,0.8,8.6,5.2,9.2,9.6c0.7,4.4,4.8,7.5,9.2,6.8
			c4.4-0.7,9.8,1.9,11.9,5.9c2.1,3.9,7.1,5.4,11,3.2c3.9-2.2,9.9-1.6,13.2,1.4c3.4,3,8.5,2.6,11.4-0.8c2.9-3.4,8.7-4.8,12.9-3.2
			c4.2,1.7,8.9-0.4,10.5-4.6c1.6-4.2,6.6-7.5,11-7.4c4.5,0.1,8.2-3.4,8.3-7.9c0.1-4.5,3.6-9.3,7.8-10.7c4.3-1.4,6.5-6,5.1-10.3
			c-1.5-4.2,0.2-10,3.7-12.8c3.5-2.8,4.1-7.9,1.2-11.4c-2.8-3.5-3.2-9.4-0.9-13.3C147.6,59.9,146.4,54.9,142.5,52.6z M91.3,137.8
			c-34.6,8.9-69.9-11.9-78.8-46.6C3.6,56.6,24.4,21.3,59.1,12.4C93.7,3.5,129,24.3,137.9,59C146.8,93.6,125.9,128.9,91.3,137.8z"/>
	</g>
	<g>
		<path class="st0" d="M59.9,15.7C27.1,24.1,7.3,57.6,15.7,90.4c8.4,32.8,41.9,52.6,74.7,44.1c32.8-8.4,52.6-41.9,44.1-74.7
			C126.2,27,92.7,7.2,59.9,15.7z M89.9,132.2c-31.6,8.1-63.7-10.9-71.8-42.4C9.9,58.2,28.9,26.1,60.5,17.9
			c31.6-8.1,63.7,10.9,71.8,42.4C140.5,92,121.4,124.1,89.9,132.2z"/>
	</g>
	<g>
		<path class="st0" d="M39,114.8c-0.2-0.2-0.2-0.4,0-0.6l4.9-5.2c0.2-0.2,0.2-0.4,0-0.6l-2.5-2.3c-0.2-0.2-0.2-0.4,0-0.6l1.2-1.2
			c0.2-0.2,0.4-0.2,0.6,0l4.4,4.1c0.2,0.2,0.2,0.4,0,0.6l-6.6,7.1c-0.2,0.2-0.4,0.2-0.6,0L39,114.8z"/>
		<path class="st0" d="M35.3,99.4c0.8-0.6,3.1-2,5.2,0.9c2.1,2.9,0.1,4.7-0.7,5.3l-3.1,2.3c-0.8,0.6-3.1,2-5.2-0.9
			c-2.1-2.9-0.1-4.7,0.7-5.3L35.3,99.4z M34.4,103.3c-0.9,0.7-1.5,1.2-0.8,2.1c0.7,0.9,1.3,0.5,2.2-0.2l1.8-1.3
			c0.9-0.7,1.5-1.2,0.8-2.1c-0.7-0.9-1.3-0.5-2.2,0.2L34.4,103.3z"/>
		<path class="st0" d="M24.3,92.8c-0.9-2.5-0.2-4,2.1-4.8c2.3-0.9,3.8-0.2,4.7,2.3l0.2,0.7c0.1,0.3,0.3,0.4,0.6,0.3l2.3-0.8
			c0.3-0.1,0.5,0,0.6,0.3l0.6,1.6c0.1,0.3,0,0.5-0.3,0.6l-9.1,3.3c-0.3,0.1-0.5,0-0.6-0.3L24.3,92.8z M28.7,91.1
			c-0.2-0.7-0.5-1-1.3-0.7c-0.9,0.3-0.8,0.7-0.6,1.4l0.3,0.8c0.1,0.3,0.3,0.4,0.6,0.3l1.1-0.4c0.3-0.1,0.4-0.3,0.3-0.6L28.7,91.1z"
			/>
		<path class="st0" d="M22.1,84.7c0-0.3,0.1-0.5,0.4-0.5l5.9-0.9c1.2-0.2,1.9-0.4,1.7-1.5c-0.2-1.1-0.9-1.1-2.1-0.9l-5.9,0.9
			c-0.3,0-0.5-0.1-0.5-0.4l-0.3-1.7c0-0.3,0.1-0.5,0.4-0.5l6.7-1.1c1-0.2,3.7-0.4,4.2,3.2c0.6,3.6-2.1,4.2-3.1,4.3l-6.7,1.1
			c-0.3,0-0.5-0.1-0.5-0.4L22.1,84.7z"/>
		<path class="st0" d="M21.3,69.6c0-0.3,0.2-0.5,0.5-0.4l1.7,0.1c0.3,0,0.5,0.2,0.4,0.5l-0.1,3.7c0,0.3,0.1,0.5,0.4,0.5l0.5,0
			c0.3,0,0.5-0.2,0.5-0.4l0.1-2.4c0-0.3,0.2-0.5,0.5-0.4l1.7,0.1c0.3,0,0.5,0.2,0.4,0.5l-0.1,2.4c0,0.3,0.1,0.5,0.4,0.5l0.5,0
			c0.3,0,0.5-0.2,0.5-0.4l0.1-3.7c0-0.3,0.2-0.5,0.5-0.4l1.7,0.1c0.3,0,0.5,0.2,0.4,0.5l-0.2,6.4c0,0.3-0.2,0.5-0.5,0.4l-9.7-0.3
			c-0.3,0-0.5-0.2-0.4-0.5L21.3,69.6z"/>
		<path class="st0" d="M22.5,62.6c0.6-2.8,2-3.5,4.4-2.9l3.2,0.7c2.4,0.6,3.4,1.7,2.7,4.5l-0.8,3.3c-0.1,0.3-0.3,0.4-0.5,0.3
			l-9.5-2.2c-0.3-0.1-0.4-0.2-0.4-0.5L22.5,62.6z M30.4,64.4c0.2-0.7,0.1-1.1-0.8-1.3c0,0-3.2-0.7-3.3-0.7c-0.9-0.2-1.1,0.1-1.3,0.8
			L24.9,64c-0.1,0.3,0,0.5,0.3,0.5l4.4,1c0.3,0.1,0.5-0.1,0.5-0.3L30.4,64.4z"/>
		<path class="st0" d="M27.1,49.9c0.1-0.3,0.3-0.4,0.6-0.2l1.6,0.7c0.3,0.1,0.4,0.3,0.2,0.6L28,54.3c-0.1,0.3,0,0.5,0.2,0.6l0.4,0.2
			c0.3,0.1,0.5,0,0.6-0.2l1-2.2c0.1-0.3,0.3-0.4,0.6-0.2l1.6,0.7c0.3,0.1,0.4,0.3,0.2,0.6l-1,2.2c-0.1,0.3,0,0.5,0.2,0.6l0.4,0.2
			c0.3,0.1,0.5,0,0.6-0.2l1.5-3.4c0.1-0.3,0.3-0.4,0.6-0.2l1.6,0.7c0.3,0.1,0.4,0.3,0.2,0.6l-2.6,5.8c-0.1,0.3-0.3,0.4-0.6,0.2
			l-8.9-3.9c-0.3-0.1-0.4-0.3-0.2-0.6L27.1,49.9z"/>
		<path class="st0" d="M34.6,45.2c-0.1,0.3-0.3,0.3-0.6,0.2c-0.6-0.3-1.2-0.1-1.6,0.5c-0.3,0.5-0.2,1,0.1,1.1
			c1.1,0.5,3.8-3.5,6.7-1.5c0.4,0.3,2.3,2.2,0.3,5.2c-1.8,2.6-3.9,2-4.9,1.4c-0.2-0.1-0.3-0.3-0.2-0.6l0.7-1.6
			c0.1-0.3,0.3-0.3,0.6-0.2c0.6,0.4,1.3,0.1,1.7-0.5c0.4-0.6,0.4-1.3,0-1.5c-1.2-0.5-3.6,3.5-6.5,1.5c-0.4-0.2-2.5-2-0.5-4.8
			c1.8-2.6,3.9-2,4.8-1.5c0.2,0.1,0.3,0.3,0.2,0.6L34.6,45.2z"/>
		<path class="st0" d="M39.9,33.9c0.2-0.2,0.5-0.2,0.6,0.1l2.4,3c0.2,0.2,0.4,0.2,0.6,0.1l1.1-0.9c0.2-0.2,0.2-0.4,0.1-0.6l-2.4-3
			c-0.2-0.2-0.2-0.5,0.1-0.6l1.3-1.1c0.2-0.2,0.5-0.2,0.6,0.1l6.1,7.6c0.2,0.2,0.2,0.4-0.1,0.6l-1.3,1.1c-0.2,0.2-0.5,0.2-0.6-0.1
			L47,38.1c-0.2-0.2-0.4-0.3-0.6-0.1L45.2,39c-0.2,0.2-0.3,0.4-0.1,0.6l1.5,1.9c0.2,0.2,0.2,0.5-0.1,0.6l-1.3,1.1
			c-0.2,0.2-0.5,0.2-0.6-0.1l-6.1-7.6c-0.2-0.2-0.2-0.4,0.1-0.6L39.9,33.9z"/>
		<path class="st0" d="M57.9,34.3c0.2,0.3,0.1,0.5-0.2,0.7l-1.5,0.8c-0.3,0.1-0.5,0.1-0.6-0.2L55,34.4c-0.1-0.3-0.3-0.3-0.6-0.2
			l-1.2,0.6c-0.3,0.1-0.3,0.3-0.2,0.6l0.6,1.2c0.1,0.3,0.1,0.5-0.2,0.6L52,38c-0.3,0.1-0.5,0.1-0.6-0.2l-3-5.7
			c-0.9-1.7-1.6-3.6,1.5-5.2c3-1.6,4.2,0.1,5.1,1.8L57.9,34.3z M52.6,29.8c-0.3-0.6-0.6-0.9-1.5-0.5c-0.9,0.5-0.8,0.8-0.5,1.5
			l0.8,1.5c0.1,0.3,0.4,0.3,0.6,0.2l1.2-0.6c0.3-0.2,0.3-0.4,0.2-0.6L52.6,29.8z"/>
		<path class="st0" d="M56.9,27.5c-0.3-1-0.9-3.6,2.6-4.6c3.1-0.9,4.2,1,4.6,2.1c0.1,0.2,0,0.4-0.2,0.5l-1.5,0.9
			c-0.3,0.2-0.6,0-0.7-0.3c-0.3-0.6-0.6-0.9-1.4-0.7c-1.1,0.3-0.9,1-0.6,2.2l0.6,2.1c0.3,1.1,0.6,1.8,1.7,1.5
			c0.8-0.2,0.9-0.7,0.8-1.4c0-0.3,0.1-0.6,0.4-0.6l1.8-0.1c0.2,0,0.4,0.1,0.4,0.3c0.3,1.1,0.4,3.4-2.7,4.3c-3.4,1-4.4-1.5-4.7-2.4
			L56.9,27.5z"/>
		<path class="st0" d="M72.4,20.8c0.3,0,0.5,0.1,0.5,0.4l0.2,1.7c0,0.3-0.1,0.5-0.4,0.5l-3.7,0.4c-0.3,0-0.4,0.2-0.4,0.5l0.1,0.5
			c0,0.3,0.2,0.4,0.5,0.4l2.3-0.3c0.3,0,0.5,0.1,0.5,0.4l0.2,1.7c0,0.3-0.1,0.5-0.4,0.5l-2.3,0.3c-0.3,0-0.4,0.2-0.4,0.5l0.1,0.5
			c0,0.3,0.2,0.4,0.5,0.4l3.7-0.4c0.3,0,0.5,0.1,0.5,0.4l0.2,1.7c0,0.3-0.1,0.5-0.4,0.5l-6.3,0.7c-0.3,0-0.5-0.1-0.5-0.4L65.7,22
			c0-0.3,0.1-0.5,0.4-0.5L72.4,20.8z"/>
		<path class="st0" d="M82.9,31.1c0.2,0.4-0.1,0.8-0.6,0.8l-1.7-0.1c-0.2,0-0.3-0.1-0.3-0.2l-1.3-3.2c0,0-0.1-0.1-0.1-0.1l-0.6,0
			c-0.3,0-0.5,0.2-0.5,0.4l-0.2,2.4c0,0.3-0.2,0.5-0.5,0.4l-1.7-0.1c-0.3,0-0.5-0.2-0.4-0.5l0.8-9.7c0-0.3,0.2-0.5,0.5-0.4l3.3,0.3
			c2.7,0.2,3.7,1.5,3.5,3.9c-0.1,1.4-0.5,2.4-1.4,2.9c-0.1,0-0.1,0.1-0.1,0.2L82.9,31.1z M78.6,23.6c-0.3,0-0.5,0.2-0.5,0.4L78,25.1
			c0,0.3,0.2,0.5,0.4,0.5l0.8,0.1c0.7,0.1,1.1,0,1.2-0.9c0.1-0.9-0.3-1.1-1-1.1L78.6,23.6z"/>
		<path class="st0" d="M95,24.6c0.3,0.1,0.3,0.3,0.3,0.6l-0.8,4.5c0,0.2,0.1,0.2,0.2,0.1l2.8-3.6c0.2-0.2,0.4-0.3,0.6-0.2l2.9,1.3
			c0.3,0.1,0.4,0.3,0.2,0.6l-3.9,8.9C97.2,37,97,37.1,96.7,37l-1.6-0.7c-0.3-0.1-0.4-0.3-0.2-0.6l2.4-5.5c0-0.1-0.1-0.2-0.1-0.1
			l-3.8,5c-0.2,0.2-0.4,0.3-0.6,0.2l-0.9-0.4c-0.3-0.1-0.3-0.3-0.3-0.6l1.1-6.2c0-0.1-0.1-0.2-0.2-0.1L90,33.6
			c-0.1,0.3-0.3,0.4-0.6,0.2l-1.6-0.7c-0.3-0.1-0.4-0.3-0.2-0.6l3.9-8.9c0.1-0.3,0.3-0.4,0.6-0.2L95,24.6z"/>
		<path class="st0" d="M109.6,33.2c0.2,0.2,0.3,0.4,0.1,0.6l-1,1.4c-0.2,0.2-0.4,0.3-0.6,0.1l-3-2.1c-0.2-0.2-0.5-0.1-0.6,0.1
			l-0.3,0.4c-0.2,0.2-0.1,0.5,0.1,0.6l1.9,1.4c0.2,0.2,0.3,0.4,0.1,0.6l-1,1.4c-0.2,0.2-0.4,0.3-0.6,0.1l-1.9-1.4
			c-0.2-0.2-0.5-0.1-0.6,0.1l-0.3,0.4c-0.2,0.2-0.1,0.5,0.1,0.6l3,2.1c0.2,0.2,0.3,0.4,0.1,0.6l-1,1.4c-0.2,0.2-0.4,0.3-0.6,0.1
			l-5.2-3.7c-0.2-0.2-0.3-0.4-0.1-0.6l5.7-7.9c0.2-0.2,0.4-0.3,0.6-0.1L109.6,33.2z"/>
		<path class="st0" d="M116.5,40.1c0.2,0.2,0.2,0.5,0,0.7l-4.9,4.6c-0.7,0.7-2.8,2.4-5.3-0.3c-2.2-2.4-1-4.2-0.2-5.1
			c0.1-0.2,0.4-0.2,0.5,0l1.4,1c0.3,0.2,0.3,0.5,0.1,0.8c-0.4,0.5-0.5,1,0,1.6c0.8,0.8,1.3,0.4,2.2-0.4l4.3-4.1
			c0.2-0.2,0.5-0.2,0.7,0L116.5,40.1z"/>
		<path class="st0" d="M116.5,53c-0.8,0.5-3.2,1.8-5.2-1.3c-1.9-3,0.2-4.7,1.1-5.2l3.2-2c0.8-0.5,3.2-1.8,5.2,1.3
			c1.9,3-0.2,4.7-1.1,5.2L116.5,53z M117.7,49.2c1-0.6,1.6-1.1,1-2c-0.6-1-1.2-0.6-2.2,0l-1.9,1.2c-1,0.6-1.6,1.1-1,2
			c0.6,1,1.2,0.6,2.2,0L117.7,49.2z"/>
		<path class="st0" d="M117.7,62.8c-0.3,0.3-0.8,0.3-0.9-0.2l-0.6-1.6c-0.1-0.1,0-0.3,0.1-0.4l2.3-2.6c0,0,0-0.1,0-0.1l-0.2-0.6
			c-0.1-0.3-0.4-0.4-0.6-0.3l-2.2,0.9c-0.3,0.1-0.5,0-0.6-0.3l-0.6-1.6c-0.1-0.3,0-0.5,0.3-0.6l9.1-3.5c0.3-0.1,0.5,0,0.6,0.3
			l1.2,3.1c1,2.5,0.3,4-2,4.9c-1.3,0.5-2.4,0.5-3.2,0c-0.1,0-0.1,0-0.2,0L117.7,62.8z M122.7,55.6c-0.1-0.3-0.4-0.4-0.6-0.3
			l-1.1,0.4c-0.3,0.1-0.4,0.4-0.3,0.6l0.3,0.7c0.3,0.7,0.5,1,1.4,0.6c0.9-0.3,0.8-0.7,0.6-1.4L122.7,55.6z"/>
		<path class="st0" d="M114.9,68.9c0-0.3,0.1-0.5,0.4-0.5l6.4-0.4c0.3,0,0.5,0.1,0.5,0.4l0.2,1.7c0,0.3-0.1,0.5-0.4,0.5l-6.3,1
			c-0.3,0-0.5-0.1-0.5-0.4L114.9,68.9z M122.9,68.3c0-0.3,0.1-0.5,0.4-0.5l1.7-0.2c0.3,0,0.5,0.1,0.5,0.4l0.2,1.7
			c0,0.3-0.1,0.5-0.4,0.5l-1.7,0.2c-0.3,0-0.5-0.1-0.5-0.4L122.9,68.3z"/>
		<path class="st0" d="M129,74.7c0,0.3-0.2,0.4-0.4,0.5l-5.9,1.1c-0.1,0-0.1,0.1,0,0.2l5.8,1.5c0.3,0.1,0.4,0.2,0.4,0.5l-0.1,1.8
			c0,0.3-0.2,0.5-0.5,0.4l-9.7-2.6c-0.3-0.1-0.4-0.2-0.4-0.5l0.1-2.8c0-0.3,0.2-0.4,0.4-0.5l9.8-1.9c0.3-0.1,0.5,0.1,0.5,0.4
			L129,74.7z"/>
		<path class="st0" d="M116.9,88.1c-0.3-0.1-0.5-0.3-0.4-0.6l0.4-1.7c0.1-0.3,0.2-0.4,0.5-0.3l1.3,0.3c0.3,0.1,0.5,0,0.5-0.3
			l0.3-1.3c0.1-0.3,0-0.5-0.3-0.5l-1.3-0.3c-0.3-0.1-0.4-0.2-0.3-0.5l0.4-1.7c0.1-0.3,0.3-0.4,0.6-0.3l6.3,1.4
			c1.9,0.4,3.8,1.2,3,4.5c-0.8,3.3-2.8,3.2-4.7,2.8L116.9,88.1z M123.8,87c0.7,0.2,1.1,0.1,1.3-0.8c0.2-1-0.1-1.2-0.8-1.3l-1.6-0.4
			c-0.3-0.1-0.5,0.1-0.5,0.3l-0.3,1.3c-0.1,0.3,0.1,0.5,0.4,0.5L123.8,87z"/>
		<path class="st0" d="M124.3,96.7c-0.1,0.2-0.3,0.3-0.6,0.3l-4.5-1c-0.1,0-0.2,0.1-0.1,0.2l3.5,2.9c0.2,0.2,0.3,0.4,0.2,0.6
			l-1.4,2.8c-0.1,0.3-0.3,0.3-0.6,0.2l-8.8-4.3c-0.3-0.1-0.3-0.3-0.2-0.6l0.7-1.5c0.1-0.3,0.3-0.3,0.6-0.2l5.4,2.6
			c0.1,0,0.2-0.1,0.1-0.1l-4.8-4c-0.2-0.2-0.3-0.4-0.1-0.6l0.4-0.9c0.1-0.2,0.3-0.3,0.6-0.3l6.1,1.3c0.1,0,0.2-0.1,0.1-0.2l-5.4-2.6
			c-0.3-0.1-0.3-0.3-0.2-0.6l0.7-1.5c0.1-0.3,0.4-0.3,0.6-0.2l8.8,4.3c0.3,0.1,0.3,0.3,0.2,0.6L124.3,96.7z"/>
		<path class="st0" d="M109,107c-0.8-0.6-2.7-2.5-0.5-5.3c2.3-2.8,4.5-1.3,5.3-0.6l3,2.4c0.8,0.6,2.7,2.5,0.5,5.3
			c-2.3,2.8-4.5,1.3-5.3,0.6L109,107z M112.9,106.8c0.9,0.7,1.5,1.1,2.2,0.2s0.2-1.4-0.7-2.1l-1.7-1.4c-0.9-0.7-1.5-1.1-2.2-0.3
			c-0.7,0.9-0.2,1.4,0.7,2.1L112.9,106.8z"/>
		<path class="st0" d="M106,114.1c0.2-0.2,0.4-0.2,0.6,0c0.5,0.4,1.1,0.4,1.7-0.1c0.5-0.4,0.5-0.9,0.2-1.1c-0.9-0.8-4.6,2.4-6.8-0.3
			c-0.3-0.3-1.6-2.7,1.1-5.1c2.4-2.1,4.3-0.9,5.1,0c0.2,0.2,0.2,0.4,0,0.6l-1.1,1.4c-0.2,0.2-0.4,0.2-0.6,0c-0.5-0.5-1.2-0.5-1.8,0
			c-0.6,0.5-0.7,1.2-0.4,1.4c1.1,0.8,4.4-2.4,6.6,0.3c0.3,0.3,1.8,2.6-0.8,4.8c-2.4,2-4.3,0.9-5,0.2c-0.2-0.2-0.2-0.4,0-0.6
			L106,114.1z"/>
		<path class="st0" d="M98.3,114.3c-0.3,0.2-0.5,0.1-0.6-0.2l-0.9-1.5c-0.2-0.2-0.1-0.5,0.2-0.6l1.5-0.9c0.2-0.2,0.5-0.1,0.6,0.2
			l0.9,1.5c0.2,0.3,0.1,0.5-0.2,0.6L98.3,114.3z M102.2,121.3c-0.3,0.2-0.5,0.1-0.6-0.2l-3.1-5.6c-0.1-0.3-0.1-0.5,0.1-0.6l1.5-0.9
			c0.2-0.2,0.5-0.1,0.6,0.2l3.6,5.3c0.2,0.3,0.1,0.5-0.2,0.6L102.2,121.3z"/>
	</g>
	<g>
		<path class="st0" d="M43.9,71c0.2-1.1,0.3-2.3,0.6-3.4c1.9-6.9,6-11.7,13-13.5c6.1-1.6,11.6-0.1,16.3,4.1c0.7,0.6,1.3,1.3,2,1.9
			c0.2-0.2,0.5-0.5,0.8-0.8c3-3.2,6.6-5.2,11-5.7c5.2-0.6,9.8,0.8,13.7,4.3c4.8,4.4,6.8,9.9,6.3,16.4c-0.4,4.4-2.2,8.3-5.3,11.5
			C94.2,94.4,86,103,77.9,111.7c-1.4,1.5-2.6,1.5-4,0c-8.2-8.6-16.3-17.2-24.5-25.8c-3.1-3.2-4.8-7.1-5.3-11.6
			c0-0.2-0.1-0.4-0.1-0.5C43.9,72.8,43.9,71.9,43.9,71z M75.9,107.2c0.1-0.2,0.2-0.3,0.3-0.4c7.6-8.1,15.3-16.1,22.9-24.2
			c0.4-0.4,0.8-0.9,1.2-1.4c4.2-5.8,3.9-13.1-0.6-18.6c-4.6-5.4-12.5-6.2-18-1.7c-1.4,1.2-2.6,2.6-3.9,3.9c-1.2,1.2-2.6,1.3-3.8,0
			c-1-1.1-2-2.2-3.1-3.2c-3.5-3.3-7.7-4.4-12.3-3.2c-5.8,1.5-9.6,7-10,12.5c-0.4,4.6,1.1,8.6,4.3,12c5.7,6,11.3,11.9,17,17.9
			C71.8,102.9,73.8,105,75.9,107.2z"/>
	</g>
</g>
</svg>
