<?xml version="1.0" encoding="utf-8"?>
<!-- Generator: Adobe Illustrator 24.0.1, SVG Export Plug-In . SVG Version: 6.00 Build 0)  -->
<svg version="1.1" id="Layer_1" xmlns="http://www.w3.org/2000/svg" xmlns:xlink="http://www.w3.org/1999/xlink" x="0px" y="0px"
	 viewBox="0 0 150 150" style="enable-background:new 0 0 150 150;" xml:space="preserve">
<style type="text/css">
	.st0{fill:#F476DC;}
</style>
<g>
	<g>
		<path class="st0" d="M141.7,52.7c-3.8-2.3-6.2-7.7-5.3-12.1c0.9-4.4-2-8.6-6.3-9.5c-4.4-0.8-8.5-5.1-9.2-9.6
			c-0.7-4.4-4.8-7.4-9.2-6.7c-4.4,0.7-9.8-1.9-11.9-5.8C97.6,5,92.7,3.6,88.8,5.8C84.9,8,79,7.3,75.6,4.4c-3.3-3-8.5-2.6-11.4,0.8
			c-2.9,3.4-8.7,4.8-12.9,3.2c-4.2-1.6-8.8,0.4-10.4,4.6c-1.6,4.2-6.5,7.5-11,7.4c-4.5-0.1-8.2,3.4-8.2,7.9
			c-0.1,4.5-3.6,9.3-7.8,10.7c-4.2,1.4-6.5,6-5,10.2c1.5,4.2-0.2,9.9-3.7,12.7C1.7,64.6,1.2,69.7,4,73.1c2.8,3.5,3.2,9.4,0.9,13.2
			c-2.3,3.8-1.1,8.8,2.7,11.1c3.8,2.3,6.3,7.7,5.4,12.1c-0.9,4.4,2,8.6,6.3,9.5c4.4,0.8,8.5,5.1,9.2,9.6c0.7,4.4,4.8,7.4,9.2,6.7
			c4.4-0.7,9.8,1.9,11.9,5.8c2.1,3.9,7.1,5.4,11,3.2c3.9-2.2,9.8-1.5,13.2,1.4c3.3,3,8.5,2.6,11.4-0.8c2.9-3.4,8.7-4.8,12.9-3.2
			c4.2,1.6,8.8-0.4,10.4-4.6c1.6-4.2,6.5-7.5,11-7.4c4.5,0.1,8.2-3.4,8.2-7.9c0.1-4.5,3.6-9.3,7.8-10.7c4.2-1.4,6.5-6,5-10.2
			c-1.5-4.2,0.2-9.9,3.7-12.7c3.5-2.8,4.1-7.9,1.2-11.3c-2.8-3.5-3.2-9.4-0.9-13.2C146.8,59.9,145.6,54.9,141.7,52.7z M90.7,137.4
			c-34.5,8.9-69.6-11.9-78.5-46.3C3.4,56.6,24.1,21.5,58.6,12.6c34.5-8.9,69.6,11.9,78.5,46.3C145.9,93.4,125.2,128.6,90.7,137.4z"
			/>
	</g>
	<g>
		<path class="st0" d="M59.4,15.9C26.8,24.3,7.1,57.6,15.5,90.3c8.4,32.7,41.7,52.4,74.4,43.9c32.7-8.4,52.4-41.7,43.9-74.4
			C125.4,27.1,92.1,7.5,59.4,15.9z M89.3,131.9c-31.4,8.1-63.4-10.8-71.5-42.2C9.7,58.3,28.6,26.2,60,18.1
			c31.4-8.1,63.4,10.8,71.5,42.2C139.6,91.8,120.7,123.8,89.3,131.9z"/>
	</g>
	<g>
		<path class="st0" d="M32.5,102.3c-0.9,0.5-3.3,1.6-5.1-1.5c-1.5-2.8,0-4.3,1-4.9c0.2-0.1,0.4-0.1,0.6,0.1l1.2,1.3
			c0.2,0.2,0.2,0.4-0.1,0.6c-0.6,0.4-0.9,0.8-0.4,1.6c0.5,1,1.2,0.7,2.2,0.1l1.9-1.1c1-0.6,1.6-1,1.1-2c-0.5-1-1.2-0.7-1.9-0.3
			l0.4,0.8c0.1,0.3,0.1,0.5-0.2,0.6l-1.1,0.6c-0.3,0.1-0.5,0.1-0.6-0.2l-1.5-2.6C30,95.2,30,95,30.3,94.8l1.8-1
			c0.9-0.5,3.3-1.6,5.1,1.5c1.7,3.1-0.5,4.6-1.4,5.1L32.5,102.3z"/>
		<path class="st0" d="M31.5,84.1c0.3-0.3,0.8-0.2,0.9,0.2l0.5,1.6c0,0.1,0,0.3-0.1,0.4l-2.4,2.4c0,0,0,0.1,0,0.1l0.2,0.6
			c0.1,0.3,0.3,0.4,0.6,0.3l2.3-0.7c0.3-0.1,0.5,0,0.6,0.3l0.5,1.6c0.1,0.3,0,0.5-0.3,0.6l-9.2,3c-0.3,0.1-0.5,0-0.6-0.3l-1-3.2
			c-0.8-2.6-0.1-4,2.3-4.7c1.3-0.4,2.4-0.4,3.2,0.2c0.1,0,0.1,0,0.2,0L31.5,84.1z M26.2,90.9c0.1,0.3,0.3,0.4,0.6,0.3l1.1-0.3
			c0.3-0.1,0.4-0.3,0.3-0.6l-0.2-0.7c-0.2-0.7-0.4-1-1.3-0.7c-0.9,0.3-0.9,0.7-0.6,1.4L26.2,90.9z"/>
		<path class="st0" d="M30.9,76.1c0.3,0,0.5,0.1,0.6,0.4l0.2,1.7c0,0.3-0.1,0.5-0.4,0.5l-1.3,0.2c-0.3,0-0.4,0.2-0.4,0.5l0.2,1.3
			c0,0.3,0.2,0.4,0.5,0.4l1.3-0.2c0.3,0,0.5,0.1,0.5,0.4l0.2,1.7c0,0.3-0.1,0.5-0.5,0.5l-6.4,0.7c-1.9,0.2-3.9,0.2-4.3-3.2
			c-0.4-3.4,1.6-3.9,3.5-4.1L30.9,76.1z M24.8,79.4c-0.7,0.1-1.1,0.2-1,1.2c0.1,1,0.5,1.1,1.2,1l1.6-0.2c0.3,0,0.4-0.2,0.4-0.5
			l-0.2-1.3c-0.1-0.3-0.2-0.4-0.5-0.4L24.8,79.4z"/>
		<path class="st0" d="M24.2,74.6c-1-0.1-3.7-0.5-3.4-4.1c0.2-3.2,2.4-3.6,3.6-3.5c0.2,0,0.4,0.1,0.4,0.4l0.3,1.7
			c0,0.3-0.2,0.5-0.5,0.6c-0.7,0-1.1,0.3-1.1,1.1c-0.1,1.1,0.6,1.2,1.8,1.3l2.2,0.2c1.2,0.1,1.9,0.1,2-1.1c0.1-0.8-0.3-1.1-1-1.2
			c-0.3-0.1-0.5-0.3-0.4-0.6l0.5-1.7c0.1-0.2,0.2-0.3,0.5-0.3c1.1,0.1,3.3,0.8,3,4C31.6,75,29,75,28,74.9L24.2,74.6z"/>
		<path class="st0" d="M22.3,62.7c0.1-0.3,0.2-0.4,0.5-0.4l9.5,2c0.3,0.1,0.4,0.2,0.4,0.5l-0.3,1.6c-0.1,0.3-0.3,0.4-0.5,0.3l-9.5-2
			c-0.3-0.1-0.4-0.3-0.3-0.5L22.3,62.7z"/>
		<path class="st0" d="M34.9,56.2c0.3,0.1,0.4,0.3,0.3,0.6l-0.6,1.6c-0.1,0.3-0.3,0.4-0.6,0.3l-1.2-0.5c-0.3-0.1-0.5,0-0.6,0.3
			l-0.4,1.2c-0.1,0.3,0,0.5,0.3,0.6l1.2,0.5c0.3,0.1,0.4,0.3,0.3,0.6L33,62.9c-0.1,0.3-0.3,0.4-0.6,0.3l-6-2.2
			c-1.8-0.7-3.6-1.6-2.4-4.8c1.2-3.2,3.2-2.8,5-2.1L34.9,56.2z M28,56.4c-0.7-0.2-1.1-0.3-1.4,0.7c-0.3,0.9,0,1.2,0.6,1.4l1.6,0.6
			c0.3,0.1,0.5,0,0.6-0.3l0.4-1.2c0.1-0.3,0-0.5-0.3-0.6L28,56.4z"/>
		<path class="st0" d="M32.7,47.5c-0.1,0.3-0.3,0.3-0.6,0.2c-0.6-0.2-1.2,0-1.5,0.6c-0.3,0.5-0.2,1,0.1,1.1c1.1,0.4,3.6-3.7,6.5-1.9
			c0.4,0.2,2.4,2.1,0.6,5.1c-1.6,2.7-3.8,2.2-4.8,1.7c-0.2-0.1-0.3-0.3-0.2-0.6l0.6-1.7c0.1-0.3,0.3-0.4,0.6-0.2
			c0.7,0.3,1.3,0.1,1.7-0.5c0.4-0.6,0.3-1.3-0.1-1.5c-1.3-0.4-3.4,3.6-6.3,1.8c-0.4-0.2-2.6-1.8-0.8-4.7c1.6-2.7,3.7-2.2,4.7-1.8
			c0.2,0.1,0.3,0.3,0.2,0.6L32.7,47.5z"/>
		<path class="st0" d="M38.6,34.9c2-1.8,3.6-1.7,5.2,0.1c1.7,1.8,1.6,3.4-0.3,5.2l-0.5,0.5c-0.2,0.2-0.2,0.4,0,0.6l1.6,1.8
			c0.2,0.2,0.2,0.4,0,0.6L43.2,45c-0.2,0.2-0.4,0.2-0.6,0l-6.5-7.1c-0.2-0.2-0.2-0.4,0-0.7L38.6,34.9z M41.8,38.3
			c0.5-0.5,0.7-0.8,0.1-1.5c-0.6-0.7-1-0.5-1.5,0l-0.6,0.6c-0.2,0.2-0.2,0.4,0,0.6l0.8,0.8c0.2,0.2,0.4,0.2,0.6,0L41.8,38.3z"/>
		<path class="st0" d="M53.5,33.1c0.5,0.9,1.8,3.2-1.3,5.1s-4.6-0.3-5.2-1.1l-2-3.2c-0.5-0.9-1.8-3.2,1.3-5.1
			c3.1-1.9,4.6,0.3,5.2,1.1L53.5,33.1z M49.7,31.9c-0.6-1-1.1-1.6-2-1c-1,0.6-0.6,1.2,0,2.2l1.1,1.9c0.6,1,1.1,1.6,2,1
			c1-0.6,0.6-1.2,0-2.2L49.7,31.9z"/>
		<path class="st0" d="M63.2,32.1c0.3,0.3,0.3,0.8-0.2,0.9l-1.6,0.6c-0.1,0.1-0.3,0-0.4-0.1l-2.5-2.3c0,0-0.1,0-0.1,0l-0.6,0.2
			c-0.3,0.1-0.4,0.3-0.3,0.6l0.8,2.2c0.1,0.3,0,0.5-0.3,0.6l-1.6,0.6c-0.3,0.1-0.5,0-0.6-0.3l-3.4-9.1c-0.1-0.3,0-0.5,0.3-0.6
			l3.1-1.2c2.5-0.9,3.9-0.2,4.8,2.1c0.5,1.3,0.5,2.4,0,3.2c0,0.1,0,0.1,0,0.2L63.2,32.1z M56.1,27c-0.3,0.1-0.4,0.3-0.3,0.6l0.4,1.1
			c0.1,0.3,0.3,0.4,0.6,0.3l0.7-0.3c0.7-0.3,1-0.5,0.7-1.3c-0.3-0.9-0.7-0.8-1.4-0.6L56.1,27z"/>
		<path class="st0" d="M70.2,24.2c0-0.3-0.2-0.4-0.5-0.4l-2.1,0.1c-0.3,0-0.5-0.1-0.5-0.4L67,21.8c0-0.3,0.1-0.5,0.4-0.5l7.7-0.5
			c0.3,0,0.5,0.1,0.5,0.4l0.1,1.7c0,0.3-0.1,0.5-0.4,0.5l-2.1,0.1c-0.3,0-0.4,0.2-0.4,0.5l0.4,7.1c0,0.3-0.1,0.5-0.4,0.5l-1.7,0.1
			c-0.3,0-0.5-0.1-0.5-0.4L70.2,24.2z"/>
		<path class="st0" d="M80.2,21.3c0.3,0,0.4,0.2,0.4,0.5l-0.8,5.9c-0.2,1.2-0.2,1.9,0.9,2c1.1,0.2,1.3-0.5,1.4-1.7l0.8-5.9
			c0-0.3,0.2-0.4,0.5-0.4l1.7,0.2c0.3,0,0.4,0.2,0.4,0.5l-0.9,6.7c-0.1,1-0.7,3.6-4.3,3.1c-3.6-0.5-3.4-3.2-3.3-4.2l0.9-6.7
			c0-0.3,0.2-0.4,0.5-0.4L80.2,21.3z"/>
		<path class="st0" d="M92.3,28c-0.3,0-0.4-0.2-0.4-0.5c0.1-0.6-0.2-1.2-0.9-1.4c-0.6-0.2-1,0-1.1,0.4c-0.2,1.2,4.4,2.7,3.2,6
			c-0.1,0.4-1.5,2.8-4.9,1.6c-3-1-3-3.2-2.7-4.4c0.1-0.3,0.3-0.4,0.5-0.3l1.7,0.2c0.3,0,0.4,0.2,0.3,0.5c-0.2,0.7,0.2,1.3,0.9,1.5
			c0.7,0.2,1.4,0,1.4-0.4c0.1-1.3-4.3-2.5-3.1-5.8c0.1-0.4,1.3-2.9,4.5-1.8c3,1,3,3.2,2.7,4.2c-0.1,0.3-0.3,0.4-0.5,0.3L92.3,28z"/>
		<path class="st0" d="M108.2,32.8c0.2,0.2,0.3,0.4,0.1,0.6l-1,1.4c-0.2,0.2-0.4,0.3-0.6,0.1l-3-2.1c-0.2-0.2-0.5-0.1-0.6,0.1
			l-0.3,0.4c-0.2,0.2-0.1,0.5,0.1,0.6l1.9,1.4c0.2,0.2,0.3,0.4,0.1,0.6l-1,1.4c-0.2,0.2-0.4,0.3-0.6,0.1l-1.9-1.4
			c-0.2-0.2-0.5-0.1-0.6,0.1l-0.3,0.4c-0.2,0.2-0.1,0.5,0.1,0.6l3,2.1c0.2,0.2,0.3,0.4,0.1,0.6l-1,1.4c-0.2,0.2-0.4,0.3-0.6,0.1
			l-5.2-3.7c-0.2-0.2-0.3-0.4-0.1-0.6l5.6-7.9c0.2-0.2,0.4-0.3,0.6-0.1L108.2,32.8z"/>
		<path class="st0" d="M111.8,36.1c0.2,0.2,0.2,0.4,0.1,0.6l-3.3,5c-0.1,0.1,0,0.2,0.1,0.1l5.1-3.1c0.2-0.1,0.4-0.1,0.6,0.1l1.2,1.3
			c0.2,0.2,0.2,0.5-0.1,0.6l-8.5,5.1c-0.2,0.1-0.4,0.1-0.6-0.1l-2-2c-0.2-0.2-0.2-0.4-0.1-0.6l5.5-8.3c0.2-0.3,0.4-0.3,0.6-0.1
			L111.8,36.1z"/>
		<path class="st0" d="M118.5,44c0.2,0.2,0.1,0.5-0.1,0.6l-7.9,5.6c-0.2,0.2-0.5,0.1-0.6-0.1l-1-1.4c-0.2-0.2-0.1-0.5,0.1-0.6
			l7.9-5.6c0.2-0.2,0.5-0.1,0.6,0.1L118.5,44z"/>
		<path class="st0" d="M122.1,49.8c1.3,2.5,0.7,3.9-1.5,5l-2.9,1.5c-2.2,1.2-3.7,0.9-5-1.7l-1.6-3c-0.1-0.3-0.1-0.5,0.2-0.6l8.6-4.5
			c0.3-0.1,0.5-0.1,0.6,0.2L122.1,49.8z M115,53.6c0.3,0.6,0.6,0.9,1.4,0.5c0,0,2.9-1.5,2.9-1.5c0.8-0.4,0.7-0.8,0.4-1.4l-0.4-0.7
			c-0.1-0.3-0.3-0.3-0.6-0.2l-4,2.1c-0.3,0.1-0.3,0.4-0.2,0.6L115,53.6z"/>
		<path class="st0" d="M126.9,62.4c0.1,0.3,0,0.5-0.3,0.6l-1.6,0.5c-0.3,0.1-0.5,0-0.6-0.3l-1.1-3.5c-0.1-0.3-0.3-0.4-0.6-0.3
			l-0.5,0.1c-0.3,0.1-0.4,0.3-0.3,0.6l0.7,2.2c0.1,0.3,0,0.5-0.3,0.6l-1.6,0.5c-0.3,0.1-0.5,0-0.6-0.3l-0.7-2.2
			c-0.1-0.3-0.3-0.4-0.6-0.3l-0.5,0.1c-0.3,0.1-0.4,0.3-0.3,0.6l1.1,3.5c0.1,0.3,0,0.5-0.3,0.6l-1.6,0.5c-0.3,0.1-0.5,0-0.6-0.3
			l-1.8-6.1c-0.1-0.3,0-0.5,0.3-0.6l9.3-2.8c0.3-0.1,0.5,0,0.6,0.3L126.9,62.4z"/>
		<path class="st0" d="M127.8,68.3c0,0.3-0.1,0.4-0.3,0.6l-4.8,2.5c-0.1,0.1-0.1,0.2,0.1,0.2l4.9-0.5c0.3,0,0.5,0.1,0.5,0.4l0.2,1.7
			c0,0.3-0.1,0.5-0.4,0.5l-9.6,0.9c-0.3,0-0.5-0.1-0.5-0.4l-0.2-2.2c0-0.3,0.1-0.4,0.3-0.6l4.8-2.5c0.1-0.1,0.1-0.2-0.1-0.2
			l-4.9,0.5c-0.3,0-0.5-0.1-0.5-0.4l-0.2-1.7c0-0.3,0.1-0.5,0.4-0.5l9.6-0.9c0.3,0,0.5,0.1,0.5,0.4L127.8,68.3z"/>
		<path class="st0" d="M124.9,76.2c1,0.1,3.6,0.6,3.3,4.2c-0.3,3.2-2.5,3.5-3.7,3.4c-0.2,0-0.4-0.2-0.4-0.4l-0.2-1.7
			c0-0.3,0.2-0.5,0.5-0.6c0.7,0,1.1-0.2,1.2-1c0.1-1.1-0.6-1.3-1.7-1.4l-2.2-0.2c-1.2-0.1-1.9-0.1-2,1c-0.1,0.8,0.3,1.1,1,1.3
			c0.3,0.1,0.5,0.3,0.4,0.6l-0.6,1.7c-0.1,0.2-0.2,0.3-0.5,0.3c-1.1-0.2-3.2-0.9-2.9-4.1c0.4-3.6,3.1-3.5,4.1-3.4L124.9,76.2z"/>
		<path class="st0" d="M126.4,88.3c-0.1,0.3-0.3,0.4-0.6,0.3l-9.4-2.3c-0.3-0.1-0.4-0.3-0.3-0.5l0.4-1.6c0.1-0.3,0.3-0.4,0.5-0.3
			l9.4,2.3c0.3,0.1,0.4,0.3,0.3,0.5L126.4,88.3z"/>
		<path class="st0" d="M113.6,94.3c-0.3-0.1-0.4-0.3-0.3-0.6l0.6-1.6c0.1-0.3,0.3-0.4,0.6-0.3l1.2,0.5c0.3,0.1,0.5,0,0.6-0.3
			l0.5-1.2c0.1-0.3,0-0.5-0.3-0.6l-1.2-0.5c-0.3-0.1-0.4-0.3-0.3-0.6l0.6-1.6c0.1-0.3,0.3-0.4,0.6-0.2l6,2.4
			c1.8,0.7,3.5,1.7,2.3,4.9s-3.3,2.7-5,2L113.6,94.3z M120.5,94.3c0.7,0.3,1.1,0.3,1.4-0.6c0.4-0.9,0.1-1.2-0.6-1.4l-1.5-0.6
			c-0.3-0.1-0.5,0-0.6,0.3l-0.5,1.2c-0.1,0.3,0,0.5,0.3,0.6L120.5,94.3z"/>
		<path class="st0" d="M115.5,103.1c0.1-0.3,0.3-0.3,0.6-0.2c0.6,0.2,1.2,0,1.6-0.6c0.3-0.5,0.2-1-0.1-1.1c-1.1-0.5-3.7,3.6-6.6,1.7
			c-0.4-0.2-2.4-2.1-0.4-5.1c1.7-2.7,3.8-2.1,4.9-1.5c0.2,0.1,0.3,0.3,0.2,0.6l-0.6,1.6c-0.1,0.3-0.3,0.4-0.6,0.2
			c-0.6-0.3-1.3-0.1-1.7,0.5c-0.4,0.6-0.3,1.3,0.1,1.5c1.2,0.5,3.5-3.5,6.4-1.6c0.4,0.2,2.5,1.9,0.7,4.8c-1.7,2.6-3.8,2.1-4.8,1.6
			c-0.2-0.1-0.3-0.3-0.2-0.6L115.5,103.1z"/>
	</g>
</g>
<g>
	<path class="st0" d="M96.5,108.5c-12.8,0-25.7,0-38.5,0c-0.4-0.1-0.8-0.1-1.2-0.2c-6.5-1-11.9-6.5-12.5-13.6
		c-0.5-6.5,3.2-12.7,9.4-15.1c1.2-0.5,2.6-0.8,3.9-1.2c0-0.1,0-0.4,0-0.6c0-7,0-13.9,0-20.9c0-3.2,2.1-5.3,5.3-5.3
		c8.3,0,16.5,0,24.8,0c0.8,0,1.3,0.2,1.9,0.8c3.5,3.5,7,7,10.5,10.5c0.6,0.5,0.8,1.1,0.8,1.9c0,7.3,0,14.6,0,21.9
		c0,5.5,0,11.1,0,16.6c0,2.2-1,3.8-3.1,4.7C97.3,108.3,96.9,108.3,96.5,108.5z M74.1,91.8c0.2,0,0.4,0,0.6,0c3.6,0,7.2,0,10.8,0
		c1.9,0,3.8,0,5.8,0c0.8,0,1.3,0.3,1.6,1c0.5,1.1-0.3,2.3-1.7,2.3c-5.5,0-11,0-16.5,0c-0.2,0-0.4,0-0.7,0c-0.3,2-0.8,3.8-1.8,5.5
		c-0.9,1.7-2.2,3.1-3.7,4.5c0.3,0,0.5,0,0.6,0c8.7,0,17.5,0,26.2,0c1.4,0,2-0.6,2-2c0-12.1,0-24.3,0-36.4c0-0.2,0-0.4,0-0.6
		c-0.3,0-0.5,0-0.7,0c-2.8,0-5.6,0-8.4,0c-1.5,0-2.1-0.6-2.1-2.1c0-2.8,0-5.6,0-8.4c0-0.2,0-0.4,0-0.6c-0.2,0-0.4,0-0.6,0
		c-7.6,0-15.3,0-22.9,0c-1.4,0-2,0.6-2,2c0,7,0,14,0,21c0,0.2,0,0.4,0,0.6c2.7,0.3,5.2,1.3,7.3,2.9c0.3,0.2,0.6,0.3,0.9,0.3
		c7.3,0,14.5,0,21.8,0c0.2,0,0.4,0,0.6,0c1.2,0.1,1.9,1.3,1.4,2.4c-0.3,0.7-1,1-1.7,1c-6.3,0-12.5,0-18.8,0c-0.2,0-0.4,0-0.7,0
		C73,87.2,73.8,89.4,74.1,91.8z M59.1,81.8c-6.4,0-11.6,5.2-11.7,11.6c0,6.4,5.2,11.7,11.6,11.7c6.4,0,11.7-5.2,11.7-11.7
		C70.8,87.1,65.6,81.8,59.1,81.8z M89.7,57.5c0,1.8,0,3.5,0,5.2c1.8,0,3.5,0,5.2,0C93.2,60.9,91.5,59.2,89.7,57.5z"/>
	<path class="st0" d="M79.1,75.2c-4,0-8,0-12,0c-1.3,0-2.1-1.1-1.7-2.3c0.3-0.7,0.8-1,1.5-1c0.4,0,0.8,0,1.2,0c7.7,0,15.4,0,23.1,0
		c1.3,0,2.2,1.2,1.7,2.3c-0.3,0.7-0.9,1-1.7,1C87.1,75.2,83.1,75.2,79.1,75.2z"/>
	<path class="st0" d="M56.8,95.9c0.2-0.2,0.4-0.3,0.5-0.5c2-2,4-4,6-6c1-1,2.5-0.6,2.9,0.7c0.2,0.7-0.1,1.3-0.6,1.7
		c-2.5,2.5-4.9,4.9-7.4,7.4c-0.1,0.1-0.1,0.1-0.2,0.2c-0.7,0.6-1.7,0.6-2.3,0c-1.1-1.1-2.2-2.2-3.3-3.3c-0.7-0.7-0.7-1.7,0-2.4
		c0.7-0.7,1.7-0.6,2.4,0.1C55.4,94.5,56.1,95.2,56.8,95.9z"/>
</g>
</svg>
