<?xml version="1.0" encoding="utf-8"?>
<!-- Generator: Adobe Illustrator 24.0.1, SVG Export Plug-In . SVG Version: 6.00 Build 0)  -->
<svg version="1.1" id="Layer_1" xmlns="http://www.w3.org/2000/svg" xmlns:xlink="http://www.w3.org/1999/xlink" x="0px" y="0px"
	 viewBox="0 0 150 150" style="enable-background:new 0 0 150 150;" xml:space="preserve">
<style type="text/css">
	.st0{fill:#20B2B2;}
</style>
<g>
	<g>
		<path class="st0" d="M142.5,52.8c-3.9-2.3-6.3-7.8-5.4-12.2c0.9-4.4-2-8.7-6.4-9.5c-4.4-0.8-8.6-5.2-9.2-9.6
			c-0.7-4.4-4.8-7.5-9.3-6.8c-4.4,0.7-9.8-1.9-12-5.9c-2.1-4-7.1-5.4-11-3.2c-3.9,2.2-9.9,1.6-13.2-1.4c-3.4-3-8.5-2.6-11.4,0.8
			c-2.9,3.4-8.8,4.8-12.9,3.2c-4.2-1.7-8.9,0.4-10.5,4.6c-1.6,4.2-6.6,7.5-11.1,7.4c-4.5-0.1-8.2,3.5-8.3,7.9
			c-0.1,4.5-3.6,9.3-7.9,10.8c-4.3,1.4-6.5,6.1-5.1,10.3c1.5,4.2-0.2,10-3.7,12.8C1.7,64.7,1.1,69.9,4,73.4
			c2.8,3.5,3.2,9.5,0.9,13.3c-2.4,3.8-1.1,8.8,2.7,11.1c3.9,2.3,6.3,7.8,5.4,12.2c-0.9,4.4,2,8.7,6.4,9.5c4.4,0.8,8.6,5.2,9.2,9.6
			c0.7,4.4,4.8,7.5,9.3,6.8c4.4-0.7,9.8,1.9,12,5.9c2.1,4,7.1,5.4,11,3.2c3.9-2.2,9.9-1.6,13.2,1.4c3.4,3,8.5,2.6,11.4-0.8
			c2.9-3.4,8.8-4.8,12.9-3.2c4.2,1.7,8.9-0.4,10.5-4.6c1.6-4.2,6.6-7.5,11.1-7.4c4.5,0.1,8.2-3.4,8.3-7.9c0.1-4.5,3.6-9.3,7.9-10.8
			c4.3-1.4,6.5-6.1,5.1-10.3c-1.5-4.2,0.2-10,3.7-12.8c3.5-2.8,4.1-7.9,1.2-11.4c-2.8-3.5-3.2-9.5-0.9-13.3
			C147.6,60.1,146.4,55.1,142.5,52.8z M91.2,138.1c-34.7,8.9-70-12-79-46.6c-8.9-34.7,12-70,46.6-79c34.7-8.9,70,12,79,46.6
			C146.8,93.8,125.9,129.2,91.2,138.1z"/>
	</g>
	<g>
		<path class="st0" d="M59.7,15.7c-32.9,8.5-52.7,42-44.2,74.9c8.5,32.9,42,52.7,74.9,44.2c32.9-8.5,52.7-42,44.2-74.9
			C126.1,27.1,92.6,7.3,59.7,15.7z M89.8,132.5c-31.6,8.1-63.8-10.9-72-42.5C9.7,58.4,28.7,26.2,60.3,18c31.6-8.1,63.8,10.9,72,42.5
			C140.4,92.2,121.4,124.4,89.8,132.5z"/>
	</g>
	<g>
		<path class="st0" d="M51.6,110.4c0-0.5,0.4-0.7,0.8-0.5l1.5,0.8c0.1,0.1,0.2,0.2,0.2,0.4l-0.1,3.4c0,0.1,0,0.1,0.1,0.1l0.5,0.3
			c0.2,0.1,0.5,0.1,0.6-0.2l1.2-2.1c0.1-0.2,0.4-0.3,0.6-0.2l1.5,0.8c0.2,0.1,0.3,0.4,0.2,0.6l-4.7,8.5c-0.1,0.2-0.4,0.3-0.6,0.2
			l-2.9-1.6c-2.4-1.3-2.8-2.8-1.6-5c0.7-1.2,1.5-1.9,2.5-2.1c0.1,0,0.1-0.1,0.1-0.2L51.6,110.4z M52.4,119.1
			c0.2,0.1,0.5,0.1,0.6-0.2l0.5-1c0.1-0.2,0.1-0.5-0.2-0.6l-0.7-0.4c-0.6-0.4-1-0.4-1.5,0.4s-0.2,1.1,0.5,1.4L52.4,119.1z"/>
		<path class="st0" d="M39.5,113c-0.2-0.2-0.2-0.4-0.1-0.6l1.1-1.3c0.2-0.2,0.4-0.2,0.6-0.1l2.8,2.4c0.2,0.2,0.4,0.2,0.6-0.1L45,113
			c0.2-0.2,0.2-0.5-0.1-0.6l-1.8-1.5c-0.2-0.2-0.3-0.4-0.1-0.6l1.1-1.3c0.2-0.2,0.4-0.2,0.6-0.1l1.8,1.5c0.2,0.2,0.4,0.2,0.6-0.1
			l0.3-0.4c0.2-0.2,0.2-0.5-0.1-0.6l-2.8-2.4c-0.2-0.2-0.3-0.4-0.1-0.6l1.1-1.3c0.2-0.2,0.4-0.2,0.6-0.1l4.9,4.1
			c0.2,0.2,0.2,0.4,0.1,0.6l-6.3,7.4c-0.2,0.2-0.4,0.2-0.6,0.1L39.5,113z"/>
		<path class="st0" d="M36.2,109.4c-0.2-0.2-0.2-0.4,0-0.6l3.8-4.7c0.1-0.1,0-0.2-0.1-0.1l-5.4,2.6c-0.2,0.1-0.5,0.1-0.6-0.1
			l-1.1-1.4c-0.2-0.3-0.2-0.5,0.1-0.6l9-4.3c0.2-0.1,0.5-0.1,0.6,0.1l1.8,2.2c0.2,0.2,0.2,0.4,0,0.6l-6.3,7.8
			c-0.2,0.3-0.4,0.3-0.6,0L36.2,109.4z"/>
		<path class="st0" d="M30.2,100.8c-0.2-0.3-0.1-0.5,0.2-0.6l8.4-4.9c0.3-0.1,0.5-0.1,0.6,0.2l0.8,1.5c0.1,0.3,0.1,0.5-0.2,0.6
			l-8.4,4.9c-0.3,0.2-0.5,0.1-0.6-0.2L30.2,100.8z"/>
		<path class="st0" d="M30.2,91.7c0.2,0.3,0.1,0.5-0.2,0.6c-0.5,0.3-0.7,0.9-0.5,1.6c0.2,0.6,0.7,0.8,1,0.6c1-0.6-0.8-5.1,2.5-6.4
			c0.4-0.2,3.1-0.7,4.5,2.7c1.2,3-0.5,4.4-1.6,4.9c-0.2,0.1-0.5,0.1-0.6-0.2l-1-1.5c-0.2-0.3-0.1-0.5,0.2-0.6c0.7-0.3,0.8-1,0.6-1.7
			c-0.3-0.7-0.9-1-1.2-0.8c-1.1,0.7,0.9,4.9-2.4,6.2c-0.4,0.2-3,0.9-4.3-2.2c-1.2-2.9,0.5-4.3,1.5-4.8c0.2-0.1,0.5,0,0.6,0.2
			L30.2,91.7z"/>
		<path class="st0" d="M33.8,79.3c0.3-0.1,0.5,0.1,0.6,0.4l0.3,1.7c0.1,0.3-0.1,0.5-0.4,0.5l-1.3,0.2c-0.3,0.1-0.4,0.2-0.4,0.5
			l0.2,1.3c0.1,0.3,0.2,0.4,0.5,0.4l1.3-0.2c0.3-0.1,0.5,0.1,0.5,0.4l0.3,1.7c0.1,0.3-0.1,0.5-0.4,0.5l-6.4,1.1
			c-1.9,0.3-4,0.4-4.6-3c-0.6-3.4,1.3-4,3.2-4.4L33.8,79.3z M27.9,83c-0.7,0.1-1.1,0.3-0.9,1.3c0.2,1,0.6,1,1.3,0.9l1.6-0.3
			c0.3-0.1,0.4-0.2,0.4-0.5l-0.2-1.3c-0.1-0.3-0.2-0.4-0.5-0.4L27.9,83z"/>
		<path class="st0" d="M24.1,68.7c0.4-2.8,1.6-3.6,4.1-3.3l3.3,0.4c2.5,0.3,3.5,1.4,3.1,4.3l-0.4,3.4c0,0.3-0.2,0.4-0.5,0.4
			l-9.6-1.3c-0.3,0-0.4-0.2-0.4-0.5L24.1,68.7z M32.1,69.7c0.1-0.7,0-1.1-0.9-1.2c0,0-3.3-0.4-3.3-0.4c-0.9-0.1-1.1,0.2-1.2,1
			l-0.1,0.8c0,0.3,0.1,0.5,0.4,0.5l4.5,0.6c0.3,0,0.5-0.1,0.5-0.4L32.1,69.7z"/>
		<path class="st0" d="M27.6,55.5c0.1-0.3,0.3-0.4,0.6-0.3l1.6,0.6c0.3,0.1,0.4,0.3,0.3,0.6l-1.2,3.5c-0.1,0.3,0,0.5,0.3,0.6
			l0.5,0.2c0.3,0.1,0.5,0,0.6-0.3l0.8-2.2c0.1-0.3,0.3-0.4,0.6-0.3l1.6,0.6c0.3,0.1,0.4,0.3,0.3,0.6l-0.8,2.2
			c-0.1,0.3,0,0.5,0.3,0.6l0.5,0.2c0.3,0.1,0.5,0,0.6-0.3l1.2-3.5c0.1-0.3,0.3-0.4,0.6-0.3l1.6,0.6c0.3,0.1,0.4,0.3,0.3,0.6L35.6,65
			c-0.1,0.3-0.3,0.4-0.6,0.3l-9.2-3.2c-0.3-0.1-0.4-0.3-0.3-0.6L27.6,55.5z"/>
		<path class="st0" d="M33.2,45.6c0.2-0.2,0.3-0.3,0.6-0.2l5.3,1.4c0.1,0,0.2-0.1,0.1-0.2l-3.9-2.9c-0.2-0.2-0.3-0.4-0.1-0.6l1-1.4
			c0.2-0.2,0.4-0.3,0.6-0.1l7.8,5.8c0.2,0.2,0.3,0.4,0.1,0.6l-1.3,1.8C43.2,50,43,50.1,42.8,50l-5.3-1.4c-0.1,0-0.2,0.1-0.1,0.2
			l3.9,2.9c0.2,0.2,0.3,0.4,0.1,0.6l-1,1.4C40.2,54,40,54,39.8,53.9L31.9,48c-0.2-0.2-0.3-0.4-0.1-0.6L33.2,45.6z"/>
		<path class="st0" d="M40.2,37.5c0.2-0.2,0.4-0.2,0.6,0l3.9,4.5c0.8,0.9,1.3,1.4,2.1,0.6c0.9-0.7,0.4-1.3-0.3-2.2L42.7,36
			c-0.2-0.2-0.2-0.5,0-0.6l1.3-1.1c0.2-0.2,0.4-0.2,0.6,0l4.5,5.1c0.7,0.8,2.3,2.9-0.5,5.3c-2.7,2.4-4.7,0.5-5.3-0.3l-4.5-5.1
			c-0.2-0.2-0.2-0.5,0-0.6L40.2,37.5z"/>
		<path class="st0" d="M52.8,28.8c0.3-0.2,0.5-0.1,0.6,0.2l0.8,1.5c0.1,0.3,0.1,0.5-0.2,0.6l-3.2,1.8c-0.3,0.1-0.3,0.4-0.2,0.6
			l0.2,0.4c0.1,0.3,0.4,0.3,0.6,0.2l2.1-1.2c0.3-0.2,0.5-0.1,0.6,0.2l0.8,1.5c0.1,0.3,0.1,0.5-0.2,0.6l-2.1,1.2
			c-0.3,0.1-0.3,0.4-0.2,0.6l0.2,0.4c0.1,0.3,0.4,0.3,0.6,0.2l3.2-1.8c0.3-0.2,0.5-0.1,0.6,0.2l0.8,1.5c0.2,0.3,0.1,0.5-0.2,0.6
			l-5.6,3.2c-0.3,0.1-0.5,0.1-0.6-0.2l-4.8-8.5C47,32.3,47,32.1,47.3,32L52.8,28.8z"/>
		<path class="st0" d="M57.4,26.9c0.3-0.1,0.5,0,0.6,0.2l3.1,5.1c0.1,0.1,0.2,0.1,0.2-0.1l-0.6-6c0-0.3,0.1-0.4,0.4-0.5l1.7-0.6
			c0.3-0.1,0.5,0,0.5,0.4l1,10c0,0.3-0.1,0.4-0.4,0.5l-2.7,0.9c-0.3,0.1-0.5,0-0.6-0.2l-5.2-8.6c-0.2-0.3-0.1-0.5,0.2-0.6L57.4,26.9
			z"/>
		<path class="st0" d="M73.9,30.7c0.1,1,0.2,3.7-3.3,4.1c-3.6,0.4-4.1-2.2-4.3-3.2l-0.5-3.8c-0.1-1-0.2-3.7,3.3-4.1
			c3.6-0.4,4.1,2.2,4.3,3.2L73.9,30.7z M70.9,28.1c-0.1-1.2-0.3-1.9-1.4-1.7c-1.1,0.1-1.1,0.9-1,2l0.3,2.2c0.1,1.2,0.3,1.9,1.4,1.7
			c1.1-0.1,1.1-0.9,1-2L70.9,28.1z"/>
		<path class="st0" d="M77.4,31.7c0.3,0,0.5,0.2,0.4,0.5l0,1.7c0,1.1-0.5,2-1.7,2.1c-0.2,0-0.3-0.2-0.1-0.3c0.4-0.5,0.5-0.9,0.5-1.2
			c0-0.1-0.1-0.2-0.1-0.2l-0.7,0c-0.3,0-0.5-0.2-0.4-0.5l0-1.7c0-0.3,0.2-0.5,0.5-0.4L77.4,31.7z"/>
		<path class="st0" d="M82.9,38c-0.3-0.1-0.4-0.3-0.3-0.5l1.7-6.2c0.1-0.3,0.3-0.4,0.5-0.3l1.7,0.4c0.3,0.1,0.4,0.3,0.3,0.5
			l-1.1,6.3c-0.1,0.3-0.2,0.4-0.5,0.3L82.9,38z M84.9,30.2c-0.3-0.1-0.4-0.2-0.3-0.5L85,28c0.1-0.3,0.3-0.4,0.5-0.3l1.7,0.4
			c0.3,0.1,0.4,0.3,0.3,0.5l-0.4,1.7c-0.1,0.3-0.2,0.4-0.5,0.3L84.9,30.2z"/>
		<path class="st0" d="M90.1,29.1c0.4-0.9,1.6-3.3,4.9-2c3,1.2,2.7,3.4,2.3,4.5c-0.1,0.2-0.3,0.3-0.5,0.3l-1.7-0.3
			c-0.3-0.1-0.5-0.4-0.4-0.7c0.2-0.6,0.1-1.1-0.7-1.4c-1-0.4-1.4,0.2-1.8,1.3l-0.8,2c-0.4,1.1-0.6,1.8,0.4,2.2
			c0.8,0.3,1.1,0,1.5-0.6c0.2-0.3,0.5-0.4,0.7-0.2l1.5,1c0.2,0.1,0.2,0.3,0.1,0.5c-0.5,1-1.8,2.9-4.8,1.7c-3.3-1.4-2.5-3.9-2.1-4.9
			L90.1,29.1z"/>
		<path class="st0" d="M101.4,42.5c-0.2,0.3-0.4,0.4-0.7,0.2l-1.4-0.9c-0.2-0.2-0.3-0.4-0.1-0.6l0.7-1.1c0.2-0.3,0.1-0.5-0.1-0.6
			l-1.1-0.7c-0.2-0.2-0.5-0.1-0.6,0.1l-0.7,1.1c-0.2,0.3-0.4,0.3-0.6,0.1l-1.4-0.9C95,39,95,38.7,95.2,38.5l3.5-5.4
			c1-1.6,2.4-3.2,5.3-1.3c2.9,1.9,2,3.7,1,5.4L101.4,42.5z M102.7,35.7c0.4-0.6,0.5-1-0.3-1.5c-0.8-0.5-1.1-0.3-1.5,0.3l-0.9,1.4
			c-0.2,0.2-0.1,0.5,0.1,0.6l1.1,0.7c0.3,0.2,0.5,0.1,0.6-0.1L102.7,35.7z"/>
		<path class="st0" d="M110.5,42.3c-0.3-0.2-0.3-0.4-0.1-0.6c0.4-0.5,0.3-1.2-0.2-1.7c-0.4-0.4-0.9-0.4-1.1-0.1
			c-0.7,1,2.8,4.3,0.3,6.8c-0.3,0.3-2.6,1.9-5.2-0.6c-2.3-2.2-1.3-4.2-0.5-5.1c0.2-0.2,0.4-0.2,0.6-0.1l1.5,0.9
			c0.3,0.2,0.3,0.4,0.1,0.6c-0.5,0.6-0.4,1.3,0.1,1.8c0.5,0.5,1.2,0.6,1.5,0.2c0.7-1.1-2.8-4.1-0.3-6.6c0.3-0.3,2.4-2.1,4.8,0.3
			c2.2,2.2,1.3,4.2,0.6,5c-0.2,0.2-0.4,0.2-0.6,0.1L110.5,42.3z"/>
		<path class="st0" d="M117.4,44.8c0.2,0.2,0.2,0.5-0.1,0.6l-7.8,5.9c-0.2,0.2-0.5,0.2-0.6-0.1l-1-1.3c-0.2-0.2-0.1-0.5,0.1-0.6
			l7.8-5.9c0.2-0.2,0.5-0.1,0.6,0.1L117.4,44.8z"/>
		<path class="st0" d="M122.8,54c0.1,0.3,0,0.5-0.2,0.6l-6.5,2.8c-0.3,0.1-0.4,0.3-0.2,0.6l1.4,3.1c0.1,0.3,0,0.5-0.2,0.6l-1.6,0.7
			c-0.3,0.1-0.5,0-0.6-0.2l-2.4-5.5c-0.1-0.3,0-0.5,0.2-0.6l8.9-3.9c0.3-0.1,0.5,0,0.6,0.2L122.8,54z"/>
		<path class="st0" d="M120.1,69.6c-1,0.2-3.7,0.6-4.4-2.9c-0.8-3.5,1.8-4.3,2.8-4.5l3.7-0.8c1-0.2,3.7-0.6,4.4,2.9
			c0.8,3.5-1.8,4.3-2.8,4.5L120.1,69.6z M122.4,66.4c1.1-0.3,1.8-0.5,1.6-1.6c-0.2-1.1-1-1-2.1-0.8l-2.1,0.5
			c-1.1,0.3-1.8,0.5-1.6,1.6c0.2,1.1,1,1,2.1,0.8L122.4,66.4z"/>
		<path class="st0" d="M127.5,78.5c0,0.3-0.2,0.4-0.5,0.4l-7.1-0.6c-0.3,0-0.5,0.1-0.5,0.4l-0.3,3.4c0,0.3-0.2,0.4-0.5,0.4l-1.7-0.1
			c-0.3,0-0.4-0.2-0.4-0.5l0.5-6c0-0.3,0.2-0.4,0.5-0.4l9.7,0.8c0.3,0,0.4,0.2,0.4,0.5L127.5,78.5z"/>
		<path class="st0" d="M117.7,91.1c-1-0.3-3.5-1.2-2.6-4.7c1-3.5,3.6-3,4.6-2.7l3.7,1c1,0.3,3.5,1.2,2.6,4.7c-1,3.5-3.6,3-4.6,2.7
			L117.7,91.1z M121.3,89.3c1.1,0.3,1.8,0.4,2.1-0.7c0.3-1.1-0.4-1.3-1.5-1.7l-2.1-0.6c-1.1-0.3-1.8-0.4-2.1,0.7
			c-0.3,1.1,0.4,1.3,1.5,1.7L121.3,89.3z"/>
		<path class="st0" d="M120.6,94.1c0.9,0.5,3.2,1.9,1.6,5.1c-1.4,2.9-3.6,2.4-4.7,1.9c-0.3-0.1-0.3-0.3-0.3-0.6l0.4-1.7
			c0.1-0.3,0.3-0.4,0.6-0.3c0.7,0.3,1.2,0.2,1.6-0.5c0.5-1-0.1-1.4-1.1-1.9l-2-1c-1-0.5-1.7-0.8-2.2,0.2c-0.5,1,0.1,1.4,0.8,1.7
			l0.4-0.8c0.1-0.3,0.4-0.3,0.6-0.2l1.1,0.5c0.3,0.1,0.3,0.4,0.2,0.6l-1.4,2.7c-0.1,0.3-0.3,0.3-0.6,0.2l-1.8-0.9
			c-0.9-0.5-3.2-1.9-1.6-5.1c1.6-3.2,4.1-2.2,5-1.7L120.6,94.1z"/>
		<path class="st0" d="M105.8,105.1c-0.4-0.1-0.6-0.5-0.3-0.9l1.1-1.4c0.1-0.1,0.2-0.2,0.4-0.1l3.4,0.7c0.1,0,0.1,0,0.1,0l0.4-0.5
			c0.2-0.2,0.1-0.5-0.1-0.7l-1.9-1.5c-0.2-0.2-0.2-0.4-0.1-0.7l1.1-1.3c0.2-0.2,0.4-0.2,0.7-0.1l7.6,6.1c0.2,0.2,0.2,0.4,0.1,0.7
			l-2.1,2.6c-1.7,2.1-3.3,2.3-5.2,0.7c-1.1-0.9-1.7-1.8-1.6-2.8c0-0.1,0-0.1-0.1-0.2L105.8,105.1z M114.5,105.8
			c0.2-0.2,0.1-0.5-0.1-0.7l-0.9-0.7c-0.2-0.2-0.5-0.1-0.7,0.1l-0.5,0.6c-0.5,0.6-0.6,0.9,0.1,1.5c0.7,0.6,1,0.4,1.5-0.2
			L114.5,105.8z"/>
		<path class="st0" d="M99.4,110.1c-0.2-0.3-0.2-0.5,0-0.7l1.3-1.1c0.2-0.2,0.4-0.2,0.6,0.1l0.8,1c0.2,0.2,0.4,0.3,0.6,0.1l1-0.8
			c0.2-0.2,0.3-0.4,0.1-0.6l-0.8-1c-0.2-0.2-0.2-0.4,0.1-0.6l1.3-1.1c0.2-0.2,0.5-0.2,0.7,0.1l4.1,5c1.2,1.5,2.3,3.2-0.3,5.4
			c-2.6,2.2-4.2,0.8-5.4-0.7L99.4,110.1z M105.6,113.4c0.5,0.6,0.8,0.8,1.6,0.1c0.8-0.6,0.6-1,0.2-1.6l-1.1-1.3
			c-0.2-0.2-0.4-0.2-0.6-0.1l-1,0.8c-0.2,0.2-0.2,0.4-0.1,0.7L105.6,113.4z"/>
		<path class="st0" d="M96.9,118.8c0.2-0.2,0.4-0.1,0.6,0.1c0.4,0.5,1,0.6,1.7,0.3c0.5-0.3,0.7-0.8,0.5-1c-0.8-0.9-5,1.4-6.6-1.7
			c-0.2-0.4-1-3,2.1-4.7c2.8-1.5,4.4,0,5,1c0.1,0.2,0.1,0.4-0.1,0.6l-1.3,1.2c-0.2,0.2-0.5,0.2-0.6-0.1c-0.4-0.6-1.1-0.7-1.7-0.4
			c-0.7,0.4-0.9,1-0.7,1.3c0.9,1,4.8-1.4,6.4,1.7c0.2,0.4,1.3,2.9-1.7,4.5c-2.8,1.5-4.4,0-5-0.9c-0.1-0.2-0.1-0.4,0.1-0.6
			L96.9,118.8z"/>
		<path class="st0" d="M89.3,117.2c-0.3,0.1-0.5,0-0.6-0.3l-0.6-1.6c-0.1-0.3,0-0.5,0.3-0.6l1.6-0.6c0.3-0.1,0.5,0,0.6,0.3l0.6,1.6
			c0.1,0.3,0,0.5-0.3,0.6L89.3,117.2z M91.7,124.9c-0.3,0.1-0.5,0-0.6-0.3l-1.8-6.1c-0.1-0.3,0-0.5,0.3-0.6l1.6-0.6
			c0.3-0.1,0.5,0,0.6,0.3l2.4,5.9c0.1,0.3,0,0.5-0.3,0.6L91.7,124.9z"/>
	</g>
</g>
<g>
	<path class="st0" d="M50.4,94.1c0.3-1.3,1.1-2.3,2-3.2c2.7-2.6,5.3-5.3,7.9-7.9c0.8-0.8,1.2-0.8,2,0c0.4,0.4,0.8,0.9,1.2,1.3
		c1-1,2-2,2.9-2.9c-8.4-9.1-6.8-23.4,2.4-30.8c8.8-7.1,21.4-6.1,29.2,2.2c7.5,8,7.4,20.8-0.1,28.9c-7.8,8.3-21,9.3-29.9,1.4
		c-0.9,1-1.9,1.9-2.9,2.9c0.4,0.4,0.9,0.8,1.3,1.2c0.6,0.6,0.6,1.2,0,1.8c-2.9,2.9-5.8,5.8-8.7,8.7c-0.7,0.7-1.5,1.1-2.5,1.3
		c-0.4,0-0.8,0-1.2,0c-0.1,0-0.2-0.1-0.3-0.1c-1.4-0.4-2.4-1.2-2.9-2.5c-0.2-0.3-0.2-0.7-0.4-1.1C50.4,94.9,50.4,94.5,50.4,94.1z
		 M63.1,67.1c0,10.6,8.6,19.2,19.2,19.2c10.6,0,19.2-8.6,19.2-19.2c0-10.6-8.6-19.3-19.2-19.3C71.6,47.9,63.1,56.5,63.1,67.1z
		 M61.3,84.9c-0.1,0.2-0.2,0.3-0.4,0.4c-2.5,2.5-5,5-7.5,7.5c-0.1,0.1-0.2,0.2-0.3,0.3c-1.1,1.3-0.5,3.2,1.1,3.6
		c0.9,0.2,1.6-0.1,2.2-0.7c2.6-2.6,5.2-5.2,7.8-7.8c0.1-0.1,0.2-0.2,0.3-0.3C63.4,87,62.4,86,61.3,84.9z"/>
	<path class="st0" d="M83.3,83.8c-9.4,0-16.5-6.2-17.6-14.6c-1.2-9.1,5.3-17.6,14.4-18.8c8-1,15.5,3.7,18,11.3
		c0.2,0.7,0,1.3-0.6,1.5c-0.6,0.2-1.1-0.1-1.4-0.9c-1.6-4.4-4.5-7.5-8.8-9.1c-8.6-3.3-18.1,2.3-19.5,11.4
		c-1.3,8.1,4.2,15.6,12.3,16.9c6.8,1,13.6-3,15.9-9.4c0.1-0.2,0.1-0.4,0.2-0.6c0.2-0.6,0.8-0.9,1.3-0.7c0.5,0.2,0.8,0.8,0.6,1.4
		c-0.6,1.9-1.5,3.7-2.8,5.2C92,81.6,87.6,83.7,83.3,83.8z"/>
	<path class="st0" d="M81,65.8c0.2-0.2,0.3-0.3,0.5-0.4c1.2-1.2,2.4-2.4,3.6-3.6c1.4-1.4,3.5-1.4,4.9-0.1c1.4,1.3,1.4,3.5,0,4.9
		c-2.3,2.4-4.7,4.7-7.1,7.1c-1.1,1.1-2.6,1.1-3.7,0c-1.5-1.5-3-3-4.5-4.5c-1.4-1.4-1.4-3.5,0-4.9c1.3-1.4,3.5-1.4,4.9,0
		C80,64.8,80.5,65.3,81,65.8z M75.7,67c0.1,0.2,0.3,0.6,0.5,0.8c1.4,1.4,2.8,2.8,4.2,4.2c0.5,0.5,0.6,0.5,1.2,0
		c2.2-2.2,4.4-4.4,6.6-6.6c0.1-0.1,0.3-0.3,0.4-0.4c0.3-0.5,0.3-1,0.1-1.5c-0.3-0.5-0.8-0.8-1.3-0.6c-0.3,0.1-0.7,0.3-1,0.5
		c-1.5,1.4-2.9,2.9-4.3,4.3c-0.8,0.8-1.2,0.8-2,0c-0.7-0.7-1.3-1.3-2-2c-0.4-0.4-1-0.5-1.5-0.3C76,65.7,75.7,66.2,75.7,67z"/>
	<path class="st0" d="M99,67.1c0,0.6-0.5,1.1-1.1,1c-0.6,0-1-0.5-1-1c0-0.6,0.5-1.1,1.1-1C98.6,66.1,99,66.6,99,67.1z"/>
</g>
</svg>
