<?xml version="1.0" encoding="utf-8"?>
<!-- Generator: Adobe Illustrator 24.0.1, SVG Export Plug-In . SVG Version: 6.00 Build 0)  -->
<svg version="1.1" id="Layer_1" xmlns="http://www.w3.org/2000/svg" xmlns:xlink="http://www.w3.org/1999/xlink" x="0px" y="0px"
	 viewBox="0 0 100 100" style="enable-background:new 0 0 100 100;" xml:space="preserve">
<style type="text/css">
	.st0{fill:#4D46E0;}
	.st1{fill:#3A3ACC;}
	.st2{fill:#FFFFFF;}
	.st3{opacity:0.15;fill:#FFFFFF;}
</style>
<g>
	<path class="st0" d="M50,70.4c19.9,0,36.7-13.2,41.9-31.2C87.1,20.5,70.1,6.7,50,6.7S12.9,20.5,8.1,39.2
		C13.3,57.2,30.1,70.4,50,70.4z"/>
	<path class="st1" d="M50,93.3c23.9,0,43.3-19.4,43.3-43.3c0-3.7-0.5-7.4-1.4-10.8c-5.2,18-22,31.2-41.9,31.2S13.3,57.2,8.1,39.2
		C7.2,42.6,6.7,46.3,6.7,50C6.7,73.9,26.1,93.3,50,93.3z"/>
	<path class="st2" d="M50,1.6C23.3,1.6,1.6,23.3,1.6,50S23.3,98.4,50,98.4S98.4,76.7,98.4,50S76.7,1.6,50,1.6z M50,6.7
		c20.1,0,37.1,13.8,41.9,32.5c0.9,3.5,1.4,7.1,1.4,10.8c0,23.9-19.4,43.3-43.3,43.3S6.7,73.9,6.7,50c0-3.7,0.5-7.4,1.4-10.8
		C12.9,20.5,29.9,6.7,50,6.7z"/>
	<ellipse class="st3" cx="50" cy="16.3" rx="18.5" ry="9.3"/>
</g>
<g>
	<path class="st2" d="M69.8,25.4c0,11.2,0,22.4,0,33.6c0,4.8-3.8,8.5-8.6,8.6c-4.2,0.1-8-3.2-8.5-7.3c-0.6-4.6,2.1-8.6,6.6-9.7
		c2.6-0.6,5,0,7.2,1.6c0.1,0.1,0.2,0.2,0.3,0.3c0,0,0,0,0.1,0c0-4.7,0-9.3,0-14c-1.8,0.5-3.7,0.9-5.5,1.4c-6.5,1.7-13,3.3-19.5,4.9
		c-0.4,0.1-0.5,0.3-0.5,0.7c0,6.7,0,13.5,0,20.2c0,3-1.2,5.5-3.6,7.2c-5.1,3.8-12.7,0.5-13.5-5.8c-0.6-4.6,2.2-8.7,6.8-9.6
		c2.6-0.5,4.9,0,7,1.6c0.1,0.1,0.2,0.2,0.4,0.3c0-0.3,0-0.5,0-0.6c0-8.3,0-16.6,0-24.9c0-0.5,0.1-0.6,0.6-0.7c10-2.5,20-5.1,30-7.6
		c0.2,0,0.4-0.1,0.6-0.2C69.7,25.4,69.8,25.4,69.8,25.4z"/>
</g>
</svg>
