<?xml version="1.0" encoding="utf-8"?>
<!-- Generator: Adobe Illustrator 24.0.1, SVG Export Plug-In . SVG Version: 6.00 Build 0)  -->
<svg version="1.1" id="Layer_1" xmlns="http://www.w3.org/2000/svg" xmlns:xlink="http://www.w3.org/1999/xlink" x="0px" y="0px"
	 viewBox="0 0 100 100" style="enable-background:new 0 0 100 100;" xml:space="preserve">
<style type="text/css">
	.st0{fill:#B23E0B;}
	.st1{fill:#96341B;}
	.st2{fill:#FFFFFF;}
	.st3{opacity:0.15;fill:#FFFFFF;}
</style>
<g>
	<path class="st0" d="M50,70.4c19.9,0,36.7-13.2,41.9-31.2C87.1,20.5,70.1,6.7,50,6.7S12.9,20.5,8.1,39.2
		C13.3,57.2,30.1,70.4,50,70.4z"/>
	<path class="st1" d="M50,93.3c23.9,0,43.3-19.4,43.3-43.3c0-3.7-0.5-7.4-1.4-10.8c-5.2,18-22,31.2-41.9,31.2S13.3,57.2,8.1,39.2
		C7.2,42.6,6.7,46.3,6.7,50C6.7,73.9,26.1,93.3,50,93.3z"/>
	<path class="st2" d="M50,1.6C23.3,1.6,1.6,23.3,1.6,50S23.3,98.4,50,98.4S98.4,76.7,98.4,50S76.7,1.6,50,1.6z M50,6.7
		c20.1,0,37.1,13.8,41.9,32.5c0.9,3.5,1.4,7.1,1.4,10.8c0,23.9-19.4,43.3-43.3,43.3S6.7,73.9,6.7,50c0-3.7,0.5-7.4,1.4-10.8
		C12.9,20.5,29.9,6.7,50,6.7z"/>
	<ellipse class="st3" cx="50" cy="16.3" rx="18.5" ry="9.3"/>
</g>
<g>
	<g>
		<path class="st2" d="M26.7,39.5l11.7,17.8l-7.3,2.8l-2-3.3L24.3,57l-1,3.5l-7-2.3L26.7,39.5z M25.5,53.3l2.8-0.5l-1.2-3.2
			L25.5,53.3z"/>
	</g>
	<g>
		<path class="st2" d="M44,41.6c2.2-0.4,4-0.7,5.4-0.8c1.4-0.1,2.5-0.2,3.4-0.2c0.8,0,1.6,0.1,2.2,0.2c0.6,0.3,1.2,0.6,1.6,0.9
			c0.4,0.3,0.8,0.7,1.2,1.1c0.4,0.4,0.6,1,0.7,1.5c0.1,0.6,0,1.2-0.3,2c-0.3,0.7-0.9,1.5-1.9,2.4c1.3,0.7,2.2,1.4,2.8,2.2
			c0.5,0.8,0.9,1.6,0.9,2.3s-0.1,1.5-0.3,2.2c-0.3,0.7-0.6,1.3-1,1.8c-0.4,0.5-0.9,1.1-1.5,1.7c0,0-0.1,0.1-0.3,0.2
			c-0.2,0.1-0.6,0.3-1.1,0.4c-0.6,0.2-1.3,0.3-2.3,0.4s-2.2,0.2-3.7,0.2s-3.3-0.1-5.4-0.4L44,41.6z M53.5,53.1
			c0-0.2-0.1-0.3-0.2-0.5c-0.1-0.2-0.3-0.4-0.6-0.5c-0.3-0.1-0.6-0.2-1.1-0.1c-0.5,0-1.1,0.2-1.8,0.6l0.3,2.4c0.9,0.1,1.5,0,2-0.1
			c0.5-0.2,0.8-0.3,1-0.6c0.2-0.2,0.4-0.5,0.4-0.9C53.6,53.4,53.6,53.3,53.5,53.1z M52.2,46.1c-0.1-0.2-0.3-0.3-0.6-0.3
			c-0.3-0.1-0.8,0-1.4,0.3l-0.1,2.4c0.5,0.1,0.9,0,1.2-0.1c0.3-0.2,0.5-0.4,0.7-0.6s0.3-0.5,0.4-0.9C52.4,46.5,52.3,46.2,52.2,46.1z
			"/>
	</g>
	<g>
		<rect x="63.4" y="55.6" class="st2" width="20.2" height="3.4"/>
	</g>
</g>
</svg>
