<?xml version="1.0" encoding="utf-8"?>
<!-- Generator: Adobe Illustrator 24.0.1, SVG Export Plug-In . SVG Version: 6.00 Build 0)  -->
<svg version="1.1" id="Layer_1" xmlns="http://www.w3.org/2000/svg" xmlns:xlink="http://www.w3.org/1999/xlink" x="0px" y="0px"
	 viewBox="0 0 100 100" style="enable-background:new 0 0 100 100;" xml:space="preserve">
<style type="text/css">
	.st0{fill:#8A19DB;}
	.st1{fill:#7016BF;}
	.st2{fill:#FFFFFF;}
	.st3{opacity:0.15;fill:#FFFFFF;}
</style>
<g>
	<path class="st0" d="M50,70.4c19.9,0,36.7-13.2,41.9-31.2C87.1,20.5,70.1,6.7,50,6.7S12.9,20.5,8.1,39.2
		C13.3,57.2,30.1,70.4,50,70.4z"/>
	<path class="st1" d="M50,93.3c23.9,0,43.3-19.4,43.3-43.3c0-3.7-0.5-7.4-1.4-10.8c-5.2,18-22,31.2-41.9,31.2S13.3,57.2,8.1,39.2
		C7.2,42.6,6.7,46.3,6.7,50C6.7,73.9,26.1,93.3,50,93.3z"/>
	<path class="st2" d="M50,1.6C23.3,1.6,1.6,23.3,1.6,50S23.3,98.4,50,98.4S98.4,76.7,98.4,50S76.7,1.6,50,1.6z M50,6.7
		c20.1,0,37.1,13.8,41.9,32.5c0.9,3.5,1.4,7.1,1.4,10.8c0,23.9-19.4,43.3-43.3,43.3S6.7,73.9,6.7,50c0-3.7,0.5-7.4,1.4-10.8
		C12.9,20.5,29.9,6.7,50,6.7z"/>
	<ellipse class="st3" cx="50" cy="16.3" rx="18.5" ry="9.3"/>
</g>
<g>
	<g>
		<path class="st2" d="M43.8,47.1v2.4c0,1.2-0.2,2.3-0.6,3.2c-0.4,0.9-0.9,1.6-1.5,2.3c-0.6,0.6-1.3,1.2-2,1.7c-0.7,0.5-1.3,1-2,1.4
			c-0.6,0.5-1.1,0.9-1.5,1.4c-0.4,0.5-0.6,1-0.6,1.7c0,0.5,0.2,0.9,0.6,1.3c0.4,0.3,1.1,0.5,2.1,0.5c1.7,0,3.4-0.3,5-0.8
			c1.6-0.6,3-1.1,4.3-1.8l2.3,9c-1.6,0.8-3.5,1.6-5.9,2.3c-2.3,0.7-5,1.1-8,1.1c-2,0-3.8-0.2-5.3-0.7c-1.6-0.5-2.9-1.2-4-2
			c-1.1-0.9-1.9-1.9-2.5-3c-0.6-1.2-0.9-2.4-0.9-3.8c0-1.7,0.2-3.1,0.7-4.2c0.5-1.1,1.1-2,1.8-2.7c0.7-0.7,1.5-1.4,2.4-1.9
			c0.9-0.5,1.7-1.1,2.4-1.7c0.7-0.6,1.3-1.3,1.8-2.2c0.5-0.8,0.7-1.9,0.7-3.2H43.8z M43.8,45H33.4v-7.2h10.5V45z"/>
	</g>
	<g>
		<path class="st2" d="M56.2,52.9v-2.4c0-1.2,0.2-2.3,0.6-3.2c0.4-0.9,0.9-1.6,1.5-2.3c0.6-0.6,1.3-1.2,2-1.7c0.7-0.5,1.3-1,2-1.4
			c0.6-0.5,1.1-0.9,1.5-1.4c0.4-0.5,0.6-1,0.6-1.7c0-0.5-0.2-0.9-0.6-1.3c-0.4-0.3-1.1-0.5-2.1-0.5c-0.8,0-1.7,0.1-2.5,0.2
			c-0.8,0.2-1.7,0.4-2.5,0.6c-0.8,0.2-1.5,0.5-2.3,0.8c-0.7,0.3-1.4,0.6-2,0.9l-2.3-9c0.8-0.4,1.7-0.8,2.7-1.2c1-0.4,2-0.8,3.2-1.1
			c1.2-0.3,2.4-0.6,3.8-0.8c1.3-0.2,2.8-0.3,4.3-0.3c2,0,3.7,0.2,5.3,0.7c1.6,0.5,2.9,1.2,4,2c1.1,0.9,1.9,1.9,2.5,3
			c0.6,1.2,0.9,2.4,0.9,3.8c0,1.7-0.2,3.1-0.7,4.2c-0.5,1.1-1.1,2-1.8,2.7c-0.7,0.7-1.5,1.4-2.4,1.9c-0.9,0.5-1.7,1.1-2.4,1.7
			c-0.7,0.6-1.3,1.3-1.8,2.2c-0.5,0.8-0.7,1.9-0.7,3.2H56.2z M56.2,55h10.5v7.2H56.2V55z"/>
	</g>
</g>
</svg>
