<?xml version="1.0" encoding="utf-8"?>
<!-- Generator: Adobe Illustrator 24.0.1, SVG Export Plug-In . SVG Version: 6.00 Build 0)  -->
<svg version="1.1" id="Layer_1" xmlns="http://www.w3.org/2000/svg" xmlns:xlink="http://www.w3.org/1999/xlink" x="0px" y="0px"
	 viewBox="0 0 100 100" style="enable-background:new 0 0 100 100;" xml:space="preserve">
<style type="text/css">
	.st0{fill:#3DBA36;}
	.st1{fill:#35983D;}
	.st2{fill:#FFFFFF;}
	.st3{opacity:0.15;fill:#FFFFFF;}
</style>
<g>
	<path class="st0" d="M50,70.4c19.9,0,36.7-13.2,41.9-31.2C87.1,20.5,70.1,6.7,50,6.7S12.9,20.5,8.1,39.2
		C13.3,57.2,30.1,70.4,50,70.4z"/>
	<path class="st1" d="M50,93.3c23.9,0,43.3-19.4,43.3-43.3c0-3.7-0.5-7.4-1.4-10.8c-5.2,18-22,31.2-41.9,31.2S13.3,57.2,8.1,39.2
		C7.2,42.6,6.7,46.3,6.7,50C6.7,73.9,26.1,93.3,50,93.3z"/>
	<path class="st2" d="M50,1.6C23.3,1.6,1.6,23.3,1.6,50S23.3,98.4,50,98.4S98.4,76.7,98.4,50S76.7,1.6,50,1.6z M50,6.7
		c20.1,0,37.1,13.8,41.9,32.5c0.9,3.5,1.4,7.1,1.4,10.8c0,23.9-19.4,43.3-43.3,43.3S6.7,73.9,6.7,50c0-3.7,0.5-7.4,1.4-10.8
		C12.9,20.5,29.9,6.7,50,6.7z"/>
	<ellipse class="st3" cx="50" cy="16.3" rx="18.5" ry="9.3"/>
</g>
<g>
	<g>
		<path class="st2" d="M61,20.9c0.4,0.2,0.9,0.4,1.3,0.7c1,0.8,1.3,2.1,0.8,3.3c-0.5,1.2-1.7,1.8-3,1.6c-1.2-0.2-2.2-1.2-2.3-2.4
			c-0.1-1.3,0.6-2.5,1.7-2.9c0.2-0.1,0.3-0.1,0.5-0.2C60.4,20.9,60.7,20.9,61,20.9z"/>
	</g>
	<g>
		<path class="st2" d="M42.3,38.4c-1.4,0-2.8,0-4.2,0c0-1.6,0-3.2,0-4.9c7.9,0,15.8,0,23.8,0c0,1.6,0,3.2,0,4.9c-1.4,0-2.7,0-4.2,0
			c0,0.3,0,0.5,0,0.7c0,2,0,3.9,0,5.9c0,0.3,0.1,0.7,0.3,1c4.6,7.5,9.3,14.9,14,22.4c1.5,2.4,1.6,4.8,0.3,7.2
			c-1.3,2.4-3.5,3.6-6.3,3.6c-10.7,0-21.3,0-32,0c-2.8,0-4.9-1.2-6.2-3.6c-1.3-2.4-1.2-4.8,0.3-7.2c4.6-7.3,9.2-14.7,13.8-22
			c0.4-0.6,0.5-1.1,0.5-1.8c0-1.8,0-3.6,0-5.4C42.3,38.9,42.3,38.7,42.3,38.4z M47.2,38.4c0,0.3,0,0.5,0,0.7c0,2.4,0,4.8,0,7.2
			c0,0.4-0.1,0.8-0.3,1.1c-2.5,4.1-5.1,8.2-7.6,12.2c-0.1,0.2-0.2,0.3-0.3,0.5c7.4,0,14.8,0,22.2,0c-0.1-0.2-0.2-0.4-0.3-0.6
			c-2.6-4.1-5.1-8.2-7.7-12.3c-0.2-0.3-0.3-0.6-0.3-0.9c0-2.4,0-4.9,0-7.3c0-0.2,0-0.4,0-0.6C50.9,38.4,49.1,38.4,47.2,38.4z"/>
	</g>
	<g>
		<path class="st2" d="M53.5,31.4c-1.9,0-3.5-1.6-3.5-3.5c0-1.9,1.6-3.5,3.5-3.5c1.9,0,3.5,1.6,3.5,3.5C57,29.8,55.4,31.4,53.5,31.4
			z"/>
	</g>
</g>
</svg>
