<?xml version="1.0" encoding="utf-8"?>
<!-- Generator: Adobe Illustrator 24.0.1, SVG Export Plug-In . SVG Version: 6.00 Build 0)  -->
<svg version="1.1" id="Layer_1" xmlns="http://www.w3.org/2000/svg" xmlns:xlink="http://www.w3.org/1999/xlink" x="0px" y="0px"
	 viewBox="0 0 100 100" style="enable-background:new 0 0 100 100;" xml:space="preserve">
<style type="text/css">
	.st0{fill:#FF6555;}
	.st1{fill:#E0483D;}
	.st2{fill:#FFFFFF;}
	.st3{opacity:0.15;fill:#FFFFFF;}
</style>
<g>
	<path class="st0" d="M50,70.4c19.9,0,36.7-13.2,41.9-31.2C87.1,20.5,70.1,6.7,50,6.7S12.9,20.5,8.1,39.2
		C13.3,57.2,30.1,70.4,50,70.4z"/>
	<path class="st1" d="M50,93.3c23.9,0,43.3-19.4,43.3-43.3c0-3.7-0.5-7.4-1.4-10.8c-5.2,18-22,31.2-41.9,31.2S13.3,57.2,8.1,39.2
		C7.2,42.6,6.7,46.3,6.7,50C6.7,73.9,26.1,93.3,50,93.3z"/>
	<path class="st2" d="M50,1.6C23.3,1.6,1.6,23.3,1.6,50S23.3,98.4,50,98.4S98.4,76.7,98.4,50S76.7,1.6,50,1.6z M50,6.7
		c20.1,0,37.1,13.8,41.9,32.5c0.9,3.5,1.4,7.1,1.4,10.8c0,23.9-19.4,43.3-43.3,43.3S6.7,73.9,6.7,50c0-3.7,0.5-7.4,1.4-10.8
		C12.9,20.5,29.9,6.7,50,6.7z"/>
	<ellipse class="st3" cx="50" cy="16.3" rx="18.5" ry="9.3"/>
</g>
<g>
	<path class="st2" d="M31.3,29.9L31.3,29.9c-0.4,0-0.8,0.2-1,0.4c-0.3,0.3-0.4,0.7-0.4,1.1v28.8c0,0.8,0.7,1.5,1.5,1.5
		c4,0,11.4,0.8,16.7,5.7V38.3c0-0.3-0.1-0.5-0.2-0.7C43.7,30.9,35.7,29.9,31.3,29.9z"/>
	<path class="st2" d="M70.1,31.4c0-0.4-0.2-0.8-0.4-1.1c-0.3-0.3-0.6-0.4-1-0.4c-4.4,0-12.4,1-16.5,7.7c-0.1,0.2-0.2,0.5-0.2,0.7
		v29.1c5.3-5,12.7-5.7,16.7-5.7c0.8,0,1.5-0.7,1.5-1.5V31.4z"/>
	<path class="st2" d="M75,36.6h-1v23.7c0,2.9-2.4,5.3-5.3,5.4c-3.1,0-8.6,0.5-12.8,3.7c2.4-0.4,4.7-0.6,7-0.6
		c4.8,0,9.1,0.8,11.8,1.4c0.4,0.1,0.9,0,1.3-0.3c0.4-0.3,0.6-0.7,0.6-1.2V38C76.4,37.2,75.8,36.6,75,36.6z"/>
	<path class="st2" d="M26,60.2V36.6h-1c-0.8,0-1.5,0.7-1.5,1.5v30.6c0,0.5,0.2,0.9,0.6,1.2c0.4,0.3,0.8,0.4,1.3,0.3
		c4-0.9,11.4-2.1,18.8-0.8c-4.3-3.2-9.8-3.7-12.8-3.7C28.4,65.6,26,63.2,26,60.2z"/>
</g>
</svg>
