<?xml version="1.0" encoding="utf-8"?>
<!-- Generator: Adobe Illustrator 24.0.1, SVG Export Plug-In . SVG Version: 6.00 Build 0)  -->
<svg version="1.1" id="Layer_1" xmlns="http://www.w3.org/2000/svg" xmlns:xlink="http://www.w3.org/1999/xlink" x="0px" y="0px"
	 viewBox="0 0 100 100" style="enable-background:new 0 0 100 100;" xml:space="preserve">
<style type="text/css">
	.st0{fill:#06BC91;}
	.st1{fill:#129978;}
	.st2{fill:#FFFFFF;}
	.st3{opacity:0.15;fill:#FFFFFF;}
</style>
<g>
	<path class="st0" d="M50,70.4c19.9,0,36.7-13.2,41.9-31.2C87.1,20.5,70.1,6.7,50,6.7S12.9,20.5,8.1,39.2
		C13.3,57.2,30.1,70.4,50,70.4z"/>
	<path class="st1" d="M50,93.3c23.9,0,43.3-19.4,43.3-43.3c0-3.7-0.5-7.4-1.4-10.8c-5.2,18-22,31.2-41.9,31.2S13.3,57.2,8.1,39.2
		C7.2,42.6,6.7,46.3,6.7,50C6.7,73.9,26.1,93.3,50,93.3z"/>
	<path class="st2" d="M50,1.6C23.3,1.6,1.6,23.3,1.6,50S23.3,98.4,50,98.4S98.4,76.7,98.4,50S76.7,1.6,50,1.6z M50,6.7
		c20.1,0,37.1,13.8,41.9,32.5c0.9,3.5,1.4,7.1,1.4,10.8c0,23.9-19.4,43.3-43.3,43.3S6.7,73.9,6.7,50c0-3.7,0.5-7.4,1.4-10.8
		C12.9,20.5,29.9,6.7,50,6.7z"/>
	<ellipse class="st3" cx="50" cy="16.3" rx="18.5" ry="9.3"/>
</g>
<g>
	<g>
		<path class="st2" d="M38.2,51.1c-0.3-0.1-0.6-0.1-0.8,0.2c-0.1,0.2-0.3,0.4-0.4,0.5c-0.7,0.8-1.6,1.2-2.7,1.3
			c-0.8,0-1.5-0.1-2.2-0.5c-0.5-0.3-1-0.7-1.3-1.2c-0.3-0.3-0.7-0.4-1-0.2c-0.3,0.2-0.4,0.7-0.1,1c1.1,1.5,2.6,2.2,4.4,2.3
			c1.8-0.1,3.3-0.8,4.4-2.3c0.1-0.1,0.1-0.2,0.1-0.4C38.7,51.5,38.5,51.2,38.2,51.1z"/>
	</g>
	<g>
		<path class="st2" d="M31,49c0.6,0,1.2-0.5,1.2-1.2c0-0.6-0.5-1.2-1.1-1.2c-0.6,0-1.2,0.5-1.2,1.1C29.9,48.4,30.4,48.9,31,49z"/>
	</g>
	<g>
		<path class="st2" d="M43.6,34.5h-19c-2.1,0-3.8,1.7-3.8,3.8v23.5c0,2.1,1.7,3.8,3.8,3.8h19c2.1,0,3.8-1.7,3.8-3.8V38.2
			C47.3,36.2,45.7,34.5,43.6,34.5z M34.1,58.6c-4.7,0-8.6-3.8-8.6-8.6s3.8-8.6,8.6-8.6s8.6,3.8,8.6,8.6S38.8,58.6,34.1,58.6z"/>
	</g>
	<g>
		<path class="st2" d="M37.1,49c0.6,0,1.2-0.5,1.2-1.2c0-0.6-0.5-1.2-1.2-1.2c-0.6,0-1.2,0.5-1.2,1.2C35.9,48.4,36.4,49,37.1,49z"/>
	</g>
	<path class="st2" d="M75.5,34.5h-19c-2.1,0-3.8,1.7-3.8,3.8v23.5c0,2.1,1.7,3.8,3.8,3.8h19c2.1,0,3.8-1.7,3.8-3.8V38.3
		C79.2,36.2,77.5,34.5,75.5,34.5z M67.7,59.5H62v-3.9h5.7V59.5z M72.8,48c-0.3,0.6-0.6,1.1-1,1.5c-0.4,0.4-0.8,0.8-1.3,1.1
		c-0.5,0.3-0.9,0.6-1.3,0.9c-0.4,0.3-0.7,0.7-1,1.2c-0.3,0.5-0.4,1-0.4,1.8H62v-1.3c0-0.7,0.1-1.2,0.3-1.7c0.2-0.5,0.5-0.9,0.8-1.2
		c0.3-0.4,0.7-0.7,1.1-0.9c0.4-0.3,0.7-0.5,1.1-0.8c0.3-0.2,0.6-0.5,0.8-0.8c0.2-0.3,0.3-0.6,0.3-0.9c0-0.3-0.1-0.5-0.3-0.7
		c-0.2-0.2-0.6-0.3-1.1-0.3c-0.5,0-0.9,0-1.4,0.1c-0.5,0.1-0.9,0.2-1.3,0.3c-0.4,0.1-0.8,0.3-1.2,0.5c-0.4,0.2-0.8,0.3-1.1,0.5
		l-1.3-4.9c0.4-0.2,0.9-0.4,1.5-0.6c0.5-0.2,1.1-0.4,1.8-0.6c0.6-0.2,1.3-0.3,2-0.4c0.7-0.1,1.5-0.2,2.3-0.2c1.1,0,2,0.1,2.9,0.4
		c0.9,0.3,1.6,0.6,2.2,1.1c0.6,0.5,1.1,1,1.4,1.7c0.3,0.6,0.5,1.3,0.5,2C73.2,46.7,73.1,47.4,72.8,48z"/>
</g>
</svg>
