<?xml version="1.0" encoding="utf-8"?>
<!-- Generator: Adobe Illustrator 24.0.1, SVG Export Plug-In . SVG Version: 6.00 Build 0)  -->
<svg version="1.1" id="Layer_1" xmlns="http://www.w3.org/2000/svg" xmlns:xlink="http://www.w3.org/1999/xlink" x="0px" y="0px"
	 viewBox="0 0 100 100" style="enable-background:new 0 0 100 100;" xml:space="preserve">
<style type="text/css">
	.st0{fill:#1092E2;}
	.st1{fill:#2A78AD;}
	.st2{fill:#FFFFFF;}
	.st3{opacity:0.15;fill:#FFFFFF;}
</style>
<g>
	<path class="st0" d="M50,70.4c19.9,0,36.7-13.2,41.9-31.2C87.1,20.5,70.1,6.7,50,6.7S12.9,20.5,8.1,39.2
		C13.3,57.2,30.1,70.4,50,70.4z"/>
	<path class="st1" d="M50,93.3c23.9,0,43.3-19.4,43.3-43.3c0-3.7-0.5-7.4-1.4-10.8c-5.2,18-22,31.2-41.9,31.2S13.3,57.2,8.1,39.2
		C7.2,42.6,6.7,46.3,6.7,50C6.7,73.9,26.1,93.3,50,93.3z"/>
	<path class="st2" d="M50,1.6C23.3,1.6,1.6,23.3,1.6,50S23.3,98.4,50,98.4S98.4,76.7,98.4,50S76.7,1.6,50,1.6z M50,6.7
		c20.1,0,37.1,13.8,41.9,32.5c0.9,3.5,1.4,7.1,1.4,10.8c0,23.9-19.4,43.3-43.3,43.3S6.7,73.9,6.7,50c0-3.7,0.5-7.4,1.4-10.8
		C12.9,20.5,29.9,6.7,50,6.7z"/>
	<ellipse class="st3" cx="50" cy="16.3" rx="18.5" ry="9.3"/>
</g>
<g>
	<g>
		<path class="st2" d="M57,34.2c-0.2,0-0.4,0-0.6,0c-3.8,0-7.6,0-11.4,0c-3.2,0-5.3,2.1-5.3,5.3c0,7.4,0,14.8,0,22.2
			c0,0.2,0,0.4,0,0.6c-0.2,0-0.3,0-0.5,0c-1.7,0-3.4,0-5.1,0c-1.2,0-1.9-0.6-1.9-1.9c0-10.6,0-21.3,0-31.9c0-1.2,0.7-1.8,1.9-1.8
			c7,0,14,0,21.1,0c1.3,0,1.9,0.6,1.9,1.9C57,30.6,57,32.4,57,34.2z"/>
	</g>
	<g>
		<path class="st2" d="M67.9,39.6c0-1.5-0.6-2.1-2.1-2.1c-6.9,0-13.8,0-20.7,0c-1.5,0-2.1,0.6-2.1,2c0,10.5,0,21,0,31.5
			c0,1.5,0.6,2.1,2.1,2.1c6.8,0,13.7,0,20.5,0c0.5,0,1-0.1,1.5-0.2c0.2-0.2,0.4-0.4,0.5-0.5c0.1-0.5,0.2-1,0.2-1.5
			C67.9,60.5,67.9,50.1,67.9,39.6z M61.5,54.8c-0.3,0.8-0.8,1.5-1.4,2.2c-1.3,1.4-2.8,2.6-4.4,3.6c-0.1,0.1-0.3,0.1-0.4,0
			c-0.7-0.5-1.4-0.9-2-1.4c-1.1-0.8-2-1.7-2.8-2.7c-0.5-0.6-0.8-1.2-1.1-2c-0.1-0.2-0.1-0.5-0.2-0.7c0-0.2,0-0.4,0-0.6
			c0,0,0-0.1,0-0.1c0.1-0.8,0.4-1.6,1-2.2c0.7-0.8,1.7-1.2,2.8-1.1c1.1,0.1,1.9,0.7,2.5,1.5c0,0,0.1,0.1,0.1,0.1
			c0.2-0.2,0.3-0.4,0.5-0.6c1.2-1.2,3-1.4,4.3-0.4C61.5,51.3,62.2,53.1,61.5,54.8z"/>
	</g>
</g>
</svg>
