<?xml version="1.0" encoding="utf-8"?>
<!-- Generator: Adobe Illustrator 24.0.1, SVG Export Plug-In . SVG Version: 6.00 Build 0)  -->
<svg version="1.1" id="Layer_1" xmlns="http://www.w3.org/2000/svg" xmlns:xlink="http://www.w3.org/1999/xlink" x="0px" y="0px"
	 viewBox="0 0 100 100" style="enable-background:new 0 0 100 100;" xml:space="preserve">
<style type="text/css">
	.st0{fill:#EE5E7E;}
	.st1{fill:#C64671;}
	.st2{fill:#FFFFFF;}
	.st3{opacity:0.15;fill:#FFFFFF;}
</style>
<g>
	<path class="st0" d="M50,70.4c19.9,0,36.7-13.2,41.9-31.2C87.1,20.5,70.1,6.7,50,6.7S12.9,20.5,8.1,39.2
		C13.3,57.2,30.1,70.4,50,70.4z"/>
	<path class="st1" d="M50,93.3c23.9,0,43.3-19.4,43.3-43.3c0-3.7-0.5-7.4-1.4-10.8c-5.2,18-22,31.2-41.9,31.2S13.3,57.2,8.1,39.2
		C7.2,42.6,6.7,46.3,6.7,50C6.7,73.9,26.1,93.3,50,93.3z"/>
	<path class="st2" d="M50,1.6C23.3,1.6,1.6,23.3,1.6,50S23.3,98.4,50,98.4S98.4,76.7,98.4,50S76.7,1.6,50,1.6z M50,6.7
		c20.1,0,37.1,13.8,41.9,32.5c0.9,3.5,1.4,7.1,1.4,10.8c0,23.9-19.4,43.3-43.3,43.3S6.7,73.9,6.7,50c0-3.7,0.5-7.4,1.4-10.8
		C12.9,20.5,29.9,6.7,50,6.7z"/>
	<ellipse class="st3" cx="50" cy="16.3" rx="18.5" ry="9.3"/>
</g>
<g>
	<path class="st2" d="M64.5,75.5c-3.3,0-6.6,0-9.8,0c0-1.3,0-2.6,0-3.9c-0.1-4.6-5.1-7.7-9.2-5.7c-2.6,1.2-3.8,3.3-3.8,6.2
		c0,1.1,0,2.3,0,3.4c-3.3,0-6.6,0-9.8,0c0,0-0.1-0.1-0.1-0.1c-2.5-0.5-4.1-2.7-4.1-5.1c0.1-2.8,0-5.5,0-8.3c0-0.2,0-0.3,0-0.6
		c0.3,0,0.5,0,0.7,0c1.1,0,2.3,0,3.4,0c3.1-0.2,5.6-2.5,6-5.6c0.4-3-1.4-6-4.3-7c-0.8-0.3-1.6-0.3-2.4-0.4c-1.1-0.1-2.2,0-3.4,0
		c0-0.1,0-0.2,0-0.3c0-3,0-6,0-9c0-0.7,0.2-1.4,0.5-2c0.9-1.9,2.4-2.8,4.5-2.8c3,0,5.9,0,8.9,0c0.2,0,0.4,0,0.6,0c0-1.2,0-2.4,0-3.5
		c0.1-4.7,4.8-7.6,8.9-5.4c2,1.1,3.1,2.8,3.2,5.2c0.1,1.3,0,2.5,0,3.8c0.2,0,0.4,0,0.6,0c2.9,0,5.8,0,8.7,0c0.8,0,1.7,0.1,2.4,0.5
		c1.9,1,2.8,2.5,2.8,4.6c0,3,0,5.9,0,8.9c0,0.2,0,0.4,0,0.6c1.3,0,2.5,0,3.8,0c2.2,0.1,3.9,1.1,5,2.9c0.4,0.7,0.6,1.6,0.9,2.3
		c0,0.5,0,1,0,1.5c0,0.1-0.1,0.2-0.1,0.3c-0.5,2.5-2,4.2-4.5,4.8c-0.8,0.2-1.8,0.2-2.7,0.2c-0.8,0-1.6,0-2.5,0c0,0.3,0,0.5,0,0.7
		c0,3.1,0,6.3,0,9.4c0,1.3-0.7,2.4-1.6,3.2C66.4,74.9,65.5,75.2,64.5,75.5z"/>
</g>
</svg>
