<?xml version="1.0" encoding="utf-8"?>
<!-- Generator: Adobe Illustrator 24.0.1, SVG Export Plug-In . SVG Version: 6.00 Build 0)  -->
<svg version="1.1" id="Layer_1" xmlns="http://www.w3.org/2000/svg" xmlns:xlink="http://www.w3.org/1999/xlink" x="0px" y="0px"
	 viewBox="0 0 100 100" style="enable-background:new 0 0 100 100;" xml:space="preserve">
<style type="text/css">
	.st0{fill:#770E4A;}
	.st1{fill:#59073A;}
	.st2{fill:#FFFFFF;}
	.st3{opacity:0.15;fill:#FFFFFF;}
</style>
<g>
	<path class="st0" d="M50,70.4c19.9,0,36.7-13.2,41.9-31.2C87.1,20.5,70.1,6.7,50,6.7S12.9,20.5,8.1,39.2
		C13.3,57.2,30.1,70.4,50,70.4z"/>
	<path class="st1" d="M50,93.3c23.9,0,43.3-19.4,43.3-43.3c0-3.7-0.5-7.4-1.4-10.8c-5.2,18-22,31.2-41.9,31.2S13.3,57.2,8.1,39.2
		C7.2,42.6,6.7,46.3,6.7,50C6.7,73.9,26.1,93.3,50,93.3z"/>
	<path class="st2" d="M50,1.6C23.3,1.6,1.6,23.3,1.6,50S23.3,98.4,50,98.4S98.4,76.7,98.4,50S76.7,1.6,50,1.6z M50,6.7
		c20.1,0,37.1,13.8,41.9,32.5c0.9,3.5,1.4,7.1,1.4,10.8c0,23.9-19.4,43.3-43.3,43.3S6.7,73.9,6.7,50c0-3.7,0.5-7.4,1.4-10.8
		C12.9,20.5,29.9,6.7,50,6.7z"/>
	<ellipse class="st3" cx="50" cy="16.3" rx="18.5" ry="9.3"/>
</g>
<g>
	<g>
		<path class="st2" d="M51.6,77.9c0-6.2,0-12.5,0-18.7c0-0.5,0.1-0.6,0.6-0.9c0.8-0.4,1.2-0.2,1.8,0.4c4.1,4.2,8.3,8.3,12.4,12.5
			c0.1,0.1,0.2,0.3,0.5,0.5c-1.2,0.9-2.3,1.7-3.6,2.5c-3.3,2-6.9,3.2-10.7,3.6c-0.1,0-0.2,0.1-0.3,0.1
			C52.1,77.9,51.9,77.9,51.6,77.9z"/>
	</g>
	<g>
		<path class="st2" d="M47.7,77.9c-1.1-0.2-2.2-0.3-3.2-0.6c-4.2-0.9-7.8-2.8-11.1-5.5c-0.1-0.1-0.1-0.1-0.2-0.2
			c0.1-0.1,0.3-0.3,0.4-0.4c4.3-4.3,8.6-8.6,12.9-12.9c0.3-0.3,0.5-0.2,0.9-0.2c0.9,0.2,1,0.8,1,1.6c0,6.1,0,12.1,0,18.2
			C48.1,77.9,47.9,77.9,47.7,77.9z"/>
	</g>
	<g>
		<path class="st2" d="M44.5,49.5c0,0.1-0.1,0.2-0.2,0.4c-0.2,1-0.8,1-1.6,1c-5.8,0-11.6,0-17.3,0c-0.2,0-0.5,0-0.8,0
			C25,45,27.1,40,30.8,35.8C35.3,40.3,39.9,44.9,44.5,49.5z"/>
	</g>
	<g>
		<path class="st2" d="M75.4,50.8c-0.3,0-0.5,0-0.7,0c-6,0-12,0-18,0c-0.5,0-0.7-0.1-0.9-0.6c-0.1-0.3-0.2-0.6-0.4-0.9
			c4.6-4.6,9.1-9.1,13.7-13.7C72.9,40,75,45,75.4,50.8z"/>
	</g>
	<g>
		<path class="st2" d="M24.6,54.2c0.2,0,0.4,0,0.6,0c6.1,0,12.1,0,18.2,0c0.4,0,0.7,0.1,0.8,0.5c0.1,0.3,0.3,0.6,0.4,0.9
			c-4.6,4.6-9.1,9.1-13.6,13.6C27.9,66.8,24.5,58.7,24.6,54.2z"/>
	</g>
	<g>
		<path class="st2" d="M69.2,69.3c-4.6-4.6-9.1-9.1-13.7-13.7c0.1-0.1,0.2-0.3,0.2-0.5c0.1-0.9,0.7-1,1.5-0.9c5.8,0,11.7,0,17.5,0
			c0.2,0,0.4,0,0.7,0C75,59.9,72.9,64.9,69.2,69.3z"/>
	</g>
	<g>
		<path class="st2" d="M33.3,33.3c2.4-2.1,5.2-3.8,8.4-4.9c0,0.1,0.1,0.2,0.1,0.3c-0.1,0.8,0.3,1.3,0.8,1.8c1.8,1.8,3.6,3.6,5.4,5.4
			c0.3,0.3,0.4,0.5,0.4,0.9c0,3,0,6.1,0,9.1c0,0.2,0,0.3,0,0.5c-0.5,0.2-1,0.4-1.4,0.6C42.4,42.4,37.8,37.8,33.3,33.3z"/>
	</g>
	<g>
		<path class="st2" d="M58.3,28.4c2.1,0.4,6.7,3.1,8.4,4.9c-0.1,0.1-0.2,0.3-0.4,0.4c-4.3,4.3-8.6,8.6-12.9,12.9
			c-0.3,0.3-0.5,0.2-0.8,0.1c-0.9-0.2-1.1-0.8-1.1-1.6c0.1-2.8,0-5.5,0-8.3c0-0.4,0.1-0.7,0.4-1c1.8-1.7,3.5-3.5,5.2-5.2
			C58.2,29.7,58.2,29.7,58.3,28.4z"/>
	</g>
	<g>
		<path class="st2" d="M45,21.9c3.3,0,6.6,0,10,0c0,0.8,0,1.7,0,2.5c0,1.2,0,2.3,0,3.5c0,0.2-0.1,0.5-0.2,0.6
			c-1.6,1.6-3.2,3.2-4.8,4.8c-0.1-0.1-0.2-0.2-0.3-0.3c-1.5-1.5-2.9-2.9-4.4-4.4c-0.2-0.2-0.3-0.4-0.3-0.6c0-2,0-3.9,0-5.9
			C45,22,45,22,45,21.9z"/>
	</g>
	<g>
		<path class="st2" d="M50,55.5c-1.7,0-3-1.3-3-3c0-1.7,1.4-3,3-3c1.7,0,3,1.4,3,3C53,54.2,51.7,55.5,50,55.5z"/>
	</g>
</g>
</svg>
