<?xml version="1.0" encoding="utf-8"?>
<!-- Generator: Adobe Illustrator 24.0.1, SVG Export Plug-In . SVG Version: 6.00 Build 0)  -->
<svg version="1.1" id="Layer_1" xmlns="http://www.w3.org/2000/svg" xmlns:xlink="http://www.w3.org/1999/xlink" x="0px" y="0px"
	 viewBox="0 0 100 100" style="enable-background:new 0 0 100 100;" xml:space="preserve">
<style type="text/css">
	.st0{fill:#F47C2C;}
	.st1{fill:#E0630E;}
	.st2{fill:#FFFFFF;}
	.st3{opacity:0.15;fill:#FFFFFF;}
</style>
<g>
	<path class="st0" d="M50,70.4c19.9,0,36.7-13.2,41.9-31.2C87.1,20.5,70.1,6.7,50,6.7S12.9,20.5,8.1,39.2
		C13.3,57.2,30.1,70.4,50,70.4z"/>
	<path class="st1" d="M50,93.3c23.9,0,43.3-19.4,43.3-43.3c0-3.7-0.5-7.4-1.4-10.8c-5.2,18-22,31.2-41.9,31.2S13.3,57.2,8.1,39.2
		C7.2,42.6,6.7,46.3,6.7,50C6.7,73.9,26.1,93.3,50,93.3z"/>
	<path class="st2" d="M50,1.6C23.3,1.6,1.6,23.3,1.6,50S23.3,98.4,50,98.4S98.4,76.7,98.4,50S76.7,1.6,50,1.6z M50,6.7
		c20.1,0,37.1,13.8,41.9,32.5c0.9,3.5,1.4,7.1,1.4,10.8c0,23.9-19.4,43.3-43.3,43.3S6.7,73.9,6.7,50c0-3.7,0.5-7.4,1.4-10.8
		C12.9,20.5,29.9,6.7,50,6.7z"/>
	<ellipse class="st3" cx="50" cy="16.3" rx="18.5" ry="9.3"/>
</g>
<g>
	<g>
		<path class="st2" d="M32.3,25.3l10.6,16.1l-6.6,2.5l-1.8-2.9l-4.4,0.1l-0.9,3.1L23,42.1L32.3,25.3z M31.2,37.7l2.5-0.4l-1-2.8
			L31.2,37.7z"/>
	</g>
	<g>
		<path class="st2" d="M44.4,45.5c2-0.4,3.6-0.6,4.9-0.8c1.3-0.1,2.3-0.2,3-0.2c0.7,0,1.4,0.1,2,0.2c0.6,0.3,1,0.5,1.4,0.8
			c0.4,0.3,0.7,0.6,1,1c0.3,0.4,0.5,0.9,0.6,1.4c0.1,0.5,0,1.1-0.3,1.8c-0.3,0.7-0.9,1.4-1.7,2.2c1.2,0.6,2,1.3,2.5,2
			c0.5,0.7,0.8,1.4,0.8,2.1c0,0.7-0.1,1.3-0.3,2c-0.3,0.6-0.6,1.2-0.9,1.7c-0.3,0.5-0.8,1-1.4,1.6c0,0-0.1,0.1-0.3,0.2
			c-0.2,0.1-0.5,0.2-1,0.4c-0.5,0.1-1.2,0.3-2,0.4c-0.9,0.1-2,0.1-3.3,0.1c-1.4,0-3-0.1-4.8-0.3L44.4,45.5z M53,55.9
			c0-0.1-0.1-0.3-0.2-0.5c-0.1-0.2-0.3-0.3-0.5-0.4c-0.2-0.1-0.6-0.1-1-0.1c-0.4,0-1,0.2-1.6,0.5l0.3,2.2c0.8,0.1,1.4,0,1.8-0.1
			c0.4-0.1,0.7-0.3,0.9-0.5c0.2-0.2,0.3-0.5,0.4-0.8C53.1,56.1,53.1,56,53,55.9z M51.8,49.5c-0.1-0.1-0.3-0.2-0.6-0.3
			c-0.3,0-0.7,0-1.3,0.3l-0.1,2.2c0.4,0.1,0.8,0,1.1-0.1c0.3-0.1,0.5-0.3,0.6-0.5s0.3-0.5,0.4-0.8C52,49.9,51.9,49.7,51.8,49.5z"/>
	</g>
	<g>
		<path class="st2" d="M76.2,58.6l-3.7,4.5c-0.8-0.8-1.4-1.3-2-1.5c-0.6-0.2-1.1-0.3-1.5-0.2c-0.4,0.1-0.8,0.4-1,0.7
			c-0.3,0.4-0.5,0.7-0.7,1.1c-0.2,0.4-0.3,0.9-0.5,1.5c0,0,0,0.2,0.1,0.5c0.1,0.3,0.2,0.7,0.4,1.1c0.2,0.4,0.6,0.7,1,0.9
			c0.4,0.2,1,0.2,1.7-0.1s1.6-0.9,2.7-1.9l4.1,4.4c-0.2,0.4-0.6,0.8-1.1,1.2c-0.5,0.4-1.1,0.8-1.8,1.2c-0.7,0.3-1.5,0.6-2.3,0.9
			c-0.9,0.2-1.7,0.4-2.6,0.4c-0.9,0-1.8-0.1-2.6-0.3c-0.9-0.2-1.6-0.6-2.4-1.2c-1-0.8-1.8-1.7-2.3-2.7s-0.8-2-0.9-3
			c-0.1-1,0-2.1,0.2-3.1c0.3-1,0.6-2,1.1-2.9c0.5-0.9,1-1.7,1.7-2.4c0.6-0.7,1.3-1.3,1.9-1.7c0.6-0.3,1.1-0.5,1.6-0.7
			c0.5-0.1,1.1-0.3,1.7-0.3c0.7-0.1,1.4,0,2.2,0.2c0.8,0.2,1.6,0.5,2.4,1.1C74.6,56.8,75.4,57.6,76.2,58.6z"/>
	</g>
</g>
</svg>
