<?xml version="1.0" encoding="utf-8"?>
<!-- Generator: Adobe Illustrator 24.0.1, SVG Export Plug-In . SVG Version: 6.00 Build 0)  -->
<svg version="1.1" id="Layer_1" xmlns="http://www.w3.org/2000/svg" xmlns:xlink="http://www.w3.org/1999/xlink" x="0px" y="0px"
	 viewBox="0 0 150 150" style="enable-background:new 0 0 150 150;" xml:space="preserve">
<style type="text/css">
	.st0{fill:#E07012;}
</style>
<g>
	<g>
		<path class="st0" d="M142.5,51.9c-3.9-2.3-6.3-7.8-5.4-12.2c0.9-4.4-2-8.7-6.4-9.5c-4.4-0.8-8.6-5.2-9.2-9.6
			c-0.7-4.5-4.8-7.5-9.3-6.8c-4.4,0.7-9.8-1.9-12-5.9c-2.1-4-7.1-5.4-11-3.2C85.3,6.9,79.4,6.3,76,3.3c-3.4-3-8.5-2.6-11.5,0.8
			c-2.9,3.4-8.8,4.8-12.9,3.2c-4.2-1.7-8.9,0.4-10.5,4.6c-1.6,4.2-6.6,7.5-11.1,7.4c-4.5-0.1-8.2,3.5-8.3,8
			c-0.1,4.5-3.6,9.3-7.9,10.8c-4.3,1.4-6.5,6.1-5.1,10.3c1.5,4.2-0.2,10-3.7,12.8C1.6,63.9,1,69.1,3.8,72.6C6.7,76,7.1,82,4.7,85.9
			C2.4,89.7,3.6,94.7,7.5,97c3.9,2.3,6.3,7.8,5.4,12.2c-0.9,4.4,2,8.7,6.4,9.5c4.4,0.8,8.6,5.2,9.2,9.6c0.7,4.5,4.8,7.5,9.3,6.8
			c4.4-0.7,9.8,1.9,12,5.9c2.1,4,7.1,5.4,11,3.2c3.9-2.2,9.9-1.6,13.3,1.4c3.4,3,8.5,2.6,11.5-0.8c2.9-3.4,8.8-4.8,12.9-3.2
			c4.2,1.7,8.9-0.4,10.5-4.6c1.6-4.2,6.6-7.5,11.1-7.4c4.5,0.1,8.2-3.5,8.3-8c0.1-4.5,3.6-9.3,7.9-10.8c4.3-1.4,6.6-6.1,5.1-10.3
			c-1.5-4.2,0.2-10,3.7-12.8c3.5-2.8,4.1-7.9,1.2-11.4c-2.8-3.5-3.3-9.5-0.9-13.3C147.6,59.3,146.4,54.2,142.5,51.9z M91.2,137.3
			c-34.7,8.9-70.1-12-79-46.7c-8.9-34.7,12-70.1,46.7-79c34.7-8.9,70.1,12,79,46.7C146.8,93,125.9,128.4,91.2,137.3z"/>
	</g>
	<g>
		<path class="st0" d="M59.7,14.9C26.8,23.4,7,56.9,15.4,89.8c8.5,32.9,42,52.7,74.9,44.3c32.9-8.5,52.7-42,44.3-74.9
			C126.1,26.2,92.6,6.4,59.7,14.9z M89.7,131.8c-31.6,8.1-63.9-10.9-72-42.5c-8.1-31.6,10.9-63.9,42.5-72
			c31.6-8.1,63.9,10.9,72,42.5C140.4,91.4,121.4,123.6,89.7,131.8z"/>
	</g>
	<g>
		<path class="st0" d="M65,128.4c-0.3-0.1-0.4-0.3-0.3-0.5l0.9-3.7c0.1-0.3-0.1-0.5-0.3-0.5l-1.4-0.3c-0.3-0.1-0.5,0.1-0.5,0.3
			l-0.9,3.7c-0.1,0.3-0.3,0.4-0.5,0.3l-1.7-0.4c-0.3-0.1-0.4-0.2-0.3-0.5l2.2-9.5c0.1-0.3,0.3-0.4,0.5-0.3l1.7,0.4
			c0.3,0.1,0.4,0.3,0.3,0.5l-0.5,2.3c-0.1,0.3,0,0.5,0.3,0.5l1.4,0.3c0.3,0.1,0.5,0,0.5-0.3l0.5-2.3c0.1-0.3,0.2-0.4,0.5-0.3
			l1.7,0.4c0.3,0.1,0.4,0.3,0.3,0.5l-2.2,9.5c-0.1,0.3-0.3,0.4-0.5,0.3L65,128.4z"/>
		<path class="st0" d="M54.2,113.9c0.1-0.3,0.4-0.4,0.6-0.3l1.6,0.7c0.3,0.1,0.4,0.3,0.2,0.6l-0.5,1.2c-0.1,0.3,0,0.5,0.2,0.6
			l1.2,0.5c0.3,0.1,0.5,0,0.6-0.2l0.5-1.2c0.1-0.3,0.3-0.4,0.6-0.2l1.6,0.7c0.3,0.1,0.3,0.4,0.2,0.7l-2.6,5.9
			c-0.8,1.8-1.9,3.5-5,2.1c-3.1-1.4-2.6-3.4-1.8-5.1L54.2,113.9z M53.9,120.9c-0.3,0.7-0.4,1,0.6,1.5c0.9,0.4,1.2,0.1,1.5-0.5
			l0.7-1.5c0.1-0.3,0-0.5-0.2-0.6l-1.2-0.5c-0.3-0.1-0.5,0-0.6,0.2L53.9,120.9z"/>
		<path class="st0" d="M45.2,115.5c0.3,0.1,0.3,0.3,0.2,0.6c-0.3,0.6-0.1,1.2,0.5,1.6c0.5,0.3,1,0.3,1.1-0.1
			c0.5-1.1-3.4-3.9-1.4-6.7c0.3-0.4,2.2-2.3,5.2-0.2c2.6,1.8,2,4,1.3,5c-0.1,0.2-0.4,0.3-0.6,0.2l-1.6-0.7c-0.3-0.1-0.3-0.3-0.2-0.6
			c0.4-0.6,0.2-1.3-0.4-1.7c-0.6-0.4-1.3-0.4-1.5,0c-0.5,1.2,3.4,3.6,1.4,6.5c-0.3,0.4-2,2.4-4.8,0.5c-2.6-1.8-2-3.9-1.4-4.9
			c0.1-0.2,0.4-0.3,0.6-0.2L45.2,115.5z"/>
		<path class="st0" d="M32.9,108.6c-0.2-0.2-0.1-0.4,0-0.6l2.9-3.5c0.1-0.1,0-0.2-0.1-0.1l-4.2,1.7c-0.2,0.1-0.5,0.1-0.6-0.2
			l-1.9-2.5c-0.2-0.2-0.1-0.5,0.1-0.6l7.9-5.8c0.2-0.2,0.5-0.1,0.6,0.1l1,1.4c0.2,0.2,0.1,0.5-0.1,0.6l-4.8,3.5
			c-0.1,0.1,0,0.2,0.1,0.1l5.8-2.4c0.2-0.1,0.5,0,0.6,0.2l0.6,0.8c0.2,0.2,0.1,0.4,0,0.6l-4,4.8c-0.1,0.1,0,0.2,0.1,0.1l4.9-3.5
			c0.2-0.2,0.5-0.1,0.6,0.1l1,1.4c0.2,0.2,0.1,0.5-0.1,0.6l-7.9,5.8c-0.2,0.2-0.5,0.1-0.6-0.1L32.9,108.6z"/>
		<path class="st0" d="M24.6,93.7c-0.1-0.3,0-0.5,0.2-0.6l1.6-0.7c0.3-0.1,0.5,0,0.6,0.2l1.5,3.4c0.1,0.3,0.3,0.4,0.6,0.2l0.4-0.2
			c0.3-0.1,0.4-0.3,0.2-0.6l-0.9-2.2c-0.1-0.3,0-0.5,0.2-0.6l1.6-0.7c0.3-0.1,0.5,0,0.6,0.2l0.9,2.2c0.1,0.3,0.3,0.4,0.6,0.2
			l0.4-0.2c0.3-0.1,0.4-0.3,0.2-0.6L32,90.5c-0.1-0.3,0-0.5,0.2-0.6l1.6-0.7c0.3-0.1,0.5,0,0.6,0.2l2.5,5.9c0.1,0.3,0,0.5-0.2,0.6
			l-9,3.9c-0.3,0.1-0.5,0-0.6-0.2L24.6,93.7z"/>
		<path class="st0" d="M22.2,84.3c-0.1-0.3,0.1-0.5,0.4-0.6l6.6-1.5c1-0.2,3.7-0.6,4.5,2.9c0.7,3.2-1.3,4.1-2.4,4.5
			c-0.2,0.1-0.4,0-0.5-0.2l-0.7-1.6c-0.1-0.3,0-0.6,0.3-0.7c0.6-0.2,1-0.6,0.8-1.4c-0.2-1.1-1-1-2.1-0.8l-5.8,1.3
			c-0.3,0.1-0.5-0.1-0.6-0.4L22.2,84.3z"/>
		<path class="st0" d="M28.7,73.2c1,0,3.7,0.1,3.8,3.7c0.1,3.6-2.6,3.9-3.6,3.9l-3.8,0.1c-1,0-3.7-0.1-3.8-3.7
			c-0.1-3.6,2.6-3.9,3.6-3.9L28.7,73.2z M25.8,75.9c-1.2,0-1.9,0.1-1.9,1.3c0,1.1,0.8,1.2,1.9,1.1l2.2-0.1c1.2,0,1.9-0.1,1.9-1.3
			c0-1.1-0.8-1.2-1.9-1.1L25.8,75.9z"/>
		<path class="st0" d="M32.7,64.1c0.4-0.1,0.8,0.2,0.7,0.6l-0.3,1.7c0,0.1-0.1,0.3-0.3,0.3l-3.3,1.1c0,0-0.1,0.1-0.1,0.1l-0.1,0.6
			c0,0.3,0.1,0.5,0.4,0.5l2.4,0.4c0.3,0,0.4,0.3,0.4,0.5l-0.3,1.7c0,0.3-0.3,0.4-0.5,0.4l-9.6-1.6c-0.3,0-0.4-0.3-0.4-0.5l0.5-3.3
			c0.4-2.7,1.8-3.6,4.2-3.2c1.4,0.2,2.3,0.7,2.8,1.6c0,0.1,0.1,0.1,0.2,0.1L32.7,64.1z M24.7,67.8c0,0.3,0.1,0.5,0.4,0.5l1.1,0.2
			c0.3,0,0.5-0.1,0.5-0.4l0.1-0.8c0.1-0.7,0.1-1.1-0.8-1.2c-0.9-0.2-1.1,0.2-1.2,0.9L24.7,67.8z"/>
		<path class="st0" d="M35.7,56.6c0.3,0.1,0.4,0.3,0.3,0.6l-0.6,1.6c-0.1,0.3-0.3,0.4-0.6,0.3l-1.2-0.5c-0.3-0.1-0.5,0-0.6,0.3
			l-0.5,1.2c-0.1,0.3,0,0.5,0.3,0.6l1.2,0.5c0.3,0.1,0.4,0.3,0.3,0.6l-0.6,1.6c-0.1,0.3-0.3,0.4-0.6,0.2l-6.1-2.2
			c-1.8-0.7-3.6-1.7-2.4-4.9c1.2-3.2,3.2-2.8,5-2.1L35.7,56.6z M28.8,56.8c-0.7-0.3-1.1-0.3-1.4,0.7c-0.3,0.9,0,1.2,0.6,1.4l1.6,0.6
			c0.3,0.1,0.5,0,0.6-0.3l0.5-1.2c0.1-0.3,0-0.5-0.3-0.6L28.8,56.8z"/>
		<path class="st0" d="M29.6,47c1.5-2.4,3-2.6,5.1-1.3l2.8,1.8c2.1,1.3,2.6,2.7,1.1,5.2l-1.8,2.9c-0.2,0.2-0.4,0.3-0.6,0.1L28,50.6
			c-0.3-0.2-0.3-0.4-0.2-0.6L29.6,47z M36.5,51.2c0.4-0.6,0.5-1-0.3-1.5c0,0-2.8-1.8-2.9-1.8c-0.8-0.5-1.1-0.2-1.5,0.4l-0.4,0.7
			c-0.2,0.2-0.1,0.5,0.1,0.6l3.8,2.4c0.2,0.2,0.5,0.1,0.6-0.1L36.5,51.2z"/>
		<path class="st0" d="M43.8,40.9c0.7,0.7,2.6,2.7,0.1,5.3c-2.5,2.7-4.6,1-5.3,0.3l-2.8-2.6c-0.7-0.7-2.6-2.7-0.1-5.3
			c2.5-2.7,4.6-1,5.3-0.3L43.8,40.9z M39.8,40.8c-0.9-0.8-1.4-1.2-2.2-0.4c-0.8,0.8-0.3,1.4,0.6,2.2l1.6,1.5
			c0.9,0.8,1.4,1.2,2.2,0.4c0.8-0.8,0.3-1.4-0.6-2.2L39.8,40.8z"/>
		<path class="st0" d="M48.1,28.9c2.5-1.5,4-1,5.3,1.1c0.3,0.4,0.6,1.4,0.5,2.3c0.7-0.1,1.5,0.4,1.9,1.2c1,1.6,0.7,2.8-1.8,4.3
			l-3.2,1.9c-0.2,0.1-0.5,0.1-0.6-0.2l-4.9-8.4c-0.2-0.3-0.1-0.5,0.2-0.6L48.1,28.9z M50.7,32.8c0.6-0.4,0.9-0.6,0.4-1.5
			c-0.5-0.8-0.8-0.7-1.5-0.3L49,31.5c-0.2,0.1-0.3,0.4-0.2,0.6l0.6,1c0.2,0.3,0.4,0.3,0.6,0.2L50.7,32.8z M52.8,36
			c0.6-0.4,0.9-0.6,0.5-1.2c-0.4-0.6-0.7-0.5-1.3-0.2l-0.9,0.5c-0.2,0.1-0.3,0.4-0.2,0.6l0.4,0.6c0.2,0.3,0.4,0.3,0.6,0.2L52.8,36z"
			/>
		<path class="st0" d="M64.5,32.8c0.1,0.3,0,0.5-0.3,0.6L62.7,34c-0.3,0.1-0.5,0-0.6-0.3l-0.4-1.3c-0.1-0.3-0.3-0.4-0.6-0.3
			l-1.2,0.4c-0.3,0.1-0.4,0.3-0.3,0.6l0.4,1.2c0.1,0.3,0,0.5-0.3,0.6l-1.6,0.6c-0.3,0.1-0.5,0-0.6-0.3l-2.1-6.1
			c-0.6-1.8-1-3.8,2.2-5c3.2-1.1,4.2,0.7,4.8,2.5L64.5,32.8z M59.9,27.6c-0.2-0.7-0.5-1-1.4-0.7c-0.9,0.3-0.9,0.7-0.7,1.4l0.6,1.6
			c0.1,0.3,0.3,0.4,0.6,0.3l1.2-0.4c0.3-0.1,0.4-0.3,0.3-0.6L59.9,27.6z"/>
		<path class="st0" d="M69.9,25.5c-0.3,0.1-0.5,0-0.6-0.3c-0.2-0.6-0.8-0.9-1.5-0.8c-0.6,0.1-0.9,0.5-0.8,0.8
			c0.4,1.1,5.1,0.4,5.7,3.9c0.1,0.5-0.1,3.2-3.6,3.7c-3.2,0.5-4.2-1.5-4.4-2.7c-0.1-0.3,0.1-0.5,0.3-0.6l1.6-0.6
			c0.3-0.1,0.5,0,0.6,0.3c0.2,0.7,0.8,1.1,1.5,1c0.7-0.1,1.2-0.6,1.1-1c-0.5-1.2-5-0.3-5.5-3.8c-0.1-0.5-0.2-3.2,3.2-3.7
			c3.1-0.5,4.1,1.5,4.4,2.5c0.1,0.3-0.1,0.5-0.3,0.6L69.9,25.5z"/>
		<path class="st0" d="M76.4,24.5c0-0.3-0.1-0.5-0.4-0.5l-2.1-0.1c-0.3,0-0.4-0.2-0.4-0.5l0.1-1.7c0-0.3,0.2-0.5,0.5-0.4l7.8,0.3
			c0.3,0,0.5,0.2,0.4,0.5l-0.1,1.7c0,0.3-0.2,0.5-0.5,0.4l-2.1-0.1c-0.3,0-0.5,0.1-0.5,0.4l-0.3,7.1c0,0.3-0.2,0.5-0.5,0.4l-1.7-0.1
			c-0.3,0-0.5-0.2-0.4-0.5L76.4,24.5z"/>
		<path class="st0" d="M89.4,33.6c-0.1,0.3-0.3,0.5-0.6,0.4l-1.7-0.4c-0.3-0.1-0.4-0.3-0.3-0.6l0.3-1.3c0.1-0.3,0-0.5-0.3-0.6
			l-1.3-0.3c-0.3-0.1-0.5,0-0.5,0.3l-0.3,1.3c-0.1,0.3-0.3,0.4-0.6,0.3l-1.7-0.4c-0.3-0.1-0.4-0.3-0.3-0.6l1.5-6.3
			c0.4-1.9,1.2-3.8,4.5-3c3.3,0.8,3.2,2.8,2.7,4.7L89.4,33.6z M88.3,26.7c0.2-0.7,0.1-1.1-0.8-1.3c-1-0.2-1.2,0.1-1.3,0.8l-0.4,1.6
			c-0.1,0.3,0.1,0.5,0.3,0.6l1.3,0.3c0.3,0.1,0.5-0.1,0.6-0.4L88.3,26.7z"/>
		<path class="st0" d="M97.1,25.9c0.2,0.1,0.3,0.3,0.3,0.5l-0.3,5.5c0,0.1,0.1,0.2,0.2,0l2.1-4.5c0.1-0.3,0.3-0.3,0.6-0.2l1.5,0.7
			c0.3,0.1,0.4,0.3,0.2,0.6l-4.1,8.8c-0.1,0.3-0.3,0.4-0.6,0.2l-2-0.9c-0.2-0.1-0.3-0.3-0.3-0.5l0.3-5.5c0-0.2-0.1-0.2-0.2,0
			l-2.1,4.5c-0.1,0.3-0.3,0.4-0.6,0.2l-1.5-0.7c-0.3-0.1-0.3-0.3-0.2-0.6l4.1-8.8c0.1-0.3,0.3-0.3,0.6-0.2L97.1,25.9z"/>
		<path class="st0" d="M104.8,33.7c0.2-0.2,0.2-0.5-0.1-0.6l-1.7-1.3c-0.2-0.2-0.3-0.4-0.1-0.6l1-1.4c0.2-0.2,0.4-0.3,0.6-0.1
			l6.3,4.7c0.2,0.2,0.3,0.4,0.1,0.6l-1,1.4c-0.2,0.2-0.4,0.3-0.6,0.1l-1.7-1.3c-0.2-0.2-0.5-0.1-0.6,0.1l-4.3,5.7
			c-0.2,0.2-0.4,0.3-0.6,0.1l-1.4-1c-0.2-0.2-0.3-0.4-0.1-0.6L104.8,33.7z"/>
		<path class="st0" d="M117.6,41.4c0.2,0.2,0.2,0.4,0,0.6l-1.3,1.2c-0.2,0.2-0.4,0.2-0.6,0l-2.5-2.7c-0.2-0.2-0.4-0.2-0.6,0
			l-0.4,0.3c-0.2,0.2-0.2,0.4,0,0.6l1.6,1.7c0.2,0.2,0.2,0.4,0,0.6l-1.3,1.2c-0.2,0.2-0.4,0.2-0.6,0l-1.6-1.7
			c-0.2-0.2-0.4-0.2-0.6,0l-0.4,0.3c-0.2,0.2-0.2,0.4,0,0.6l2.5,2.7c0.2,0.2,0.2,0.4,0,0.6l-1.3,1.2c-0.2,0.2-0.4,0.2-0.6,0
			l-4.3-4.7c-0.2-0.2-0.2-0.5,0-0.6l7.2-6.6c0.2-0.2,0.5-0.2,0.6,0L117.6,41.4z"/>
		<path class="st0" d="M110.5,55.3c-0.1-0.3-0.1-0.5,0.2-0.6l5.8-2.8c0.3-0.1,0.5-0.1,0.6,0.2l0.8,1.5c0.1,0.3,0.1,0.5-0.2,0.6
			l-5.5,3.3c-0.3,0.2-0.5,0.1-0.6-0.2L110.5,55.3z M117.7,51.7c-0.1-0.3-0.1-0.5,0.2-0.6l1.5-0.8c0.3-0.1,0.5-0.1,0.6,0.2l0.8,1.5
			c0.1,0.3,0.1,0.5-0.2,0.6l-1.5,0.8c-0.3,0.1-0.5,0.1-0.6-0.2L117.7,51.7z"/>
		<path class="st0" d="M126.4,57.2c1,2.7,0.2,4.1-2.1,5c-0.5,0.2-1.5,0.4-2.3,0c-0.1,0.7-0.6,1.4-1.5,1.7c-1.8,0.6-2.9,0.2-3.9-2.5
			l-1.3-3.5c-0.1-0.3,0-0.5,0.3-0.6l9.2-3.3c0.3-0.1,0.5,0,0.6,0.3L126.4,57.2z M118.5,60.4c0.2,0.7,0.4,1,1.1,0.8
			c0.7-0.2,0.7-0.6,0.4-1.3l-0.3-0.9c-0.1-0.3-0.3-0.4-0.6-0.3l-0.7,0.2c-0.3,0.1-0.4,0.3-0.3,0.6L118.5,60.4z M122.1,59
			c0.2,0.7,0.5,1,1.3,0.7c0.9-0.3,0.9-0.7,0.6-1.4l-0.3-0.8c-0.1-0.3-0.3-0.4-0.6-0.3l-1.1,0.4c-0.3,0.1-0.4,0.3-0.3,0.6L122.1,59z"
			/>
		<path class="st0" d="M128.7,65.5c0.1,0.3-0.1,0.5-0.4,0.5l-9.6,1.9c-0.3,0.1-0.5-0.1-0.5-0.4l-0.3-1.6c-0.1-0.3,0.1-0.5,0.4-0.5
			l9.6-1.9c0.3-0.1,0.5,0.1,0.5,0.4L128.7,65.5z"/>
		<path class="st0" d="M129.7,75.4c0,0.3-0.1,0.5-0.4,0.5l-1.7,0.1c-0.3,0-0.5-0.1-0.5-0.4l-0.2-3.7c0-0.3-0.2-0.4-0.5-0.4l-0.5,0
			c-0.3,0-0.4,0.2-0.4,0.5l0.1,2.4c0,0.3-0.1,0.5-0.4,0.5l-1.7,0.1c-0.3,0-0.5-0.1-0.5-0.4l-0.1-2.4c0-0.3-0.2-0.4-0.5-0.4l-0.5,0
			c-0.3,0-0.4,0.2-0.4,0.5l0.2,3.7c0,0.3-0.1,0.5-0.4,0.5l-1.7,0.1c-0.3,0-0.5-0.1-0.5-0.4l-0.4-6.4c0-0.3,0.1-0.5,0.4-0.5l9.7-0.6
			c0.3,0,0.5,0.1,0.5,0.4L129.7,75.4z"/>
		<path class="st0" d="M129.3,81.3c0,0.3-0.2,0.4-0.4,0.5l-5.3,1.4c-0.1,0-0.1,0.2,0,0.2l4.9,0.7c0.3,0,0.4,0.2,0.4,0.5l-0.2,1.7
			c0,0.3-0.2,0.4-0.5,0.4l-9.7-1.3c-0.3,0-0.4-0.2-0.4-0.5l0.3-2.2c0-0.3,0.2-0.4,0.4-0.5l5.3-1.4c0.1,0,0.1-0.2,0-0.2l-4.9-0.7
			c-0.3,0-0.4-0.2-0.4-0.5l0.2-1.7c0-0.3,0.2-0.4,0.5-0.4l9.7,1.3c0.3,0,0.4,0.2,0.4,0.5L129.3,81.3z"/>
		<path class="st0" d="M125.2,96.9c-0.1,0.3-0.3,0.3-0.6,0.2l-3.5-1.6c-0.3-0.1-0.5,0-0.6,0.2l-0.6,1.3c-0.1,0.3,0,0.5,0.2,0.6
			l3.5,1.6c0.3,0.1,0.3,0.3,0.2,0.6l-0.7,1.5c-0.1,0.3-0.3,0.3-0.6,0.2l-8.8-4.1c-0.3-0.1-0.3-0.3-0.2-0.6l0.7-1.5
			c0.1-0.3,0.3-0.3,0.6-0.2l2.2,1c0.3,0.1,0.5,0.1,0.6-0.2l0.6-1.3c0.1-0.3,0.1-0.5-0.2-0.6l-2.2-1c-0.3-0.1-0.3-0.3-0.2-0.6
			l0.7-1.5c0.1-0.3,0.3-0.3,0.6-0.2l8.8,4.1c0.3,0.1,0.3,0.3,0.2,0.6L125.2,96.9z"/>
		<path class="st0" d="M117.2,110c-0.2,0.2-0.4,0.3-0.6,0.1l-1.4-1c-0.2-0.2-0.3-0.4-0.1-0.6l2.2-3c0.2-0.2,0.1-0.5-0.1-0.6
			l-0.4-0.3c-0.2-0.2-0.5-0.1-0.6,0.1l-1.4,1.9c-0.2,0.2-0.4,0.3-0.6,0.1l-1.4-1c-0.2-0.2-0.3-0.4-0.1-0.6l1.4-1.9
			c0.2-0.2,0.1-0.5-0.1-0.6l-0.4-0.3c-0.2-0.2-0.5-0.1-0.6,0.1l-2.2,3c-0.2,0.2-0.4,0.3-0.6,0.1l-1.4-1c-0.2-0.2-0.3-0.4-0.1-0.6
			l3.8-5.2c0.2-0.2,0.4-0.3,0.6-0.1l7.9,5.8c0.2,0.2,0.3,0.4,0.1,0.6L117.2,110z"/>
		<path class="st0" d="M112.9,109.8c0.7,0.7,2.4,2.8-0.2,5.3c-2.4,2.2-4.2,1-5.1,0.2c-0.2-0.1-0.2-0.4,0-0.5l1-1.4
			c0.2-0.3,0.5-0.3,0.8-0.1c0.5,0.4,1,0.5,1.6,0c0.8-0.8,0.4-1.3-0.4-2.2l-1.5-1.6c-0.8-0.9-1.4-1.3-2.2-0.6c-0.6,0.6-0.5,1-0.1,1.6
			c0.2,0.3,0.1,0.6-0.1,0.7L105,112c-0.2,0.1-0.4,0.1-0.5-0.1c-0.8-0.9-1.9-2.8,0.5-5c2.6-2.5,4.6-0.7,5.3,0.1L112.9,109.8z"/>
		<path class="st0" d="M105.8,120.2c-0.2,0.2-0.5,0.1-0.6-0.1l-2-3.2c-0.2-0.2-0.4-0.3-0.6-0.1l-1.2,0.8c-0.3,0.2-0.3,0.4-0.1,0.6
			l2,3.2c0.2,0.2,0.1,0.5-0.1,0.6l-1.4,0.9c-0.3,0.2-0.5,0.1-0.6-0.1l-5.2-8.2c-0.2-0.2-0.1-0.5,0.1-0.6l1.4-0.9
			c0.2-0.2,0.5-0.1,0.6,0.1l1.3,2c0.2,0.3,0.4,0.3,0.6,0.1l1.2-0.8c0.2-0.2,0.3-0.4,0.1-0.6l-1.3-2c-0.2-0.2-0.1-0.5,0.1-0.6
			l1.4-0.9c0.2-0.2,0.5-0.1,0.6,0.1l5.2,8.2c0.2,0.3,0.1,0.5-0.1,0.6L105.8,120.2z"/>
		<path class="st0" d="M88.7,120.5c-0.4-0.9-1.1-3.5,2.2-4.8c3.4-1.3,4.5,1.1,4.9,2.1l1.4,3.6c0.4,0.9,1.1,3.5-2.2,4.8
			c-3.4,1.3-4.5-1.1-4.9-2.1L88.7,120.5z M92.2,122.3c0.4,1.1,0.7,1.7,1.8,1.3c1.1-0.4,0.9-1.1,0.4-2.2l-0.8-2
			c-0.4-1.1-0.7-1.7-1.8-1.3s-0.9,1.1-0.4,2.2L92.2,122.3z"/>
		<path class="st0" d="M84.5,120.5c-0.3,0.1-0.5-0.1-0.5-0.3l-0.4-1.7c-0.1-0.3,0.1-0.5,0.4-0.5l1.7-0.4c0.3-0.1,0.5,0.1,0.5,0.4
			l0.4,1.7c0.1,0.3-0.1,0.5-0.3,0.5L84.5,120.5z M85.9,128.5c-0.3,0.1-0.5,0-0.5-0.3l-1.1-6.3c0-0.3,0.1-0.5,0.3-0.5l1.7-0.4
			c0.3-0.1,0.5,0.1,0.5,0.3l1.7,6.2c0.1,0.3-0.1,0.5-0.4,0.5L85.9,128.5z"/>
	</g>
	<g>
		<g>
			<path class="st0" d="M81.6,42.7c0.9,0.4,1.3,1.2,1.2,2.2c-0.1,0.9,0,1.8,0,2.7c0,1-0.7,1.7-1.6,1.7c-0.9,0-1.6-0.7-1.6-1.7
				c0-0.9,0-1.8,0-2.7c-0.1-1,0.3-1.8,1.2-2.2C81,42.7,81.3,42.7,81.6,42.7z"/>
		</g>
		<g>
			<path class="st0" d="M85.3,69.1c0.3,0,0.5,0,0.6,0c2.7,0,5.4,0,8.1,0c2.4,0,4.2,1.4,4.9,3.7c0.4,1.5,0.1,2.9-0.8,4.1
				c-0.3,0.3-0.2,0.5,0,0.9c1.3,1.7,1.2,4,0,5.7c-0.2,0.3-0.3,0.5,0,0.8c1.9,2.6,0.8,6.3-2.2,7.5c-0.1,0.1-0.3,0.1-0.4,0.2
				c0.4,1,0.5,2,0.2,3c-0.6,2.2-2.4,3.7-4.7,3.7c-5.5,0-11,0-16.4-0.1c-2.9-0.1-5.8-0.7-8.6-1.6c-0.4-0.1-0.7-0.1-1,0.3
				c-1,1-2.2,1.5-3.6,1.5c-3.1,0-6.3,0-9.4,0c-1.2,0-1.9-0.6-1.9-1.9c0-6.8,0-13.5,0-20.3c0-2.9,0-5.8,0-8.6c0-1.3,0.6-1.9,1.9-1.9
				c3,0,6,0,9.1,0c2.2,0,3.9,0.8,4.9,2.8c0,0,0.1,0.1,0.1,0.1c2.4-1.3,4.7-2.5,7.1-3.8c2-1.1,3.1-3,3.6-5.2c0.4-1.9,0.8-3.8,1.2-5.7
				c0.2-1.1,0.9-1.6,2-1.5c3.8,0.1,7.2,3.2,7.8,7c0.2,1.8,0,3.5-0.6,5.2c-0.4,1.2-0.9,2.4-1.4,3.6C85.5,68.6,85.4,68.8,85.3,69.1z
				 M80.8,56.1c-0.3,1.4-0.6,2.7-0.9,4c-0.7,3.7-2.7,6.5-6.1,8.2c-2.4,1.2-4.7,2.5-7.1,3.8c-0.3,0.2-0.4,0.4-0.4,0.8
				c0,4.3,0,8.6,0,12.8c0,2.5,0,5,0,7.4c0,0.3,0,0.5,0.3,0.6c3.1,0.9,6.3,1.5,9.6,1.6c4.9,0.1,9.8,0,14.6,0c1,0,1.7-0.7,1.7-1.6
				c0-0.9-0.6-1.6-1.6-1.7c-1.1-0.1-1.7-0.8-1.7-1.7c0-0.9,0.8-1.6,1.9-1.6c1,0,1.9,0,2.9,0c1.1,0,1.8-0.7,1.8-1.6
				c0-1-0.7-1.6-1.8-1.6c-1,0-2,0-2.9,0c-1.1,0-1.8-0.7-1.8-1.6c0-1,0.7-1.6,1.8-1.6c1,0,2,0,2.9,0c1.1,0,1.8-0.7,1.8-1.6
				c0-1-0.7-1.6-1.8-1.6c-1,0-1.9,0-2.9,0c-1.1,0-1.9-0.7-1.8-1.6c0-1,0.7-1.6,1.9-1.6c1,0,2,0,3.1,0c0.7,0,1.2-0.3,1.5-1
				c0.3-0.6,0.2-1.1-0.2-1.6c-0.4-0.5-0.9-0.7-1.6-0.7c-4.8,0-9.5,0-14.3,0c-1.1,0-1.8-0.7-1.8-1.6c0-1,0.7-1.6,1.8-1.6
				c0.6,0,1.2,0,1.7,0c0.1,0,0.4-0.1,0.4-0.2c0.8-2.2,1.8-4.3,2.4-6.5C85,59.6,83.5,57,80.8,56.1z M53.3,69.1c0,8.8,0,17.5,0,26.2
				c2.8,0,5.5,0,8.2,0c0.9,0,1.6-0.7,1.6-1.7c0-1.3,0-2.5,0-3.8c0-6.3,0-12.6,0-18.8c0-1.2-0.6-1.9-1.9-1.9c-0.7,0-1.5,0-2.2,0
				C57.2,69.1,55.3,69.1,53.3,69.1z"/>
		</g>
		<g>
			<path class="st0" d="M75.3,50.4c-0.1,0.7-0.4,1.2-1,1.5c-0.6,0.3-1.2,0.3-1.7-0.2c-0.9-0.8-1.8-1.7-2.6-2.6
				c-0.6-0.6-0.4-1.6,0.2-2.1c0.6-0.6,1.5-0.7,2.1-0.1c0.9,0.8,1.8,1.7,2.6,2.6C75.1,49.7,75.2,50.1,75.3,50.4z"/>
		</g>
		<g>
			<path class="st0" d="M87,50.3c0.1-0.2,0.2-0.6,0.5-0.9c0.7-0.8,1.5-1.6,2.3-2.3c0.7-0.7,1.7-0.7,2.3,0c0.6,0.7,0.6,1.6,0,2.3
				c-0.8,0.8-1.5,1.6-2.3,2.3c-0.5,0.5-1.2,0.6-1.8,0.3C87.4,51.7,87.1,51.2,87,50.3z"/>
		</g>
		<g>
			<path class="st0" d="M58.2,88.8c0.9,0,1.6,0.7,1.6,1.6c0,0.9-0.7,1.6-1.6,1.6c-0.9,0-1.6-0.7-1.6-1.6
				C56.6,89.5,57.3,88.8,58.2,88.8z"/>
		</g>
	</g>
</g>
</svg>
