<svg width="108" height="26" viewBox="0 0 108 26" fill="none" xmlns="http://www.w3.org/2000/svg">
<path d="M12.98 22.96C18.4918 22.96 22.96 18.4918 22.96 12.98C22.96 7.4682 18.4918 3 12.98 3C7.4682 3 3 7.4682 3 12.98C3 18.4918 7.4682 22.96 12.98 22.96Z" fill="url(#paint0_linear_523_64)"/>
<path d="M12.98 3C18.49 3 22.96 7.47 22.96 12.98C22.96 18.49 18.49 22.96 12.98 22.96C7.47 22.96 3 18.49 3 12.98C3 7.47 7.47 3 12.98 3ZM12.98 0C5.82 0 0 5.82 0 12.98C0 20.14 5.82 25.96 12.98 25.96C20.14 25.96 25.96 20.14 25.96 12.98C25.96 5.82 20.14 0 12.98 0Z" fill="url(#paint1_linear_523_64)"/>
<path d="M53.7925 22.96C59.3043 22.96 63.7725 18.4918 63.7725 12.98C63.7725 7.4682 59.3043 3 53.7925 3C48.2807 3 43.8125 7.4682 43.8125 12.98C43.8125 18.4918 48.2807 22.96 53.7925 22.96Z" fill="url(#paint2_linear_523_64)"/>
<path d="M53.7925 3C59.3025 3 63.7725 7.47 63.7725 12.98C63.7725 18.49 59.3025 22.96 53.7925 22.96C48.2825 22.96 43.8125 18.49 43.8125 12.98C43.8125 7.47 48.2825 3 53.7925 3ZM53.7925 0C46.6325 0 40.8125 5.82 40.8125 12.98C40.8125 20.14 46.6325 25.96 53.7925 25.96C60.9525 25.96 66.7725 20.14 66.7725 12.98C66.7725 5.82 60.9425 0 53.7925 0Z" fill="url(#paint3_linear_523_64)"/>
<path d="M94.5894 22.96C100.101 22.96 104.569 18.4918 104.569 12.98C104.569 7.4682 100.101 3 94.5894 3C89.0776 3 84.6094 7.4682 84.6094 12.98C84.6094 18.4918 89.0776 22.96 94.5894 22.96Z" fill="url(#paint4_linear_523_64)"/>
<path d="M94.5894 3C100.099 3 104.569 7.47 104.569 12.98C104.569 18.49 100.099 22.96 94.5894 22.96C89.0794 22.96 84.6094 18.49 84.6094 12.98C84.6194 7.47 89.0794 3 94.5894 3ZM94.5894 0C87.4294 0 81.6094 5.82 81.6094 12.98C81.6094 20.14 87.4294 25.96 94.5894 25.96C101.749 25.96 107.569 20.14 107.569 12.98C107.569 5.82 101.749 0 94.5894 0Z" fill="url(#paint5_linear_523_64)"/>
<defs>
<linearGradient id="paint0_linear_523_64" x1="3" y1="12.9787" x2="22.9574" y2="12.9787" gradientUnits="userSpaceOnUse">
<stop stop-color="#FF632F"/>
<stop offset="1" stop-color="#FF8C2F"/>
</linearGradient>
<linearGradient id="paint1_linear_523_64" x1="6.4906" y1="24.2164" x2="19.4668" y2="1.741" gradientUnits="userSpaceOnUse">
<stop stop-color="#2490B2"/>
<stop offset="0.5475" stop-color="#2490B2" stop-opacity="0"/>
</linearGradient>
<linearGradient id="paint2_linear_523_64" x1="43.8105" y1="12.9787" x2="63.7679" y2="12.9787" gradientUnits="userSpaceOnUse">
<stop stop-color="#F49FA5"/>
<stop offset="1" stop-color="#CC2CF4"/>
</linearGradient>
<linearGradient id="paint3_linear_523_64" x1="47.3011" y1="24.2164" x2="60.2773" y2="1.741" gradientUnits="userSpaceOnUse">
<stop stop-color="#2490B2"/>
<stop offset="0.5475" stop-color="#2490B2" stop-opacity="0"/>
</linearGradient>
<linearGradient id="paint4_linear_523_64" x1="84.6154" y1="12.9787" x2="104.573" y2="12.9787" gradientUnits="userSpaceOnUse">
<stop stop-color="#A4DB00"/>
<stop offset="1" stop-color="#41C945"/>
</linearGradient>
<linearGradient id="paint5_linear_523_64" x1="88.1061" y1="24.2164" x2="101.082" y2="1.741" gradientUnits="userSpaceOnUse">
<stop stop-color="#2490B2"/>
<stop offset="0.5475" stop-color="#2490B2" stop-opacity="0"/>
</linearGradient>
</defs>
</svg>
