<svg width="107" height="26" viewBox="0 0 107 26" fill="none" xmlns="http://www.w3.org/2000/svg">
<path d="M12.98 22.96C18.4918 22.96 22.96 18.4918 22.96 12.98C22.96 7.4682 18.4918 3 12.98 3C7.4682 3 3 7.4682 3 12.98C3 18.4918 7.4682 22.96 12.98 22.96Z" fill="url(#paint0_linear_523_75)"/>
<path d="M12.98 3C18.49 3 22.96 7.47 22.96 12.98C22.96 18.49 18.49 22.96 12.98 22.96C7.47 22.96 3 18.49 3 12.98C3 7.47 7.47 3 12.98 3ZM12.98 0C5.82 0 0 5.82 0 12.98C0 20.14 5.82 25.96 12.98 25.96C20.14 25.96 25.96 20.14 25.96 12.98C25.96 5.82 20.14 0 12.98 0Z" fill="url(#paint1_linear_523_75)"/>
<path d="M53.4722 22.96C58.984 22.96 63.4522 18.4918 63.4522 12.98C63.4522 7.4682 58.984 3 53.4722 3C47.9604 3 43.4922 7.4682 43.4922 12.98C43.4922 18.4918 47.9604 22.96 53.4722 22.96Z" fill="url(#paint2_linear_523_75)"/>
<path d="M53.4722 3C58.9822 3 63.4522 7.47 63.4522 12.98C63.4522 18.49 58.9822 22.96 53.4722 22.96C47.9622 22.96 43.4922 18.49 43.4922 12.98C43.4922 7.47 47.9622 3 53.4722 3ZM53.4722 0C46.3122 0 40.4922 5.82 40.4922 12.98C40.4922 20.14 46.3122 25.96 53.4722 25.96C60.6322 25.96 66.4522 20.14 66.4522 12.98C66.4422 5.82 60.6222 0 53.4722 0Z" fill="url(#paint3_linear_523_75)"/>
<path d="M93.9487 22.96C99.4605 22.96 103.929 18.4918 103.929 12.98C103.929 7.4682 99.4605 3 93.9487 3C88.4369 3 83.9688 7.4682 83.9688 12.98C83.9688 18.4918 88.4369 22.96 93.9487 22.96Z" fill="url(#paint4_linear_523_75)"/>
<path d="M93.9466 3C99.4566 3 103.927 7.47 103.927 12.98C103.927 18.49 99.4566 22.96 93.9466 22.96C88.4366 22.96 83.9666 18.49 83.9666 12.98C83.9766 7.47 88.4366 3 93.9466 3ZM93.9466 0C86.7966 0 80.9766 5.82 80.9766 12.98C80.9766 20.14 86.7966 25.96 93.9566 25.96C101.117 25.96 106.937 20.14 106.937 12.98C106.927 5.82 101.107 0 93.9466 0Z" fill="url(#paint5_linear_523_75)"/>
<defs>
<linearGradient id="paint0_linear_523_75" x1="3" y1="12.9787" x2="22.9574" y2="12.9787" gradientUnits="userSpaceOnUse">
<stop stop-color="#F4F400"/>
<stop offset="1" stop-color="#F4B33B"/>
</linearGradient>
<linearGradient id="paint1_linear_523_75" x1="6.4906" y1="24.2164" x2="19.4668" y2="1.741" gradientUnits="userSpaceOnUse">
<stop stop-color="#2490B2"/>
<stop offset="0.5475" stop-color="#2490B2" stop-opacity="0"/>
</linearGradient>
<linearGradient id="paint2_linear_523_75" x1="43.4897" y1="12.9787" x2="63.4471" y2="12.9787" gradientUnits="userSpaceOnUse">
<stop stop-color="#20A6E8"/>
<stop offset="1" stop-color="#126DFF"/>
</linearGradient>
<linearGradient id="paint3_linear_523_75" x1="46.9803" y1="24.2164" x2="59.9565" y2="1.741" gradientUnits="userSpaceOnUse">
<stop stop-color="#2490B2"/>
<stop offset="0.5475" stop-color="#2490B2" stop-opacity="0"/>
</linearGradient>
<linearGradient id="paint4_linear_523_75" x1="83.9737" y1="12.9787" x2="103.931" y2="12.9787" gradientUnits="userSpaceOnUse">
<stop stop-color="#F436B8"/>
<stop offset="1" stop-color="#F42C3B"/>
</linearGradient>
<linearGradient id="paint5_linear_523_75" x1="87.4623" y1="24.2164" x2="100.438" y2="1.741" gradientUnits="userSpaceOnUse">
<stop stop-color="#2490B2"/>
<stop offset="0.5475" stop-color="#2490B2" stop-opacity="0"/>
</linearGradient>
</defs>
</svg>
