<?xml version="1.0" encoding="utf-8"?>
<!-- Generator: Adobe Illustrator 24.0.1, SVG Export Plug-In . SVG Version: 6.00 Build 0)  -->
<svg version="1.1" id="Layer_1" xmlns="http://www.w3.org/2000/svg" xmlns:xlink="http://www.w3.org/1999/xlink" x="0px" y="0px"
	 viewBox="0 0 150 150" style="enable-background:new 0 0 150 150;" xml:space="preserve">
<style type="text/css">
	.st0{fill:#BEBEBE;}
</style>
<g>
	<g>
		<path class="st0" d="M142.5,51.8c-3.9-2.3-6.3-7.8-5.4-12.2c0.9-4.4-2-8.7-6.4-9.5c-4.4-0.8-8.6-5.2-9.2-9.6
			c-0.7-4.5-4.8-7.5-9.3-6.8c-4.4,0.7-9.8-1.9-12-5.9c-2.1-4-7.1-5.4-11-3.2C85.3,6.7,79.4,6.1,76,3.1c-3.4-3-8.5-2.6-11.5,0.8
			c-2.9,3.4-8.8,4.8-12.9,3.2c-4.2-1.7-8.9,0.4-10.5,4.6c-1.6,4.2-6.6,7.5-11.1,7.4c-4.5-0.1-8.2,3.5-8.3,8
			c-0.1,4.5-3.6,9.3-7.9,10.8c-4.3,1.4-6.5,6.1-5.1,10.3c1.5,4.2-0.2,10-3.7,12.8C1.6,63.7,1,68.9,3.8,72.4
			c2.8,3.5,3.3,9.5,0.9,13.3c-2.4,3.8-1.1,8.8,2.7,11.1c3.9,2.3,6.3,7.8,5.4,12.2c-0.9,4.4,2,8.7,6.4,9.5c4.4,0.8,8.6,5.2,9.2,9.6
			c0.7,4.5,4.8,7.5,9.3,6.8c4.4-0.7,9.8,1.9,12,5.9c2.1,4,7.1,5.4,11,3.2c3.9-2.2,9.9-1.6,13.3,1.4c3.4,3,8.5,2.6,11.5-0.8
			c2.9-3.4,8.8-4.8,12.9-3.2c4.2,1.7,8.9-0.4,10.5-4.6c1.6-4.2,6.6-7.5,11.1-7.4c4.5,0.1,8.2-3.5,8.3-8c0.1-4.5,3.6-9.3,7.9-10.8
			c4.3-1.4,6.6-6.1,5.1-10.3c-1.5-4.2,0.2-10,3.7-12.8c3.5-2.8,4.1-7.9,1.2-11.4c-2.8-3.5-3.3-9.5-0.9-13.3
			C147.6,59.1,146.4,54.1,142.5,51.8z M91.2,137.1c-34.7,8.9-70.1-12-79-46.7c-8.9-34.7,12-70.1,46.7-79c34.7-8.9,70.1,12,79,46.7
			C146.8,92.8,125.9,128.2,91.2,137.1z"/>
	</g>
	<g>
		<path class="st0" d="M59.7,14.7C26.8,23.2,7,56.7,15.4,89.6c8.5,32.9,42,52.7,74.9,44.3c32.9-8.5,52.7-42,44.3-74.9
			C126.1,26,92.6,6.2,59.7,14.7z M89.7,131.6c-31.6,8.1-63.9-10.9-72-42.5C9.6,57.4,28.6,25.1,60.3,17c31.6-8.1,63.9,10.9,72,42.5
			C140.4,91.2,121.4,123.4,89.7,131.6z"/>
	</g>
	<g>
		<g>
			<path class="st0" d="M74.8,104.7c-4.9-0.2-9.5-1.4-13.7-3.8c-1.5-0.9-2.9-2-4.4-3c-0.7-0.5-0.8-1.1-0.4-1.6c0.4-0.5,1-0.5,1.7,0
				c1.8,1.2,3.5,2.5,5.4,3.5c5.4,2.8,11.1,3.5,17,2.4c7.4-1.4,13.3-5.2,17.6-11.4c2.8-4,4.3-8.4,4.7-13.3c0.4-5.5-0.7-10.6-3.4-15.4
				c-0.7-1.3-1.7-2.5-2.5-3.7c-0.2-0.2-0.4-0.4-0.5-0.7c-0.4-0.6-0.3-1.1,0.2-1.5c0.5-0.3,1.1-0.3,1.5,0.3c0.6,0.7,1.1,1.4,1.6,2.1
				c3.7,5.4,5.6,11.4,5.3,17.9c-0.4,9.2-4.3,16.8-11.7,22.4c-4.6,3.6-9.9,5.5-15.7,5.9c-0.6,0-1.1,0.1-1.7,0.1
				C75.5,104.7,75.2,104.7,74.8,104.7z"/>
		</g>
		<g>
			<path class="st0" d="M46.2,75.6c0.2-9.9,4-17.8,11.7-23.8c4.6-3.6,9.9-5.5,15.8-5.9c7.8-0.5,14.8,1.8,20.8,6.8
				c0.6,0.5,0.7,1.1,0.3,1.6c-0.4,0.5-1,0.5-1.6,0.1c-1.8-1.2-3.5-2.5-5.4-3.5c-5.4-2.8-11.1-3.5-17-2.4
				c-7.4,1.4-13.3,5.2-17.6,11.4c-2.8,4-4.3,8.4-4.7,13.3c-0.4,5.5,0.7,10.6,3.4,15.4c0.7,1.2,1.5,2.3,2.3,3.4
				c0.2,0.3,0.5,0.6,0.7,0.9c0.5,0.6,0.4,1.2-0.1,1.6c-0.5,0.4-1.1,0.3-1.5-0.3c-0.6-0.8-1.2-1.5-1.8-2.3c-2.5-3.7-4.1-7.8-4.8-12.2
				C46.3,78.3,46.3,76.9,46.2,75.6z"/>
		</g>
		<g>
			<path class="st0" d="M76.3,82.6c-2.2,0-3.9-2.1-3.2-4.3c0.1-0.4,0-0.7-0.3-1c-3.5-3.5-7-7-10.5-10.5c-0.1-0.1-0.3-0.3-0.4-0.5
				c-0.4-0.5-0.4-1.1,0-1.5c0.4-0.4,1-0.4,1.5,0c0.2,0.1,0.3,0.3,0.5,0.4c3.5,3.5,7,7,10.4,10.5c0.3,0.3,0.6,0.4,1.1,0.3
				c1.2-0.4,2.7,0.1,3.5,1.1c0.3,0.4,0.6,0.5,1.1,0.4c3.5-0.6,6.9-1.1,10.4-1.6c1.1-0.2,1.6,0.1,1.7,0.8c0.1,0.7-0.4,1.1-1.4,1.3
				c-3.5,0.5-6.9,1.1-10.4,1.6c-0.4,0.1-0.7,0.2-0.8,0.7C78.9,81.7,77.7,82.6,76.3,82.6z M76.3,80.4c0.6,0,1.2-0.5,1.2-1.1
				c0-0.7-0.5-1.2-1.2-1.2c-0.6,0-1.2,0.5-1.2,1.1C75.1,79.9,75.6,80.4,76.3,80.4z"/>
		</g>
	</g>
	<g>
		<path class="st0" d="M44.3,116.1c-0.2-0.2-0.2-0.4-0.1-0.6l1.9-4.1c0.1-0.1,0-0.2-0.1-0.1l-3.6,2.8c-0.2,0.2-0.4,0.2-0.6,0l-2.5-2
			c-0.2-0.2-0.3-0.4-0.1-0.6l6.1-7.6c0.2-0.2,0.4-0.3,0.6-0.1l1.3,1.1c0.2,0.2,0.3,0.4,0.1,0.6l-3.8,4.7c-0.1,0.1,0,0.2,0.1,0.1
			l5-3.8c0.2-0.2,0.4-0.2,0.6,0l0.8,0.6c0.2,0.2,0.3,0.4,0.1,0.6l-2.7,5.7c0,0.1,0.1,0.2,0.1,0.1l3.8-4.7c0.2-0.2,0.4-0.3,0.6-0.1
			l1.3,1.1c0.2,0.2,0.3,0.4,0.1,0.6l-6.1,7.6c-0.2,0.2-0.4,0.3-0.6,0.1L44.3,116.1z"/>
		<path class="st0" d="M32.4,103.7c-0.2-0.2-0.2-0.5,0.1-0.6l1.4-1c0.2-0.2,0.5-0.2,0.6,0.1l2.3,2.9c0.2,0.2,0.4,0.3,0.6,0.1
			l0.4-0.3c0.2-0.2,0.3-0.4,0.1-0.6l-1.4-1.9c-0.2-0.2-0.2-0.5,0.1-0.6l1.4-1c0.2-0.2,0.5-0.2,0.6,0.1l1.4,1.9
			c0.2,0.2,0.4,0.3,0.6,0.1l0.4-0.3c0.2-0.2,0.3-0.4,0.1-0.6l-2.3-2.9c-0.2-0.2-0.2-0.5,0.1-0.6l1.4-1c0.2-0.2,0.5-0.2,0.6,0.1
			l3.9,5.1c0.2,0.2,0.1,0.5-0.1,0.6l-7.7,6c-0.2,0.2-0.5,0.1-0.6-0.1L32.4,103.7z"/>
		<path class="st0" d="M27.7,95.2c-0.1-0.2,0-0.5,0.2-0.6l6.1-3c0.9-0.5,3.4-1.5,5,1.8c1.5,2.9-0.3,4.3-1.3,4.9
			c-0.2,0.1-0.4,0.1-0.5-0.1l-1.1-1.3c-0.2-0.3-0.1-0.6,0.1-0.8c0.6-0.4,0.8-0.8,0.4-1.5c-0.5-1-1.2-0.8-2.2-0.2l-5.3,2.7
			c-0.2,0.1-0.5,0-0.6-0.2L27.7,95.2z"/>
		<path class="st0" d="M31.4,82.7c1-0.3,3.6-0.8,4.6,2.7c1,3.5-1.6,4.4-2.6,4.7l-3.7,1c-1,0.3-3.6,0.8-4.6-2.7
			c-1-3.5,1.6-4.4,2.6-4.7L31.4,82.7z M29.2,86c-1.1,0.3-1.8,0.6-1.5,1.7c0.3,1.1,1,1,2.1,0.7l2.1-0.6c1.1-0.3,1.8-0.6,1.5-1.7
			c-0.3-1.1-1-1-2.1-0.7L29.2,86z"/>
		<path class="st0" d="M33.2,73c0.4-0.2,0.8,0,0.9,0.4l0.1,1.7c0,0.2-0.1,0.3-0.2,0.4l-3,1.8c0,0-0.1,0.1-0.1,0.1l0,0.6
			c0,0.3,0.2,0.5,0.5,0.4l2.4-0.2c0.3,0,0.5,0.2,0.5,0.4l0.1,1.7c0,0.3-0.2,0.5-0.4,0.5l-9.7,0.6c-0.3,0-0.5-0.2-0.5-0.4l-0.2-3.3
			c-0.2-2.7,0.9-3.9,3.4-4c1.4-0.1,2.4,0.2,3.1,1c0.1,0.1,0.1,0.1,0.2,0L33.2,73z M26.4,78.4c0,0.3,0.2,0.5,0.5,0.4l1.1-0.1
			c0.3,0,0.5-0.2,0.4-0.5l-0.1-0.8c0-0.7-0.2-1.1-1.1-1c-0.9,0.1-1,0.4-1,1.2L26.4,78.4z"/>
		<path class="st0" d="M34.7,65c0.3,0,0.5,0.2,0.5,0.5l-0.2,1.7c0,0.3-0.2,0.4-0.5,0.4l-1.3-0.2c-0.3,0-0.5,0.1-0.5,0.4l-0.2,1.3
			c0,0.3,0.1,0.5,0.4,0.5l1.3,0.2c0.3,0,0.4,0.2,0.4,0.5l-0.2,1.7c0,0.3-0.2,0.4-0.6,0.4l-6.4-0.9c-1.9-0.3-3.9-0.9-3.4-4.2
			c0.5-3.4,2.5-3.4,4.4-3.1L34.7,65z M27.9,66.7c-0.7-0.1-1.1,0-1.2,0.9c-0.1,1,0.2,1.2,0.9,1.3l1.6,0.2c0.3,0,0.5-0.1,0.5-0.4
			l0.2-1.3c0-0.3-0.1-0.5-0.4-0.5L27.9,66.7z"/>
		<path class="st0" d="M30.9,54.6c-0.3-0.1-0.5-0.1-0.6,0.2l-0.9,1.9C29.3,57,29,57.1,28.8,57l-1.5-0.7c-0.3-0.1-0.3-0.3-0.2-0.6
			l3.4-7c0.1-0.3,0.3-0.3,0.6-0.2l1.5,0.7c0.3,0.1,0.3,0.3,0.2,0.6l-0.9,1.9c-0.1,0.3-0.1,0.5,0.2,0.6l6.4,3.1
			c0.3,0.1,0.3,0.3,0.2,0.6L38,57.5c-0.1,0.3-0.4,0.3-0.6,0.2L30.9,54.6z"/>
		<path class="st0" d="M33.3,44.3c0.2-0.2,0.4-0.3,0.6-0.1l4.7,3.6c0.9,0.7,1.5,1.1,2.2,0.2c0.7-0.9,0.2-1.4-0.8-2.1l-4.8-3.6
			c-0.2-0.2-0.3-0.4-0.1-0.6l1-1.4c0.2-0.2,0.4-0.3,0.6-0.1l5.4,4.1c0.8,0.6,2.8,2.4,0.6,5.3c-2.2,2.9-4.5,1.4-5.3,0.8l-5.4-4.1
			c-0.2-0.2-0.3-0.4-0.1-0.6L33.3,44.3z"/>
		<path class="st0" d="M45.2,37.1c-0.2,0.2-0.4,0.2-0.6,0c-0.5-0.4-1.1-0.4-1.7,0.1c-0.4,0.4-0.5,0.9-0.2,1.1
			c0.9,0.8,4.6-2.4,6.9,0.2c0.3,0.3,1.7,2.7-1,5.1c-2.4,2.1-4.3,1-5.2,0.1c-0.2-0.2-0.2-0.4,0-0.6l1-1.4c0.2-0.2,0.4-0.3,0.6,0
			c0.5,0.5,1.2,0.5,1.8,0c0.6-0.5,0.7-1.2,0.3-1.4c-1.1-0.8-4.3,2.4-6.6-0.2c-0.3-0.3-1.9-2.6,0.7-4.8c2.4-2.1,4.3-1,5.1-0.2
			c0.2,0.2,0.2,0.4,0,0.6L45.2,37.1z"/>
		<path class="st0" d="M54.9,30.3c-0.1-0.3-0.3-0.4-0.6-0.2l-2,0.8c-0.3,0.1-0.5,0-0.6-0.2L51,29.1c-0.1-0.3,0-0.5,0.2-0.6l7.2-3.1
			c0.3-0.1,0.5,0,0.6,0.2l0.7,1.6c0.1,0.3,0,0.5-0.2,0.6l-2,0.8c-0.3,0.1-0.4,0.3-0.2,0.6l2.8,6.5c0.1,0.3,0,0.5-0.2,0.6L58.3,37
			c-0.3,0.1-0.5,0-0.6-0.2L54.9,30.3z"/>
		<path class="st0" d="M63,24.1c0.3-0.1,0.5,0,0.6,0.3l2.5,9.4c0.1,0.3,0,0.5-0.3,0.6l-1.6,0.4c-0.3,0.1-0.5,0-0.6-0.3l-2.5-9.4
			c-0.1-0.3,0-0.5,0.3-0.6L63,24.1z"/>
		<path class="st0" d="M72.9,22.6c0.3,0,0.5,0.1,0.5,0.4l0.2,1.7c0,0.3-0.1,0.5-0.4,0.5l-3.7,0.4c-0.3,0-0.4,0.2-0.4,0.5l0.1,0.5
			c0,0.3,0.2,0.4,0.5,0.4l2.3-0.3c0.3,0,0.5,0.1,0.5,0.4l0.2,1.7c0,0.3-0.1,0.5-0.4,0.5L70,29.6c-0.3,0-0.4,0.2-0.4,0.5l0.1,0.5
			c0,0.3,0.2,0.4,0.5,0.4l3.7-0.4c0.3,0,0.5,0.1,0.5,0.4l0.2,1.7c0,0.3-0.1,0.5-0.4,0.5l-6.4,0.7c-0.3,0-0.5-0.1-0.5-0.4l-1.1-9.7
			c0-0.3,0.1-0.5,0.4-0.5L72.9,22.6z"/>
		<path class="st0" d="M80,22.8c0.3,0,0.4,0.2,0.4,0.5l0.6,4.5c0,0.2,0.1,0.2,0.2,0l1.6-4.3c0.1-0.3,0.3-0.4,0.5-0.4l3.1,0.4
			c0.3,0,0.4,0.2,0.4,0.5l-1.1,9.7c0,0.3-0.2,0.4-0.5,0.4l-1.7-0.2c-0.3,0-0.4-0.2-0.4-0.5l0.7-6c0-0.1-0.1-0.1-0.2,0l-2.2,5.9
			c-0.1,0.3-0.3,0.4-0.5,0.3l-1-0.1c-0.3,0-0.4-0.2-0.5-0.5l-0.8-6.2c0-0.1-0.2-0.1-0.2,0l-0.7,6c0,0.3-0.2,0.4-0.5,0.4L75.6,33
			c-0.3,0-0.4-0.2-0.4-0.5l1.1-9.7c0-0.3,0.2-0.4,0.5-0.4L80,22.8z"/>
		<path class="st0" d="M93.8,25.9c2.5,0.9,3.2,2.4,2.3,4.8s-2.3,3.1-4.8,2.1l-0.7-0.3c-0.3-0.1-0.5,0-0.6,0.3l-0.8,2.3
			c-0.1,0.3-0.3,0.4-0.6,0.3l-1.6-0.6c-0.3-0.1-0.4-0.3-0.3-0.6L90,25c0.1-0.3,0.3-0.4,0.6-0.3L93.8,25.9z M92.2,30.3
			c0.7,0.3,1.1,0.3,1.4-0.6c0.3-0.9,0-1.1-0.7-1.4l-0.8-0.3c-0.3-0.1-0.5,0-0.6,0.3l-0.4,1.1c-0.1,0.3,0,0.5,0.3,0.6L92.2,30.3z"/>
		<path class="st0" d="M102.3,38.5c-0.5,0.9-2.1,3-5.2,1.1c-3.1-1.9-1.8-4.3-1.3-5.2l2-3.2c0.5-0.9,2.1-3,5.2-1.1s1.8,4.3,1.3,5.2
			L102.3,38.5z M101.6,34.6c0.6-1,0.9-1.6,0-2.2c-1-0.6-1.4,0-2,1l-1.2,1.9c-0.6,1-0.9,1.6,0,2.2c1,0.6,1.4,0,2-1L101.6,34.6z"/>
		<path class="st0" d="M109.7,40.6c-0.3-0.2-0.3-0.4-0.1-0.6c0.3-0.5,0.3-1.2-0.3-1.7c-0.4-0.4-0.9-0.4-1.1-0.1
			c-0.7,1,2.9,4.3,0.5,6.8c-0.3,0.3-2.5,2-5.2-0.5c-2.3-2.2-1.4-4.2-0.7-5.1c0.2-0.2,0.4-0.2,0.6-0.1l1.5,0.9
			c0.3,0.2,0.3,0.4,0.1,0.6c-0.5,0.6-0.3,1.3,0.2,1.8c0.5,0.5,1.2,0.6,1.5,0.2c0.7-1.1-2.9-4.1-0.5-6.6c0.3-0.3,2.3-2.1,4.8,0.2
			c2.3,2.1,1.4,4.1,0.8,5c-0.2,0.2-0.4,0.2-0.6,0.1L109.7,40.6z"/>
		<path class="st0" d="M120.9,49.2c1.4,2.5,0.9,3.9-1.3,5.1l-2.9,1.6c-2.2,1.2-3.7,1-5.1-1.5l-1.7-3c-0.1-0.3-0.1-0.5,0.2-0.6
			l8.5-4.8c0.3-0.1,0.5-0.1,0.6,0.2L120.9,49.2z M113.9,53.2c0.4,0.6,0.6,0.9,1.4,0.5c0,0,2.9-1.6,2.9-1.6c0.8-0.5,0.7-0.8,0.4-1.5
			l-0.4-0.7c-0.1-0.3-0.4-0.3-0.6-0.2l-3.9,2.2c-0.3,0.1-0.3,0.4-0.2,0.6L113.9,53.2z"/>
		<path class="st0" d="M126,61.8c0.1,0.3,0,0.5-0.3,0.6l-1.6,0.5c-0.3,0.1-0.5,0-0.6-0.3l-1.1-3.5c-0.1-0.3-0.3-0.4-0.6-0.3
			l-0.5,0.1c-0.3,0.1-0.4,0.3-0.3,0.6l0.7,2.2c0.1,0.3,0,0.5-0.3,0.6l-1.6,0.5c-0.3,0.1-0.5,0-0.6-0.3l-0.7-2.2
			c-0.1-0.3-0.3-0.4-0.6-0.3l-0.5,0.1c-0.3,0.1-0.4,0.3-0.3,0.6l1.1,3.5c0.1,0.3,0,0.5-0.3,0.6l-1.6,0.5c-0.3,0.1-0.5,0-0.6-0.3
			l-2-6.1c-0.1-0.3,0-0.5,0.3-0.6l9.3-3c0.3-0.1,0.5,0,0.6,0.3L126,61.8z"/>
		<path class="st0" d="M127.6,77.2c0,0.3-0.1,0.5-0.5,0.5l-1.7,0c-0.3,0-0.5-0.1-0.5-0.5l-0.1-3.7c0-0.3-0.2-0.5-0.5-0.5l-0.5,0
			c-0.3,0-0.5,0.2-0.4,0.5l0,2.4c0,0.3-0.1,0.5-0.5,0.5l-1.7,0c-0.3,0-0.5-0.1-0.5-0.5l0-2.4c0-0.3-0.2-0.5-0.5-0.5l-0.5,0
			c-0.3,0-0.5,0.2-0.4,0.5l0.1,3.7c0,0.3-0.1,0.5-0.5,0.5l-1.7,0c-0.3,0-0.5-0.1-0.5-0.5l-0.1-6.4c0-0.3,0.2-0.5,0.4-0.5l9.8-0.1
			c0.3,0,0.5,0.2,0.5,0.5L127.6,77.2z"/>
		<path class="st0" d="M126.8,83.2c0,0.3-0.2,0.4-0.4,0.5l-5.4,1.1c-0.1,0-0.1,0.2,0,0.2l4.8,0.9c0.3,0.1,0.4,0.3,0.4,0.5l-0.3,1.7
			c-0.1,0.3-0.2,0.4-0.5,0.4l-9.6-1.9c-0.3-0.1-0.4-0.2-0.4-0.5l0.4-2.2c0-0.3,0.2-0.4,0.4-0.5l5.4-1.1c0.1,0,0.1-0.2,0-0.2
			l-4.8-0.9c-0.3-0.1-0.4-0.2-0.4-0.5l0.3-1.7c0.1-0.3,0.3-0.4,0.5-0.4l9.6,1.9c0.3,0.1,0.4,0.3,0.4,0.5L126.8,83.2z"/>
		<path class="st0" d="M121,92.6c0.3,0.1,0.5,0,0.6-0.2l0.8-2c0.1-0.3,0.3-0.4,0.6-0.2l1.6,0.7c0.3,0.1,0.4,0.3,0.2,0.6l-3.1,7.2
			c-0.1,0.3-0.3,0.4-0.6,0.2l-1.6-0.7c-0.3-0.1-0.4-0.3-0.2-0.6l0.8-2c0.1-0.3,0-0.5-0.2-0.6l-6.6-2.8c-0.3-0.1-0.4-0.3-0.2-0.6
			l0.7-1.6c0.1-0.3,0.3-0.4,0.6-0.2L121,92.6z"/>
		<path class="st0" d="M107.6,102.2c-0.4-0.1-0.7-0.5-0.4-0.9l1-1.4c0.1-0.1,0.2-0.2,0.4-0.2l3.4,0.5c0.1,0,0.1,0,0.1-0.1l0.3-0.5
			c0.2-0.2,0.1-0.5-0.1-0.7l-2-1.4c-0.2-0.2-0.3-0.4-0.1-0.7l1-1.4c0.2-0.2,0.4-0.3,0.7-0.1l8,5.6c0.2,0.2,0.3,0.4,0.1,0.7l-1.9,2.7
			c-1.6,2.2-3.1,2.5-5.2,1c-1.2-0.8-1.8-1.7-1.8-2.7c0-0.1-0.1-0.1-0.1-0.2L107.6,102.2z M116.3,102.3c0.2-0.2,0.1-0.5-0.1-0.7
			l-0.9-0.6c-0.2-0.2-0.5-0.1-0.7,0.1l-0.4,0.6c-0.4,0.6-0.6,1,0.2,1.5c0.8,0.5,1.1,0.3,1.5-0.3L116.3,102.3z"/>
		<path class="st0" d="M108.9,114.6c-0.2,0.2-0.4,0.2-0.6,0l-1.2-1.2c-0.2-0.2-0.2-0.4,0-0.6l2.7-2.5c0.2-0.2,0.2-0.4,0-0.6
			l-0.3-0.4c-0.2-0.2-0.4-0.2-0.6,0l-1.7,1.6c-0.2,0.2-0.4,0.2-0.6,0l-1.2-1.2c-0.2-0.2-0.2-0.4,0-0.6l1.7-1.6
			c0.2-0.2,0.2-0.4,0-0.6l-0.3-0.4c-0.2-0.2-0.4-0.2-0.6,0l-2.7,2.5c-0.2,0.2-0.4,0.2-0.6,0l-1.2-1.2c-0.2-0.2-0.2-0.4,0-0.6
			l4.6-4.4c0.2-0.2,0.4-0.2,0.6,0l6.7,7.1c0.2,0.2,0.2,0.4,0,0.6L108.9,114.6z"/>
		<path class="st0" d="M104.7,113.6c0.5,0.9,1.8,3.2-1.3,5.2c-2.7,1.7-4.3,0.2-5-0.8c-0.2-0.2-0.1-0.4,0.1-0.6l1.3-1.2
			c0.2-0.2,0.4-0.2,0.6,0.1c0.4,0.6,0.9,0.8,1.6,0.3c1-0.6,0.6-1.2,0-2.2l-1.2-1.9c-0.6-1-1.1-1.6-2-1c-1,0.6-0.6,1.2-0.2,1.9
			l0.7-0.5c0.2-0.2,0.5-0.1,0.6,0.1l0.7,1c0.2,0.3,0.1,0.5-0.1,0.6l-2.6,1.6c-0.3,0.2-0.5,0.1-0.6-0.1l-1.1-1.7
			c-0.5-0.9-1.8-3.2,1.3-5.2c3.1-1.9,4.7,0.2,5.2,1.1L104.7,113.6z"/>
		<path class="st0" d="M86.8,115c-0.1-0.3,0-0.5,0.2-0.6l1.6-0.6c0.3-0.1,0.5,0,0.6,0.3l0.5,1.2c0.1,0.3,0.3,0.4,0.6,0.3l1.2-0.5
			c0.3-0.1,0.4-0.3,0.3-0.6l-0.5-1.2c-0.1-0.3,0-0.5,0.3-0.6l1.6-0.6c0.3-0.1,0.5,0,0.6,0.3l2.3,6.1c0.7,1.8,1.1,3.8-2.1,5
			s-4.2-0.6-4.9-2.4L86.8,115z M91.6,120.1c0.3,0.7,0.5,1,1.4,0.6s0.9-0.7,0.7-1.4l-0.6-1.6c-0.1-0.3-0.3-0.4-0.6-0.3l-1.2,0.5
			c-0.3,0.1-0.4,0.3-0.3,0.6L91.6,120.1z"/>
	</g>
</g>
</svg>
