<?xml version="1.0" standalone="no"?>
<!DOCTYPE svg PUBLIC "-//W3C//DTD SVG 20010904//EN"
 "http://www.w3.org/TR/2001/REC-SVG-20010904/DTD/svg10.dtd">
<svg version="1.0" xmlns="http://www.w3.org/2000/svg"
 width="428.000000pt" height="216.000000pt" viewBox="0 0 428.000000 216.000000"
 preserveAspectRatio="xMidYMid meet">
<metadata>
Created by potrace 1.16, written by Peter Selinger 2001-2019
</metadata>
<g transform="translate(0.000000,216.000000) scale(0.100000,-0.100000)"
fill="#000000" stroke="none">
<path d="M1862 2120 c-95 -25 -241 -95 -339 -162 -43 -29 -132 -107 -198 -173
-168 -170 -253 -312 -321 -540 -23 -78 -27 -113 -31 -266 -4 -141 -2 -193 12
-260 51 -255 216 -472 445 -589 66 -34 202 -78 293 -95 121 -23 383 -20 508 5
351 72 646 288 807 591 70 130 92 223 92 386 0 291 -94 488 -365 771 -169 176
-324 284 -479 331 -94 29 -316 29 -424 1z m370 -49 c152 -39 305 -137 463
-295 162 -163 289 -345 334 -482 60 -181 54 -427 -15 -582 -67 -151 -228 -340
-371 -435 -267 -178 -609 -245 -915 -182 -377 79 -608 293 -684 637 -20 91
-23 287 -5 388 43 242 158 459 341 640 260 258 590 378 852 311z"/>
<path d="M1950 2065 c-252 -52 -515 -228 -689 -460 -71 -94 -155 -269 -187
-385 -35 -130 -44 -348 -20 -471 78 -383 356 -611 804 -659 409 -44 837 151
1061 483 108 160 135 249 136 437 0 218 -44 349 -180 540 -73 102 -255 288
-350 359 -191 143 -384 195 -575 156z m328 -88 c125 -44 232 -118 377 -262
221 -219 323 -399 344 -612 20 -202 -16 -347 -130 -514 -132 -195 -359 -351
-606 -416 -144 -37 -357 -43 -502 -13 -322 66 -520 227 -610 497 -85 252 -48
561 96 807 153 262 424 469 698 532 93 21 243 13 333 -19z"/>
<path d="M1955 1984 c-319 -71 -621 -328 -754 -640 -49 -115 -72 -218 -78
-351 -12 -250 50 -440 192 -592 231 -247 695 -323 1070 -174 50 20 115 50 145
67 l55 31 -57 3 c-45 2 -67 -2 -107 -22 -102 -52 -356 -106 -441 -94 -21 3
-35 -1 -47 -14 -22 -24 -30 -23 -126 17 -46 19 -106 39 -133 45 -27 6 -87 29
-134 52 -69 34 -101 58 -170 127 -140 141 -200 296 -200 517 0 176 67 393 164
529 11 17 30 50 42 75 23 48 45 72 99 105 18 11 66 45 106 77 136 104 274 165
424 188 200 30 406 -61 621 -275 147 -147 247 -298 288 -435 9 -30 19 -98 23
-150 14 -225 -48 -378 -230 -567 -69 -72 -78 -85 -75 -114 l3 -32 73 68 c95
88 156 168 213 280 58 113 73 195 67 355 -6 129 -33 228 -93 336 -102 183
-338 424 -508 518 -137 76 -293 101 -432 70z"/>
<path d="M1920 1900 c-96 -25 -235 -95 -325 -162 l-70 -53 42 -3 c35 -3 49 3
90 34 116 89 287 141 428 130 80 -6 165 -33 241 -76 45 -25 54 -27 64 -15 36
43 110 -5 96 -61 -9 -33 17 -64 53 -64 33 0 85 -31 106 -63 9 -14 19 -47 24
-74 4 -28 17 -64 29 -80 41 -58 101 -196 118 -270 20 -92 15 -243 -11 -318
-22 -65 -86 -172 -136 -229 -35 -39 -39 -50 -39 -97 l0 -53 61 59 c107 106
191 241 220 355 19 76 17 258 -4 338 -74 281 -425 639 -692 707 -80 20 -204
18 -295 -5z"/>
<path d="M1970 1830 c-82 -11 -137 -28 -210 -65 -73 -38 -145 -94 -119 -95 21
0 49 -32 49 -56 0 -41 -16 -49 -91 -49 -65 0 -73 -2 -95 -28 -42 -49 -27 -159
25 -187 30 -16 66 -12 117 12 l46 23 24 -28 c30 -35 30 -38 -2 -76 -32 -38
-118 -66 -172 -56 -53 10 -107 40 -135 76 l-25 33 -17 -40 c-60 -144 -89 -377
-61 -496 19 -80 70 -185 123 -250 41 -51 101 -102 90 -78 -3 8 -40 93 -81 188
-42 95 -76 179 -76 186 0 16 175 95 303 137 49 16 90 29 91 29 2 0 6 -64 10
-142 13 -238 20 -257 34 -88 7 80 16 161 21 180 7 33 9 35 49 35 43 0 54 8 26
19 -27 10 -56 92 -49 137 24 139 211 176 286 57 16 -26 19 -45 16 -92 -3 -54
-7 -62 -44 -97 l-41 -38 45 -7 45 -7 -7 -55 c-4 -30 -9 -61 -12 -67 -2 -7 21
0 51 15 73 37 136 45 206 25 30 -8 92 -17 136 -19 45 -2 87 -7 93 -10 7 -5 11
-54 11 -142 0 -74 3 -134 8 -134 21 1 128 175 154 249 30 85 32 254 4 345 -18
62 -62 159 -97 215 l-20 34 -24 -50 c-38 -83 -134 -122 -198 -80 -16 11 -28
12 -41 5 -24 -13 -63 -2 -76 22 -7 13 -4 69 10 194 11 97 20 185 20 196 0 13
-17 29 -52 50 -103 59 -236 86 -348 70z m-107 -78 c12 -13 18 -59 26 -215 8
-133 8 -204 1 -217 -19 -36 -80 -37 -99 -1 -5 9 -13 108 -17 219 -8 220 -5
232 46 232 15 0 34 -8 43 -18z m391 -94 c8 -13 19 -67 25 -121 13 -114 4 -150
-50 -188 -47 -33 -141 -38 -186 -10 -45 28 -59 62 -72 175 -13 116 -3 146 49
146 41 0 57 -30 65 -125 8 -91 18 -115 44 -115 34 0 43 24 36 97 -3 37 -8 80
-11 95 -11 56 70 93 100 46z m129 -458 c45 -50 32 -136 -24 -166 -96 -49 -199
40 -158 137 30 74 128 89 182 29z"/>
<path d="M1312 1423 c-192 -333 -167 -747 59 -973 74 -74 142 -118 248 -160
61 -24 67 -18 11 10 -28 14 -47 34 -64 68 -13 26 -60 84 -103 127 -127 128
-183 260 -183 428 0 104 22 223 61 340 29 85 30 90 17 153 l-13 65 -33 -58z"/>
<path d="M1962 1218 c-88 -23 -92 -158 -5 -194 72 -30 143 15 143 92 0 78 -60
122 -138 102z"/>
<path d="M1857 909 c-6 -33 -20 -182 -32 -346 l-5 -81 47 -16 c27 -8 75 -18
108 -22 l60 -6 23 218 c12 121 25 228 28 240 7 25 -16 32 -142 41 l-81 6 -6
-34z"/>
<path d="M1605 901 c-44 -16 -102 -39 -128 -51 -44 -19 -48 -24 -42 -47 3 -14
47 -119 97 -233 l91 -209 56 -29 c70 -38 179 -82 201 -82 23 0 132 124 119
134 -2 1 -51 15 -108 29 -57 15 -110 32 -116 37 -23 19 -65 293 -65 423 0 39
-4 57 -12 56 -7 0 -49 -13 -93 -28z"/>
<path d="M2230 814 c-86 -37 -134 -116 -135 -220 0 -61 4 -77 30 -120 19 -30
49 -60 79 -79 43 -26 59 -30 120 -30 48 0 82 6 105 18 39 20 45 21 36 7 -4 -6
13 -10 44 -10 86 0 81 -15 81 226 l0 214 -64 0 c-39 0 -66 -4 -68 -11 -3 -8
-14 -7 -35 5 -40 20 -146 21 -193 0z m150 -119 c35 -18 60 -62 60 -104 0 -38
-40 -86 -84 -101 -84 -28 -166 62 -132 145 28 67 94 92 156 60z"/>
<path d="M2092 307 c-64 -10 -78 -17 -104 -45 -16 -19 -28 -36 -25 -38 9 -10
221 19 306 41 123 33 141 44 71 42 -30 0 -82 2 -115 5 -33 3 -93 1 -133 -5z"/>
</g>
</svg>
