<?xml version="1.0" encoding="utf-8"?>
<!-- Generator: Adobe Illustrator 24.0.1, SVG Export Plug-In . SVG Version: 6.00 Build 0)  -->
<svg version="1.1" id="Layer_1" xmlns="http://www.w3.org/2000/svg" xmlns:xlink="http://www.w3.org/1999/xlink" x="0px" y="0px"
	 viewBox="0 0 100 100" style="enable-background:new 0 0 100 100;" xml:space="preserve">
<style type="text/css">
	.st0{fill:#D0EFF7;}
	.st1{fill:#B1D4DD;}
	.st2{fill:#FFFFFF;}
	.st3{opacity:0.5;fill:#FFFFFF;}
	.st4{fill:url(#SVGID_1_);}
	.st5{fill:#A5343A;}
	.st6{fill:url(#SVGID_2_);}
	.st7{fill:#4CAF50;}
	.st8{fill:#FAFAFA;}
	.st9{fill:url(#SVGID_3_);}
	.st10{fill:url(#SVGID_4_);}
	.st11{fill:#1565C0;}
	.st12{fill:url(#SVGID_5_);}
	.st13{fill:url(#SVGID_6_);}
	.st14{fill:url(#SVGID_7_);}
	.st15{fill:url(#SVGID_8_);}
	.st16{fill:url(#SVGID_9_);}
	.st17{fill:url(#SVGID_10_);}
	.st18{fill:url(#SVGID_11_);}
	.st19{fill:url(#SVGID_12_);}
	.st20{fill:url(#SVGID_13_);}
	.st21{fill:url(#SVGID_14_);}
	.st22{fill:url(#SVGID_15_);}
	.st23{fill:url(#SVGID_16_);}
	.st24{fill:url(#SVGID_17_);}
	.st25{fill:url(#SVGID_18_);}
</style>
<g>
	<path class="st0" d="M50,70.4c19.9,0,36.7-13.2,41.9-31.2C87.1,20.5,70.1,6.7,50,6.7S12.9,20.5,8.1,39.2
		C13.3,57.2,30.1,70.4,50,70.4z"/>
	<path class="st1" d="M50,93.3c23.9,0,43.3-19.4,43.3-43.3c0-3.7-0.5-7.4-1.4-10.8c-5.2,18-22,31.2-41.9,31.2S13.3,57.2,8.1,39.2
		C7.2,42.6,6.7,46.3,6.7,50C6.7,73.9,26.1,93.3,50,93.3z"/>
	<path class="st2" d="M50,1.6C23.3,1.6,1.6,23.3,1.6,50S23.3,98.4,50,98.4S98.4,76.7,98.4,50S76.7,1.6,50,1.6z M50,6.7
		c20.1,0,37.1,13.8,41.9,32.5c0.9,3.5,1.4,7.1,1.4,10.8c0,23.9-19.4,43.3-43.3,43.3S6.7,73.9,6.7,50c0-3.7,0.5-7.4,1.4-10.8
		C12.9,20.5,29.9,6.7,50,6.7z"/>
	<ellipse class="st3" cx="50" cy="16.3" rx="18.5" ry="9.3"/>
</g>
<g>
	<linearGradient id="SVGID_1_" gradientUnits="userSpaceOnUse" x1="455.6481" y1="200.6008" x2="500.9347" y2="200.6008">
		<stop  offset="0" style="stop-color:#B03730"/>
		<stop  offset="1" style="stop-color:#CC5859"/>
	</linearGradient>
	<path class="st4" d="M487.8,171.1h-30.6c-0.9,0-1.5,0.7-1.5,2V229c0,0.4,0.7,1.1,1.5,1.1h42.2c0.9,0,1.5-0.7,1.5-1.1v-44.3
		c0-0.7-0.1-1-0.3-1.1l-12.3-12.3C488.2,171.2,488,171.1,487.8,171.1z"/>
	<polygon class="st5" points="488.3,171.3 488.3,183.7 500.8,183.7 	"/>
	<path class="st2" d="M469.4,206.2L469.4,206.2c-0.4,0-0.7-0.1-1-0.3c-1.1-0.8-1.2-1.7-1.2-2.4c0.2-1.7,2.3-3.5,6.3-5.3
		c1.6-3.5,3.1-7.7,4-11.3c-1.1-2.3-2.1-5.3-1.3-7c0.3-0.6,0.6-1.1,1.2-1.3c0.2-0.1,0.8-0.2,1.1-0.2c0.5,0,1,0.7,1.3,1.1
		c0.3,0.4,1,1.2-0.4,7.2c1.4,2.9,3.4,5.9,5.4,8c1.4-0.2,2.6-0.4,3.5-0.4c1.6,0,2.6,0.4,3.1,1.2c0.3,0.7,0.2,1.4-0.4,2.3
		c-0.6,0.8-1.4,1.3-2.3,1.3c-1.3,0-2.8-0.8-4.4-2.4c-3,0.6-6.5,1.7-9.3,3c-0.9,1.9-1.7,3.4-2.5,4.5
		C471.2,205.5,470.3,206.2,469.4,206.2z M472.2,200.8c-2.3,1.3-3.2,2.3-3.2,2.9c0,0.1,0,0.4,0.5,0.7
		C469.5,204.4,470.5,204,472.2,200.8z M486.5,196.1c0.9,0.7,1.1,1,1.6,1c0.2,0,0.9,0,1.3-0.5c0.2-0.2,0.2-0.4,0.2-0.4
		c-0.1-0.1-0.3-0.2-1.2-0.2C487.9,196,487.2,196,486.5,196.1z M478.7,189.2c-0.8,2.6-1.7,5.4-2.8,8c2.2-0.9,4.6-1.6,6.8-2.1
		C481.3,193.4,479.8,191.3,478.7,189.2z M478,180.3c-0.1,0-1.4,1.9,0.1,3.4C479.1,181.4,478.1,180.3,478,180.3z"/>
	<g>
		<path class="st2" d="M467.1,223h-1.7v-10.6h3.1c0.5,0,0.9,0.1,1.3,0.2s0.8,0.4,1.2,0.6c0.4,0.3,0.6,0.6,0.8,1
			c0.2,0.4,0.3,0.9,0.3,1.4c0,0.5-0.1,1-0.3,1.5c-0.2,0.4-0.4,0.8-0.8,1.1s-0.7,0.5-1.2,0.7s-1,0.2-1.5,0.2h-1.3L467.1,223
			L467.1,223z M467.1,213.7v4.2h1.6c0.2,0,0.4,0,0.6-0.1c0.2-0.1,0.4-0.2,0.6-0.4c0.2-0.2,0.3-0.4,0.4-0.7c0.1-0.3,0.2-0.7,0.2-1.1
			c0-0.2,0-0.4-0.1-0.6c0-0.2-0.1-0.4-0.3-0.6c-0.1-0.2-0.4-0.4-0.6-0.5s-0.6-0.2-1.1-0.2L467.1,213.7L467.1,213.7z"/>
		<path class="st2" d="M482.7,217.4c0,0.9-0.1,1.6-0.3,2.2c-0.2,0.6-0.4,1.1-0.7,1.6c-0.3,0.4-0.6,0.7-1,1c-0.4,0.2-0.7,0.4-1,0.5
			c-0.3,0.1-0.6,0.2-0.9,0.2c-0.3,0-0.5,0-0.6,0h-4v-10.6h3.2c0.9,0,1.7,0.1,2.4,0.4c0.7,0.3,1.2,0.7,1.7,1.1c0.4,0.5,0.8,1,1,1.6
			C482.6,216.1,482.7,216.8,482.7,217.4z M477.6,221.7c1.2,0,2-0.4,2.5-1.1s0.8-1.8,0.8-3.3c0-0.4-0.1-0.9-0.2-1.3
			c-0.1-0.4-0.3-0.8-0.6-1.2c-0.3-0.4-0.7-0.6-1.2-0.8c-0.5-0.2-1.2-0.3-2-0.3h-1v8C475.9,221.7,477.6,221.7,477.6,221.7z"/>
		<path class="st2" d="M487,213.7v3.3h4.4v1.2H487v4.8h-1.8v-10.6h6.6v1.3H487z"/>
	</g>
</g>
<g>
	<g>
		<linearGradient id="SVGID_2_" gradientUnits="userSpaceOnUse" x1="22.891" y1="50" x2="54.5181" y2="50">
			<stop  offset="0" style="stop-color:#418F50"/>
			<stop  offset="1" style="stop-color:#4CAF50"/>
		</linearGradient>
		<path class="st6" d="M54.1,24.3c-0.3-0.2-0.6-0.3-1-0.2l-29.4,6.8c-0.5,0.1-0.9,0.6-0.9,1.1v38.4c0,0.6,0.4,1,1,1.1L53.2,76
			c0.6,0.1,1.2-0.3,1.3-0.9c0-0.1,0-0.1,0-0.2V25.2C54.5,24.8,54.4,24.5,54.1,24.3z"/>
		<path class="st7" d="M76,71.5H53.4c-0.6,0-1.1-0.5-1.1-1.1s0.5-1.1,1.1-1.1h21.5V30.8H53.4c-0.6,0-1.1-0.5-1.1-1.1
			s0.5-1.1,1.1-1.1H76c0.6,0,1.1,0.5,1.1,1.1v40.7C77.1,71,76.6,71.5,76,71.5z"/>
	</g>
	<g>
		<path class="st8" d="M44.4,60.2c-0.4,0-0.8-0.2-1-0.5L32.1,41.6c-0.3-0.5-0.2-1.2,0.3-1.6c0.5-0.3,1.2-0.2,1.6,0.3c0,0,0,0,0,0.1
			l11.3,18.1c0.3,0.5,0.2,1.2-0.4,1.6C44.8,60.1,44.6,60.2,44.4,60.2z"/>
		<path class="st8" d="M33.1,60.2c-0.6,0-1.1-0.5-1.1-1.1c0-0.2,0.1-0.4,0.2-0.6l11.3-18.1c0.3-0.5,1-0.7,1.5-0.4
			c0.5,0.3,0.7,1,0.4,1.5c0,0,0,0,0,0.1L34,59.6C33.8,60,33.4,60.2,33.1,60.2z"/>
	</g>
	<g>
		<path class="st7" d="M62.4,71.5c-0.6,0-1.1-0.5-1.1-1.1V29.7c0-0.6,0.5-1.1,1.1-1.1s1.1,0.5,1.1,1.1v40.7
			C63.6,71,63,71.5,62.4,71.5z"/>
		<path class="st7" d="M76,64.7H53.4c-0.6,0-1.1-0.5-1.1-1.1c0-0.6,0.5-1.1,1.1-1.1H76c0.6,0,1.1,0.5,1.1,1.1
			C77.1,64.2,76.6,64.7,76,64.7z"/>
		<path class="st7" d="M76,57.9H53.4c-0.6,0-1.1-0.5-1.1-1.1c0-0.6,0.5-1.1,1.1-1.1H76c0.6,0,1.1,0.5,1.1,1.1
			C77.1,57.4,76.6,57.9,76,57.9z"/>
		<path class="st7" d="M76,51.1H53.4c-0.6,0-1.1-0.5-1.1-1.1c0-0.6,0.5-1.1,1.1-1.1H76c0.6,0,1.1,0.5,1.1,1.1
			C77.1,50.6,76.6,51.1,76,51.1z"/>
		<path class="st7" d="M76,44.4H53.4c-0.6,0-1.1-0.5-1.1-1.1s0.5-1.1,1.1-1.1H76c0.6,0,1.1,0.5,1.1,1.1S76.6,44.4,76,44.4z"/>
		<path class="st7" d="M76,37.6H53.4c-0.6,0-1.1-0.5-1.1-1.1c0-0.6,0.5-1.1,1.1-1.1H76c0.6,0,1.1,0.5,1.1,1.1
			C77.1,37.1,76.6,37.6,76,37.6z"/>
	</g>
</g>
<linearGradient id="SVGID_3_" gradientUnits="userSpaceOnUse" x1="595.6218" y1="194.9184" x2="595.6218" y2="227.7631">
	<stop  offset="0.2823" style="stop-color:#FF0069"/>
	<stop  offset="1" style="stop-color:#F90038"/>
</linearGradient>
<path class="st9" d="M589.3,227.8c-1.1-0.3-2.1-0.4-3.2-0.8c-5.2-1.8-8.5-7.5-7.6-12.9c0.4-2.6,1.5-4.8,3.4-6.7
	c3.5-3.5,7.1-7.1,10.6-10.6c0,0,0.1-0.1,0.2-0.1c0,0.1,0,0.2,0,0.2c-0.3,2.4,0,4.7,0.7,6.9c0.1,0.3,0,0.5-0.2,0.8
	c-2.3,2.3-4.6,4.6-6.9,6.9c-2.6,2.6-2.5,6.5,0.2,8.8c2.2,2,5.6,2,7.8,0c0.7-0.7,1.4-1.4,2.1-2.1c2.9-2.9,5.9-5.9,8.8-8.8
	c2.4-2.4,2.5-6,0.3-8.4c0,0-0.1-0.1-0.1-0.1c-0.5-0.4-0.8-0.8-0.8-1.5c0-0.9,0-1.8,0.6-2.5c0.7-0.7,1.4-1.3,2.2-2
	c1.2,0.6,2.3,1.6,3.2,2.7c3.2,4.1,3.4,9.5,0.7,13.9c-0.5,0.8-1.2,1.5-1.8,2.2c-3.4,3.5-6.9,6.9-10.3,10.3c-2,2-4.4,3.3-7.3,3.6
	c-0.1,0-0.2,0.1-0.3,0.1C590.6,227.8,589.9,227.8,589.3,227.8z"/>
<linearGradient id="SVGID_4_" gradientUnits="userSpaceOnUse" x1="603.8959" y1="185.3035" x2="620.7839" y2="202.1916">
	<stop  offset="0.2823" style="stop-color:#27AAE1"/>
	<stop  offset="1" style="stop-color:#1B75BC"/>
</linearGradient>
<path class="st10" d="M629.3,189.8c-0.2,0.9-0.3,1.7-0.6,2.6c-0.6,1.9-1.6,3.5-2.9,4.9c-3.3,3.3-6.5,6.5-9.8,9.8
	c-0.1,0.1-0.1,0.1-0.2,0.2c0-0.2,0-0.3,0-0.4c0.3-2.3,0-4.5-0.7-6.6c-0.1-0.4,0-0.7,0.3-1c2-2,4.1-4,6.1-6.1
	c2.9-2.9,2.3-7.5-1.2-9.5c-2.2-1.2-5-1-6.8,0.7c-1.6,1.5-3.2,3.2-4.8,4.8c-1.8,1.8-3.6,3.6-5.4,5.4c-2.3,2.4-2.4,6-0.3,8.3
	c0,0,0.1,0.1,0.1,0.1c0.6,0.4,0.9,0.9,0.9,1.6c0,0.9,0,1.8-0.7,2.5c-0.6,0.7-1.3,1.3-2,1.9c-1.6-0.9-2.9-2.1-3.9-3.7
	c-2.5-4.2-2.6-8.5-0.1-12.8c0.5-0.8,1.2-1.6,1.9-2.3c3.2-3.2,6.4-6.5,9.6-9.6c3.7-3.6,8.1-4.7,12.9-2.8c4.3,1.6,6.8,5,7.5,9.6
	c0,0.2,0.1,0.3,0.1,0.5C629.3,188.4,629.3,189.1,629.3,189.8z"/>
<g>
	<g>
		<path class="st11" d="M370.7,189.8h-18.2c-0.6,0-1.1-0.5-1.1-1.1s0.5-1.1,1.1-1.1h18.2c0.6,0,1.1,0.5,1.1,1.1
			C371.8,189.3,371.3,189.8,370.7,189.8z"/>
		<path class="st11" d="M370.7,196.6h-18.2c-0.6,0-1.1-0.5-1.1-1.1s0.5-1.1,1.1-1.1h18.2c0.6,0,1.1,0.5,1.1,1.1
			S371.3,196.6,370.7,196.6z"/>
		<path class="st11" d="M370.7,203.4h-18.2c-0.6,0-1.1-0.5-1.1-1.1s0.5-1.1,1.1-1.1h18.2c0.6,0,1.1,0.5,1.1,1.1
			C371.8,202.9,371.3,203.4,370.7,203.4z"/>
		<path class="st11" d="M370.7,210.2h-18.2c-0.6,0-1.1-0.5-1.1-1.1s0.5-1.1,1.1-1.1h18.2c0.6,0,1.1,0.5,1.1,1.1
			C371.8,209.7,371.3,210.2,370.7,210.2z"/>
		<path class="st11" d="M370.7,217.1h-18.2c-0.6,0-1.1-0.5-1.1-1.1s0.5-1.1,1.1-1.1h18.2c0.6,0,1.1,0.5,1.1,1.1
			C371.8,216.6,371.3,217.1,370.7,217.1z"/>
	</g>
	<path class="st11" d="M375.2,223.9h-22.7c-0.6,0-1.1-0.5-1.1-1.1s0.5-1.1,1.1-1.1h21.6V183h-21.6c-0.6,0-1.1-0.5-1.1-1.1
		s0.5-1.1,1.1-1.1h22.7c0.6,0,1.1,0.5,1.1,1.1v40.9C376.3,223.4,375.8,223.9,375.2,223.9z"/>
	<linearGradient id="SVGID_5_" gradientUnits="userSpaceOnUse" x1="321.759" y1="202.28" x2="353.5989" y2="202.28">
		<stop  offset="0" style="stop-color:#1553C0"/>
		<stop  offset="1" style="stop-color:#1574C0"/>
	</linearGradient>
	<path class="st12" d="M353.2,176.4c-0.3-0.2-0.6-0.3-1-0.2l-29.6,6.8c-0.5,0.1-0.9,0.6-0.9,1.1v38.7c0,0.6,0.4,1,1,1.1l29.6,4.5
		c0.6,0.1,1.2-0.3,1.3-1c0-0.1,0-0.1,0-0.2v-50C353.6,176.9,353.4,176.6,353.2,176.4z"/>
	<path class="st8" d="M341.1,212.5c-0.5,0-1-0.3-1.1-0.8l-3.5-12.1l-3.5,12.1c-0.2,0.6-0.9,0.9-1.5,0.6c-0.3-0.1-0.5-0.4-0.6-0.6
		l-4.5-15.9c-0.2-0.6,0.1-1.2,0.7-1.4c0.6-0.2,1.2,0.1,1.4,0.7c0,0,0,0,0,0.1l3.5,12.1l3.5-12.1c0.2-0.6,0.9-0.9,1.5-0.6
		c0.3,0.1,0.5,0.4,0.6,0.6l3.5,12.1l3.5-12.1c0.2-0.6,0.8-1,1.4-0.8c0,0,0,0,0,0c0.6,0.2,1,0.8,0.8,1.4l-4.5,15.9
		C342,212.2,341.6,212.5,341.1,212.5z"/>
</g>
<linearGradient id="SVGID_6_" gradientUnits="userSpaceOnUse" x1="711.767" y1="219.9745" x2="740.641" y2="191.1005">
	<stop  offset="0.5225" style="stop-color:#BF004F"/>
	<stop  offset="1" style="stop-color:#F90038"/>
</linearGradient>
<polygon class="st13" points="721.1,202.9 721.1,181.7 739.4,192.3 757.8,202.9 739.4,213.4 721.1,224 "/>
<g>
	<linearGradient id="SVGID_7_" gradientUnits="userSpaceOnUse" x1="863.659" y1="221.3324" x2="844.7604" y2="188.599">
		<stop  offset="0.2075" style="stop-color:#1B75BC"/>
		<stop  offset="0.7647" style="stop-color:#27AAE1"/>
		<stop  offset="0.9683" style="stop-color:#00BBE1"/>
	</linearGradient>
	<path class="st14" d="M838.3,193.4c0.3-0.5,0.6-1.1,1-1.5c0.5-0.5,1.2-0.6,1.9-0.6c2.6,0,5.3,0,7.9,0c0.4,0,0.7-0.1,1-0.3
		c3-2.3,6-4.5,9-6.8c1.3-1,2.8-0.8,3.8,0.5c0.3,0.3,0.4,0.8,0.5,1.2c0.1,0.2,0,0.5,0,0.7c0,11,0,22,0,33.1c0,1-0.2,1.8-1,2.4
		c-1,0.8-2.2,0.8-3.3,0c-1.7-1.2-3.3-2.5-5-3.8c-1.4-1-2.7-2-4.1-3.1c-0.3-0.2-0.6-0.3-1-0.3c-2.5,0-4.9-0.1-7.4,0
		c-1.7,0.1-2.9-0.4-3.5-2.1C838.3,206.3,838.3,199.8,838.3,193.4z"/>
	<linearGradient id="SVGID_8_" gradientUnits="userSpaceOnUse" x1="888.0767" y1="220.0175" x2="868.2106" y2="185.6083">
		<stop  offset="0.2075" style="stop-color:#1B75BC"/>
		<stop  offset="0.7647" style="stop-color:#27AAE1"/>
		<stop  offset="0.9683" style="stop-color:#00BBE1"/>
	</linearGradient>
	<path class="st15" d="M888.8,203.9c-0.1,7.5-3,14.6-8.8,20.6c-1.2,1.3-3,1.3-4.3,0.2c-1.2-1.1-1.3-3-0.2-4.3
		c1.3-1.4,2.6-2.9,3.6-4.6c2.8-4.6,4-9.5,3.5-14.8c-0.5-5.8-2.8-10.8-6.9-15c-1.2-1.3-1.4-2.9-0.5-4.1c1.1-1.6,3.3-1.7,4.7-0.3
		c2.1,2.1,3.9,4.5,5.3,7.2C887.6,193.2,888.8,198,888.8,203.9z"/>
	<linearGradient id="SVGID_9_" gradientUnits="userSpaceOnUse" x1="877.177" y1="214.8464" x2="863.3117" y2="190.8309">
		<stop  offset="0.2075" style="stop-color:#1B75BC"/>
		<stop  offset="0.7647" style="stop-color:#27AAE1"/>
		<stop  offset="0.9683" style="stop-color:#00BBE1"/>
	</linearGradient>
	<path class="st16" d="M878.2,202.7c-0.1,5.9-2.1,10.8-6.1,14.8c-0.9,0.9-2,1.3-3.3,0.8c-1.2-0.5-1.8-1.4-1.9-2.7
		c-0.1-0.9,0.3-1.7,0.9-2.4c0.8-1,1.7-2,2.3-3.1c2.3-4.2,2.5-8.6,0.7-13c-0.7-1.7-1.8-3.1-3-4.5c-0.9-1-1.2-2.2-0.6-3.5
		c0.9-2,3.5-2.4,5-0.8c3.3,3.3,5.2,7.3,5.8,11.9C878.2,201.3,878.2,202.1,878.2,202.7z"/>
</g>
<g>
	<linearGradient id="SVGID_10_" gradientUnits="userSpaceOnUse" x1="958.8505" y1="202.2746" x2="1023.4394" y2="202.2746">
		<stop  offset="0" style="stop-color:#F8F3FB"/>
		<stop  offset="1" style="stop-color:#F9F5FB"/>
	</linearGradient>
	<path class="st17" d="M1017.1,181.7c1.8,0,3.3,1.5,3.3,3.3v34.6c0,1.8-1.5,3.3-3.3,3.3h-52c-1.8,0-3.3-1.5-3.3-3.3V185
		c0-1.8,1.5-3.3,3.3-3.3H1017.1 M1017.1,178.7h-52c-3.5,0-6.3,2.8-6.3,6.3v34.6c0,3.5,2.8,6.3,6.3,6.3h52c3.5,0,6.3-2.8,6.3-6.3V185
		C1023.4,181.5,1020.6,178.7,1017.1,178.7L1017.1,178.7z"/>
</g>
<g>
	<linearGradient id="SVGID_11_" gradientUnits="userSpaceOnUse" x1="975.6328" y1="175.5755" x2="1006.5205" y2="229.0745">
		<stop  offset="4.061260e-02" style="stop-color:#00D1FF"/>
		<stop  offset="0.6306" style="stop-color:#009FFC"/>
	</linearGradient>
	<path class="st18" d="M978.7,216.5l3.5,4.3l14.1-17.5c3.3-4.1,9.6-4.1,12.9,0l11.2,13.8v-31.2c0-2.4-1.9-4.3-4.3-4.3h-49.9
		c-2.4,0-4.3,1.9-4.3,4.3v32.5c0,0.8,0.2,1.6,0.6,2.2l3.5-4.3C969.2,212.4,975.4,212.4,978.7,216.5z"/>
	<linearGradient id="SVGID_12_" gradientUnits="userSpaceOnUse" x1="976.0526" y1="175.3331" x2="1006.9402" y2="228.8321">
		<stop  offset="4.061260e-02" style="stop-color:#00D1FF"/>
		<stop  offset="0.6306" style="stop-color:#009FFC"/>
	</linearGradient>
	<path class="st19" d="M996.3,203.4l-14.1,17.5l1.7,2.1h32.2c2.4,0,4.3-1.9,4.3-4.3v-1.3l-11.2-13.8
		C1005.9,199.3,999.6,199.3,996.3,203.4z"/>
	<linearGradient id="SVGID_13_" gradientUnits="userSpaceOnUse" x1="992.9948" y1="204.6778" x2="1008.5259" y2="231.5786">
		<stop  offset="0.1637" style="stop-color:#B4F47F"/>
		<stop  offset="0.2521" style="stop-color:#B0F381"/>
		<stop  offset="0.3356" style="stop-color:#A5F088"/>
		<stop  offset="0.4171" style="stop-color:#92EB92"/>
		<stop  offset="0.4974" style="stop-color:#77E3A1"/>
		<stop  offset="0.5769" style="stop-color:#54DAB5"/>
		<stop  offset="0.6546" style="stop-color:#2BCFCC"/>
		<stop  offset="0.7055" style="stop-color:#0BC6DE"/>
	</linearGradient>
	<path class="st20" d="M996.3,203.4l-14.1,17.5l1.7,2.1h32.2c2.4,0,4.3-1.9,4.3-4.3v-1.3l-11.2-13.8
		C1005.9,199.3,999.6,199.3,996.3,203.4z"/>
	<linearGradient id="SVGID_14_" gradientUnits="userSpaceOnUse" x1="953.5458" y1="188.3273" x2="984.4335" y2="241.8263">
		<stop  offset="4.061260e-02" style="stop-color:#00D1FF"/>
		<stop  offset="0.6306" style="stop-color:#009FFC"/>
	</linearGradient>
	<path class="st21" d="M966.1,222.9h14.5l1.7-2.1l-3.5-4.3c-3.3-4.1-9.6-4.1-12.9,0l-3.5,4.3C963.2,222.1,964.5,222.9,966.1,222.9z"
		/>
	<linearGradient id="SVGID_15_" gradientUnits="userSpaceOnUse" x1="960.0742" y1="184.5582" x2="990.9619" y2="238.0572">
		<stop  offset="4.061260e-02" style="stop-color:#00D1FF"/>
		<stop  offset="0.6306" style="stop-color:#009FFC"/>
	</linearGradient>
	<polygon class="st22" points="982.2,220.9 980.6,222.9 983.9,222.9 	"/>
	<linearGradient id="SVGID_16_" gradientUnits="userSpaceOnUse" x1="977.0164" y1="213.9029" x2="1001.0052" y2="255.4527">
		<stop  offset="0" style="stop-color:#B4F47F"/>
		<stop  offset="1" style="stop-color:#50EBC6"/>
	</linearGradient>
	<polygon class="st23" points="982.2,220.9 980.6,222.9 983.9,222.9 	"/>
	<linearGradient id="SVGID_17_" gradientUnits="userSpaceOnUse" x1="956.3134" y1="204.477" x2="981.183" y2="229.3467">
		<stop  offset="0.3039" style="stop-color:#B4F47F"/>
		<stop  offset="0.3799" style="stop-color:#B0F381"/>
		<stop  offset="0.4517" style="stop-color:#A5F088"/>
		<stop  offset="0.5218" style="stop-color:#92EB92"/>
		<stop  offset="0.5909" style="stop-color:#77E3A1"/>
		<stop  offset="0.6592" style="stop-color:#54DAB5"/>
		<stop  offset="0.7261" style="stop-color:#2BCFCC"/>
		<stop  offset="0.7699" style="stop-color:#0BC6DE"/>
	</linearGradient>
	<path class="st24" d="M982.2,220.9l-3.5-4.3c-3.3-4.1-9.6-4.1-12.9,0l-3.5,4.3c0.8,1.3,2.1,2.1,3.7,2.1h14.5h3.3L982.2,220.9z"/>
	<linearGradient id="SVGID_18_" gradientUnits="userSpaceOnUse" x1="973.074" y1="188.0612" x2="979.6736" y2="199.4921">
		<stop  offset="0" style="stop-color:#FFDA2A"/>
		<stop  offset="1" style="stop-color:#FFB200"/>
	</linearGradient>
	<circle class="st25" cx="976.4" cy="193.8" r="6.6"/>
</g>
</svg>
