<?xml version="1.0" encoding="utf-8"?>
<!-- Generator: Adobe Illustrator 24.0.1, SVG Export Plug-In . SVG Version: 6.00 Build 0)  -->
<svg version="1.1" id="Layer_1" xmlns="http://www.w3.org/2000/svg" xmlns:xlink="http://www.w3.org/1999/xlink" x="0px" y="0px"
	 viewBox="0 0 100 100" style="enable-background:new 0 0 100 100;" xml:space="preserve">
<style type="text/css">
	.st0{fill:#D0EFF7;}
	.st1{fill:#B1D4DD;}
	.st2{fill:#FFFFFF;}
	.st3{opacity:0.5;fill:#FFFFFF;}
	.st4{fill:url(#SVGID_1_);}
	.st5{fill:url(#SVGID_2_);}
	.st6{fill:url(#SVGID_3_);}
	.st7{fill:url(#SVGID_4_);}
	.st8{fill:url(#SVGID_5_);}
	.st9{fill:url(#SVGID_6_);}
	.st10{fill:url(#SVGID_7_);}
	.st11{fill:url(#SVGID_8_);}
	.st12{fill:url(#SVGID_9_);}
</style>
<g>
	<path class="st0" d="M50,70.4c19.9,0,36.7-13.2,41.9-31.2C87.1,20.5,70.1,6.7,50,6.7S12.9,20.5,8.1,39.2
		C13.3,57.2,30.1,70.4,50,70.4z"/>
	<path class="st1" d="M50,93.3c23.9,0,43.3-19.4,43.3-43.3c0-3.7-0.5-7.4-1.4-10.8c-5.2,18-22,31.2-41.9,31.2S13.3,57.2,8.1,39.2
		C7.2,42.6,6.7,46.3,6.7,50C6.7,73.9,26.1,93.3,50,93.3z"/>
	<path class="st2" d="M50,1.6C23.3,1.6,1.6,23.3,1.6,50S23.3,98.4,50,98.4S98.4,76.7,98.4,50S76.7,1.6,50,1.6z M50,6.7
		c20.1,0,37.1,13.8,41.9,32.5c0.9,3.5,1.4,7.1,1.4,10.8c0,23.9-19.4,43.3-43.3,43.3S6.7,73.9,6.7,50c0-3.7,0.5-7.4,1.4-10.8
		C12.9,20.5,29.9,6.7,50,6.7z"/>
	<ellipse class="st3" cx="50" cy="16.3" rx="18.5" ry="9.3"/>
</g>
<g>
	<linearGradient id="SVGID_1_" gradientUnits="userSpaceOnUse" x1="20.6416" y1="50" x2="79.3584" y2="50">
		<stop  offset="0" style="stop-color:#F8F3FB"/>
		<stop  offset="1" style="stop-color:#F9F5FB"/>
	</linearGradient>
	<path class="st4" d="M72.4,31.3c2.4,0,4.3,1.9,4.3,4.3v28.9c0,2.4-1.9,4.3-4.3,4.3H27.6c-2.4,0-4.3-1.9-4.3-4.3V35.6
		c0-2.4,1.9-4.3,4.3-4.3H72.4 M72.4,28.6H27.6c-3.9,0-7,3.1-7,7v28.9c0,3.9,3.1,7,7,7h44.7c3.9,0,7-3.1,7-7V35.6
		C79.4,31.7,76.2,28.6,72.4,28.6L72.4,28.6z"/>
	<g>
		<linearGradient id="SVGID_2_" gradientUnits="userSpaceOnUse" x1="35.8982" y1="25.7282" x2="63.9777" y2="74.3634">
			<stop  offset="4.061260e-02" style="stop-color:#00D1FF"/>
			<stop  offset="0.6306" style="stop-color:#009FFC"/>
		</linearGradient>
		<path class="st5" d="M38.7,63l3.2,3.9L54.7,51c3-3.7,8.7-3.7,11.7,0l10.2,12.6V35.3c0-2.2-1.8-3.9-3.9-3.9H27.2
			c-2.2,0-3.9,1.8-3.9,3.9v29.5c0,0.7,0.2,1.4,0.6,2L27,63C30,59.2,35.7,59.2,38.7,63z"/>
		<linearGradient id="SVGID_3_" gradientUnits="userSpaceOnUse" x1="36.2798" y1="25.5079" x2="64.3593" y2="74.1431">
			<stop  offset="4.061260e-02" style="stop-color:#00D1FF"/>
			<stop  offset="0.6306" style="stop-color:#009FFC"/>
		</linearGradient>
		<path class="st6" d="M54.7,51L41.9,66.9l1.5,1.9h29.2c2.2,0,3.9-1.8,3.9-3.9v-1.2L66.4,51C63.4,47.3,57.7,47.3,54.7,51z"/>
		<linearGradient id="SVGID_4_" gradientUnits="userSpaceOnUse" x1="51.6816" y1="52.1847" x2="65.8008" y2="76.6398">
			<stop  offset="0.1637" style="stop-color:#B4F47F"/>
			<stop  offset="0.2521" style="stop-color:#B0F381"/>
			<stop  offset="0.3356" style="stop-color:#A5F088"/>
			<stop  offset="0.4171" style="stop-color:#92EB92"/>
			<stop  offset="0.4974" style="stop-color:#77E3A1"/>
			<stop  offset="0.5769" style="stop-color:#54DAB5"/>
			<stop  offset="0.6546" style="stop-color:#2BCFCC"/>
			<stop  offset="0.7055" style="stop-color:#0BC6DE"/>
		</linearGradient>
		<path class="st7" d="M54.7,51L41.9,66.9l1.5,1.9h29.2c2.2,0,3.9-1.8,3.9-3.9v-1.2L66.4,51C63.4,47.3,57.7,47.3,54.7,51z"/>
		<linearGradient id="SVGID_5_" gradientUnits="userSpaceOnUse" x1="15.8192" y1="37.3208" x2="43.8988" y2="85.956">
			<stop  offset="4.061260e-02" style="stop-color:#00D1FF"/>
			<stop  offset="0.6306" style="stop-color:#009FFC"/>
		</linearGradient>
		<path class="st8" d="M27.2,68.8h13.1l1.5-1.9L38.7,63c-3-3.7-8.7-3.7-11.7,0l-3.1,3.9C24.6,68,25.8,68.8,27.2,68.8z"/>
		<linearGradient id="SVGID_6_" gradientUnits="userSpaceOnUse" x1="21.7541" y1="33.8943" x2="49.8336" y2="82.5295">
			<stop  offset="4.061260e-02" style="stop-color:#00D1FF"/>
			<stop  offset="0.6306" style="stop-color:#009FFC"/>
		</linearGradient>
		<polygon class="st9" points="41.9,66.9 40.4,68.8 43.4,68.8 		"/>
		<linearGradient id="SVGID_7_" gradientUnits="userSpaceOnUse" x1="37.156" y1="60.5711" x2="58.9639" y2="98.3435">
			<stop  offset="0" style="stop-color:#B4F47F"/>
			<stop  offset="1" style="stop-color:#50EBC6"/>
		</linearGradient>
		<polygon class="st10" points="41.9,66.9 40.4,68.8 43.4,68.8 		"/>
		<linearGradient id="SVGID_8_" gradientUnits="userSpaceOnUse" x1="18.3351" y1="52.0022" x2="40.9438" y2="74.6109">
			<stop  offset="0.3039" style="stop-color:#B4F47F"/>
			<stop  offset="0.3799" style="stop-color:#B0F381"/>
			<stop  offset="0.4517" style="stop-color:#A5F088"/>
			<stop  offset="0.5218" style="stop-color:#92EB92"/>
			<stop  offset="0.5909" style="stop-color:#77E3A1"/>
			<stop  offset="0.6592" style="stop-color:#54DAB5"/>
			<stop  offset="0.7261" style="stop-color:#2BCFCC"/>
			<stop  offset="0.7699" style="stop-color:#0BC6DE"/>
		</linearGradient>
		<path class="st11" d="M41.9,66.9L38.7,63c-3-3.7-8.7-3.7-11.7,0l-3.1,3.9c0.7,1.1,1.9,1.9,3.4,1.9h13.1h3L41.9,66.9z"/>
		<linearGradient id="SVGID_9_" gradientUnits="userSpaceOnUse" x1="33.572" y1="37.0788" x2="39.5716" y2="47.4705">
			<stop  offset="0" style="stop-color:#FFDA2A"/>
			<stop  offset="1" style="stop-color:#FFB200"/>
		</linearGradient>
		<circle class="st12" cx="36.6" cy="42.3" r="6"/>
	</g>
</g>
</svg>
