<?xml version="1.0" encoding="utf-8"?>
<!-- Generator: Adobe Illustrator 24.0.1, SVG Export Plug-In . SVG Version: 6.00 Build 0)  -->
<svg version="1.1" id="Layer_1" xmlns="http://www.w3.org/2000/svg" xmlns:xlink="http://www.w3.org/1999/xlink" x="0px" y="0px"
	 viewBox="0 0 100 100" style="enable-background:new 0 0 100 100;" xml:space="preserve">
<style type="text/css">
	.st0{fill:#D0EFF7;}
	.st1{fill:#B1D4DD;}
	.st2{fill:#FFFFFF;}
	.st3{opacity:0.5;fill:#FFFFFF;}
	.st4{fill:url(#SVGID_1_);}
	.st5{fill:url(#SVGID_2_);}
	.st6{fill:url(#SVGID_3_);}
</style>
<g>
	<path class="st0" d="M50,70.4c19.9,0,36.7-13.2,41.9-31.2C87.1,20.5,70.1,6.7,50,6.7S12.9,20.5,8.1,39.2
		C13.3,57.2,30.1,70.4,50,70.4z"/>
	<path class="st1" d="M50,93.3c23.9,0,43.3-19.4,43.3-43.3c0-3.7-0.5-7.4-1.4-10.8c-5.2,18-22,31.2-41.9,31.2S13.3,57.2,8.1,39.2
		C7.2,42.6,6.7,46.3,6.7,50C6.7,73.9,26.1,93.3,50,93.3z"/>
	<path class="st2" d="M50,1.6C23.3,1.6,1.6,23.3,1.6,50S23.3,98.4,50,98.4S98.4,76.7,98.4,50S76.7,1.6,50,1.6z M50,6.7
		c20.1,0,37.1,13.8,41.9,32.5c0.9,3.5,1.4,7.1,1.4,10.8c0,23.9-19.4,43.3-43.3,43.3S6.7,73.9,6.7,50c0-3.7,0.5-7.4,1.4-10.8
		C12.9,20.5,29.9,6.7,50,6.7z"/>
	<ellipse class="st3" cx="50" cy="16.3" rx="18.5" ry="9.3"/>
</g>
<g>
	<linearGradient id="SVGID_1_" gradientUnits="userSpaceOnUse" x1="50.1071" y1="68.2728" x2="31.2084" y2="35.5394">
		<stop  offset="0.2075" style="stop-color:#1B75BC"/>
		<stop  offset="0.7647" style="stop-color:#27AAE1"/>
		<stop  offset="0.9683" style="stop-color:#00BBE1"/>
	</linearGradient>
	<path class="st4" d="M24.7,40.3c0.3-0.5,0.6-1.1,1-1.5c0.5-0.5,1.2-0.6,1.9-0.6c2.6,0,5.3,0,7.9,0c0.4,0,0.7-0.1,1-0.3
		c3-2.3,6-4.5,9-6.8c1.3-1,2.8-0.8,3.8,0.5c0.3,0.3,0.4,0.8,0.5,1.2c0.1,0.2,0,0.5,0,0.7c0,11,0,22,0,33.1c0,1-0.2,1.8-1,2.4
		c-1,0.8-2.2,0.8-3.3,0c-1.7-1.2-3.3-2.5-5-3.8c-1.4-1-2.7-2-4.1-3.1c-0.3-0.2-0.6-0.3-1-0.3c-2.5,0-4.9-0.1-7.4,0
		c-1.7,0.1-2.9-0.4-3.5-2.1C24.7,53.2,24.7,46.8,24.7,40.3z"/>
	<linearGradient id="SVGID_2_" gradientUnits="userSpaceOnUse" x1="74.5248" y1="66.9579" x2="54.6587" y2="32.5488">
		<stop  offset="0.2075" style="stop-color:#1B75BC"/>
		<stop  offset="0.7647" style="stop-color:#27AAE1"/>
		<stop  offset="0.9683" style="stop-color:#00BBE1"/>
	</linearGradient>
	<path class="st5" d="M75.3,50.9c-0.1,7.5-3,14.6-8.8,20.6c-1.2,1.3-3,1.3-4.3,0.2c-1.2-1.1-1.3-3-0.2-4.3c1.3-1.4,2.6-2.9,3.6-4.6
		c2.8-4.6,4-9.5,3.5-14.8c-0.5-5.8-2.8-10.8-6.9-15c-1.2-1.3-1.4-2.9-0.5-4.1c1.1-1.6,3.3-1.7,4.7-0.3c2.1,2.1,3.9,4.5,5.3,7.2
		C74.1,40.2,75.3,45,75.3,50.9z"/>
	<linearGradient id="SVGID_3_" gradientUnits="userSpaceOnUse" x1="63.6251" y1="61.7868" x2="49.7598" y2="37.7714">
		<stop  offset="0.2075" style="stop-color:#1B75BC"/>
		<stop  offset="0.7647" style="stop-color:#27AAE1"/>
		<stop  offset="0.9683" style="stop-color:#00BBE1"/>
	</linearGradient>
	<path class="st6" d="M64.7,49.7c-0.1,5.9-2.1,10.8-6.1,14.8c-0.9,0.9-2,1.3-3.3,0.8c-1.2-0.5-1.8-1.4-1.9-2.7
		c-0.1-0.9,0.3-1.7,0.9-2.4c0.8-1,1.7-2,2.3-3.1c2.3-4.2,2.5-8.6,0.7-13c-0.7-1.7-1.8-3.1-3-4.5c-0.9-1-1.2-2.2-0.6-3.5
		c0.9-2,3.5-2.4,5-0.8c3.3,3.3,5.2,7.3,5.8,11.9C64.6,48.2,64.6,49.1,64.7,49.7z"/>
</g>
</svg>
