<?xml version="1.0" encoding="utf-8"?>
<!-- Generator: Adobe Illustrator 24.0.1, SVG Export Plug-In . SVG Version: 6.00 Build 0)  -->
<svg version="1.1" id="Layer_1" xmlns="http://www.w3.org/2000/svg" xmlns:xlink="http://www.w3.org/1999/xlink" x="0px" y="0px"
	 viewBox="0 0 100 100" style="enable-background:new 0 0 100 100;" xml:space="preserve">
<style type="text/css">
	.st0{fill:#D0EFF7;}
	.st1{fill:#B1D4DD;}
	.st2{fill:#FFFFFF;}
	.st3{opacity:0.5;fill:#FFFFFF;}
	.st4{fill:url(#SVGID_1_);}
	.st5{fill:#A5343A;}
</style>
<g>
	<path class="st0" d="M50,70.4c19.9,0,36.7-13.2,41.9-31.2C87.1,20.5,70.1,6.7,50,6.7S12.9,20.5,8.1,39.2
		C13.3,57.2,30.1,70.4,50,70.4z"/>
	<path class="st1" d="M50,93.3c23.9,0,43.3-19.4,43.3-43.3c0-3.7-0.5-7.4-1.4-10.8c-5.2,18-22,31.2-41.9,31.2S13.3,57.2,8.1,39.2
		C7.2,42.6,6.7,46.3,6.7,50C6.7,73.9,26.1,93.3,50,93.3z"/>
	<path class="st2" d="M50,1.6C23.3,1.6,1.6,23.3,1.6,50S23.3,98.4,50,98.4S98.4,76.7,98.4,50S76.7,1.6,50,1.6z M50,6.7
		c20.1,0,37.1,13.8,41.9,32.5c0.9,3.5,1.4,7.1,1.4,10.8c0,23.9-19.4,43.3-43.3,43.3S6.7,73.9,6.7,50c0-3.7,0.5-7.4,1.4-10.8
		C12.9,20.5,29.9,6.7,50,6.7z"/>
	<ellipse class="st3" cx="50" cy="16.3" rx="18.5" ry="9.3"/>
</g>
<g>
	<linearGradient id="SVGID_1_" gradientUnits="userSpaceOnUse" x1="27.3567" y1="50" x2="72.6433" y2="50">
		<stop  offset="0" style="stop-color:#B03730"/>
		<stop  offset="1" style="stop-color:#CC5859"/>
	</linearGradient>
	<path class="st4" d="M59.5,20.5H28.9c-0.9,0-1.5,0.7-1.5,2v55.9c0,0.4,0.7,1.1,1.5,1.1h42.2c0.9,0,1.5-0.7,1.5-1.1V34.2
		c0-0.7-0.1-1-0.3-1.1L60.1,20.8C59.9,20.6,59.7,20.5,59.5,20.5z"/>
	<polygon class="st5" points="60,20.7 60,33.1 72.5,33.1 	"/>
	<path class="st2" d="M41.1,55.6L41.1,55.6c-0.4,0-0.7-0.1-1-0.3c-1.1-0.8-1.2-1.7-1.2-2.4c0.2-1.7,2.3-3.5,6.3-5.3
		c1.6-3.5,3.1-7.7,4-11.3c-1.1-2.3-2.1-5.3-1.3-7c0.3-0.6,0.6-1.1,1.2-1.3c0.2-0.1,0.8-0.2,1.1-0.2c0.5,0,1,0.7,1.3,1.1
		c0.3,0.4,1,1.2-0.4,7.2c1.4,2.9,3.4,5.9,5.4,8c1.4-0.2,2.6-0.4,3.5-0.4c1.6,0,2.6,0.4,3.1,1.2c0.3,0.7,0.2,1.4-0.4,2.3
		c-0.6,0.8-1.4,1.3-2.3,1.3c-1.3,0-2.8-0.8-4.4-2.4c-3,0.6-6.5,1.7-9.3,3c-0.9,1.9-1.7,3.4-2.5,4.5C42.9,54.9,42,55.6,41.1,55.6z
		 M43.9,50.2c-2.3,1.3-3.2,2.3-3.2,2.9c0,0.1,0,0.4,0.5,0.7C41.2,53.8,42.2,53.4,43.9,50.2z M58.2,45.5c0.9,0.7,1.1,1,1.6,1
		c0.2,0,0.9,0,1.3-0.5c0.2-0.2,0.2-0.4,0.2-0.4c-0.1-0.1-0.3-0.2-1.2-0.2C59.6,45.4,58.9,45.4,58.2,45.5z M50.4,38.6
		c-0.8,2.6-1.7,5.4-2.8,8c2.2-0.9,4.6-1.6,6.8-2.1C53,42.8,51.5,40.7,50.4,38.6z M49.7,29.7c-0.1,0-1.4,1.9,0.1,3.4
		C50.8,30.8,49.8,29.7,49.7,29.7z"/>
	<g>
		<path class="st2" d="M38.8,72.4h-1.7V61.8h3.1c0.5,0,0.9,0.1,1.3,0.2c0.4,0.1,0.8,0.4,1.2,0.6s0.6,0.6,0.8,1
			c0.2,0.4,0.3,0.9,0.3,1.4c0,0.5-0.1,1-0.3,1.5c-0.2,0.4-0.4,0.8-0.8,1.1s-0.7,0.5-1.2,0.7c-0.5,0.2-1,0.2-1.5,0.2h-1.3L38.8,72.4
			L38.8,72.4z M38.8,63.1v4.2h1.6c0.2,0,0.4,0,0.6-0.1c0.2-0.1,0.4-0.2,0.6-0.4c0.2-0.2,0.3-0.4,0.4-0.7c0.1-0.3,0.2-0.7,0.2-1.1
			c0-0.2,0-0.4-0.1-0.6c0-0.2-0.1-0.4-0.3-0.6c-0.1-0.2-0.4-0.4-0.6-0.5s-0.6-0.2-1.1-0.2L38.8,63.1L38.8,63.1z"/>
		<path class="st2" d="M54.4,66.8c0,0.9-0.1,1.6-0.3,2.2s-0.4,1.1-0.7,1.6c-0.3,0.4-0.6,0.7-1,1c-0.4,0.2-0.7,0.4-1,0.5
			c-0.3,0.1-0.6,0.2-0.9,0.2c-0.3,0-0.5,0-0.6,0h-4V61.8h3.2c0.9,0,1.7,0.1,2.4,0.4s1.2,0.7,1.7,1.1c0.4,0.5,0.8,1,1,1.6
			C54.3,65.5,54.4,66.2,54.4,66.8z M49.3,71.1c1.2,0,2-0.4,2.5-1.1c0.5-0.7,0.8-1.8,0.8-3.3c0-0.4-0.1-0.9-0.2-1.3
			c-0.1-0.4-0.3-0.8-0.6-1.2s-0.7-0.6-1.2-0.8c-0.5-0.2-1.2-0.3-2-0.3h-1v8C47.6,71.1,49.3,71.1,49.3,71.1z"/>
		<path class="st2" d="M58.7,63.1v3.3h4.4v1.2h-4.4v4.8h-1.8V61.8h6.6v1.3H58.7z"/>
	</g>
</g>
</svg>
