<?xml version="1.0" encoding="utf-8"?>
<!-- Generator: Adobe Illustrator 24.0.1, SVG Export Plug-In . SVG Version: 6.00 Build 0)  -->
<svg version="1.1" id="Layer_1" xmlns="http://www.w3.org/2000/svg" xmlns:xlink="http://www.w3.org/1999/xlink" x="0px" y="0px"
	 viewBox="0 0 150 150" style="enable-background:new 0 0 150 150;" xml:space="preserve">
<style type="text/css">
	.st0{fill:#63A516;}
</style>
<g>
	<g>
		<path class="st0" d="M142.5,51.8c-3.9-2.3-6.3-7.8-5.4-12.2c0.9-4.4-2-8.7-6.4-9.6c-4.4-0.8-8.6-5.2-9.2-9.6
			c-0.7-4.5-4.8-7.5-9.3-6.8c-4.4,0.7-9.8-1.9-12-5.9c-2.1-4-7.1-5.4-11-3.2C85.2,6.7,79.3,6,75.9,3.1c-3.4-3-8.5-2.6-11.5,0.8
			c-2.9,3.4-8.8,4.9-13,3.2c-4.2-1.7-8.9,0.4-10.5,4.6c-1.6,4.2-6.6,7.6-11.1,7.4c-4.5-0.1-8.2,3.5-8.3,8c-0.1,4.5-3.6,9.4-7.9,10.8
			c-4.3,1.4-6.6,6.1-5.1,10.3c1.5,4.3-0.2,10-3.7,12.8c-3.5,2.8-4.1,7.9-1.2,11.4c2.9,3.5,3.3,9.5,0.9,13.3
			c-2.4,3.8-1.1,8.9,2.7,11.2c3.9,2.3,6.3,7.8,5.4,12.2c-0.9,4.4,2,8.7,6.4,9.6c4.4,0.8,8.6,5.2,9.2,9.6c0.7,4.5,4.8,7.5,9.3,6.8
			c4.4-0.7,9.8,1.9,12,5.9c2.1,4,7.1,5.4,11,3.2c3.9-2.2,9.9-1.6,13.3,1.4c3.4,3,8.5,2.6,11.5-0.8c2.9-3.4,8.8-4.9,13-3.2
			c4.2,1.7,8.9-0.4,10.5-4.6c1.6-4.2,6.6-7.6,11.1-7.4c4.5,0.1,8.2-3.5,8.3-8c0.1-4.5,3.6-9.4,7.9-10.8c4.3-1.4,6.6-6.1,5.1-10.3
			c-1.5-4.3,0.2-10,3.7-12.8c3.5-2.8,4.1-7.9,1.2-11.4c-2.9-3.5-3.3-9.5-0.9-13.3C147.6,59.1,146.4,54.1,142.5,51.8z M91.1,137.3
			c-34.8,8.9-70.2-12-79.1-46.7C3,55.8,24,20.3,58.7,11.4c34.8-8.9,70.2,12,79.1,46.7C146.8,92.9,125.9,128.3,91.1,137.3z"/>
	</g>
	<g>
		<path class="st0" d="M59.6,14.7c-33,8.5-52.8,42.1-44.3,75c8.5,33,42.1,52.8,75,44.3c33-8.5,52.8-42.1,44.3-75
			C126.1,26,92.5,6.2,59.6,14.7z M89.7,131.7c-31.7,8.2-64-10.9-72.1-42.6C9.4,57.4,28.5,25.1,60.1,17c31.7-8.2,64,10.9,72.1,42.6
			C140.4,91.3,121.3,123.5,89.7,131.7z"/>
	</g>
	<g>
		<path class="st0" d="M26.5,85.9c0,0.3-0.1,0.5-0.4,0.5l-1.7,0.3c-0.3,0-0.5-0.1-0.5-0.4l-0.3-1.7c0-0.3,0.1-0.5,0.4-0.5l1.7-0.3
			c0.3,0,0.5,0.1,0.5,0.4L26.5,85.9z M34.5,84.9c0,0.3-0.1,0.5-0.4,0.5l-6.4,0.7c-0.3,0-0.5-0.1-0.5-0.4l-0.3-1.7
			c0-0.3,0.1-0.5,0.4-0.5l6.3-1.3c0.3-0.1,0.5,0.1,0.5,0.4L34.5,84.9z"/>
		<path class="st0" d="M20,74.6c0-0.3,0.1-0.5,0.5-0.5l1.7,0c0.3,0,0.5,0.1,0.5,0.5l0.1,3.7c0,0.3,0.2,0.5,0.5,0.5l0.5,0
			c0.3,0,0.5-0.2,0.5-0.5l0-2.4c0-0.3,0.1-0.5,0.5-0.5l1.7,0c0.3,0,0.5,0.1,0.5,0.5l0,2.4c0,0.3,0.2,0.5,0.5,0.5l0.5,0
			c0.3,0,0.5-0.2,0.5-0.5l-0.1-3.7c0-0.3,0.1-0.5,0.5-0.5l1.7,0c0.3,0,0.5,0.1,0.5,0.5l0.1,6.4c0,0.3-0.2,0.5-0.5,0.5l-9.8,0.1
			c-0.3,0-0.5-0.2-0.5-0.5L20,74.6z"/>
		<path class="st0" d="M31.7,65.1c0.3-0.1,0.5,0.1,0.5,0.4l-0.3,1.9c0,0.3-0.2,0.4-0.4,0.5l-2.8,1c-0.1,0-0.1,0.1,0,0.2l2.2,1.9
			c0.2,0.2,0.3,0.3,0.2,0.6l-0.4,2c-0.1,0.4-0.3,0.5-0.6,0.2l-4.4-3.8c-0.1-0.1-0.1-0.1-0.2,0l-4.8,1.8c-0.3,0.1-0.5-0.1-0.5-0.4
			l0.3-1.9c0-0.3,0.2-0.4,0.4-0.5l2.3-0.8c0.1,0,0.1-0.1,0-0.2l-1.9-1.6c-0.2-0.2-0.2-0.3-0.2-0.6l0.3-1.9c0.1-0.3,0.3-0.4,0.6-0.2
			l4,3.3c0.1,0.1,0.1,0.1,0.2,0L31.7,65.1z"/>
		<path class="st0" d="M25.6,62.3c-0.9-0.4-3.4-1.5-2.1-4.9c1.2-3,3.4-2.7,4.5-2.3c0.2,0.1,0.3,0.3,0.3,0.5l-0.3,1.7
			c-0.1,0.3-0.3,0.5-0.7,0.4c-0.7-0.2-1.1-0.1-1.4,0.7c-0.4,1.1,0.2,1.4,1.3,1.8l2,0.8c1.1,0.4,1.8,0.6,2.2-0.4
			c0.3-0.8,0-1.1-0.6-1.5c-0.3-0.2-0.4-0.5-0.2-0.7l1-1.5c0.1-0.2,0.3-0.2,0.5-0.2c1.1,0.5,2.9,1.7,1.7,4.8
			c-1.3,3.4-3.9,2.6-4.8,2.2L25.6,62.3z"/>
		<path class="st0" d="M30,45.8c0.2-0.3,0.4-0.3,0.6-0.1l1.5,0.9c0.2,0.2,0.3,0.4,0.1,0.6l-2,3.1c-0.2,0.2-0.1,0.5,0.1,0.6l0.4,0.3
			c0.2,0.2,0.5,0.1,0.6-0.1l1.2-2c0.2-0.3,0.4-0.3,0.6-0.1l1.5,0.9c0.2,0.2,0.3,0.4,0.1,0.6l-1.3,2c-0.2,0.2-0.1,0.5,0.1,0.6
			l0.4,0.3c0.2,0.2,0.5,0.1,0.6-0.1l2-3.1c0.2-0.3,0.4-0.3,0.6-0.1l1.5,0.9c0.3,0.2,0.3,0.4,0.1,0.6l-3.4,5.4
			c-0.2,0.2-0.4,0.3-0.6,0.1l-8.3-5.2c-0.3-0.2-0.3-0.4-0.1-0.6L30,45.8z"/>
		<path class="st0" d="M33.3,41.8c0.2-0.2,0.4-0.2,0.6,0l5.3,4.8c0.2,0.2,0.5,0.2,0.6,0l2.3-2.5c0.2-0.2,0.4-0.2,0.6,0l1.3,1.1
			c0.2,0.2,0.2,0.4,0,0.6l-4,4.5c-0.2,0.2-0.4,0.2-0.6,0l-7.3-6.5c-0.2-0.2-0.2-0.4,0-0.6L33.3,41.8z"/>
		<path class="st0" d="M43.7,32.4c0.2-0.2,0.5-0.2,0.6,0.1l1,1.4c0.2,0.2,0.2,0.5-0.1,0.6l-2.9,2.3c-0.2,0.2-0.3,0.4-0.1,0.6
			l0.3,0.4c0.2,0.2,0.4,0.3,0.6,0.1l1.9-1.4c0.2-0.2,0.5-0.2,0.6,0.1l1,1.4c0.2,0.2,0.2,0.5-0.1,0.6l-1.9,1.4
			c-0.2,0.2-0.3,0.4-0.1,0.6l0.3,0.4c0.2,0.2,0.4,0.3,0.6,0.1l2.9-2.3c0.2-0.2,0.5-0.2,0.6,0.1l1,1.4c0.2,0.2,0.2,0.5-0.1,0.6
			l-5.1,3.9c-0.2,0.2-0.5,0.1-0.6-0.1l-6-7.7c-0.2-0.2-0.1-0.5,0.1-0.6L43.7,32.4z"/>
		<path class="st0" d="M48.9,29.4c0.2-0.1,0.4-0.1,0.6,0.1l4.1,3.6c0.1,0.1,0.2,0,0.1-0.1l-2.2-4.4c-0.1-0.3-0.1-0.5,0.2-0.6
			l1.5-0.8c0.3-0.1,0.5-0.1,0.6,0.2l4.3,8.8c0.1,0.3,0.1,0.5-0.2,0.6l-2,1c-0.2,0.1-0.4,0.1-0.6-0.1l-4.1-3.6
			c-0.1-0.1-0.2,0-0.1,0.1l2.2,4.4c0.1,0.3,0.1,0.5-0.2,0.6L51.6,40c-0.3,0.1-0.5,0.1-0.6-0.2L46.7,31c-0.1-0.3-0.1-0.5,0.2-0.6
			L48.9,29.4z"/>
		<path class="st0" d="M59.8,28.3c-0.1-0.3-0.3-0.4-0.6-0.3l-2.1,0.6c-0.3,0.1-0.5,0-0.6-0.3l-0.4-1.7c-0.1-0.3,0-0.5,0.3-0.6l7.6-2
			c0.3-0.1,0.5,0,0.6,0.3l0.4,1.7c0.1,0.3,0,0.5-0.3,0.6l-2.1,0.6c-0.3,0.1-0.4,0.3-0.3,0.6l1.8,6.9c0.1,0.3,0,0.5-0.3,0.6l-1.7,0.4
			c-0.3,0.1-0.5,0-0.6-0.3L59.8,28.3z"/>
		<path class="st0" d="M73.9,23.1c0.3,0,0.5,0.1,0.5,0.4l0.1,1.7c0,0.3-0.1,0.5-0.4,0.5l-3.7,0.2c-0.3,0-0.4,0.2-0.4,0.5l0,0.5
			c0,0.3,0.2,0.4,0.5,0.4l2.4-0.2c0.3,0,0.5,0.1,0.5,0.4l0.1,1.7c0,0.3-0.1,0.5-0.4,0.5L70.7,30c-0.3,0-0.4,0.2-0.4,0.5l0,0.5
			c0,0.3,0.2,0.4,0.5,0.4l3.7-0.2c0.3,0,0.5,0.1,0.5,0.4l0.1,1.7c0,0.3-0.1,0.5-0.4,0.5l-6.4,0.4c-0.3,0-0.5-0.1-0.5-0.4L67.1,24
			c0-0.3,0.1-0.5,0.4-0.5L73.9,23.1z"/>
		<path class="st0" d="M78.7,31.5c0.3,0,0.4,0.2,0.4,0.5L79,33.7c0,0.3-0.2,0.4-0.5,0.4l-1.7-0.1c-0.3,0-0.4-0.2-0.4-0.5l0.1-1.7
			c0-0.3,0.2-0.4,0.5-0.4L78.7,31.5z M79.7,23.4c0.3,0,0.5,0.2,0.4,0.5l-0.8,6.4c0,0.3-0.2,0.4-0.5,0.4l-1.7-0.1
			c-0.3,0-0.4-0.2-0.4-0.5l0.2-6.4c0-0.3,0.2-0.4,0.5-0.4L79.7,23.4z"/>
		<path class="st0" d="M84.6,38.3c-0.3-0.1-0.4-0.3-0.3-0.6l2.1-6.1c0.1-0.3,0.3-0.4,0.6-0.3l1.6,0.5c0.3,0.1,0.4,0.3,0.3,0.6
			l-1.6,6.2c-0.1,0.3-0.3,0.4-0.6,0.3L84.6,38.3z M87.2,30.6c-0.3-0.1-0.4-0.3-0.3-0.6l0.5-1.6c0.1-0.3,0.3-0.4,0.6-0.3l1.6,0.5
			c0.3,0.1,0.4,0.3,0.3,0.6l-0.5,1.6c-0.1,0.3-0.3,0.4-0.6,0.3L87.2,30.6z"/>
		<path class="st0" d="M97.1,32.5c-0.3-0.1-0.4-0.3-0.3-0.6c0.2-0.6-0.1-1.2-0.8-1.5c-0.5-0.3-1-0.1-1.1,0.2
			c-0.3,1.2,4.1,3.2,2.6,6.4c-0.2,0.4-1.8,2.6-5.1,1.1c-2.9-1.4-2.6-3.6-2.2-4.7c0.1-0.3,0.3-0.3,0.6-0.3l1.7,0.4
			c0.3,0.1,0.4,0.3,0.3,0.6c-0.3,0.7,0.1,1.3,0.7,1.6c0.7,0.3,1.4,0.2,1.5-0.3c0.3-1.3-4-3-2.5-6.2c0.2-0.4,1.6-2.7,4.7-1.3
			c2.8,1.3,2.6,3.5,2.2,4.5c-0.1,0.3-0.3,0.3-0.6,0.3L97.1,32.5z"/>
		<path class="st0" d="M104.5,32.5c0.3,0.2,0.3,0.4,0.1,0.6l-5.4,8.2c-0.2,0.2-0.4,0.3-0.6,0.1l-1.4-0.9c-0.2-0.2-0.3-0.4-0.1-0.6
			l5.4-8.2c0.2-0.3,0.4-0.3,0.6-0.1L104.5,32.5z"/>
		<path class="st0" d="M104.7,36.7c0.7-0.8,2.6-2.6,5.3-0.3c2.4,2.1,1.4,4.1,0.7,5c-0.2,0.2-0.4,0.3-0.6,0.1l-1.5-0.9
			c-0.3-0.2-0.3-0.4-0.1-0.6c0.4-0.6,0.5-1.1-0.1-1.7c-0.8-0.7-1.4-0.3-2.2,0.6l-1.5,1.7c-0.8,0.9-1.2,1.5-0.3,2.2
			c0.8,0.7,1.4,0.3,1.9-0.3l-0.7-0.6c-0.2-0.2-0.2-0.4,0-0.6l0.8-0.9c0.2-0.2,0.4-0.2,0.6,0l2.3,2c0.2,0.2,0.2,0.4,0,0.6l-1.4,1.5
			c-0.7,0.8-2.6,2.6-5.3,0.3c-2.7-2.4-1.1-4.6-0.4-5.3L104.7,36.7z"/>
		<path class="st0" d="M116,43c0.2,0.2,0.2,0.5-0.1,0.6l-4.7,3.6c-0.9,0.7-1.5,1.2-0.8,2.1c0.7,0.9,1.3,0.5,2.2-0.2l4.7-3.6
			c0.2-0.2,0.5-0.1,0.6,0.1l1,1.4c0.2,0.2,0.2,0.5-0.1,0.6l-5.4,4.1c-0.8,0.6-3.1,2.1-5.3-0.8c-2.2-2.9-0.2-4.7,0.6-5.3l5.4-4.1
			c0.2-0.2,0.5-0.1,0.6,0.1L116,43z"/>
		<path class="st0" d="M124,56.1c0.1,0.3,0.1,0.5-0.2,0.6l-1.5,0.8c-0.3,0.1-0.5,0.1-0.6-0.2l-1.7-3.3c-0.1-0.3-0.3-0.3-0.6-0.2
			l-0.4,0.2c-0.3,0.1-0.3,0.4-0.2,0.6l1.1,2.1c0.1,0.3,0.1,0.5-0.2,0.6l-1.5,0.8c-0.3,0.1-0.5,0.1-0.6-0.2l-1.1-2.1
			c-0.1-0.3-0.3-0.3-0.6-0.2l-0.4,0.2c-0.3,0.1-0.3,0.4-0.2,0.6l1.7,3.3c0.1,0.3,0.1,0.5-0.2,0.6l-1.5,0.8c-0.3,0.1-0.5,0.1-0.6-0.2
			l-2.9-5.7c-0.1-0.3-0.1-0.5,0.2-0.6l8.7-4.4c0.3-0.1,0.5-0.1,0.6,0.2L124,56.1z"/>
		<path class="st0" d="M118,73.2c-0.3,0.1-0.5-0.1-0.6-0.4l-0.3-1.7c-0.1-0.3,0.1-0.5,0.4-0.5l1.3-0.2c0.3-0.1,0.4-0.2,0.4-0.5
			l-0.2-1.3c-0.1-0.3-0.2-0.4-0.5-0.4l-1.3,0.2c-0.3,0.1-0.5-0.1-0.5-0.4l-0.3-1.7c-0.1-0.3,0.1-0.5,0.4-0.5l6.4-1.1
			c1.9-0.3,4-0.4,4.6,3c0.6,3.4-1.4,4-3.2,4.4L118,73.2z M123.9,69.5c0.7-0.1,1.1-0.3,0.9-1.3c-0.2-1-0.6-1-1.3-0.9l-1.6,0.3
			c-0.3,0-0.4,0.2-0.4,0.5l0.2,1.3c0.1,0.3,0.2,0.4,0.5,0.4L123.9,69.5z"/>
		<path class="st0" d="M124.4,79.7c-0.1-0.3,0.1-0.5,0.4-0.5c0.6-0.1,1-0.6,1-1.3c0-0.6-0.3-1-0.7-0.9c-1.2,0.2-1.2,5-4.7,5
			c-0.5,0-3.2-0.6-3.1-4.2c0-3.2,2.2-3.9,3.4-3.9c0.3,0,0.4,0.1,0.5,0.4l0.4,1.7c0.1,0.3-0.1,0.5-0.4,0.5c-0.7,0.1-1.2,0.6-1.2,1.3
			c0,0.7,0.4,1.3,0.8,1.2c1.3-0.3,1.1-4.9,4.6-4.8c0.5,0,3.2,0.3,3.1,3.7c0,3.1-2.1,3.8-3.2,3.9c-0.3,0-0.4-0.1-0.5-0.4L124.4,79.7z
			"/>
		<path class="st0" d="M127.4,86.4c0,0.3-0.2,0.4-0.5,0.4l-9.7-1.5c-0.3,0-0.4-0.2-0.4-0.5l0.3-1.7c0-0.3,0.2-0.4,0.5-0.4l9.7,1.5
			c0.3,0,0.4,0.2,0.4,0.5L127.4,86.4z M129.6,85.9c-0.1-0.2-0.1-0.4-0.1-0.6l0.2-1c0.1-0.4,0.3-0.5,0.6-0.2l1.2,1.4
			c0.1,0.2,0.2,0.4,0.2,0.6l-0.2,1.6c-0.1,0.4-0.4,0.5-0.6,0.1L129.6,85.9z"/>
		<path class="st0" d="M118.5,89.7c-0.1,0.3-0.3,0.4-0.6,0.3l-1.7-0.4c-0.3-0.1-0.4-0.3-0.3-0.6l0.4-1.7c0.1-0.3,0.3-0.4,0.6-0.3
			l1.7,0.4c0.3,0.1,0.4,0.3,0.3,0.6L118.5,89.7z M126.2,92c-0.1,0.3-0.3,0.4-0.6,0.3l-6.1-1.9c-0.3-0.1-0.4-0.3-0.3-0.6l0.4-1.7
			c0.1-0.3,0.3-0.4,0.6-0.3l6.3,1.3c0.3,0.1,0.4,0.3,0.3,0.6L126.2,92z"/>
	</g>
	<g>
		<path class="st0" d="M73.5,49.4c1.2,0,2.5,0,3.7,0c0.8,0.1,1.7,0.2,2.5,0.3c6.3,0.9,11.8,3.4,16.6,7.6c5.6,4.9,9.1,11.1,10.4,18.4
			c0.2,1.2,0.3,2.4,0.5,3.6c0,1.2,0,2.5,0,3.7c-0.1,0.8-0.2,1.6-0.3,2.4c-0.9,6.2-3.3,11.8-7.5,16.5c-7.6,8.5-17.1,12-28.4,10.7
			c-6.3-0.8-11.9-3.4-16.7-7.6C48.8,100.2,45.3,94,44,86.7c-0.2-1.2-0.3-2.4-0.5-3.6c0-1.2,0-2.5,0-3.7c0-0.2,0.1-0.4,0.1-0.7
			c0.2-1.1,0.2-2.3,0.5-3.4c1.2-6.3,4.1-11.8,8.6-16.4c4.8-4.8,10.5-7.8,17.2-9C71.1,49.7,72.3,49.6,73.5,49.4z M103.3,81.2
			c0-15.4-12.5-27.8-27.9-27.8c-15.4,0-27.9,12.5-27.9,27.9c0,15.4,12.5,27.8,27.9,27.8C90.8,109.1,103.3,96.6,103.3,81.2z"/>
	</g>
	<g>
		<path class="st0" d="M75.2,103.5c-9.5,0-17.3-7.8-17.3-17.3h5c0,6.8,5.5,12.3,12.3,12.3c6.8,0,12.3-5.5,12.3-12.3h5
			C92.6,95.7,84.8,103.5,75.2,103.5z"/>
	</g>
	<g>
		<polygon class="st0" points="62.1,67.2 63.8,70.6 67.5,71.2 64.8,73.9 65.5,77.6 62.1,75.9 58.7,77.6 59.3,73.9 56.6,71.2 
			60.4,70.6 		"/>
	</g>
	<g>
		<polygon class="st0" points="88.9,67.2 90.6,70.6 94.4,71.2 91.6,73.9 92.3,77.6 88.9,75.9 85.5,77.6 86.2,73.9 83.4,71.2 
			87.2,70.6 		"/>
	</g>
</g>
</svg>
